<svg width="200pt" height="200pt" viewBox="0 0 200 200" xmlns="http://www.w3.org/2000/svg"><path d="M12.97 52.846a3.896 3.896 0 0 1-3.77-2.905c-.54-2.07.713-4.184 2.796-4.722l77.568-19.981c2.083-.537 4.21.708 4.751 2.778.54 2.07-.712 4.186-2.795 4.722L13.95 52.72a3.997 3.997 0 0 1-.98.127zM110.86 27.663a3.896 3.896 0 0 1-3.772-2.907c-.54-2.07.714-4.184 2.797-4.72L187.171.124c2.088-.537 4.21.708 4.75 2.778.54 2.07-.712 4.185-2.795 4.722l-77.285 19.91c-.33.082-.659.128-.981.128zM100.558 200c-2.156 0-3.9-1.733-3.9-3.875V36.13c0-2.142 1.744-3.875 3.9-3.875s3.9 1.733 3.9 3.875v159.995c0 2.142-1.744 3.875-3.9 3.875z"/><path d="M136.764 200H64.355c-2.156 0-3.9-1.731-3.9-3.873 0-2.143 1.744-3.875 3.9-3.875h72.41c2.155 0 3.899 1.732 3.899 3.875 0 2.142-1.744 3.873-3.9 3.873zM100.558 40.001c-6.935 0-12.572-5.601-12.572-12.493 0-6.891 5.636-12.493 12.572-12.493 6.935 0 12.572 5.601 12.572 12.493s-5.637 12.493-12.572 12.493zm0-17.236c-2.635 0-4.775 2.126-4.775 4.744s2.14 4.744 4.775 4.744 4.773-2.126 4.773-4.744-2.139-4.744-4.773-4.744zM132.115 65.671c-.752 0-1.51-.216-2.178-.664a3.866 3.866 0 0 1-1.047-5.38l25.198-37.03c1.577-3.233 5.648-4.922 9.442-3.86 2.273.638 4.078 2.171 4.925 4.158l23.204 36.454a3.863 3.863 0 0 1-1.208 5.348 3.918 3.918 0 0 1-5.381-1.201l-23.411-36.78a3.574 3.574 0 0 1-.278-.528.873.873 0 0 0-.357 0c-.073.14-.15.272-.24.399l-25.433 37.38a3.903 3.903 0 0 1-3.236 1.704zM40.626 164.908c-16.656 0-31.105-9.52-37.722-24.876-5.381-12.47-3.113-27.415 5.387-35.534 6.706-6.405 16.258-7.374 26.213-2.664.946.45 1.837.903 2.623 1.308 1.164.598 2.751 1.41 3.353 1.51.602-.1 2.183-.912 3.353-1.51a80.89 80.89 0 0 1 2.624-1.308c5.837-2.762 17-6.099 26.157 2.596 8.505 8.081 10.806 23.072 5.465 35.637-6.49 15.277-20.794 24.797-37.332 24.841zM22.41 106.605c-3.348 0-6.29 1.163-8.712 3.477-6.05 5.778-7.643 17.59-3.626 26.895 5.37 12.454 17.073 20.18 30.557 20.18h.095c13.352-.032 24.914-7.737 30.167-20.107 3.995-9.404 2.385-21.273-3.67-27.024-4.34-4.124-10.36-4.539-17.417-1.2-.836.397-1.633.802-2.4 1.194-2.492 1.28-4.641 2.381-6.931 2.381-2.289 0-4.44-1.102-6.93-2.38-.768-.393-1.56-.803-2.4-1.195-3.136-1.485-6.071-2.226-8.74-2.226z"/><path d="M52.63 148.5a3.902 3.902 0 0 1-3.298-1.8 3.857 3.857 0 0 1 1.208-5.347c4.636-2.917 9.944-8.214 8.924-16.878-.25-2.125 1.282-4.05 3.42-4.3 2.145-.25 4.077 1.273 4.328 3.398 1.16 9.881-3.276 18.521-12.5 24.322-.645.41-1.37.604-2.082.604zM41.204 112.407c-2.139 0-3.882-1.716-3.898-3.847-.106-14.142 8.756-19.86 11.479-21.277a3.918 3.918 0 0 1 5.264 1.634 3.868 3.868 0 0 1-1.642 5.23c-6.845 3.565-7.32 11.89-7.297 14.354.016 2.14-1.715 3.884-3.871 3.902h-.029zM148.324 126.815h-.005l-23.256-.046c-2.156 0-3.893-1.743-3.893-3.88s1.748-3.868 3.9-3.868h.004l23.256.044a3.888 3.888 0 0 1 3.893 3.88c0 2.137-1.75 3.87-3.9 3.87zM196.025 126.819a4.15 4.15 0 0 1-.685-.061c-1.014-.094-5.86-.088-6.772-.011-2.152.183-4.039-1.383-4.24-3.503a3.865 3.865 0 0 1 3.488-4.207c.8-.078 7.541-.216 9.072.132 2.1.482 3.41 2.557 2.925 4.644a3.897 3.897 0 0 1-3.798 3.006zm-.875-.099c.04.011.09.022.146.027-.05-.011-.095-.022-.146-.027zM125.302 100.112c-2.156 0-3.9-1.732-3.9-3.875v-2.214c0-18.077 15.564-30.227 38.73-30.227 23.166 0 38.727 12.15 38.727 30.227v2.214c0 2.143-1.742 3.875-3.898 3.875zm3.966-7.75h61.715c-.83-9.956-9.24-20.817-30.86-20.817-21.616 0-30.026 10.86-30.857 20.817z"/><path d="m172.114 131.44-3.104-.023a3.92 3.92 0 0 1-2.66-1.068l-17.435-16.522h-23.702c-2.156 0-3.898-1.733-3.898-3.875s1.742-3.874 3.898-3.874h25.26c1.004 0 1.967.382 2.692 1.068l17.082 16.186 10.579-16.364a3.918 3.918 0 0 1 3.28-1.781h11.161c2.156 0 3.9 1.732 3.9 3.875 0 2.14-1.744 3.873-3.9 3.873h-9.027l-10.812 16.723a3.903 3.903 0 0 1-3.28 1.781zM76.327 177.042H4.601c-2.156 0-3.9-1.733-3.9-3.875s1.744-3.875 3.9-3.875h71.726c2.156 0 3.9 1.733 3.9 3.875s-1.744 3.875-3.9 3.875zM12.344 95.56c-.752 0-1.51-.215-2.178-.664a3.865 3.865 0 0 1-1.047-5.38l25.198-37.03c1.576-3.232 5.648-4.916 9.442-3.858 2.273.637 4.078 2.169 4.925 4.158L71.888 89.24a3.863 3.863 0 0 1-1.208 5.347 3.917 3.917 0 0 1-5.382-1.202l-23.41-36.78a3.637 3.637 0 0 1-.278-.527.846.846 0 0 0-.357 0c-.073.138-.15.272-.24.399L15.58 93.855a3.899 3.899 0 0 1-3.236 1.705zM196.102 140.508h-71.726c-2.156 0-3.898-1.733-3.898-3.875s1.742-3.875 3.898-3.875h71.726c2.154 0 3.898 1.732 3.898 3.875s-1.744 3.875-3.898 3.875z"/></svg>