<svg width="200pt" height="200pt" viewBox="0 0 200 200" xmlns="http://www.w3.org/2000/svg"><path d="M100 0a100 100 0 1 0 0 200 100.002 100.002 0 0 0 100-100 100.129 100.129 0 0 0-29.325-70.676A100.13 100.13 0 0 0 100 0zm0 4.908a94.756 94.756 0 0 1 68.246 28.983l-39.878 36.663-37.57-45.474a9.251 9.251 0 0 0-13.08 0L45.814 56.983a9.306 9.306 0 0 0 .17 13.25l43.708 35.904-61.35 56.443A94.997 94.997 0 0 1 100 4.905zm40.909 92.197a16.445 16.445 0 0 1-8.215 25.364 16.447 16.447 0 0 1-14.78-2.393zm-23.584 16.639-6.208-6.209 17.178-17.178 6.184 6.185zm10.578-36.05v.001a4.394 4.394 0 0 1 0 6.135l-23.24 23.24a4.423 4.423 0 0 1-3.183 1.25 4.43 4.43 0 0 1-3.124-1.398l-1.202-.98 30.725-28.247zM93.35 102.797l-12.565-10.38c1.546-13.227 6.945-15.755 14.307-19.191 1.964-.933 4.025-1.866 6.135-3.092a19.234 19.234 0 0 0 9.398-13.3l14.087 17.177zm12.86-51.363a15.62 15.62 0 0 1-1.656 8.26 15.615 15.615 0 0 1-5.707 6.194c-1.94 1.104-3.877 2.013-5.767 2.871-7.363 3.412-14.258 6.674-16.687 20.025L49.398 66.526v.002a4.343 4.343 0 0 1 0-6.135L81.301 28.49a4.319 4.319 0 0 1 5.988-.171zM100 195.092a94.756 94.756 0 0 1-68.246-28.983l61.768-56.81 1.522 1.25a9.29 9.29 0 0 0 6.552 2.7 9.15 9.15 0 0 0 6.012-2.281l6.235 6.208-1.252 1.276-.001.001a2.456 2.456 0 0 0 0 3.46 21.34 21.34 0 0 0 20.606 5.53 21.337 21.337 0 0 0 9.58-35.69 2.457 2.457 0 0 0-1.743-.736 2.454 2.454 0 0 0-1.743.736l-1.251 1.251-6.135-6.209a9.227 9.227 0 0 0 2.281-6.035 8.93 8.93 0 0 0-2.454-6.356l40.099-36.81A94.993 94.993 0 0 1 100 195.091zm35.78-77.5a1.865 1.865 0 1 1 2.626 0 1.89 1.89 0 0 1-2.626 0zm3.239-5.324a1.842 1.842 0 0 1 1.35-3.092 1.84 1.84 0 1 1-1.35 3.092zm-8.59 8.59h.002a1.842 1.842 0 0 1 1.299-3.143 1.84 1.84 0 0 1 1.3 3.143 1.84 1.84 0 0 1-2.6-.05zM97.545 53.372a1.837 1.837 0 0 1 0 2.626 1.817 1.817 0 0 1-2.6 0 1.847 1.847 0 1 1 2.6-2.626zM77.153 73.79v-.002c.52.53.67 1.318.385 2.003a1.84 1.84 0 1 1-3.011-2.003 1.842 1.842 0 0 1 2.602 0zm-7.51-16.123v-.002a1.887 1.887 0 0 1 0 2.626 1.837 1.837 0 0 1-2.626 0 1.867 1.867 0 0 1-.13-2.756 1.867 1.867 0 0 1 2.756.13zm9.668 3.238h.002a1.849 1.849 0 1 1-2.626 2.6 1.812 1.812 0 0 1 0-2.6 1.837 1.837 0 0 1 2.6 0zm-4.908-17.177h.002a1.866 1.866 0 1 1 2.626 0 1.893 1.893 0 0 1-2.528 0zm-1.84 8.27a1.842 1.842 0 1 1 3.011-2.004 1.842 1.842 0 0 1-.385 2.003 1.84 1.84 0 0 1-2.526 0zm13.056.318c.52.529.671 1.318.385 2.002a1.84 1.84 0 1 1-3.011-2.003 1.844 1.844 0 0 1 2.724 0zM69.522 68.413v.002a1.865 1.865 0 1 1-2.626 0 1.884 1.884 0 0 1 2.723 0zm-9.668-7.51-.002.002a1.84 1.84 0 1 1-2.626 0 1.844 1.844 0 0 1 2.725 0zm26.943-26.846a1.865 1.865 0 1 1-2.626 0 1.89 1.89 0 0 1 2.626 0zm.589 7.51a1.866 1.866 0 1 1 0 2.626 1.89 1.89 0 0 1 0-2.626zm6.454 7.362h.001a1.847 1.847 0 1 1 2.626-2.601 1.817 1.817 0 0 1 0 2.602 1.842 1.842 0 0 1-2.626 0zm-3.828 11.976a1.84 1.84 0 1 1-2.625 2.58 1.84 1.84 0 0 1 2.625-2.58zm38.553 76.614a1.866 1.866 0 1 1 2.626 0 1.89 1.89 0 0 1-2.626 0zm3.044 3.46a1.841 1.841 0 1 1 2.605 2.601 1.841 1.841 0 0 1-2.605-2.601zm-7.584 2.602a1.842 1.842 0 0 1 1.301-3.143 1.841 1.841 0 0 1 1.301 3.143 1.817 1.817 0 0 1-2.602 0zm-6.085-1.522a1.84 1.84 0 1 1 2.624-2.58 1.84 1.84 0 0 1-2.624 2.58zm0 7.607a1.863 1.863 0 0 1 1.313-3.19 1.866 1.866 0 0 1 1.313 3.19 1.89 1.89 0 0 1-2.626 0zm9.055-1.104a1.862 1.862 0 0 1 3.19 1.313 1.866 1.866 0 0 1-3.19 1.313 1.887 1.887 0 0 1 0-2.626zm4.148 7.583h-.002a1.863 1.863 0 0 1-1.313 3.19 1.866 1.866 0 0 1-1.313-3.19 1.892 1.892 0 0 1 2.676 0zm-9.105 0a1.866 1.866 0 1 1-2.626 0 1.885 1.885 0 0 1 2.674 0zm-7.56-4.613a1.841 1.841 0 1 1-2.6 0 1.812 1.812 0 0 1 2.6 0zm-4.121-6.503a1.842 1.842 0 0 1 1.3-3.143 1.839 1.839 0 0 1 1.3 3.143 1.815 1.815 0 0 1-2.6.073zm-3.461 6.503a1.84 1.84 0 1 1-2.625 2.58 1.84 1.84 0 0 1 2.625-2.58zm4.54 7.583v-.001a1.841 1.841 0 1 1-2.601 0 1.843 1.843 0 0 1 2.602.073zm7.608 7.14a1.842 1.842 0 0 1-3.143-1.3 1.839 1.839 0 0 1 3.143-1.3 1.84 1.84 0 0 1 0 2.6zm9.103-2.453a1.812 1.812 0 0 1 0 2.6 1.841 1.841 0 1 1 0-2.6zm9.105 0a1.841 1.841 0 1 1-2.602 0 1.818 1.818 0 0 1 2.602 0zm-4.54 6.062a1.866 1.866 0 1 1-3.038 2.034 1.862 1.862 0 0 1 .412-2.034 1.89 1.89 0 0 1 2.626-.05zm-10.626 1.472a1.863 1.863 0 0 1-1.313 3.189 1.866 1.866 0 0 1-1.313-3.19 1.887 1.887 0 0 1 2.626 0zm-10.651-3.044h.001a1.84 1.84 0 1 1-2.602 2.603 1.84 1.84 0 0 1 2.602-2.603zm4.563 7.607H116a1.818 1.818 0 0 1 0 2.602 1.841 1.841 0 1 1 0-2.602z"/></svg>