<svg width="200pt" height="200pt" viewBox="0 0 200 200" xmlns="http://www.w3.org/2000/svg"><path d="M82.889 140.667c1.111-.222 2 .444 2.223 1.333.222.888-.445 2-1.333 2.223-.888.221-2-.445-2.223-1.334-.222-.89.222-2 1.333-2.222zm-2.888-7.112c1.112 0 1.778-.888 1.778-1.778 0-1.112-.888-1.778-1.778-1.778-1.111 0-1.778.888-1.778 1.778s.667 1.778 1.778 1.778zM75.556 140c1.111 0 1.778-.888 1.778-1.778 0-1.111-.889-1.778-1.778-1.778s-1.778.888-1.778 1.778c.001.888.668 1.778 1.778 1.778zM200 100c0 55.333-44.667 100-100 100S0 155.333 0 100 44.667 0 100 0c55.111 0 100 44.889 100 100zM54.444 138V90.224C39.777 81.556 34.89 62.667 43.555 48.001c5.556-9.333 15.779-15.11 26.666-15.11 13.778 0 20 6.443 27.556 16.444a1.7 1.7 0 0 0 1.112.445c.445 0 .888-.221 1.111-.445 7.112-8.888 13.11-16.444 27.556-16.444 10.89 0 20.666 5.777 26 14.443l14.889-13.777c-18-18.668-42.667-29.112-68.444-29.112-22.89 0-45.111 8.221-62.667 23.333-39.778 34.445-44.222 94.889-9.555 134.667zm4.223-50.444v46.445l91.556-84c-4.668-8-13.335-13.11-22.667-13.11-11.778 0-16.667 5.333-24.222 14.888-1.112 1.333-2.666 2.223-4.444 2.223s-3.333-.888-4.444-2.223C87.334 42.668 82.223 36.89 70.224 36.89c-14.667 0-26.445 12-26.445 26.666 0 9.779 5.334 18.667 14 23.334zm0 76a2.467 2.467 0 0 0 2.445 2.445h75.11a2.467 2.467 0 0 0 2.445-2.445v-76l1.112-.666C151.778 80.446 156.667 66.224 152 54l-93.333 86zm112.667-127.11-15.779 14.443c1.778 3.778 2.666 8.222 2.666 12.667 0 10.89-5.777 21.111-15.11 26.667v73.555c0 3.778-3.111 6.889-6.889 6.889h-75.11c-3.778 0-6.889-3.111-6.889-6.889V144l-23.779 21.778C48.667 184.89 73.778 195.557 100 195.557c23.555 0 46.222-8.667 63.778-24.222 39.333-35.111 42.666-95.556 7.556-134.889z"/></svg>