<svg width="200pt" height="200pt" viewBox="0 0 200 200" xmlns="http://www.w3.org/2000/svg"><path d="M122.765 143.655a3.306 3.306 0 0 0 4.658-.413 35.855 35.855 0 0 0 8.186-21.128 35.856 35.856 0 0 0-6.119-21.814 3.307 3.307 0 1 0-5.468 3.72 29.2 29.2 0 0 1-1.687 34.984 3.308 3.308 0 0 0 .43 4.65z"/><path d="M46.096 184.2a99.326 99.326 0 0 0 53.707 15.818 100.612 100.612 0 0 0 21.638-2.36A100.001 100.001 0 0 0 78.563 2.307 100.004 100.004 0 0 0 2.323 121.414a99.352 99.352 0 0 0 43.77 62.788zm145.11-104.25v.002a93.385 93.385 0 0 1-71.184 111.235 94.131 94.131 0 0 1-20.207 2.216 93.83 93.83 0 0 1-72.002-34.107l21.548-16.458a55.759 55.759 0 0 0 104.892-10.731 55.76 55.76 0 0 0-8.154-44.012l-8.604-12.609 38.709-29.57v-.002a93.279 93.279 0 0 1 15.011 34.038zM54.779 138.655l77.47-59.146 8.376 12.3a49.139 49.139 0 0 1-78.367 59.118l-2.542 2.117 2.542-2.117a48.739 48.739 0 0 1-7.462-12.254zm-2.245-6.614-.001.001a49.311 49.311 0 0 1 6.842-40.258L100 32.195l28.5 41.842zM21.345 49.63A92.803 92.803 0 0 1 46.57 23.32 92.757 92.757 0 0 1 79.98 8.756a94.131 94.131 0 0 1 20.207-2.216 93.83 93.83 0 0 1 72.002 34.107L133.77 69.999 104.55 27.118a5.504 5.504 0 0 0-9.095 0L53.923 88.082a55.376 55.376 0 0 0-9.612 34.081 56.008 56.008 0 0 0 2.559 14.242L23.798 154.03a93.554 93.554 0 0 1-17.144-51.825 93.557 93.557 0 0 1 14.692-52.572z"/></svg>