<svg width="100pt" height="100pt" viewBox="0 0 100 100" xmlns="http://www.w3.org/2000/svg"><path d="M54.115 39.105c-.767-.3-1.356-.49-1.903-.764-.185-.092-.314-.378-.381-.603-.065-.22-.017-.472-.017-.711V1.855h2.274v3.602c.693-.6 1.206-1.071 1.747-1.507C59.408 1.079 63.275.302 67.5 2.375c1.622.796 3.233 1.618 4.802 2.51 3.35 1.902 6.656 1.685 9.854-.252 2.147-1.3 4.176-2.8 6.284-4.229.013.118.056.333.058.546.002 8.309.006 16.619-.01 24.928-.001.317-.101.754-.32.93-2.334 1.89-4.78 3.601-7.633 4.643-3.099 1.134-6.047.704-8.908-.797-1.6-.84-3.194-1.689-4.799-2.52-3.206-1.661-6.272-1.324-9.212.68-.22.15-.436.309-.651.466-1.957 1.432-3.367 3.078-2.887 5.8.218 1.236.037 2.543.037 4.025zm.058-15.666c.42-.315.74-.562 1.068-.798.362-.26.72-.524 1.1-.755 4.3-2.618 8.63-3.02 13.059-.267 1.305.81 2.7 1.48 4.086 2.152 2.247 1.088 4.57 1.187 6.73-.09 2.085-1.231 4.037-2.693 6.014-4.101.216-.154.298-.616.3-.938.023-2.77.014-5.542.012-8.312 0-.227-.022-.453-.039-.786-.326.209-.558.377-.807.514-1.734.959-3.424 2.016-5.22 2.84-2.842 1.3-5.695 1.14-8.459-.358-1.328-.72-2.672-1.412-4.003-2.127-5.028-2.701-9.4-1.408-13.274 2.09-.453.409-.644.849-.638 1.472.031 2.86.014 5.721.018 8.581-.001.253.03.506.053.883z"/><path d="M67.28 34.939v1.239c0 7.923-.02 15.847.023 23.77.005 1.026-.21 1.74-1.12 2.28-1.956 1.163-3.802 2.534-5.823 3.563-3.256 1.657-6.576 1.453-9.808-.222-1.683-.872-3.355-1.767-5.037-2.638-3.367-1.746-6.515-1.221-9.501.94-.192.139-.374.291-.568.43-1.874 1.334-2.73 2.968-2.687 5.46.167 9.738.069 19.48.069 29.221V100h-2.23V36.696h2.184v3.647c.364-.323.57-.496.767-.68 2.578-2.389 5.475-3.946 9.127-3.565 1.901.198 3.559 1.06 5.219 1.915 1.212.624 2.406 1.282 3.613 1.913 2.838 1.486 5.727 1.504 8.495-.042 2.06-1.15 3.968-2.577 5.934-3.893.41-.275.779-.609 1.342-1.053zM32.83 51.523c4.684-4.025 9.575-4.844 14.958-1.723v-7.5c0-2.044 0-2.044-1.859-2.93-1.642-.783-3.308-1.43-5.192-1.188-3.31.424-5.658 2.381-7.71 4.822a.955.955 0 0 0-.19.567c-.011 2.583-.007 5.165-.007 7.952zm17.831-9.671c0 3.187-.008 6.158.018 9.13.002.207.208.499.4.606 2.77 1.55 5.61 1.93 8.42.187 1.785-1.107 3.481-2.362 5.17-3.614.312-.232.551-.769.56-1.172.053-2.263.029-4.528.024-6.792 0-.276-.038-.553-.069-.952-4.458 3.121-8.95 5.46-14.523 2.607zm-2.878 19.906c0-2.662.005-5.125-.009-7.587 0-.15-.098-.369-.216-.437-2.053-1.17-4.188-2.144-6.616-2.005-3.09.178-5.572 1.669-7.669 3.862-.25.261-.419.713-.425 1.079-.038 2.204-.02 4.407-.016 6.613 0 .214.043.427.079.75 4.42-4.433 9.247-5.721 14.872-2.275zm2.881-6.344c0 2.636-.006 5.071.013 7.506 0 .167.148.405.295.484 1.89 1.03 3.888 1.67 6.053 1.258 3.056-.58 5.541-2.324 7.957-4.164.155-.119.257-.406.258-.615a688.13 688.13 0 0 0-.004-7.24c0-.066-.084-.13-.136-.206-4.325 3.125-8.623 6.285-14.436 2.977z"/><path d="M11.5 1.657h2.221v3.582c.651-.568 1.14-1.018 1.654-1.438C19.145.72 23.2.078 27.592 2.386c1.441.758 2.9 1.488 4.318 2.288 3.276 1.845 6.54 1.714 9.7-.174 1.926-1.152 3.715-2.537 5.564-3.823.266-.186.513-.399.869-.677.034.306.078.518.078.73.003 8.312.01 16.623-.02 24.933 0 .37-.234.878-.526 1.085-1.69 1.2-3.372 2.43-5.164 3.462-3.754 2.162-7.59 2.23-11.42.118-1.166-.644-2.35-1.259-3.517-1.904-4.384-2.423-7.83-2.175-12.131 1.68-1.154 1.035-1.66 2.163-1.646 3.789.082 9.919.044 19.839.039 29.758 0 1.548.182 1.34-1.394 1.355-.26.002-.522-.025-.842-.043V1.655zm34.667 2.542c-1.164.725-2.2 1.401-3.264 2.026-3.994 2.344-8.021 2.587-12.13.241-1.669-.953-3.37-1.887-5.147-2.603-1.145-.461-2.466-.756-3.688-.699-3.374.16-5.8 2.157-7.875 4.634-.233.278-.311.762-.312 1.151-.019 6.373-.014 12.746-.01 19.12 0 .247.041.493.075.862.454-.413.793-.737 1.148-1.042 3.707-3.188 7.753-4.206 12.298-1.908 1.506.762 2.99 1.567 4.482 2.358 2.153 1.14 4.39 1.79 6.833 1.14 2.778-.74 5.101-2.325 7.323-4.077.18-.143.25-.516.254-.784.025-1.37.012-2.74.012-4.11V4.2z"/><path d="M30.115 9.414c4.025.002 7.166 3.193 7.16 7.274-.007 3.962-3.251 7.214-7.184 7.199-3.96-.016-7.239-3.346-7.2-7.313a7.206 7.206 0 0 1 7.224-7.16z"/></svg>