<svg width="100pt" height="100pt" viewBox="0 0 100 100" xmlns="http://www.w3.org/2000/svg"><path d="M87.351 25.301c-3.438-.032-5.62 3.694-3.928 6.706a4.457 4.457 0 0 0 3.927 2.283 4.451 4.451 0 0 0 3.157-1.317 4.511 4.511 0 0 0-.001-6.354 4.453 4.453 0 0 0-3.155-1.318Zm0 6.551c-.827 0-1.573-.5-1.889-1.269-.602-1.462.594-3.033 2.154-2.826a2.052 2.052 0 0 1 1.777 2.039 2.052 2.052 0 0 1-2.042 2.056ZM35.468 14.293a5.235 5.235 0 0 0 3.719-1.549 5.317 5.317 0 0 0 .002-7.488 5.237 5.237 0 0 0-7.437 0 5.307 5.307 0 0 0-1.541 3.743c.003 2.922 2.354 5.291 5.257 5.295v-.001Zm0-8.151v.001a2.846 2.846 0 0 1 2.84 2.855c0 2.199-2.365 3.574-4.257 2.475a2.87 2.87 0 0 1-1.418-2.474 2.849 2.849 0 0 1 2.835-2.856v-.001Zm20.325 38.919a5.32 5.32 0 0 0-1.541-3.742 5.245 5.245 0 0 0-3.717-1.548c-2.904.001-5.257 2.37-5.257 5.293a5.308 5.308 0 0 0 1.541 3.741 5.234 5.234 0 0 0 3.717 1.55c2.902-.003 5.255-2.372 5.257-5.294Zm-5.257 2.856c-2.185.001-3.551-2.378-2.46-4.283a2.835 2.835 0 0 1 2.457-1.429 2.846 2.846 0 0 1 2.838 2.856c0 .757-.299 1.483-.831 2.018a2.822 2.822 0 0 1-2.005.838h.001Zm-34.71-17.083a5.24 5.24 0 0 0 3.719-1.55 5.308 5.308 0 0 0 1.542-3.743 5.306 5.306 0 0 0-1.54-3.744 5.234 5.234 0 0 0-7.438-.002 5.314 5.314 0 0 0-1.54 3.744c.003 2.922 2.354 5.29 5.257 5.295Zm0-8.151c.753-.001 1.475.3 2.007.835.533.535.832 1.262.832 2.019.026 2.199-2.323 3.601-4.227 2.524a2.858 2.858 0 0 1-1.447-2.522 2.848 2.848 0 0 1 2.835-2.856Z"/><path d="M94.987 29.497c-.26-4.023-3.525-7.173-7.432-7.173a7.298 7.298 0 0 0-4.888 1.897c-3.968-3.902-8.921-7.263-14.405-9.761-6.218-2.833-12.682-4.33-18.694-4.33a46.755 46.755 0 0 0-4.962.31 8.823 8.823 0 0 0 .065-1.794C44.358 3.797 40.427 0 35.721 0c-4.704 0-8.636 3.797-8.948 8.644h-.001a9.534 9.534 0 0 0 1.877 6.181l.25.337a60.852 60.852 0 0 0-6.391 4.193 8.823 8.823 0 0 0-6.43-2.816c-4.705 0-8.636 3.798-8.949 8.644a9.536 9.536 0 0 0 1.877 6.182l1.444 1.943C7.029 39.93 5 47.993 5 55.038c-.034 16.052 8.453 30.899 22.256 38.935A44.345 44.345 0 0 0 49.568 100c15.946 0 30.677-8.575 38.629-22.488a45.087 45.087 0 0 0 5.939-22.474c0-5-1.264-12.499-2.917-17.439l2.211-2.976a7.74 7.74 0 0 0 1.557-5.126ZM29.189 8.804c.203-3.128 2.702-6.366 6.533-6.366 3.833 0 6.331 3.237 6.534 6.369a6.895 6.895 0 0 1-1.401 4.558l-5.133 6.913-5.123-6.9a7.066 7.066 0 0 1-1.41-4.574ZM9.547 25.343c.201-3.128 2.702-6.366 6.532-6.366 3.833 0 6.331 3.237 6.534 6.369l.001.001a6.9 6.9 0 0 1-1.401 4.558l-5.134 6.912-5.123-6.9a7.071 7.071 0 0 1-1.409-4.574Zm2.527 10.151 3.037 4.088a1.207 1.207 0 0 0 1.94 0l6.101-8.216a9.275 9.275 0 0 0 1.867-4.902 9.293 9.293 0 0 0-1.089-5.134c2.05-1.54 4.2-2.942 6.435-4.197l4.388 5.909a1.207 1.207 0 0 0 1.94 0l6.102-8.216a9.804 9.804 0 0 0 1.081-1.842 54.513 54.513 0 0 1 1.501-.176l5.085 7.386c.59.852.894 1.871.867 2.908a4.889 4.889 0 0 1-1.011 2.861l-1.436 1.878a3.286 3.286 0 0 1-3.017 1.262l-1.63-.21h.001a5.878 5.878 0 0 0-3.354.56 5.92 5.92 0 0 0-2.49 2.329 3.335 3.335 0 0 1-1.403 1.311 3.297 3.297 0 0 1-1.889.317l-3.762-.481h.001a6.088 6.088 0 0 0-5.852 2.665 5.486 5.486 0 0 0-.933 2.98 5.486 5.486 0 0 0 .841 3.007l2.485 3.954a5.05 5.05 0 0 0 4.278 2.36 4.972 4.972 0 0 0 2.369-.598l2.558-1.382c1.254-.677 3.289-.683 4.757-.074h.001a9.743 9.743 0 0 0 1.874 5.043l6.104 8.22a1.206 1.206 0 0 0 1.939 0l3.095-4.168.393.542c.168.236.346.465.532.685l3.108 3.685a1.598 1.598 0 0 1-.241 2.291l-4.71 3.646a7.622 7.622 0 0 0-2.636 3.822l-1.571 5.129a3.204 3.204 0 0 1-.594 1.106l-1.528 1.851v.001a9.038 9.038 0 0 0-2.022 4.843 2.424 2.424 0 0 1-1.465 1.988 1.193 1.193 0 0 1-1.045-.057 1.212 1.212 0 0 1-.603-.861l-1.438-8.698h-.001a6.771 6.771 0 0 0-1.276-2.974l-5.271-6.964a6.146 6.146 0 0 1-1.032-2.092l-1.741-6.324a6.647 6.647 0 0 0-4.618-4.635l-.379-.103a4.856 4.856 0 0 1-2.045-1.156l-3.244-3.078a7.375 7.375 0 0 1-1.317-1.671 7.244 7.244 0 0 0-3.269-2.976 7.185 7.185 0 0 0-4.379-.51 1.184 1.184 0 0 0-.139.036l-3.251 1.064v.001a47.763 47.763 0 0 1 3.002-8.033h-.001Zm32.183 9.371c.201-3.128 2.702-6.366 6.532-6.366 3.833 0 6.331 3.237 6.534 6.369h.001a6.898 6.898 0 0 1-1.401 4.559l-5.133 6.912-5.124-6.9a7.07 7.07 0 0 1-1.408-4.574h-.001Zm47.458 10.174c.001 23.419-18.907 42.47-42.147 42.47-23.239 0-42.145-19.053-42.145-42.472.02-2.934.345-5.859.969-8.725L13 44.803c1.993-.365 4 .567 5.017 2.331a9.79 9.79 0 0 0 1.751 2.223l3.244 3.078v-.001a7.269 7.269 0 0 0 3.07 1.732l.377.104a4.207 4.207 0 0 1 2.923 2.934l1.739 6.325a8.617 8.617 0 0 0 1.439 2.92l5.271 6.964a4.31 4.31 0 0 1 .815 1.897l1.438 8.698c.38 2.324 2.819 3.679 4.974 2.765a4.833 4.833 0 0 0 2.011-1.588 4.895 4.895 0 0 0 .925-2.398 6.597 6.597 0 0 1 1.477-3.537l1.527-1.851h.001a5.638 5.638 0 0 0 1.045-1.946l1.569-5.13a5.206 5.206 0 0 1 1.798-2.607l4.713-3.646a4.047 4.047 0 0 0 .611-5.801l-3.108-3.685a8.587 8.587 0 0 1-.415-.535l-.838-1.158 1.489-2.005a9.33 9.33 0 0 0 1.876-6.18c-.311-4.848-4.243-8.646-8.948-8.646-4.253 0-7.871 3.101-8.761 7.275-2.011-.598-4.419-.468-6.088.433l-2.559 1.381a2.624 2.624 0 0 1-3.457-.916l-2.484-3.955a3.045 3.045 0 0 1 .049-3.317 3.706 3.706 0 0 1 1.544-1.314 3.672 3.672 0 0 1 1.999-.299l3.762.481a5.734 5.734 0 0 0 5.684-2.812 3.48 3.48 0 0 1 3.449-1.707l1.629.21a5.706 5.706 0 0 0 5.243-2.194l1.436-1.877a7.344 7.344 0 0 0 .217-8.646l-4.274-6.204c.49-.021.956-.033 1.389-.033 5.67 0 11.79 1.422 17.696 4.114a50.635 50.635 0 0 1 5.385 2.864l-3.252 5.613a4.59 4.59 0 0 0 .525 5.264 5.757 5.757 0 0 0 3.642 1.944l.589.073a2.975 2.975 0 0 1 2.479 2.102 2.897 2.897 0 0 1-.84 2.986l-5.841 5.199h-.001a5.635 5.635 0 0 0-1.883 4.209v1.38a4.88 4.88 0 0 0 2.222 4.108 2.69 2.69 0 0 1 1.215 2.003l.137 1.377h-.001c.223 2.31 2.154 4.072 4.461 4.066h3.418a7.252 7.252 0 0 0 3.987-1.196 7.325 7.325 0 0 0 2.688-3.197l.206-.471a2.688 2.688 0 0 1 2.358-1.631l.803-.036c.13-.006.26-.016.39-.029l1.706-.173c.038.668.059 1.306.059 1.902l-.002.002Zm-.259-4.334-1.747.177a7.222 7.222 0 0 1-.257.019l-.804.037h.001a5.073 5.073 0 0 0-2.674.897 5.124 5.124 0 0 0-1.792 2.19l-.206.472v-.001a4.87 4.87 0 0 1-4.457 2.935h-3.419a2.061 2.061 0 0 1-2.051-1.871l-.137-1.378a5.113 5.113 0 0 0-2.311-3.807 2.449 2.449 0 0 1-1.114-2.062v-1.379c0-.911.388-1.779 1.066-2.382l5.841-5.199h.001a5.352 5.352 0 0 0 1.554-5.519 5.44 5.44 0 0 0-1.688-2.579 5.38 5.38 0 0 0-2.812-1.236l-.591-.074v.001a3.342 3.342 0 0 1-2.115-1.129 2.134 2.134 0 0 1-.25-2.442l3.197-5.515a45.356 45.356 0 0 1 6.444 5.264 7.778 7.778 0 0 0-1.011 3.372 7.905 7.905 0 0 0 1.555 5.127l4.907 6.605v.001a1.207 1.207 0 0 0 1.939 0l.903-1.215a67.284 67.284 0 0 1 2.028 10.691Zm.036-17.543-3.937 5.299-3.928-5.288a5.441 5.441 0 0 1-1.086-3.519c.155-2.405 2.074-4.893 5.015-4.893s4.86 2.488 5.015 4.896a5.303 5.303 0 0 1-1.079 3.505Z"/></svg>