<svg width="100pt" height="100pt" viewBox="0 0 100 100" xmlns="http://www.w3.org/2000/svg"><path d="m97.486 21.32-5.15-13.751a11.72 11.72 0 0 0-10.93-7.57H18.596a11.719 11.719 0 0 0-10.93 7.57l-5.15 13.75A39.408 39.408 0 0 0 0 35.2a1.667 1.667 0 0 0 3.333 0A36.064 36.064 0 0 1 5.64 22.49l5.157-13.75h-.001a8.371 8.371 0 0 1 7.802-5.408h62.808a8.371 8.371 0 0 1 7.803 5.407l5.157 13.75a36.041 36.041 0 0 1 2.23 11.026l-8.501 1.5-6.564 1.166-13.122 2.314-13.129 2.315-13.145 2.307L29 45.43 5.237 49.622 3.832 41.15a1.667 1.667 0 1 0-3.286.548L8.63 90.252a11.628 11.628 0 0 0 11.508 9.75h59.726a11.628 11.628 0 0 0 11.509-9.75L94.17 73.51a1.666 1.666 0 1 0-3.289-.549l-1.292 7.707-7.125-1.256-13.128-2.312-26.264-4.63-6.562-1.157L23.378 69 8.016 66.287l-.312-1.867L30.32 60.43a1.667 1.667 0 0 0-.578-3.283L7.158 61.13l-1.37-8.222 2.457-.431.289 1.64a1.666 1.666 0 0 0 1.926 1.356 1.667 1.667 0 0 0 1.352-1.93l-.29-1.641 3.283-.578.578 3.282v-.001a1.666 1.666 0 1 0 3.284-.577l-.579-3.283 3.283-.58.29 1.64-.001.001a1.667 1.667 0 1 0 3.281-.58l-.288-1.64 3.282-.577.58 3.283a1.666 1.666 0 0 0 3.008.665c.253-.362.352-.81.276-1.245l-.58-3.284 3.281-.578.29 1.642a1.666 1.666 0 0 0 3.283-.58l-.29-1.64 3.284-.578.578 3.282a1.666 1.666 0 1 0 3.283-.58l-.578-3.283 3.282-.579.29 1.642a1.668 1.668 0 0 0 3.283-.58l-.29-1.64 3.282-.578.58 3.282a1.667 1.667 0 0 0 3.282-.579L57.48 43.8l3.282-.578.29 1.641a1.667 1.667 0 1 0 3.283-.58l-.29-1.64 3.283-.58.578 3.284a1.667 1.667 0 0 0 3.284-.58l-.578-3.283 3.282-.578.29 1.64a1.666 1.666 0 1 0 3.281-.578l-.288-1.642 3.282-.578.58 3.284a1.667 1.667 0 0 0 3.281-.58l-.573-3.286 3.283-.578.289 1.64a1.667 1.667 0 0 0 3.283-.578l-.29-1.642 6.286-1.108h.001a36.687 36.687 0 0 1-.422 4.251l-.737 4.416-59.135 10.433a1.667 1.667 0 1 0 .578 3.282L94.86 49.06l-2.887 17.334a1.665 1.665 0 0 0 1.64 1.925 1.667 1.667 0 0 0 1.642-1.394l4.205-25.227a39.53 39.53 0 0 0-1.973-20.38zM14.588 70.834l-.578 3.282a1.667 1.667 0 0 0 3.281.58l.58-3.283 3.283.578-.289 1.641a1.666 1.666 0 1 0 3.281.579l.29-1.64 3.283.578-.579 3.282a1.667 1.667 0 0 0 3.283.58l.578-3.284 3.284.579-.29 1.64v.002a1.668 1.668 0 0 0 3.283.58l.29-1.641 3.283.578-.579 3.283a1.667 1.667 0 0 0 3.282.578l.58-3.283 3.282.58-.29 1.64a1.667 1.667 0 1 0 3.283.58l.29-1.642 3.282.579-.578 3.283a1.667 1.667 0 0 0 3.283.578l.578-3.282 3.283.578-.29 1.64v.001a1.666 1.666 0 1 0 3.284.58l.29-1.64 3.282.577-.58 3.284a1.665 1.665 0 0 0 1.643 1.956c.808 0 1.499-.581 1.64-1.377l.58-3.283 3.282.578-.289 1.64a1.668 1.668 0 0 0 1.644 1.957 1.666 1.666 0 0 0 1.635-1.378l.29-1.642 3.282.58-.578 3.284h-.001a1.665 1.665 0 0 0 1.644 1.954c.808 0 1.5-.581 1.64-1.378l.578-3.282 5.515.972-.959 5.745a8.302 8.302 0 0 1-8.217 6.964H20.137a8.304 8.304 0 0 1-8.221-6.964l-1.287-7.723 65.835 11.61a1.668 1.668 0 1 0 .58-3.284L10.047 78.503l-1.453-8.717z"/><path d="M30.528 34.914a61.956 61.956 0 0 1 38.948 0 1.666 1.666 0 0 0 1.973-.749l6.667-11.667a1.664 1.664 0 0 0-.778-2.353l-1.317-.577a65.098 65.098 0 0 0-52.04 0l-1.317.577h.001a1.666 1.666 0 0 0-.778 2.353l6.667 11.668c.396.687 1.22 1 1.973.748zM74.3 22.45l-5.076 8.882a64.897 64.897 0 0 0-16.409-2.786l3.613-6.022h.001a1.667 1.667 0 0 0-2.857-1.718l-4.604 7.667a65.017 65.017 0 0 0-18.192 2.86l-5.075-8.883a61.762 61.762 0 0 1 48.6 0zM48.334 63.334v5a1.667 1.667 0 0 0 3.333 0v-5a1.667 1.667 0 0 0-3.333 0z"/></svg>