<svg width="100pt" height="100pt" viewBox="0 0 100 100" xmlns="http://www.w3.org/2000/svg"><path d="M8.333 56.667h50a5.006 5.006 0 0 0 5-5V45a5.003 5.003 0 0 0-5-5h-50A8.344 8.344 0 0 0 0 48.333v13.334a8.348 8.348 0 0 0 2.443 5.89A8.348 8.348 0 0 0 8.333 70a1.667 1.667 0 0 0 0-3.333 5 5 0 0 1 0-10Zm-5-8.334a5.012 5.012 0 0 1 1.466-3.534 5.012 5.012 0 0 1 3.534-1.466h50A1.668 1.668 0 0 1 60 45v6.667a1.667 1.667 0 0 1-1.667 1.666h-5v-5a1.666 1.666 0 1 0-3.333 0v5h-6.667V50A1.666 1.666 0 1 0 40 50v3.333h-6.667v-5a1.666 1.666 0 1 0-3.333 0v5h-6.667V50A1.666 1.666 0 1 0 20 50v3.333h-6.667v-5a1.666 1.666 0 1 0-3.333 0v5H8.333a8.291 8.291 0 0 0-5 1.67v-6.67Zm12.813-11.834a1.665 1.665 0 0 0 2.227-.771A18.043 18.043 0 0 1 35.833 25a18.788 18.788 0 0 1 13.028 5.254c.64.602 1.638.602 2.278 0A18.788 18.788 0 0 1 64.167 25c13.434 0 20.834 10.062 20.834 28.333 0 1.556-.078 3.185-.233 4.845a1.668 1.668 0 0 0 3.321.31 56.64 56.64 0 0 0 .245-5.155c0-20.125-8.808-31.666-24.167-31.666A21.763 21.763 0 0 0 55 23.663v-.33a8.348 8.348 0 0 1 2.443-5.89A8.348 8.348 0 0 1 63.333 15a5.002 5.002 0 0 0 4.331-7.5A5.002 5.002 0 0 0 63.333 5C53.213 5.011 45.011 13.213 45 23.333v.33a21.76 21.76 0 0 0-9.167-1.996 21.408 21.408 0 0 0-20.459 12.605 1.667 1.667 0 0 0 .772 2.227Zm32.187-13.166a15.017 15.017 0 0 1 15-15c1.283 0 2.084 1.389 1.443 2.5a1.667 1.667 0 0 1-1.443.834 11.683 11.683 0 0 0-11.667 11.666v2.23c-.574.394-1.13.812-1.667 1.255a23.864 23.864 0 0 0-1.666-1.255v-2.23Zm29.186 60.366c.718.577.834 1.626.258 2.344C73.074 91.902 67.503 95 61.667 95A17.574 17.574 0 0 1 50 90.66 17.574 17.574 0 0 1 38.333 95c-13.765 0-23.499-16.642-26-33.082a1.667 1.667 0 0 1 1.397-1.895 1.668 1.668 0 0 1 1.897 1.393c2.231 14.665 10.947 30.252 22.705 30.252a14.575 14.575 0 0 0 10.498-4.454 1.666 1.666 0 0 1 2.337 0 14.575 14.575 0 0 0 10.498 4.454c6.053 0 10.687-4.193 13.509-7.71a1.672 1.672 0 0 1 2.344-.258l.001-.001Zm16.226-33.43c-1.248-.297-2.35.869-1.982 2.098.164.552.603.98 1.159 1.131 3.724.964 5.008 5.599 2.31 8.342a4.995 4.995 0 0 1-3.565 1.493h-50a5.006 5.006 0 0 0-5 5V75a5.003 5.003 0 0 0 5 5h50a8.348 8.348 0 0 0 5.89-2.443 8.348 8.348 0 0 0 2.443-5.89V58.333a8.31 8.31 0 0 0-6.255-8.064Zm2.922 21.398a5.012 5.012 0 0 1-1.466 3.534 5.012 5.012 0 0 1-3.534 1.466H90v-5a1.667 1.667 0 0 0-3.333 0v5H80v-3.334a1.666 1.666 0 1 0-3.333 0v3.334H70v-5a1.667 1.667 0 0 0-3.333 0v5H60v-3.334a1.666 1.666 0 1 0-3.333 0v3.334H50v-5a1.667 1.667 0 0 0-3.333 0v5h-5A1.668 1.668 0 0 1 40 75v-6.667a1.667 1.667 0 0 1 1.667-1.666h50a8.291 8.291 0 0 0 5-1.67v6.67Z"/></svg>