<svg width="100pt" height="100pt" viewBox="0 0 100 100" xmlns="http://www.w3.org/2000/svg" xmlns:bx="https://boxy-svg.com"><g bx:origin="0 -2.322335"><path d="M66.134 59.233c-1.262-1.893-3.537-2.672-5.671-1.93-.13.046-.587.171-.899-.14l-.097-.097c-1.2-1.201-1.786-2.868-1.574-4.454.272-2.023.481-7.194-3.46-11.515-2.185-2.395-4.945-3.61-8.206-3.61l-.169.002c-7.077.09-12.905 5.93-12.993 13.019-.042 3.34 1.17 6.162 3.602 8.39 4.314 3.948 9.473 3.742 11.494 3.467 1.579-.214 3.244.375 4.441 1.573l.101.1c.31.313.185.769.14.901-.74 2.134.035 4.417 1.926 5.682a4.84 4.84 0 0 0 2.684.801c.895 0 1.792-.24 2.562-.727a4.909 4.909 0 0 0 2.304-3.899 4.9 4.9 0 0 0 3.89-2.308c.992-1.584.962-3.695-.076-5.255zm-17.33.566c-.327 0-.655.02-.98.064-2.07.283-6.056.286-9.458-2.83-1.88-1.723-2.815-3.907-2.782-6.496.07-5.636 4.882-10.458 10.509-10.53 2.552-.074 4.766.906 6.483 2.788 3.108 3.408 3.103 7.402 2.825 9.476-.227 1.69.154 3.425 1.027 4.92l-3.706 3.714c-1.206-.698-2.552-1.107-3.918-1.107zm15.273 3.346c-.701 1.118-1.913 1.312-2.804 1.003a1.254 1.254 0 0 0-1.3.3c-.342.341-.457.847-.3 1.304.309.89.117 2.102-1 2.806a2.334 2.334 0 0 1-2.508-.037c-1.064-.713-1.242-1.896-.945-2.756.402-1.16.175-2.367-.544-3.25l3.366-3.374c.884.721 2.087.945 3.245.546a2.344 2.344 0 0 1 2.75.945c.5.747.514 1.756.04 2.513z"/><path d="M45.647 41.55c-2.38.029-4.583 1.09-6.732 3.243a1.264 1.264 0 0 0 0 1.785 1.254 1.254 0 0 0 1.78 0c1.66-1.665 3.291-2.485 4.984-2.505 1.832.028 3.345.62 4.572 1.965.47.515 1.265.551 1.778.08.514-.467.55-1.267.081-1.781-1.714-1.882-3.852-2.81-6.462-2.787zM72.092 37.683a3.225 3.225 0 0 0 0-6.45 3.225 3.225 0 0 0 0 6.45zm0-3.926a.703.703 0 0 1 0 1.404.703.703 0 0 1 0-1.404zM80.496 43.883a3.225 3.225 0 0 0-3.219-3.225 3.225 3.225 0 0 0 0 6.45 3.227 3.227 0 0 0 3.22-3.225zm-3.921 0a.702.702 0 1 1 1.403-.001.702.702 0 0 1-1.403.001zM87.834 45.144a2.831 2.831 0 0 0 0-5.664 2.833 2.833 0 0 0-2.828 2.832 2.836 2.836 0 0 0 2.828 2.832zm0-3.141c.17 0 .308.14.308.309 0 .34-.618.34-.618 0 .002-.17.14-.31.31-.31zM82.348 36.636a3.028 3.028 0 0 0 0-6.057 3.03 3.03 0 0 0 0 6.057zm0-3.533a.506.506 0 0 1 0 1.013.505.505 0 0 1 0-1.013zM80.062 49.21a2.909 2.909 0 0 0 0 5.818 2.909 2.909 0 0 0 0-5.817zm0 3.295a.385.385 0 1 1 0-.77.385.385 0 0 1 0 .77zM80.062 40.432c.567 0 1.027.462 1.027 1.03v.85a1.259 1.259 0 1 0 2.518 0v-.85a3.552 3.552 0 0 0-3.545-3.552 1.26 1.26 0 0 0-1.258 1.262 1.258 1.258 0 0 0 1.258 1.26zM86.514 45.696a1.26 1.26 0 0 0-1.258 1.262v.85c0 .569-.46 1.03-1.027 1.03a1.26 1.26 0 0 0-1.26 1.262 1.26 1.26 0 0 0 1.26 1.262 3.552 3.552 0 0 0 3.545-3.551v-.851a1.262 1.262 0 0 0-1.26-1.264zM74.99 31.532c.566 0 1.026.462 1.026 1.029v.85a1.259 1.259 0 1 0 2.518 0v-.85a3.552 3.552 0 0 0-3.545-3.552 1.26 1.26 0 0 0 0 2.523zM30.291 35.853c.013-.024.04-.033.052-.057.027-.054.026-.114.044-.169 1.036-2.592 1.395-4.95 1.504-6.243a2.364 2.364 0 0 0-.682-1.87 2.325 2.325 0 0 0-1.867-.686c-1.288.108-3.64.468-6.224 1.505-.06.018-.12.018-.177.045-.033.017-.053.046-.084.066-2.169.906-4.481 2.282-6.475 4.462-2.72 2.97-3.943 5.298-4.49 6.726-.3.781-.867 1.393-1.595 1.726l-4.976 2.25a1.26 1.26 0 0 0-.052 2.275l5.05 2.562 2.554 5.059c.214.424.65.692 1.122.692h.028c.485-.01.92-.3 1.118-.742l2.248-4.987a3.066 3.066 0 0 1 1.72-1.599c1.423-.547 3.746-1.771 6.714-4.498 2.189-2.008 3.564-4.334 4.468-6.517zm-.926-6.494c-.088.928-.32 2.374-.832 4.006a11.361 11.361 0 0 1-3.164-3.17 19.978 19.978 0 0 1 3.996-.836zM18.208 44.513a5.572 5.572 0 0 0-3.113 2.916l-1.165 2.583-1.553-3.076a1.256 1.256 0 0 0-.554-.556l-3.07-1.557 2.579-1.167a5.586 5.586 0 0 0 2.908-3.118c.47-1.224 1.543-3.247 3.995-5.926 1.462-1.599 3.132-2.705 4.763-3.488a13.824 13.824 0 0 0 4.605 4.614c-.78 1.632-1.885 3.306-3.48 4.77-2.677 2.462-4.694 3.536-5.915 4.005zM6.048 39.568a1.26 1.26 0 0 0 1.498-.965 14.092 14.092 0 0 1 9.84-10.55 1.262 1.262 0 0 0-.703-2.422A16.612 16.612 0 0 0 5.086 38.067a1.261 1.261 0 0 0 .962 1.502z"/><path d="M78.419 20c-7.837 0-14.912 4.176-18.749 10.97a25.214 25.214 0 0 0-19.312.05C36.528 24.197 29.445 20 21.583 20 9.683 20 0 29.7 0 41.625s9.683 21.624 21.583 21.624c1.467 0 2.96-.207 4.454-.529C29.448 72.752 38.927 80 50.08 80c11.141 0 20.608-7.232 24.03-17.247 1.451.302 2.898.499 4.308.499 11.9 0 21.583-9.7 21.583-21.625 0-11.923-9.68-21.626-21.58-21.626zM25.338 60.336c-1.264.26-2.522.391-3.755.391-10.512 0-19.064-8.568-19.064-19.101 0-10.532 8.551-19.101 19.064-19.101 6.88 0 13.093 3.635 16.499 9.566-.01.006-.01.015-.019.02-7.967 4.303-13.395 12.74-13.395 22.426 0 1.994.253 3.925.688 5.788 0 .005-.02 0-.018.01zm24.744 17.14c-12.625 0-22.894-10.292-22.894-22.939 0-12.65 10.27-22.938 22.894-22.938s22.893 10.29 22.893 22.938c0 12.65-10.27 22.938-22.893 22.938zm16.154-42.593c2.417-4.288 7.003-7.008 11.943-7.008 3.666 0 7.112 1.43 9.703 4.026a13.673 13.673 0 0 1 4.018 9.722c0 7.582-6.156 13.749-13.721 13.749-.89 0-1.79-.094-2.693-.278v-.059l-.018.003c.003-.169.026-.334.026-.503 0-7.895-3.606-14.963-9.253-19.635-.002-.003 0-.015-.005-.016zM78.42 60.724c-1.178 0-2.384-.121-3.6-.361.003-.019-.01-.041-.008-.06.206-.887.371-1.789.481-2.71.965.179 1.93.302 2.887.302 8.955 0 16.24-7.3 16.24-16.27a16.18 16.18 0 0 0-4.756-11.505 16.116 16.116 0 0 0-11.484-4.767c-5.744 0-11.05 3.128-13.949 8.047a25.567 25.567 0 0 0-2.263-1.352c-.002-.004-.007-.019-.01-.02 3.414-5.895 9.612-9.504 16.462-9.504 10.512 0 19.065 8.568 19.065 19.101-.002 10.53-8.553 19.1-19.065 19.1z"/></g></svg>