<svg width="100pt" height="100pt" viewBox="0 0 100 100" xmlns="http://www.w3.org/2000/svg"><path d="M25.895 7.001h-.002a25.82 25.82 0 0 0-18.305 7.613c-10.117 10.131-10.117 26.505 0 36.637l7.02 7.033v-.001l.002.001 34.166 34.21a1.727 1.727 0 0 0 2.443 0l34.172-34.21.001-.001 7.02-7.033.001-.001c10.116-10.13 10.116-26.505-.001-36.636-10.118-10.131-26.492-10.131-36.61 0v.001l-5.798 5.81-5.804-5.81A25.809 25.809 0 0 0 25.895 7v.001Zm48.21 3.422c5.728 0 11.457 2.206 15.862 6.617a22.411 22.411 0 0 1 0 31.784v-.001h-.001l-7.019 7.034-32.951 32.989L17.05 55.857l-7.019-7.033h.001-.001a22.411 22.411 0 0 1 0-31.784c4.406-4.411 10.127-6.6 15.862-6.601 5.734-.001 11.455 2.19 15.861 6.601l7.025 7.036v-.001c.324.324.764.506 1.222.505.459 0 .898-.182 1.221-.506l7.02-7.034c4.406-4.412 10.134-6.617 15.861-6.617h.002ZM44.663 32.828h-.001c-.952 0-1.723.77-1.724 1.719v7.068h-7.047c-.953 0-1.725.77-1.725 1.719v10.697c0 .95.772 1.72 1.725 1.72h7.047v7.067a1.722 1.722 0 0 0 1.724 1.719h10.674c.952 0 1.724-.77 1.724-1.719v-7.067h7.048c.952 0 1.724-.77 1.724-1.72V43.334c0-.949-.772-1.719-1.724-1.719H57.06v-7.068c0-.95-.772-1.719-1.724-1.719H44.663Zm1.724 3.439h7.225v7.067c0 .949.772 1.719 1.724 1.719h7.048v7.259h-7.048c-.952 0-1.724.77-1.724 1.719V61.1h-7.225l-.001-7.069c0-.949-.772-1.719-1.724-1.719h-7.048v-7.259h7.048c.953 0 1.724-.77 1.724-1.719l.001-7.067Z"/></svg>