<svg width="200pt" height="200pt" viewBox="0 0 200 200" xmlns="http://www.w3.org/2000/svg"><path d="M100 0C44.862 0 0 44.862 0 100s44.862 100 100 100 100-44.862 100-100S155.138 0 100 0zm0 195c-52.384 0-95-42.616-95-95 0-25.295 9.956-48.295 26.13-65.335l27.326 27.326a47.816 47.816 0 0 0-4.321 3.42c-.321.189-.598.43-.806.733-9.443 8.714-15.403 21.151-15.403 34.983v7.68c0 19.63 15.355 35.7 34.676 36.937 1.209 13.497 12.568 24.114 26.375 24.114 3.12 0 6.178-.539 9.092-1.6a2.502 2.502 0 0 0 1.611-1.949c.093-.572 2.18-14.062-5.072-21.315a14.968 14.968 0 0 0-1.934-1.629 15.068 15.068 0 0 0 1.934-1.628c7.252-7.253 5.165-20.746 5.072-21.316a2.502 2.502 0 0 0-1.611-1.948 26.456 26.456 0 0 0-9.092-1.6c-8.85 0-16.68 4.377-21.495 11.064v-15.621c0-8.125 6.416-14.689 13.885-17.413l73.969 73.97C148.295 185.044 125.296 195 100 195zM89.287 85.754 66.542 63.01c5.743-2.88 12.199-4.543 19.049-4.543h.95c-1.28 5.504-2.816 16.958 2.747 27.288zm-1.696 5.373c-2.011.931-3.92 2.1-5.678 3.464-.09-.016-.166-.065-.259-.07-16.48-1.09-22.229-20.61-23.507-26.01a42.98 42.98 0 0 1 3.9-2.928zm8.74 54.607c1.948.66 3.545 1.6 4.741 2.796 4.266 4.265 4.109 12.214 3.835 15.503-1.918.55-3.908.828-5.93.828-11.854 0-21.495-9.642-21.495-21.494s9.642-21.495 21.494-21.495c2.027 0 4.022.279 5.945.832.347 3.974.11 11.537-3.85 15.498-1.197 1.196-2.794 2.136-4.742 2.795a2.497 2.497 0 0 0-1.702 2.368 2.501 2.501 0 0 0 1.704 2.37zm-53.402-42.83v-1.776c0-11.007 4.225-21.02 11.093-28.596 2.262 7.816 8.533 23.176 23.399 26.422-3.026 3.754-4.935 8.318-4.935 13.36v1.592c-6.19-.63-21.837-3.001-29.557-11.003zm29.557 16.036v21.83c-16.272-1.261-29.15-14.734-29.52-31.238 9.62 6.93 23.903 8.89 29.52 9.408zm19.217-60.473h44.303v2.77c0 15.056-12.25 27.305-27.305 27.305h-9.95c-.433 0-.871.041-1.307.066-9.692-10.422-6.995-25.258-5.74-30.141zm77.17 106.87L97.154 93.62a19.665 19.665 0 0 1 1.597-.079h9.95c17.813 0 32.306-14.491 32.306-32.305v-2.799c3.165-.191 8.468-1.076 12.343-4.673 3.058-2.843 4.612-6.744 4.612-11.598a2.5 2.5 0 0 0-2.5-2.501 2.5 2.5 0 0 0-2.501 2.5c0 3.448-.982 6.038-2.998 7.921-2.638 2.464-6.508 3.163-8.958 3.347V36.945a2.5 2.5 0 0 0-2.5-2.5 2.5 2.5 0 0 0-2.501 2.5v16.523H85.593a47.356 47.356 0 0 0-22.782 5.81L34.67 31.136c17.04-16.176 40.04-26.132 65.335-26.132 52.384 0 95 42.617 95 95 0 25.295-9.956 48.295-26.132 65.335z"/></svg>