<svg width="200pt" height="200pt" viewBox="0 0 200 200" xmlns="http://www.w3.org/2000/svg"><g fill-rule="evenodd"><path d="M100.01 5.515c25.12 0 47.916 9.797 64.832 25.76l-39.45 39.433a2.755 2.755 0 0 0-.022 3.92 2.75 2.75 0 0 0 3.921-.027l39.43-39.444c15.972 16.926 25.77 39.721 25.77 64.856 0 52.216-42.256 94.476-94.482 94.476-25.123 0-47.932-9.797-64.852-25.767l21.721-21.708c1.797-1.744.508-4.789-1.998-4.716a2.745 2.745 0 0 0-1.895.808l-21.721 21.72c-15.97-16.908-25.77-39.702-25.77-64.81 0-52.227 42.282-94.503 94.509-94.503zm0-5.515C44.81 0 0 44.82 0 100.016 0 155.2 44.81 200 100.01 200S200 155.2 200 100.016C200.002 44.819 155.205 0 100.01 0z"/><path d="M96.081 60.57c.367.318.77.67 1.136.973 7.308 6.056 12.872 10.849 13.072 22.416-1.493.265-2.833-.065-4.36.517-3.44 1.289-1.506 6.447 1.932 5.158 6.805-2.554 12.456-1.2 16.779 1.884 4.172 2.971 6.687 7.712 7.243 11.844-1.757.328-3.185-.077-5.03.479-3.667.95-2.047 6.46 1.554 5.273 12.72-3.755 22.315-1.654 29.217 2.784 6.564 4.233 10.293 10.796 11.731 16.586-7.43 12.641-27.637 20.467-46.917 12.184-.466-1.351-.97-2.692-1.58-4.02-3.289-7.144-9.392-13.603-18.761-17.965 3.64-12.881.544-24.585-7.611-31.43 4.398-8.507 4.75-16.585 2.59-23.74-.286-.994-.629-1.971-.995-2.943zm-16.515-19.7a40.63 40.63 0 0 0 2.746 5.147c3.68 6.525 7.611 12.768 9.507 19.078 1.988 6.586 2 13.109-2.63 21.039a2.745 2.745 0 0 0 .848 3.652c7.8 5.245 11.251 16.422 6.712 29.441a2.756 2.756 0 0 0 1.552 3.455c9.397 3.816 14.528 9.682 17.564 16.27 2.77 6.018 3.402 12.593 3.615 18.571-1.884.974-4.337 2.06-7.75 3.022-14.564 4.058-24.565 2.87-31.117-1.696-6.547-4.552-10.264-12.945-11.275-24.979a2.775 2.775 0 0 0-1.797-2.367c-14.372-5.182-20.771-26.397-11.302-37.81a2.714 2.714 0 0 0 .343-2.997c-3.275-6.46-4.819-14.11-3.362-21.29 1.466-7.182 5.805-14.008 14.993-19.304 2.418-1.405 7.865-3.959 11.354-9.231zm-2.613-7.798c-1.04 7.485-7.526 9.961-11.494 12.262-10.342 5.97-15.866 14.325-17.635 22.973-1.643 8.077.34 16.13 3.59 23.197-10.545 14.4-3.755 36.855 12.757 44.16 1.279 12.254 5.285 22.137 13.315 27.728 8.154 5.663 19.747 6.814 34.667 2.74 4.058-1.11 8.72-2.526 11.934-4.6a2.772 2.772 0 0 0 1.24-2.34c-.065-3.693-.352-7.788-1.163-11.985 21.151 7.066 42.934-1.718 50.94-17.183a2.75 2.75 0 0 0 .253-1.818c-1.553-7.524-6.514-15.639-14.743-20.936-5.954-3.832-14.134-5.047-23.236-4.437-.72-5.93-4.07-11.897-9.547-15.79-3.35-2.389-7.623-3.504-12.213-3.717-.479-13.011-7.6-19.989-14.883-26.022-4.386-3.628-8.81-7.078-12.324-11.971-2.707-3.78-4.856-8.787-5.916-12.741-.764-2.84-5.124-2.577-5.541.481z"/><path d="M74.534 61.365c4.147.697 7.256 5.503 6.334 11.214-.913 5.729-5.377 9.244-9.523 8.548-4.147-.709-7.256-5.512-6.334-11.226.925-5.716 5.375-9.241 9.523-8.536zm.884-5.434c-7.623-1.29-14.499 4.855-15.829 13.06-1.327 8.192 3.263 16.295 10.887 17.583 7.61 1.291 14.499-4.864 15.815-13.071 1.33-8.205-3.26-16.283-10.873-17.572zM71.737 96.994c4.843-1.846 10.951 1.327 13.351 7.787 2.4 6.464-.114 12.912-4.954 14.755-4.843 1.846-10.95-1.327-13.351-7.787-2.4-6.473.114-12.92 4.954-14.755zm-1.917-5.159c-8.118 3.088-11.48 13.037-8.196 21.874 3.289 8.826 12.315 14.07 20.432 10.988 8.118-3.098 11.48-13.047 8.192-21.873-3.288-8.84-12.316-14.073-20.428-10.989zM84.053 138.017c1.896-4.298 7.776-6.221 13.39-3.614 5.625 2.603 8.078 8.381 6.182 12.68-1.91 4.299-7.778 6.194-13.401 3.59-5.615-2.606-8.08-8.36-6.17-12.655zm-4.995-2.313c-3.312 7.46 1 16.322 8.94 20.001 7.94 3.68 17.307 1.148 20.607-6.309 3.312-7.459-.987-16.348-8.925-20.013-7.954-3.681-17.321-1.141-20.622 6.321z"/></g></svg>