<svg width="200pt" height="200pt" viewBox="0 0 200 200" xmlns="http://www.w3.org/2000/svg"><path d="M92.209 122.12a9.759 9.759 0 0 0 1.704-2.55c1.107-2.381 1.333-5.197.635-7.931-.92-3.603-3.292-6.463-6.247-7.752a12.501 12.501 0 0 0-.346-4.219c-1.034-4.045-3.97-7.17-7.414-8.165a12.05 12.05 0 0 0-.265-1.35c-1.24-4.843-5.1-8.222-9.358-8.451-1.928-4.973-6.737-7.958-11.315-6.794-2.519.642-4.561 2.403-5.748 4.956-.88 1.895-1.205 4.07-.946 6.258-1.689.883-3.058 2.351-3.947 4.264-1.107 2.38-1.333 5.199-.635 7.93.184.724.43 1.424.73 2.094-1.886 2.554-2.531 6.127-1.636 9.62a12.39 12.39 0 0 0 1.67 3.792c-2.048 2.548-2.791 6.237-1.852 9.91 1.04 4.078 3.938 7.113 7.303 8.13-.581 1.813-.92 4.137-.269 6.648 1.092 4.205 4.557 7.627 10.295 10.172 12.055 5.341 15.307 14.48 15.921 16.632l.077.298c.033.134.055.219.062.254 0 .005.002.01.005.017l3.018 11.81a2.49 2.49 0 0 0 3.027 1.797 2.486 2.486 0 0 0 1.795-3.024l-3.013-11.8a21.282 21.282 0 0 0-.077-.312c-.362-1.646-2.122-11.715 6.188-22.561 3.816-4.986 5.215-9.65 4.154-13.863-.645-2.59-2.105-4.496-3.516-5.81zm-4.59 16.626c-2.95 3.851-4.804 7.627-5.946 11.086l-3.267-12.794 4.884-8.234a2.489 2.489 0 1 0-4.281-2.535l-2.347 3.953-1.515-5.928 4.884-8.235a2.487 2.487 0 1 0-4.28-2.535l-2.346 3.955-1.647-6.45 4.883-8.234a2.489 2.489 0 1 0-4.281-2.535l-2.346 3.953-2.892-11.316a2.486 2.486 0 1 0-4.82 1.229l2.778 10.873-3.397-2.014a2.487 2.487 0 1 0-2.537 4.281l7.678 4.552 1.647 6.445-3.397-2.015a2.49 2.49 0 0 0-2.539 4.281l7.678 4.552 1.513 5.927-3.396-2.015a2.49 2.49 0 0 0-2.54 4.281l7.678 4.552 3.294 12.903c-2.589-2.397-5.916-4.717-10.183-6.609-4.26-1.888-6.781-4.187-7.484-6.832-.866-3.24 1.276-6.214 1.29-6.232a2.49 2.49 0 0 0 .084-2.875 2.493 2.493 0 0 0-2.69-1.031c-2.304.587-4.928-1.545-5.727-4.658-.67-2.62.075-5.246 1.809-6.388a2.484 2.484 0 0 0 1.107-1.86 2.478 2.478 0 0 0-.769-2.023c-.937-.886-1.617-2.073-1.966-3.431-.615-2.4-.025-4.865 1.464-6.13a2.487 2.487 0 0 0 .46-3.271 7.494 7.494 0 0 1-1.017-2.312c-.414-1.622-.298-3.257.327-4.6.545-1.175 1.421-1.966 2.466-2.232l.274-.05c.712-.12 1.33-.567 1.704-1.182a2.547 2.547 0 0 0 .24-2.075l-.115-.384c-.415-1.622-.298-3.259.326-4.602.545-1.175 1.422-1.966 2.467-2.232 2.311-.58 4.93 1.545 5.725 4.653l.09.425a2.48 2.48 0 0 0 1.125 1.618c.58.362 1.293.475 1.956.303 2.306-.58 4.93 1.545 5.727 4.658a7.53 7.53 0 0 1 .23 2.176 2.475 2.475 0 0 0 .698 1.826c.473.49 1.148.736 1.804.758 2.192-.05 4.252 2.03 4.951 4.757.349 1.37.32 2.747-.09 3.986a2.488 2.488 0 0 0 2.105 3.25c2.036.214 3.919 2.163 4.578 4.738.415 1.624.299 3.26-.326 4.602-.545 1.175-1.421 1.966-2.466 2.232a2.484 2.484 0 0 0-1.796 3.018 2.49 2.49 0 0 0 2.145 1.865c.95.575 2.995 2.067 3.615 4.535.668 2.67-.434 5.907-3.282 9.626z"/><path d="M125.557 3.271a11.092 11.092 0 0 0-7.9-3.271 11.1 11.1 0 0 0-7.902 3.271l-27.32 27.32c-11.133-7.538-21.188-12.859-30.072-15.853-16.67-5.615-23.212-.883-23.907-.326a2.497 2.497 0 0 0-.923 1.819c-.033.71.24 1.399.746 1.895L61.96 51.062 3.266 109.758c-4.355 4.356-4.355 11.445 0 15.8l71.174 71.17A11.093 11.093 0 0 0 82.342 200c2.983 0 5.789-1.161 7.901-3.275l56.002-56.176 23.268 22.754a13.098 13.098 0 0 0 9.215 3.759h.151a13.095 13.095 0 0 0 9.278-3.965c5.083-5.2 4.988-13.562-.206-18.644l-22.97-22.464 31.748-31.747a11.101 11.101 0 0 0 3.271-7.9c0-2.985-1.16-5.789-3.271-7.901zm5.033 74.263-10.495 10.728a2.488 2.488 0 0 0 .04 3.517l9.306 9.1-4.606 4.71L34.57 17.32c8.3-1.499 34.942.938 96.018 60.216zM86.72 193.206c-2.341 2.342-6.425 2.34-8.766 0l-71.17-71.17c-2.415-2.416-2.415-6.35 0-8.763L65.52 54.542l55.838 54.604-1.79 1.83a2.488 2.488 0 0 0 .04 3.518l23.084 22.573zm97.88-33.592a8.15 8.15 0 0 1-5.777 2.468c-2.176-.016-4.262-.806-5.83-2.34l-48.129-47.065 11.477-11.738 48.13 47.065c3.234 3.165 3.291 8.372.13 11.608zm8.608-72.894-31.787 31.787-23.38-22.864c-.472-.46-1.142-.727-1.767-.71a2.48 2.48 0 0 0-1.751.75l-1.602 1.64-7.527-7.361 10.497-10.734c.463-.47.716-1.107.71-1.766a2.474 2.474 0 0 0-.75-1.751c-18.15-17.748-34.599-31.833-49.262-42.236L113.272 6.79c2.34-2.34 6.425-2.34 8.766 0l71.17 71.17a6.201 6.201 0 0 1 .001 8.762z"/><path d="M135.962 35.897c-3.214-3.217-8.82-3.217-12.032 0a8.446 8.446 0 0 0-2.49 6.015c0 2.272.883 4.406 2.49 6.015l28.139 28.14a8.455 8.455 0 0 0 6.015 2.491 8.445 8.445 0 0 0 6.015-2.492 8.446 8.446 0 0 0 2.49-6.014 8.445 8.445 0 0 0-2.49-6.014zm24.623 36.652c-1.338 1.338-3.662 1.332-4.993 0L127.448 44.41a3.503 3.503 0 0 1-1.035-2.497c0-.946.367-1.83 1.035-2.497a3.497 3.497 0 0 1 2.495-1.035c.943 0 1.83.366 2.498 1.035l28.144 28.143a3.514 3.514 0 0 1 1.035 2.495 3.507 3.507 0 0 1-1.035 2.494z"/></svg>