<svg width="200pt" height="200pt" viewBox="0 0 200 200" xmlns="http://www.w3.org/2000/svg"><g fill-rule="evenodd"><path d="M100.002 53.935c7.736 0 16.674 6.273 23.564 16.448 6.891 10.193 11.668 24.021 11.668 37.982 0 21.834-15.765 37.7-35.232 37.7-19.458 0-35.222-15.866-35.222-37.7 0-13.96 4.767-27.789 11.653-37.982 6.906-10.175 15.831-16.448 23.569-16.448zm0-5.513c-10.545 0-20.605 7.75-28.13 18.863-7.521 11.115-12.59 25.879-12.59 41.08 0 24.527 18.242 43.21 40.72 43.21 22.488 0 40.73-18.684 40.73-43.21 0-15.198-5.072-29.965-12.605-41.08-7.522-11.11-17.573-18.863-28.127-18.863z"/><path d="M100.002 5.503c25.117 0 47.924 9.797 64.838 25.761l-27.534 27.538a2.751 2.751 0 0 0-.099 3.983 2.752 2.752 0 0 0 3.993-.099l27.549-27.522c15.954 16.914 25.751 39.71 25.751 64.83 0 52.218-42.275 94.504-94.498 94.504-25.108 0-47.904-9.797-64.83-25.768l24.503-24.5c1.805-1.757.504-4.807-2.01-4.729a2.811 2.811 0 0 0-1.884.823l-24.504 24.514C15.31 147.91 5.502 125.115 5.502 99.996c0-52.23 42.286-94.492 94.497-94.492zm0-5.503C44.819 0 0 44.798 0 99.996 0 155.194 44.82 200 100.002 200 155.197 200 200 155.198 200 99.996 200 44.798 155.197 0 100.002 0z"/></g></svg>