<svg width="200pt" height="200pt" viewBox="0 0 200 200" xmlns="http://www.w3.org/2000/svg"><path d="M140.794 77.826c2.8-3.122 3.016-3.122 5.169-2.229 3.232 1.115 7.539 2.676 19.17-10.033l34.245-37.23c.862-.894.862-2.454-.215-3.567-.862-1.116-2.369-1.116-3.232-.224l-28.86 31.66c-1.507 1.56-3.445 2.006-4.307.891-.862-1.115-.647-3.12.862-4.682l28.86-31.435c.862-.892.862-2.452-.215-3.566l-.216-.223c-.862-1.116-2.369-1.116-3.231-.224l-28.645 31.658c-1.507 1.56-3.445 2.006-4.307.892-.862-1.115-.647-3.122.862-4.682l28.643-31.659c.862-.892.862-2.452-.214-3.567l-.215-.223c-.862-1.116-2.369-1.116-3.232-.224l-28.86 31.66c-1.507 1.56-3.445 2.006-4.307.892-.862-1.116-.647-3.122.862-4.682l28.86-31.436c.862-.892.862-2.452-.215-3.566-.863-1.116-2.37-1.116-3.232-.223l-34.03 37.231c-11.846 12.708-10.337 17.613-9.261 20.956.646 2.23 1.077 3.567-1.723 6.466l-28.645 30.99c-3.231-3.567-4.092-4.683-4.092-4.683-2.369-2.898-2.153-4.905-1.722-7.58.215-1.783.646-4.013 0-6.91-1.508-9.142-51.69-53.506-70.43-68.892C9.845-3.103 3.813-.428 1.659 2.248-1.786 6.484.368 15.624 5.967 21.868c3.445 3.79 43.936 47.487 82.491 89.177L65.843 135.57c-12.062-.446-25.415 15.161-29.507 22.74C24.921 178.82 30.521 200 30.521 200c6.246-11.37 18.523-10.7 27.353-16.498 10.984-7.134 26.276-25.415 20.246-38.793-2.802.894-6.894 2.008-9.263 3.123-2.585 1.56-5.601 2.676-7.969 4.46l-3.876 2.451c-1.292.893-2.369 2.007-3.661 2.9-1.078 1.114-2.369 2.005-3.445 3.121-1.078 1.115-2.154 2.23-3.016 3.345-2.154 2.006-3.661 4.681-5.17 6.911-.862 1.115-1.722 2.23-2.153 3.344-.647 1.116-1.292 2.23-1.723 3.345-1.077 2.23-2.369 4.236-3.016 6.02-.646 2.005-1.291 3.565-1.722 4.904-1.078 2.676-1.508 4.236-1.508 4.236s.432-1.56 1.292-4.459c.431-1.337.862-3.122 1.507-5.128.647-2.007 1.723-4.013 2.585-6.242.431-1.116 1.078-2.453 1.507-3.567.647-1.115 1.292-2.452 2.154-3.566 1.507-2.452 2.8-5.128 4.954-7.58a253.733 253.733 0 0 1 3.016-3.79c1.077-1.337 2.154-2.229 3.445-3.567 1.078-1.115 2.37-2.229 3.446-3.344l3.876-2.899c2.585-2.229 5.385-3.566 8.184-5.35 2.8-1.56 5.6-2.9 8.399-4.013 2.8-1.116 5.6-2.23 8.184-2.899.646-.223 1.722-.446 2.584-.669l12.707-13.823c4.307 4.682 8.615 9.364 12.707 13.823l2.584.67c2.585.668 5.385 1.782 8.184 2.898 2.8 1.115 5.601 2.675 8.399 4.012 2.801 1.783 5.601 3.122 8.184 5.351l3.876 2.9c1.292 1.114 2.37 2.228 3.446 3.343 1.077 1.116 2.369 2.23 3.445 3.567 1.078 1.337 1.938 2.452 3.016 3.79 2.154 2.23 3.445 5.128 4.954 7.58.647 1.337 1.507 2.453 2.154 3.566.431 1.337 1.077 2.453 1.507 3.567.862 2.23 1.938 4.46 2.585 6.242.646 2.006 1.077 3.79 1.507 5.128.862 2.9 1.292 4.46 1.292 4.46s-.647-1.56-1.508-4.237c-.431-1.337-1.077-3.122-1.722-4.905-.647-2.006-1.938-3.79-3.016-6.019-.647-1.115-1.078-2.229-1.723-3.345-.646-1.115-1.507-2.229-2.153-3.344-1.508-2.23-3.232-4.682-5.17-6.91-1.077-1.117-1.938-2.23-3.016-3.346-1.077-1.116-2.369-2.007-3.445-3.122-1.292-.892-2.369-2.006-3.661-2.899l-3.876-2.675c-2.585-1.783-5.385-2.899-7.969-4.459-2.584-1.115-6.676-2.229-9.261-3.122-6.03 13.377 9.261 31.66 20.245 38.793 9.046 6.02 21.108 5.128 27.353 16.498 0 0 5.385-21.18-5.814-41.69-3.661-6.688-14.861-20.064-25.631-22.295l-24.333-27.2"/></svg>