<svg width="200pt" height="200pt" viewBox="0 0 200 200" xmlns="http://www.w3.org/2000/svg"><path d="M100 0a100 100 0 1 0 100 100 100.128 100.128 0 0 0-29.325-70.675A100.13 100.13 0 0 0 100 0zm0 4.908a94.862 94.862 0 0 1 67.854 28.565l-17.669 16.27a28.886 28.886 0 0 0-23.975-12.81c-13.546 0-19.216 7.068-25.768 15.264a.786.786 0 0 1-1.228 0C92 42.97 86.306 36.933 73.4 36.933a28.86 28.86 0 0 0-14.922 53.573v43.558l-30.43 28A95.024 95.024 0 0 1 100 4.906zm50.159 60.886a23.973 23.973 0 0 1-12.664 21.13l-1.301.686.002 70.285a1.89 1.89 0 0 1-1.866 1.864H65.249a1.889 1.889 0 0 1-1.864-1.864v-21.67l85.352-78.528h-.002a23.624 23.624 0 0 1 1.424 8.099zM63.382 129.45V87.732l-1.3-.686a23.951 23.951 0 0 1 11.313-45.203c10.945 0 15.46 5.08 21.938 13.374a5.648 5.648 0 0 0 4.466 2.184 5.671 5.671 0 0 0 4.442-2.136c7.068-8.835 11.263-13.424 21.938-13.424l.002.002a23.946 23.946 0 0 1 20.44 11.287zm36.614 65.645a94.787 94.787 0 0 1-37.382-7.665 94.826 94.826 0 0 1-31.331-21.783l27.19-24.908v17.178a6.8 6.8 0 0 0 6.773 6.773h69.108a6.799 6.799 0 0 0 6.773-6.773V90.506a28.806 28.806 0 0 0 11.51-36.32l18.577-17.177v-.001a94.995 94.995 0 0 1-71.217 158.09z"/></svg>