<svg width="200pt" height="200pt" viewBox="0 0 200 200" xmlns="http://www.w3.org/2000/svg"><path d="M76.713 90.791h46.574c.72 3.109 1.278 6.64 1.531 10.872l-.164 54.473c0 3.35-.988 5.56-2.542 7.05-1.556 1.506-3.857 2.4-7.08 2.4H84.972c-3.223 0-5.524-.896-7.079-2.4-1.555-1.493-2.53-3.701-2.541-7.05l-.165-54.473c.265-4.233.823-7.76 1.527-10.872zm8.32-38.987h29.95v8.687c0 7.774 2.363 13.25 4.64 19.011.72 1.818 1.429 3.755 2.1 5.789l-43.427.001c.67-2.035 1.367-3.97 2.085-5.788 2.289-5.764 4.654-11.24 4.654-19.011zm-1.15-17.391h32.251c1.846 0 3.236 1.39 3.236 3.234v5.399c0 1.847-1.392 3.262-3.236 3.262H83.883c-1.846 0-3.25-1.415-3.25-3.262v-5.399c0-1.845 1.406-3.234 3.25-3.234zm0-5.513c-4.803 0-8.749 3.943-8.749 8.747v5.399c0 3.21 1.785 6.019 4.389 7.533v9.912c0 6.686-1.923 11.135-4.25 16.99-2.313 5.85-5.625 12.93-5.585 23.914l.163 54.762c.012 4.475 1.478 8.342 4.224 11 2.758 2.64 6.612 3.942 10.896 3.942l30.061.002c4.3 0 8.144-1.303 10.896-3.943 2.758-2.658 4.212-6.525 4.224-11l.164-54.762c.039-10.982-3.274-18.064-5.589-23.914-2.31-5.854-4.245-10.304-4.245-16.99v-9.9c2.604-1.526 4.385-4.336 4.385-7.545V37.65c0-4.803-3.931-8.748-8.736-8.748z"/><path d="M100.002 5.502c25.117 0 47.912 9.796 64.838 25.764l-35.334 35.33a2.767 2.767 0 0 0-.078 3.968c1.114 1.1 2.91 1.076 3.971-.074l35.335-35.32c15.97 16.911 25.766 39.717 25.766 64.822 0 52.222-42.275 94.502-94.497 94.502-25.12 0-47.916-9.796-64.83-25.765l27.474-27.493c1.806-1.745.532-4.794-1.989-4.728-.718.027-1.4.33-1.892.847l-27.504 27.474C15.297 147.902 5.5 125.112 5.5 99.992c0-52.207 42.287-94.49 94.502-94.49zm0-5.502C44.807 0 0 44.803 0 99.994 0 155.19 44.807 200 100.002 200 155.197 200 200 155.189 200 99.994 200 44.804 155.197 0 100.002 0z" fill-rule="evenodd"/></svg>