<svg width="200pt" height="200pt" viewBox="0 0 200 200" xmlns="http://www.w3.org/2000/svg"><path d="M99.997 0C44.86 0 0 44.859 0 100c0 26.71 10.4 51.822 29.289 70.712C48.179 189.6 73.289 200 100.003 200 155.136 200 200 155.141 200 100S155.138 0 99.998 0zm0 4.786c25.396 0 48.478 10.01 65.563 26.265l-38.518 38.52a37.739 37.739 0 0 0-1.989-5.819c-3.141-7.24-11.884-14.724-24.326-15.112-.26-.006-.501.024-.73.092a2.16 2.16 0 0 0-.727-.089c-12.442.387-21.178 7.87-24.321 15.11-3.152 7.255-3.75 13.993-1.763 20.03.635 1.938 1.392 3.815 2.127 5.627 1.11 2.749 2.16 5.344 2.806 8.107 1.009 4.322-.304 7.62-2.591 12.536-1.89 4.057-2.937 9.108-3.042 14.066L31.02 165.588c-16.923-17.771-26.236-40.96-26.236-65.589C4.782 47.503 47.497 4.791 100 4.787zm20.134 107.282c2.307 4.966 3.715 13.172 1.65 20.32-2.044 7.098-8.832 14.557-21.85 14.163-12.884.381-19.672-7.069-21.714-14.167-.611-2.118-.95-4.44-1-6.892-.089-4.644.9-9.662 2.65-13.422 2.149-4.62 4.37-9.4 2.91-15.642-.73-3.122-1.898-6.013-3.027-8.808-.736-1.82-1.428-3.541-2.014-5.326-1.608-4.889-1.07-10.484 1.607-16.633 2.456-5.667 9.792-11.912 20.08-12.232.2-.005.398-.04.583-.092.183.053.376.083.577.088 10.288.324 17.622 6.57 20.086 12.233 2.665 6.148 3.207 11.744 1.607 16.633-.586 1.783-1.284 3.5-2.02 5.315-1.127 2.8-2.296 5.695-3.027 8.82-1.465 6.24.753 11.02 2.902 15.642zm-20.128 83.142c-24.636 0-47.819-9.312-65.6-26.235l38.511-38.515c.188 1.112.398 2.21.7 3.253 2.42 8.42 10.735 18.077 26.316 17.626.358.01.715.018 1.069.018 14.956-.002 23.012-9.418 25.381-17.644 2.572-8.906.577-18.309-1.909-23.658-1.968-4.244-3.669-7.908-2.588-12.536.642-2.765 1.697-5.365 2.806-8.116.73-1.81 1.487-3.681 2.124-5.618.881-2.679 1.222-5.504 1.09-8.445.141-.092.294-.152.413-.275l40.631-40.627c16.257 17.088 26.264 40.169 26.264 65.562-.001 52.5-42.71 95.212-95.21 95.212z"/><path d="M92.205 97.19a43.095 43.095 0 0 0-.611-3.23 2.386 2.386 0 0 0-2.854-1.81 2.393 2.393 0 0 0-1.815 2.86c.213.947.403 1.907.547 2.893.124.835.188 1.632.188 2.438 0 1.615-.24 3.2-.792 5.298a2.394 2.394 0 0 0 4.63 1.216c.442-1.673.945-3.926.945-6.517a20.249 20.249 0 0 0-.238-3.147zM105.057 136.616c-1.168.442-2.555.668-4.122.668-.264.016-.536-.006-1.044-.02-1.884.089-3.521-.122-4.878-.618a2.393 2.393 0 1 0-1.65 4.493c1.685.618 3.605.934 5.708.934.34 0 .682-.01.81-.025.359.016.705.025 1.044.025h.01c2.15 0 4.107-.328 5.819-.98a2.392 2.392 0 0 0 1.392-3.083 2.39 2.39 0 0 0-3.088-1.394zM111.386 108.461a2.395 2.395 0 0 0 1.715-2.918c-.536-2.056-.767-3.61-.767-5.201 0-.806.064-1.604.188-2.437.155-1.023.349-2.015.569-2.994a2.389 2.389 0 0 0-1.805-2.86 2.4 2.4 0 0 0-2.864 1.807 45.712 45.712 0 0 0-.632 3.333c-.164 1.07-.24 2.101-.24 3.15 0 1.993.282 3.968.914 6.405a2.394 2.394 0 0 0 2.318 1.79c.2 0 .405-.02.604-.075zM112.072 68.531a2.39 2.39 0 0 0-1.92 2.785c.471 2.59.736 5.617.736 8.53 0 .957-.03 1.88-.089 2.743a2.401 2.401 0 0 0 2.238 2.547c.051.002.105.005.154.005a2.396 2.396 0 0 0 2.389-2.237c.064-.96.094-1.99.094-3.055 0-3.193-.288-6.528-.815-9.393a2.394 2.394 0 0 0-2.787-1.925zM112.759 115.44a2.39 2.39 0 0 0-2.227 2.548c.1 1.495.154 3.037.154 4.555 0 2.6-.163 4.943-.468 6.768a2.393 2.393 0 0 0 2.363 2.794c1.15 0 2.16-.828 2.359-1.996.353-2.083.536-4.7.536-7.564 0-1.602-.058-3.24-.169-4.875-.092-1.321-1.236-2.358-2.548-2.23zM86.808 85.243c.054 0 .11 0 .164-.005a2.391 2.391 0 0 0 2.227-2.55 43.839 43.839 0 0 1-.094-2.849c0-2.87.253-5.863.72-8.426a2.393 2.393 0 0 0-1.93-2.78 2.397 2.397 0 0 0-2.785 1.93c-.511 2.837-.792 6.131-.792 9.278 0 1.11.036 2.177.105 3.175a2.396 2.396 0 0 0 2.385 2.227zM89.459 118.085a2.398 2.398 0 0 0-2.233-2.546c-1.319-.064-2.456.914-2.546 2.232-.1 1.561-.16 3.172-.16 4.754 0 2.925.194 5.583.558 7.688a2.393 2.393 0 1 0 4.715-.812c-.313-1.843-.482-4.216-.482-6.876a64.656 64.656 0 0 1 .148-4.44zM93.81 63.871c.303 0 .61-.058.909-.183 1.343-.552 3-.87 5.05-.97.084-.001.151-.045.23-.056.078.01.145.053.223.057 2.06.1 3.71.417 5.05.97a2.388 2.388 0 0 0 3.128-1.299c.501-1.22-.078-2.62-1.303-3.125-1.856-.767-4.033-1.203-6.647-1.329-.151 0-.283.054-.423.077-.164-.025-.318-.082-.487-.077-2.614.128-4.79.56-6.647 1.327a2.392 2.392 0 0 0-1.298 3.125 2.394 2.394 0 0 0 2.214 1.483zM99.997 115.658a2.39 2.39 0 0 0-2.39 2.39v11.968a2.392 2.392 0 0 0 4.786 0v-11.968a2.394 2.394 0 0 0-2.396-2.39zM102.393 70.182c0-1.324-1.069-2.394-2.39-2.394s-2.396 1.072-2.396 2.394v11.965a2.392 2.392 0 1 0 4.786 0zM102.393 94.113a2.392 2.392 0 1 0-4.786 0v11.966a2.396 2.396 0 0 0 2.39 2.395 2.397 2.397 0 0 0 2.396-2.395z"/></svg>