<svg width="200pt" height="200pt" viewBox="0 0 200 200" xmlns="http://www.w3.org/2000/svg"><path d="M196.65 154.983h-13.415a16.607 16.607 0 0 0 3.416-10.008 27.724 27.724 0 0 0-10.238-21.55c.151-1.162.232-2.333.24-3.505v-2.703a28.362 28.362 0 0 0-3.224-13.048 35.368 35.368 0 0 0 3.696-7.517 48.873 48.873 0 0 1 1.947-4.477 40.356 40.356 0 0 1 2.403-3.823 26.677 26.677 0 0 0 4.89-10.203 26.91 26.91 0 0 0-.953-11.254 41.136 41.136 0 0 1-.884-4.434 46.784 46.784 0 0 1-.24-4.916c.22-3.72-.376-7.444-1.75-10.907a16.127 16.127 0 0 0-7.256-6.673 22.828 22.828 0 0 1-3.062-2.001 24.134 24.134 0 0 1-2.53-2.602 15.259 15.259 0 0 0-8.276-5.86c-3.47-.32-6.944.574-9.83 2.53a23.796 23.796 0 0 1-3.333 1.557c-1.16.352-2.348.607-3.55.761a15.991 15.991 0 0 0-9.134 3.67 22.856 22.856 0 0 0-5.06 8.518 15.3 15.3 0 0 0-1.294-4.36 16.245 16.245 0 0 0-7.286-6.673 23.535 23.535 0 0 1-3-1.938 24.972 24.972 0 0 1-2.519-2.61 15.256 15.256 0 0 0-8.333-5.902 15.247 15.247 0 0 0-9.8 2.537 24.295 24.295 0 0 1-3.332 1.555 22.45 22.45 0 0 1-3.543.77 16.162 16.162 0 0 0-9.142 3.67 25.54 25.54 0 0 0-5.513 9.612 48.182 48.182 0 0 1-1.93 4.446 42.162 42.162 0 0 1-2.38 3.771 26.799 26.799 0 0 0-4.923 10.278c-.086.484-.086 1.001-.134 1.496h.002a26.845 26.845 0 0 0-5.4-.554 26.599 26.599 0 0 0-10.416 2.115l-6.416-6.42a13.352 13.352 0 0 0 .611-12.314 13.326 13.326 0 0 0-21.497-3.913 12.9 12.9 0 0 0-3.456 6.025 13.338 13.338 0 0 0-8.627 6.985 13.36 13.36 0 0 0-.358 11.1 13.334 13.334 0 0 0 8.157 7.528 13.32 13.32 0 0 0 11.024-1.259l6.389 6.399v.001a26.664 26.664 0 0 0-2.106 10.415c0 1.743.169 3.481.503 5.19A28.257 28.257 0 0 0 20 119.919a27.889 27.889 0 0 0 1.696 9.655 26.698 26.698 0 0 0-11.695 22.073c.01 1.116.09 2.23.24 3.336H3.334a3.335 3.335 0 0 0-2.983 4.827l6.666 13.346A3.334 3.334 0 0 0 10 175h179.982a3.332 3.332 0 0 0 3-1.845l6.666-13.345a3.338 3.338 0 0 0-3-4.828zm-16.665-10.008c.006 2.655-1.046 5.205-2.922 7.083s-4.424 2.931-7.077 2.925h-60.234c.149-1.106.23-2.22.24-3.336a26.56 26.56 0 0 0-6.836-17.782 20.784 20.784 0 0 1 12.575-9.274c1.406-.353 2.833-.635 4.26-.924v17.971h6.666v-19.097c3.314-.44 6.65-.694 10-.804v13.229h6.665v-13.23c3.35.111 6.686.364 10 .805v19.097h6.665v-17.972c1.42.287 2.844.57 4.247.92a20.953 20.953 0 0 1 11.373 7.487 20.986 20.986 0 0 1 4.378 12.902zM77.576 154.983a6.61 6.61 0 0 1-.913-3.336c0-2.384 1.27-4.587 3.333-5.779s4.603-1.191 6.666 0 3.333 3.395 3.333 5.78a6.61 6.61 0 0 1-.914 3.335zm5.753-16.68a13.15 13.15 0 0 0-10.596 5.121 13.183 13.183 0 0 0-2.26 11.56h-6.841a20.39 20.39 0 0 1-.301-3.337 20.02 20.02 0 0 1 9.999-17.335 19.98 19.98 0 0 1 19.998 0 20.02 20.02 0 0 1 9.999 17.335 20.39 20.39 0 0 1-.3 3.336h-6.842a13.183 13.183 0 0 0-2.26-11.559 13.152 13.152 0 0 0-10.596-5.122zm50.68-83.095a53.668 53.668 0 0 0 2.234-5.122 21.308 21.308 0 0 1 3.85-7.203 10.496 10.496 0 0 1 5.665-1.958 27.162 27.162 0 0 0 4.63-1.02 29.657 29.657 0 0 0 4.317-1.98 10.546 10.546 0 0 1 5.506-1.875c1.43.26 3 2.025 4.513 3.73a28.774 28.774 0 0 0 3.29 3.337 27.654 27.654 0 0 0 3.956 2.605 10.537 10.537 0 0 1 4.613 3.877 21.205 21.205 0 0 1 1.056 8.05c-.003 1.875.092 3.75.287 5.615a46.88 46.88 0 0 0 1 5.165 21.054 21.054 0 0 1 .88 8.517 20.86 20.86 0 0 1-3.844 7.64 45.778 45.778 0 0 0-2.796 4.48 53.97 53.97 0 0 0-2.233 5.106c-.537 1.335-1.08 2.702-1.667 3.92a28.396 28.396 0 0 0-9.912-7.05c-1.69-.71-3.503-1.438-5.41-2.166l2.086-11.42 14.361-9.923-3.786-5.491-8.88 6.132 3-16.496-6.558-1.197-3.02 16.517-6.15-8.921-5.478 3.823 9.94 14.416-1.884 10.272a167.876 167.876 0 0 0-18.27-5.023c0-.18 0-.371-.038-.547v-.001a46.123 46.123 0 0 0-1.024-5.204 21.064 21.064 0 0 1-.873-8.48 21.072 21.072 0 0 1 3.876-7.722c1-1.416 1.922-2.886 2.763-4.403zm-59.967 7.656a21.077 21.077 0 0 1 3.876-7.72 47.382 47.382 0 0 0 2.763-4.407c.85-1.631 1.55-3.393 2.23-5.094v-.001a21.214 21.214 0 0 1 3.85-7.185 10.57 10.57 0 0 1 5.687-1.986 28.098 28.098 0 0 0 4.6-1.035 29.15 29.15 0 0 0 4.298-1.964 10.912 10.912 0 0 1 5.52-1.881c1.436.26 3 2.039 4.53 3.759a30.112 30.112 0 0 0 3.286 3.336 28.007 28.007 0 0 0 3.91 2.556c1.89.82 3.502 2.166 4.646 3.88a21.205 21.205 0 0 1 1.057 8.05c.023 1.498.077 3.03.203 4.537l-.001.001a22.89 22.89 0 0 0-3.686 8.417 26.769 26.769 0 0 0 .947 11.213c.236 1.001.446 1.959.623 2.887v-.002a135.962 135.962 0 0 0-20.664-1.927l.97-5.298 14.364-9.925-3.786-5.492-8.883 6.135 3.019-16.511-6.56-1.198-3.018 16.528-6.15-8.918-5.486 3.793 9.935 14.406-1.204 6.578c-2.064.097-4.17.26-6.313.474l.003.001a27.001 27.001 0 0 0-3.094-3.734l-4.712-4.716a26.712 26.712 0 0 0-6.886-4.968 11.701 11.701 0 0 1 .126-2.59zm2.05 12.284 4.713 4.717a20.033 20.033 0 0 1 5.176 19.339 20.011 20.011 0 0 1-14.141 14.155 19.983 19.983 0 0 1-19.318-5.182l-4.712-4.717h-.002a20.039 20.039 0 0 1-5.177-19.336 20.01 20.01 0 0 1 14.143-14.157 19.985 19.985 0 0 1 19.319 5.181zm-42.426-9.435a3.331 3.331 0 0 0-4.712 0 6.663 6.663 0 0 1-10.85-1.972 6.681 6.681 0 0 1 .434-6.23 6.669 6.669 0 0 1 5.393-3.141 3.333 3.333 0 0 0 3.142-3.19 6.38 6.38 0 0 1 1.894-4.336 6.663 6.663 0 0 1 10.928 3.093c.63 2.231.06 4.63-1.51 6.334a3.336 3.336 0 0 0 0 4.717l7.23 7.25a24.207 24.207 0 0 0-4.719 4.725zm-7 54.204a21.483 21.483 0 0 1 3.011-11.077 21.437 21.437 0 0 1 8.282-7.94 26.722 26.722 0 0 0 5.136 7.263l4.712 4.716a26.626 26.626 0 0 0 41.404-4.602 26.695 26.695 0 0 0 2.63-22.992c2.795-.216 5.542-.366 8.152-.366a150.258 150.258 0 0 1 56.756 12.28 21.707 21.707 0 0 1 13.236 20.018v2.316a27.471 27.471 0 0 0-4.127-1.415 107.614 107.614 0 0 0-51.766 0 27.477 27.477 0 0 0-15.998 11.343 26.6 26.6 0 0 0-38.1 9.292 26.535 26.535 0 0 0-13.879-12.082 26.493 26.493 0 0 0-18.394-.138 21.406 21.406 0 0 1-1.056-6.617zm-9.998 31.727a20.02 20.02 0 0 1 9.999-17.335 19.98 19.98 0 0 1 19.998 0 20.02 20.02 0 0 1 9.999 17.335 20.39 20.39 0 0 1-.3 3.336h-6.842a13.353 13.353 0 0 0-2.253-11.626 13.328 13.328 0 0 0-21.206 0 13.353 13.353 0 0 0-2.253 11.626h-6.842a20.39 20.39 0 0 1-.3-3.336zm14.245 3.336a6.61 6.61 0 0 1-.913-3.336c0-2.384 1.27-4.587 3.333-5.779s4.604-1.191 6.666 0 3.333 3.395 3.333 5.78a6.61 6.61 0 0 1-.914 3.335zm157.014 13.345H12.062l-3.333-6.672h182.53z"/><path d="M49.998 81.586h6.666v6.672h-6.666zm6.666 16.681h6.666v6.672h-6.666zm13.332-10.009h6.666v6.673h-6.666zm29.997 3.336h6.666v6.673h-6.666zm-6.666 20.018h6.666v6.673h-6.666zm-59.994 0h6.666v6.673h-6.666zm86.658-10.009h6.666v6.673h-6.666zm26.664 0h6.666v6.673h-6.666z"/></svg>