<svg width="200pt" height="200pt" viewBox="0 0 200 200" xmlns="http://www.w3.org/2000/svg"><path d="M49.336 139.362c9.632 0 19.757-2.966 30.099-8.814 39.184-22.163 47.997-50.644 44.362-64.38-4.6-15.805-20.138-10.087-34.142 4.97C79.366 82.263 63.18 83.142 48.896 83.914c-18.703 1.015-30.411 2.261-35.227 14.58-3.09 7.897-1.73 16.993 3.723 24.957 6.924 10.111 18.57 15.91 31.946 15.91zm-30.024-38.67C25.968 81.404 73.795 99.22 94.11 75.24c10.632-11.496 17.45-12.389 19.29-12.389.973 0 3.252 0 4.538 4.86 3.155 11.926-5.292 37.099-41.492 57.576-9.417 5.327-18.54 8.027-27.11 8.027-17.654.744-36.095-15.496-30.025-32.62zm31.723 64.477c48.564-.842 95.388-50.313 96.527-75.423 2.255-19.448-17.979-38.243-19.281-39.2-13.61-12.026-31.599-4.565-47.538 12.391-6.95 7.516-19.367 8.19-32.507 8.902-17.795.965-37.967 2.06-45.867 22.26C-.145 100.39-.485 107.176.54 113.83c1.56 13.264 14.711 52.082 50.494 51.34zM8.02 96.297c6.482-16.571 23.028-17.47 40.55-18.42 13.771-.746 28.012-1.519 36.632-10.839 11.403-11.878 22.163-18.63 33.462-15.452 6.55 2.2 10.973 8.84 11.827 17.76 1.652 17.184-9.945 44.898-48.067 66.463-23.353 13.206-46.912 12.789-63.026-1.122C7.595 124.498 3.022 109.071 8.018 96.3zm9.58 44.666c48.44 37.214 124.516-33.085 119.006-70.53 3.292 5.647 5.763 12.205 4.947 18.545-2.644 20.56-31.122 56.652-75.698 68.125-20.535 5.498-37.648-.296-48.255-16.135zm13.842-23.027c5.63 3.128 14.044 1.87 18.487-2.637 5.1-4.89 4-12.587-2.273-15.855-8.66-4.951-23.112 1.185-21.65 11.178.432 3.016 2.411 5.683 5.433 7.318zm7.418-14.068c2.954-.401 7.428.301 8.23 3.747.215 1.508-.802 2.772-1.428 3.393-2.565 2.652-8.126 3.442-11.327 1.615-5.041-2.682-1.18-8.003 4.522-8.752zm-4.552-69.887c-3.039 10.715-5.908 20.838-.574 31.157 1.725 3.573-3.419 6.286-5.387 2.773C15.92 45.03 39.832 22.467 28.523 4.72a3.02 3.02 0 0 1 .845-4.172 3.036 3.036 0 0 1 4.19.806c7.036 10.468 3.84 21.732.75 32.627zm20.716-2.79c-3.004 9.582-5.842 18.636-.61 27.79a3.02 3.02 0 0 1-1.134 4.125 3.036 3.036 0 0 1-4.135-1.13c-12.53-20.998 11.31-41.434.2-57.141-2.284-3.263 2.38-6.748 4.87-3.6 7.172 9.656 3.938 19.975.809 29.955zm20.703-2.939c-2.954 8.373-5.742 16.281-.657 24.187 1.322 1.924-.233 4.722-2.548 4.656a3.03 3.03 0 0 1-2.554-1.39c-12.683-18.84 11.131-37.548.226-50.731-2.475-3.13 1.993-6.871 4.653-3.873 7.36 8.8 3.918 18.551.88 27.153zm78.608 2.997-6.527 18.498c.338 1.872.645 3.789.91 5.77.412 3.965-5.355 4.753-6.009.797a127.004 127.004 0 0 0-.702-4.578l-9.752-3.533c-3.718-1.48-1.74-6.93 2.073-5.683l6.22 2.255-.001-.002a77.97 77.97 0 0 0-2.875-9.345l-13.948-2.197c-3.94-.745-3.023-6.47.947-5.973l10.014 1.577a46.23 46.23 0 0 0-4.549-7.053l-12.155-.61v-.001a3.026 3.026 0 0 1-2.872-3.173 3.026 3.026 0 0 1 3.18-2.864l5.397.27h.002a37.654 37.654 0 0 0-12.807-6.467 3.023 3.023 0 0 1-2.068-3.747 3.034 3.034 0 0 1 3.756-2.063 43.968 43.968 0 0 1 15.33 7.826l-.683-7.648c-.233-4.002 5.586-4.494 6.038-.537l1.32 14.761a49.232 49.232 0 0 1 3.555 5.052l1.034-8.027c.616-3.94 6.4-3.217 6.014.771l-2.189 16.976a79.288 79.288 0 0 1 2.241 6.538l3.387-9.598c1.443-3.724 6.932-1.803 5.719 2.007zm43.447-1.15a37.676 37.676 0 0 0-12.807 6.468l5.398-.271h.001a2.975 2.975 0 0 1 2.202.758c.602.541.954 1.302.979 2.11a3.027 3.027 0 0 1-2.875 3.17l-12.154.61a46.246 46.246 0 0 0-4.55 7.055l10.015-1.578c3.982-.496 4.88 5.228.947 5.974L170.99 56.59a77.812 77.812 0 0 0-2.875 9.346l6.22-2.255c3.81-1.251 5.792 4.206 2.073 5.683l-9.752 3.533a123.66 123.66 0 0 0-.702 4.578 3.027 3.027 0 0 1-3.403 2.598 3.023 3.023 0 0 1-2.605-3.395c.264-1.983.571-3.898.909-5.77l-6.526-18.498a3.02 3.02 0 0 1 1.857-3.84 3.031 3.031 0 0 1 3.86 1.833l3.386 9.598a78.01 78.01 0 0 1 2.242-6.539l-2.189-16.975c-.389-3.987 5.417-4.715 6.014-.77l1.034 8.027a49.08 49.08 0 0 1 3.556-5.052l1.317-14.76c.476-3.958 6.269-3.462 6.038.536l-.683 7.648a43.975 43.975 0 0 1 15.33-7.822 3.022 3.022 0 1 1 1.688 5.806zM141.428 145.19c.453.663.624 1.477.474 2.266a3.015 3.015 0 0 1-1.269 1.937c-1.177.8-4.304 2.93-1.189 11.361a3.022 3.022 0 0 1-1.807 3.855 3.033 3.033 0 0 1-3.881-1.765c-3.922-10.624-.284-15.896 3.457-18.444h-.001a3.045 3.045 0 0 1 4.216.794zm-19.9 33.474c-.337 3.987-6.138 3.68-6.055-.313.253-4.864-1.803-8.232-6.471-10.601a3.018 3.018 0 0 1-1.326-4.064 3.033 3.033 0 0 1 4.074-1.325c6.772 3.439 10.151 9.075 9.78 16.305zm75.953-31.872c4.576-8.443 2.946-20.929-5.126-39.294-.954-2.298-4.4-2.435-5.479-.156-.29.571-.611 1.123-.95 1.664-5.086-8.085-14.544-16.461-28.822-25.477a3.038 3.038 0 0 0-3.244.003 3.02 3.02 0 0 0-1.385 2.926c.894 7.156-1.084 14.313-2.997 21.236-2.865 10.377-5.792 21.006 2.456 29.419-13.455-8.369-30.172 2.84-30.281 18.913-7.411-5.012-16.878-5.812-24.424-1.195-17.322 10.637-11.133 38.7 8.341 44.177 14.744 4.515 28.647-7.004 27.72-22.3h-.001a18.623 18.623 0 0 0 10.543 2.079c-.68 7.594 8.15 12.95 14.61 8.963 2.544 4.314 8.707 6.007 13.102 3.3 6.3 9.8 21.3 2.653 17.467-8.44 11.717.568 14.418-15.707 3.258-19.06 1.013-3.228-.067-7.007-2.353-9.298 3.03-1.722 5.727-4.067 7.565-7.46zm-42.155-37.49c1.486-5.39 3.126-11.32 3.392-17.492 11.771 7.965 19.502 15.427 23.145 22.26-2.103 2.16-4.442 4.118-6.725 6.08v-.001a50.002 50.002 0 0 0-4.243-8.35c-2.242-3.312-7.162-.215-5.127 3.23a42.431 42.431 0 0 1 4.533 9.533c-3.65 3.658-6.584 8.074-6.293 13.405-14.684-6.727-12.266-15.696-8.685-28.666zm-28.351 71.865-.002-.001a15.152 15.152 0 0 1-7.06 10.54 15.23 15.23 0 0 1-12.619 1.503c-14.463-4.009-19.748-25.308-6.892-33.224h-.002a14.906 14.906 0 0 1 7.84-2.177c11.17-.201 21.015 12.061 18.732 23.358zM148 171.321c-7.098 3.875-15.36-.043-18.579-7.157-5.112-10 1.62-23.953 12.61-23.824 15.738.387 19.52 23.833 5.966 30.98zm5.57 11.73a3.727 3.727 0 0 1-3.73-3.718 3.86 3.86 0 0 1 3.73-3.718 3.722 3.722 0 0 1 3.727 3.718 3.722 3.722 0 0 1-3.728 3.718zm2.604-42.496h-.002c3 1.925 6.215 3.491 9.58 4.667a30.722 30.722 0 0 0 1.661 3.263A9.767 9.767 0 0 0 162 152.01a22.893 22.893 0 0 0-5.827-11.455zm3.052 29.077a3.726 3.726 0 0 1 3.73-3.718c4.93.175 4.93 7.264 0 7.436a3.728 3.728 0 0 1-3.733-3.718zm7.5 16.69a3.728 3.728 0 0 1-3.727-3.718c.176-4.919 7.278-4.917 7.453 0a3.727 3.727 0 0 1-3.727 3.718zm2.986-24.656a3.726 3.726 0 0 1-3.726-3.72c-.048-3.292 4.17-4.98 6.39-2.583 2.297 2.261.59 6.345-2.664 6.303zm2.667 11.24a3.73 3.73 0 0 1 3.73-3.72c4.932.174 4.93 7.263 0 7.438a3.728 3.728 0 0 1-3.732-3.719zm7.462 16.74a3.726 3.726 0 0 1-3.726-3.717c.175-4.923 7.282-4.92 7.455 0a3.727 3.727 0 0 1-3.729 3.718zm3.025-24.937a3.726 3.726 0 0 1-3.726-3.718c.175-4.921 7.279-4.921 7.454 0h-.002a3.725 3.725 0 0 1-3.727 3.718zm10.485 8.197a3.728 3.728 0 0 1-3.73 3.718c-4.93-.175-4.93-7.264 0-7.438a3.729 3.729 0 0 1 3.73 3.72zm-1.201-28.989c-1.571 2.896-4.295 5.01-8.449 6.551a37.926 37.926 0 0 0 5.242-18.3 3.027 3.027 0 0 0-2.936-3.115 2.98 2.98 0 0 0-3.126 2.925 31.954 31.954 0 0 1-6.532 18.698c-15.724-18.935 1.814-22.05 12.63-35.518 5.221 13.341 6.29 23.001 3.17 28.761zM77.763 104.932c4.883 0 4.876 7.558 0 7.558-4.884 0-4.876-7.558 0-7.558zm29.66-31.552c4.883 0 4.876 7.558 0 7.558-4.884 0-4.877-7.558 0-7.558z"/></svg>