<svg width="200pt" height="200pt" viewBox="0 0 200 200" xmlns="http://www.w3.org/2000/svg"><path d="M192.129 61.075c-5.028-11.92-12.237-22.607-21.431-31.773-9.194-9.194-19.88-16.404-31.773-21.43C126.6 2.642 113.502 0 100 0S73.4 2.643 61.075 7.871C49.155 12.9 38.468 20.108 29.302 29.302c-9.194 9.194-16.404 19.88-21.43 31.773C2.642 73.4 0 86.498 0 100s2.643 26.6 7.871 38.925c5.028 11.92 12.237 22.607 21.431 31.773 9.194 9.194 19.88 16.404 31.773 21.43C73.4 197.358 86.498 200 100 200s26.6-2.643 38.925-7.871c11.92-5.028 22.607-12.237 31.773-21.431 9.194-9.194 16.404-19.88 21.43-31.773C197.358 126.6 200 113.502 200 100s-2.643-26.6-7.871-38.925zM5.746 100c0-25.164 9.797-48.836 27.607-66.647C51.163 15.543 74.835 5.746 100 5.746c24.274 0 47.17 9.136 64.723 25.74l-36.055 36.083c-10.313-4.683-21.229-7.153-32.29-7.153-12.668 0-25.021 3.132-36.712 9.28-12.037 6.348-22.81 15.628-32.031 27.634l-.661.862a2.976 2.976 0 0 0 0 3.591l.66.862c9.223 12.007 19.995 21.286 32.032 27.635a116.18 116.18 0 0 0 4.194 2.068l-32.346 32.376C14.88 147.172 5.747 124.276 5.747 100zm75.61-32.088a71.097 71.097 0 0 1 15.052-1.609c10.198 0 20.225 2.213 29.82 6.579 9.91 4.51 19.074 11.175 27.262 19.85a2.89 2.89 0 0 0 2.098.92c.803 0 1.55-.287 2.126-.862l10.025-10.025v34.444l-10.025-10.025c-.575-.575-1.32-.862-2.126-.862-.804 0-1.551.345-2.098.92-8.188 8.674-17.351 15.339-27.263 19.85-9.594 4.366-19.65 6.578-29.819 6.578a71.39 71.39 0 0 1-15.053-1.609c2.93-10.255 4.395-21.028 4.395-32.088 0-11.005-1.493-21.777-4.395-32.061zM33.035 100c12.008-15.283 26.66-25.74 42.602-30.595 2.788 9.767 4.223 20.053 4.223 30.595s-1.407 20.798-4.223 30.595C59.696 125.74 45.044 115.283 33.037 100zm133.612 66.647c-17.81 17.81-41.481 27.607-66.646 27.607-23.844 0-46.365-8.819-63.805-24.878l34.3-34.3c8.388 2.988 17.064 4.511 25.883 4.511 11.031 0 21.89-2.385 32.26-7.096 9.767-4.424 18.844-10.83 27.004-18.988l12.927 12.926a2.963 2.963 0 0 0 3.218.632 2.95 2.95 0 0 0 1.81-2.73V75.666a2.95 2.95 0 0 0-1.81-2.729 2.97 2.97 0 0 0-3.218.631l-12.927 12.927c-6.406-6.406-13.388-11.693-20.77-15.828l34.502-34.502c16.06 17.437 24.878 39.93 24.878 63.804-.002 25.197-9.797 48.868-27.607 66.678z"/><path d="M61.133 82.533c-5.342 0-9.68 4.339-9.68 9.681 0 5.342 4.338 9.68 9.68 9.68s9.68-4.338 9.68-9.68c.003-5.344-4.336-9.68-9.68-9.68zm0 13.444c-2.068 0-3.763-1.695-3.763-3.763s1.695-3.763 3.763-3.763 3.763 1.695 3.763 3.763c.03 2.068-1.665 3.763-3.763 3.763z"/></svg>