<svg width="200pt" height="200pt" viewBox="0 0 200 200" xmlns="http://www.w3.org/2000/svg" xmlns:bx="https://boxy-svg.com"><path d="M99.565.05a2.313 2.313 0 0 0-1.658 1.235L88.1 21.048c-4.424-4.96-12.802-6.465-19.397-2.035a2.335 2.335 0 0 0-.866 2.615c1.562 4.862 1.932 9.091.506 12.861-8.591-2.495-20.345-.256-27.76 8.137v.002a2.333 2.333 0 0 0 1.081 3.778c13.604 4.024 22.152 7.887 28.266 19.18-13.77 9.596-24.021 25.51-28.048 44.394h-.002a2.365 2.365 0 0 0-.145.871 86.206 86.206 0 0 0-1.73 17.073C40.006 167.46 66.594 200 100 200s59.994-32.54 59.994-72.076c0-5.895-.613-11.649-1.73-17.146-.015-.07.014-.15 0-.22a2.319 2.319 0 0 0-.073-.29 2.319 2.319 0 0 0-.072-.29c-.01-.047.01-.1 0-.144a1.01 1.01 0 0 0-.073-.072c-4.061-18.786-14.26-34.617-27.978-44.177 6.112-11.293 14.663-15.156 28.266-19.18l.002-.002a2.32 2.32 0 0 0 1.574-1.588 2.344 2.344 0 0 0-.492-2.19c-7.416-8.395-19.17-10.632-27.76-8.137-1.428-3.769-1.058-8 .505-12.861h-.002c.31-.969-.04-2.03-.866-2.617-6.595-4.43-14.973-2.926-19.396 2.035L102.093 1.28v.002A2.303 2.303 0 0 0 99.569.047zm.433 7.556 9.445 19.036a2.307 2.307 0 0 0 2.225 1.287 2.31 2.31 0 0 0 2.03-1.577c1.37-4.119 8.15-6.695 13.7-3.995-1.491 5.312-2.328 10.833.576 15.984l.001-.001a2.297 2.297 0 0 0 2.956 1.017c5.426-2.393 15.153-1.209 21.993 3.995-11.669 3.838-20.664 8.747-26.751 19.763-7.9-4.608-16.746-7.265-26.175-7.265s-18.274 2.657-26.175 7.265C67.735 52.1 58.74 47.19 47.07 43.352c6.838-5.205 16.565-6.39 21.993-3.995a2.3 2.3 0 0 0 2.957-1.017c2.904-5.152 2.067-10.67.576-15.985 5.55-2.698 12.33-.123 13.7 3.995v.002a2.31 2.31 0 0 0 2.032 1.577 2.306 2.306 0 0 0 2.223-1.287zm-4.758 53.11c.547.634 1.105 1.257 1.657 1.89-5.693 6.36-11.583 12.546-17.666 18.31-2.763-3.404-5.479-6.962-8.148-10.537 7.152-5.341 15.398-8.748 24.155-9.663zm9.518 0c8.787.918 16.987 4.362 24.154 9.736a328.606 328.606 0 0 1-8.148 10.463c-6.083-5.764-11.973-11.949-17.666-18.31.552-.63 1.11-1.253 1.658-1.89zm-4.759 5.449c5.721 6.369 11.685 12.526 17.81 18.31a351.783 351.783 0 0 1-17.81 19.762 351.143 351.143 0 0 1-17.81-19.763c6.126-5.783 12.09-11.94 17.81-18.31zm-32.52 7.192c2.724 3.644 5.473 7.216 8.292 10.68-4.867 4.454-9.807 8.668-14.782 12.498-1.874-2.817-3.657-5.745-5.48-8.719 3.371-5.536 7.4-10.41 11.97-14.458zm65.038 0c4.57 4.048 8.599 8.922 11.97 14.459-1.824 2.973-3.608 5.901-5.48 8.719-4.975-3.83-9.915-8.044-14.781-12.497 2.82-3.467 5.568-7.037 8.291-10.681zM78.8 87.6a358.688 358.688 0 0 0 17.954 19.907 408.664 408.664 0 0 1-15.936 15.113c-5.915-6.799-11.633-14.219-17.16-22.234 5.117-3.92 10.168-8.249 15.142-12.788zm42.398 0c4.974 4.539 10.025 8.868 15.142 12.787-5.527 8.014-11.246 15.434-17.16 22.234a409.53 409.53 0 0 1-15.936-15.113A357.869 357.869 0 0 0 121.197 87.6zm-68.285 4.868a279.734 279.734 0 0 0 4.4 6.83c-3.23 2.363-6.432 4.59-9.663 6.611a74.316 74.316 0 0 1 5.263-13.441zm94.172 0a74.312 74.312 0 0 1 5.263 13.441c-3.23-2.021-6.433-4.248-9.662-6.612a285.43 285.43 0 0 0 4.399-6.83zm-87.175 10.68a255.138 255.138 0 0 0 17.522 22.524c-5.692 5.024-11.464 9.808-17.233 14.459-5.164-6.582-10.233-13.69-15.07-21.434.25-2.216.66-4.4 1.082-6.54 4.584-2.663 9.148-5.693 13.7-9.009zm80.182 0c4.552 3.316 9.116 6.346 13.7 9.01.42 2.14.832 4.323 1.082 6.539a244.203 244.203 0 0 1-15.07 21.434c-5.77-4.651-11.541-9.437-17.233-14.459 6.03-6.922 11.9-14.39 17.521-22.524zm-40.09 7.63c5.303 5.322 10.633 10.425 16.079 15.33A225.037 225.037 0 0 1 100 142.167a224.351 224.351 0 0 1-16.079-16.058c5.446-4.906 10.775-10.01 16.08-15.332zM44.62 126.47a242.972 242.972 0 0 0 11.97 16.639c-2.98 2.363-5.959 4.621-8.941 6.902-1.964-6.907-3.028-14.338-3.028-22.088 0-.488-.008-.968 0-1.453zm110.754 0c.008.485 0 .965 0 1.454 0 7.749-1.065 15.182-3.028 22.087-2.982-2.28-5.96-4.539-8.941-6.902a243.29 243.29 0 0 0 11.97-16.639zM80.46 129.16c5.223 5.769 10.601 11.086 16.08 16.058-6.14 5.31-12.41 10.174-18.821 14.604a203.261 203.261 0 0 1-14.637-16.057c5.812-4.687 11.632-9.532 17.378-14.605zm39.081 0c5.747 5.073 11.564 9.918 17.378 14.605a203.82 203.82 0 0 1-14.637 16.057 219.692 219.692 0 0 1-18.82-14.604c5.48-4.972 10.857-10.29 16.08-16.058zm-60.064 17.51c4.645 5.67 9.446 10.885 14.349 15.766a231.567 231.567 0 0 1-15.719 9.519c-3.646-5.143-6.693-10.956-8.942-17.293 3.442-2.62 6.867-5.26 10.312-7.992zm81.047 0a655.645 655.645 0 0 0 10.311 7.992c-2.248 6.337-5.296 12.15-8.941 17.293a231.162 231.162 0 0 1-15.719-9.52c4.905-4.88 9.705-10.094 14.349-15.765zm-40.523 1.67a224.976 224.976 0 0 0 18.89 14.75 186.779 186.779 0 0 1-18.89 15.548 186.683 186.683 0 0 1-18.892-15.548 225.303 225.303 0 0 0 18.892-14.75zm-22.785 17.439c6.075 5.767 12.3 11.046 18.748 15.766-5.047 3.42-10.233 6.492-15.503 9.373-.026.024-.05.049-.073.073-7.344-3.397-13.98-8.609-19.468-15.258a233.956 233.956 0 0 0 16.296-9.954zm45.571 0c5.349 3.574 10.803 6.826 16.296 9.88-5.488 6.673-12.11 11.92-19.468 15.332h-.002a1.474 1.474 0 0 0-.07-.071c-5.27-2.881-10.457-5.954-15.504-9.373 6.449-4.72 12.673-10.001 18.748-15.766zm-22.785 18.6c4.562 3.158 9.253 6.078 13.988 8.792a46.12 46.12 0 0 1-13.988 2.18c-4.814 0-9.518-.757-13.988-2.18 4.738-2.712 9.428-5.632 13.988-8.792z" bx:origin="0.499999 0.5"/></svg>