<svg width="200pt" height="200pt" viewBox="0 0 200 200" xmlns="http://www.w3.org/2000/svg" xmlns:bx="https://boxy-svg.com"><path d="M190.353 154.324h-17.285a48.686 48.686 0 0 0 26.909-43.617 2.5 2.5 0 0 0-2.5-2.5h-1.85c-.833-23.322-19.759-42.047-42.967-42.047-4.481 0-8.801.701-12.867 1.995L119.977 1.786a2.498 2.498 0 0 0-3.111-1.679 2.497 2.497 0 0 0-1.678 3.111l19.935 66.77a42.839 42.839 0 0 0-8.319 5.007l-35.14-54.494a2.504 2.504 0 0 0-3.455-.747 2.501 2.501 0 0 0-.746 3.457l35.511 55.07c-7.858 7.606-12.862 18.177-13.282 29.932h-3.128a2.5 2.5 0 0 0-2.5 2.501 48.688 48.688 0 0 0 26.907 43.616l-61.965-.002a48.687 48.687 0 0 0 26.902-43.616 2.5 2.5 0 0 0-2.5-2.501l-90.887.002a2.5 2.5 0 0 0-2.5 2.501c0 19.145 11 35.694 26.902 43.616H9.645c-5.32 0-9.645 4.326-9.645 9.646v7.066c0 5.321 4.325 9.647 9.645 9.647h6.17a11.644 11.644 0 0 0-2.155 6.736v.839c0 6.47 5.264 11.736 11.736 11.736H41.49c6.47 0 11.735-5.266 11.735-11.738v-.839c0-2.511-.807-4.826-2.155-6.736h100.372a11.644 11.644 0 0 0-2.155 6.736v.839c0 6.472 5.264 11.738 11.736 11.738h16.094c6.47 0 11.735-5.266 11.735-11.738v-.839c0-2.511-.807-4.826-2.155-6.736h3.658c5.32 0 9.645-4.326 9.645-9.647v-7.065c0-5.321-4.327-9.647-9.647-9.647v-.004ZM136.57 74.835l4.89 16.376a2.498 2.498 0 0 0 3.111 1.68 2.5 2.5 0 0 0 1.679-3.112l-5.025-16.831a37.382 37.382 0 0 1 11.435-1.789c20.452 0 37.14 16.484 37.968 37.047l-75.939.002c.596-14.779 9.38-27.416 21.879-33.373h.002Zm-27.438 38.372h85.777c-1.282 22.889-20.028 41.116-42.887 41.116-22.861 0-41.607-18.226-42.888-41.116h-.002Zm-104.045 0h85.75c-1.281 22.889-20.022 41.116-42.876 41.116-22.852 0-41.593-18.226-42.874-41.116Zm43.138 74.212v.839a6.745 6.745 0 0 1-6.737 6.738H25.393a6.745 6.745 0 0 1-6.737-6.738v-.839a6.744 6.744 0 0 1 6.737-6.736h16.095c3.714 0 6.737 3.022 6.737 6.736Zm135.627 0v.839a6.745 6.745 0 0 1-6.737 6.738h-16.094a6.744 6.744 0 0 1-6.737-6.738v-.839a6.744 6.744 0 0 1 6.737-6.736h16.094c3.714 0 6.737 3.022 6.737 6.736Zm11.146-16.384a4.653 4.653 0 0 1-4.646 4.647H9.64a4.653 4.653 0 0 1-4.646-4.647v-7.066a4.653 4.653 0 0 1 4.646-4.647h180.712a4.652 4.652 0 0 1 4.646 4.647v7.066Z" bx:origin="1 1"/></svg>