<svg width="200pt" height="200pt" viewBox="0 0 200 200" xmlns="http://www.w3.org/2000/svg"><path d="M100.002 5.525c25.117 0 47.924 9.798 64.838 25.765l-31.567 31.554a2.767 2.767 0 0 0-.1 3.996c1.11 1.114 2.933 1.06 3.993-.099l31.555-31.565c15.97 16.911 25.767 39.717 25.767 64.834 0 52.212-42.263 94.492-94.486 94.492-25.12 0-47.916-9.808-64.838-25.775l19.265-19.252c1.78-1.757.493-4.794-2.01-4.716a2.787 2.787 0 0 0-1.883.822l-19.255 19.265c-15.968-16.93-25.768-39.725-25.768-64.838 0-52.224 42.28-94.485 94.49-94.485zm0-5.525C44.819 0 0 44.816 0 100.008 0 155.196 44.82 200 100.002 200 155.197 200 200 155.196 200 100.008 200.003 44.812 155.197 0 100.002 0z" fill-rule="evenodd"/><path d="m100.002 46.838 22.78 33.348c8.582 12.565 13.855 25.233 14.89 35.22 1.154 11.187-1.78 21.084-8.114 28.225-6.347 7.143-16.183 11.658-29.558 11.658-13.362 0-23.224-4.514-29.557-11.658-6.347-7.143-9.253-17.038-8.105-28.225 1.036-9.988 6.28-22.652 14.881-35.22zm-.09-7.62a2.76 2.76 0 0 0-2.185 1.187L72.669 77.09c-8.961 13.109-14.639 26.356-15.814 37.748-1.278 12.462 2.022 24.018 9.478 32.423 7.475 8.42 19.04 13.526 33.67 13.526 14.639 0 26.205-5.106 33.677-13.526 7.46-8.405 10.731-19.96 9.457-32.423-1.175-11.39-6.852-24.638-15.804-37.748L102.28 40.406a2.737 2.737 0 0 0-2.368-1.188z"/></svg>