<svg width="200pt" height="200pt" viewBox="0 0 200 200" xmlns="http://www.w3.org/2000/svg"><path d="M37.761 67.728c-17.055.828-31.214 17.747-31.552 39.1H4.436A4.437 4.437 0 0 0 0 111.262v19.4a4.437 4.437 0 0 0 4.436 4.436h8.163l2.911 21.56a4.435 4.435 0 0 0 4.397 3.841h38.98a4.436 4.436 0 0 0 4.392-3.811l3.069-21.59h7.194l2.911 21.56a4.435 4.435 0 0 0 4.397 3.841h38.98a4.436 4.436 0 0 0 4.392-3.811l3.07-21.59h7.654l2.911 21.56a4.435 4.435 0 0 0 4.396 3.841h38.98a4.436 4.436 0 0 0 4.393-3.811l3.069-21.59h6.87a4.436 4.436 0 0 0 4.435-4.435v-19.401a4.436 4.436 0 0 0-4.436-4.436h-.438c-.349-21.897-15.229-39.131-32.865-39.131h-.03C158.07 51.209 145.39 39.5 130.798 39.5c-13.919 0-26.095 10.645-30.8 25.929-4.705-15.285-16.88-25.93-30.796-25.93-14.605 0-27.292 11.724-31.443 28.229zm-16.887 62.341a4.435 4.435 0 0 0-4.396-3.842H8.875v-10.53h182.258v10.53h-6.284a4.433 4.433 0 0 0-4.392 3.811l-3.07 21.59h-31.25l-2.91-21.559a4.435 4.435 0 0 0-4.397-3.842h-15.385a4.436 4.436 0 0 0-4.391 3.811l-3.069 21.59h-31.25l-2.912-21.559a4.435 4.435 0 0 0-4.396-3.842H62.504a4.436 4.436 0 0 0-4.391 3.811l-3.07 21.59h-31.25l-2.911-21.559zM40.78 76.638a19.628 19.628 0 0 0-1.706-.075c-13.332 0-23.671 13.711-23.991 30.262h47.982l-.004-.242-.01-.32-.009-.25-.006-.188-.009-.187-.008-.188-.032-.56-.014-.187a38.66 38.66 0 0 0-1.74-9.072l-.105-.321-.052-.16c-3.43-10.169-10.956-17.585-20.153-18.497a1.553 1.553 0 0 1-.137-.017zm61.597 0a19.129 19.129 0 0 0-4.404.115 4.283 4.283 0 0 1-.203.036c-9.288 1.462-16.718 9.564-19.694 20.306l-.084.304-.085.323a39.238 39.238 0 0 0-1.183 7.753l-.01.21-.008.2-.008.194-.006.195-.006.191-.005.191-.003.169h47.983l-.006-.242-.008-.32-.01-.25-.007-.188-.007-.187-.01-.188-.009-.187-.021-.373-.014-.187a38.66 38.66 0 0 0-1.741-9.072l-.104-.321-.052-.16c-3.43-10.169-10.958-17.585-20.155-18.497a1.358 1.358 0 0 1-.132-.017zm35.895 30.187h47.982c-.32-16.55-10.658-30.262-23.99-30.262-.915 0-1.814.064-2.696.19a4.673 4.673 0 0 1-.202.037c-9.289 1.461-16.719 9.563-19.694 20.305l-.084.304-.086.323a39.238 39.238 0 0 0-1.182 7.753l-.01.21-.008.2-.008.194-.006.195-.006.191-.005.191-.003.169zm-5.138-17.69c4.2-9.707 11.578-17.018 20.309-19.985-3.245-11.943-12-20.78-22.644-20.78-10.532 0-19.213 8.652-22.54 20.4 7.742 2.244 14.512 7.865 19.09 15.57l.1.17.143.245a43.235 43.235 0 0 1 3.873 8.9 44.236 44.236 0 0 1 1.256-3.534l.118-.286.104-.254.112-.263zm-61.593 0c4.2-9.707 11.578-17.018 20.31-19.985-3.246-11.943-12-20.78-22.647-20.78-10.532 0-19.213 8.652-22.54 20.4h.001c7.742 2.244 14.511 7.865 19.09 15.57l.1.17.143.245a43.235 43.235 0 0 1 3.872 8.9 44.853 44.853 0 0 1 1.258-3.534l.116-.286.104-.254.112-.263.08-.184z" fill-rule="evenodd"/></svg>