<svg width="200pt" height="200pt" viewBox="0 0 200 200" xmlns="http://www.w3.org/2000/svg" xmlns:bx="https://boxy-svg.com"><g bx:origin="-0.514085 -0.378342" fill-rule="evenodd"><path d="M7.19 138.044c-1.568 0-2.857 1.287-2.857 2.847v10.197c0 1.562 1.291 2.847 2.857 2.847h185.62c1.568 0 2.857-1.287 2.857-2.847V140.89c0-1.562-1.291-2.847-2.857-2.847zm185.62 20.209H7.19c-3.963 0-7.19-3.216-7.19-7.165v-10.196c0-3.95 3.227-7.165 7.19-7.165h185.62c3.963 0 7.19 3.215 7.19 7.165v10.196c0 3.95-3.227 7.165-7.192 7.165z"/><path d="M176.445 186.5H23.595c-5.854 0-8.16-5.375-9.633-8.957L5.249 156.92c-.461-1.103.046-2.39 1.152-2.847 1.107-.46 2.398.045 2.858 1.148l8.668 20.668c1.798 4.272 3.088 6.292 5.622 6.292H176.4c2.536 0 3.827-2.02 5.623-6.292l8.713-20.622c.461-1.103 1.75-1.608 2.857-1.148s1.613 1.744 1.152 2.847l-8.712 20.622c-1.475 3.537-3.733 8.91-9.586 8.91zM98.548 138.044c-.554 0-1.107-.23-1.568-.642-11.062-11.023-20.19-29.81-27.564-44.876-4.103-8.406-7.652-15.662-10.831-20.44-1.568-2.389-3.641-3.674-5.716-3.674-2.12 0-4.148 1.287-5.716 3.674-3.227 4.777-6.73 12.034-10.831 20.44-7.33 15.065-16.502 33.852-27.564 44.876-.83.872-2.213.872-3.088 0a2.17 2.17 0 0 1 0-3.077c10.555-10.518 19.498-28.937 26.734-43.727 4.148-8.543 7.744-15.938 11.155-20.99 2.443-3.629 5.762-5.603 9.357-5.603 3.595 0 6.914 1.974 9.357 5.602 3.365 5.052 6.96 12.401 11.156 20.99 7.19 14.79 16.179 33.208 26.734 43.728.83.872.83 2.25 0 3.077-.51.458-1.062.642-1.615.642z"/><path d="M7.19 138.044c-1.014 0-1.89-.69-2.12-1.699-.277-1.148.46-2.343 1.613-2.619 28.44-6.522 47.155-11.437 55.683-14.652-4.701-16.122-11.846-27.466-23.691-37.571-.922-.781-1.015-2.16-.231-3.077.784-.918 2.166-1.011 3.088-.23 12.998 11.116 20.65 23.562 25.582 41.615a2.183 2.183 0 0 1-1.291 2.571c-7.883 3.261-26.92 8.36-58.172 15.57-.138.094-.277.094-.46.094zM145.659 138.044c-.554 0-1.107-.23-1.568-.642-11.062-11.023-20.19-29.81-27.564-44.92-4.103-8.406-7.606-15.663-10.831-20.44-1.614-2.389-3.641-3.674-5.716-3.674s-4.149 1.287-5.716 3.674c-3.227 4.776-6.73 12.034-10.832 20.485a1032.881 1032.881 0 0 1-5.07 10.242 2.208 2.208 0 0 1-2.95.965c-1.06-.55-1.521-1.837-.968-2.94 1.75-3.445 3.41-6.89 5.024-10.196 4.148-8.543 7.743-15.938 11.155-20.99 2.443-3.629 5.762-5.603 9.357-5.603 3.595 0 6.914 1.974 9.357 5.602 3.364 5.052 6.96 12.401 11.155 20.991 7.19 14.79 16.18 33.207 26.734 43.727a2.17 2.17 0 0 1 0 3.077c-.415.458-1.014.642-1.567.642z"/><path d="M91.035 129.131a2.21 2.21 0 0 1-2.12-1.608c-.323-1.148.367-2.343 1.567-2.664 8.573-2.296 14.981-4.18 19.036-5.696-4.701-16.122-11.846-27.466-23.691-37.57-.922-.782-1.015-2.16-.231-3.078s2.166-1.01 3.088-.23c12.998 11.116 20.65 23.563 25.582 41.615.276 1.057-.277 2.16-1.246 2.572-4.102 1.699-11.108 3.858-21.433 6.613-.183.002-.367.048-.552.048zM192.81 138.044c-.553 0-1.106-.23-1.568-.642-11.062-11.023-20.19-29.81-27.564-44.876-4.102-8.406-7.606-15.662-10.83-20.44-1.569-2.389-3.642-3.674-5.717-3.674-2.12 0-4.148 1.287-5.716 3.674-3.227 4.777-6.73 12.034-10.831 20.44a1032.881 1032.881 0 0 1-5.07 10.242 2.208 2.208 0 0 1-2.95.965c-1.06-.551-1.522-1.838-.969-2.94 1.751-3.445 3.41-6.89 5.024-10.196 4.148-8.543 7.744-15.938 11.155-20.99 2.443-3.63 5.762-5.604 9.357-5.604s6.914 1.975 9.357 5.603c3.365 5.052 6.96 12.401 11.156 20.99 7.19 14.79 16.179 33.208 26.734 43.728.83.872.83 2.25 0 3.077a2.166 2.166 0 0 1-1.568.642z"/><path d="M138.19 129.131a2.21 2.21 0 0 1-2.12-1.608c-.323-1.148.368-2.343 1.567-2.664 8.573-2.296 14.981-4.18 19.037-5.696-4.702-16.122-11.846-27.466-23.692-37.57-.921-.782-1.015-2.16-.23-3.078s2.166-1.01 3.087-.23c12.998 11.116 20.65 23.563 25.582 41.615a2.183 2.183 0 0 1-1.291 2.572c-4.103 1.699-11.108 3.858-21.434 6.613-.137.002-.322.048-.505.048zM66.053 50.453a2.31 2.31 0 0 1-1.659-.735c-6.546-7.58-3.042-13.826-.23-18.786 2.81-4.96 4.793-8.543.23-13.826-.784-.919-.692-2.296.23-3.077.922-.781 2.305-.69 3.089.23 6.545 7.579 3.042 13.825.23 18.786-2.765 4.96-4.793 8.543-.23 13.826.784.918.692 2.296-.231 3.077a2.345 2.345 0 0 1-1.429.505zM88.684 50.453a2.31 2.31 0 0 1-1.659-.735c-6.546-7.58-3.042-13.826-.23-18.786 2.81-4.96 4.793-8.543.23-13.826-.784-.919-.692-2.296.23-3.077.922-.781 2.305-.69 3.089.23 6.546 7.579 3.042 13.825.23 18.786-2.765 4.96-4.793 8.543-.23 13.826.784.918.692 2.296-.231 3.077a2.345 2.345 0 0 1-1.429.505zM111.315 50.453a2.31 2.31 0 0 1-1.659-.735c-6.546-7.58-3.042-13.826-.23-18.786 2.81-4.96 4.793-8.543.23-13.826-.784-.919-.692-2.296.23-3.077.922-.781 2.305-.69 3.089.23 6.546 7.579 3.042 13.825.23 18.786-2.765 4.96-4.793 8.543-.23 13.826.784.918.692 2.296-.23 3.077a2.348 2.348 0 0 1-1.43.505zM133.995 50.453a2.31 2.31 0 0 1-1.66-.735c-6.545-7.58-3.041-13.826-.23-18.786 2.811-4.96 4.793-8.543.23-13.826-.783-.919-.691-2.296.231-3.077.922-.781 2.305-.69 3.088.23 6.546 7.579 3.042 13.825.231 18.786-2.765 4.96-4.793 8.543-.23 13.826.783.918.692 2.296-.231 3.077a2.449 2.449 0 0 1-1.429.505z"/></g></svg>