<svg width="200pt" height="200pt" viewBox="0 0 200 200" xmlns="http://www.w3.org/2000/svg"><path d="M17.771 134.343c-.456 1.12 0 2.465 1.14 2.913.227.224.456.224.91.224.91 0 1.596-.449 2.05-1.344 8.657-20.391-2.733-31.37-3.189-31.818-.91-.896-2.279-.896-3.19 0s-.91 2.241 0 3.137c.457.223 9.797 9.41 2.28 26.888z"/><path d="M199.334 70.259c-2.506-3.36-11.39-.449-13.897.448-5.467 2.017-10.934 5.154-14.58 9.635-2.05-9.188-8.656-18.598-14.123-23.977-4.329-4.257-7.745-5.825-10.024-4.706-4.556 2.241-2.279 14.117-1.822 16.357 2.505 11.427 9.111 23.75 20.501 25.992-2.733 8.294-12.984 34.51-41.688 47.507l-16.63-12.324-13.213-9.86c21.415-24.423 29.616-58.482 27.793-75.735h1.14c9.567 0 19.818-8.962 24.602-15.685 2.962-4.257 3.873-7.17 2.506-8.962-2.506-3.36-11.39-.448-13.896.449-5.468 2.016-10.934 5.153-14.58 9.634-2.05-9.187-8.657-18.821-14.123-23.976C102.97.798 99.555-.77 97.276.35c-4.556 2.24-2.279 14.116-1.823 16.356 2.506 11.427 9.112 23.751 20.502 25.993-1.823 5.153-6.835 18.149-17.769 30.025-10.024 10.98-22.553 18.149-36.904 21.958L43.74 81.462c-7.745-4.48-15.263-9.187-23.236-13.22 6.15 6.275 12.756 12.548 19.135 18.599L52.625 96.7c-10.707 1.12-22.325 1.12-34.627-.67-.456 0-1.14-.224-1.823-.224C7.064 95.806 0 107.233 0 122.022c0 14.79 7.062 26.216 16.175 26.216.456 0 .91 0 1.595-.223h.228a88.58 88.58 0 0 0 10.707.672c12.073 0 23.464-2.241 33.715-6.723.227 0 .227 0 .456-.223 9.568-4.033 18.452-10.083 26.426-17.926l13.669 10.308 13.67 10.083c-12.987 4.48-28.933 6.05-49.207 3.137-.456 0-1.14-.224-1.823-.224-9.111 0-16.175 11.427-16.175 26.216s7.062 26.216 16.175 26.216c.456 0 .91 0 1.596-.223h.227A88.58 88.58 0 0 0 78.14 200c12.074 0 23.464-2.241 33.715-6.722.227 0 .227 0 .456-.224 10.934-4.706 20.73-11.652 29.386-21.063 1.367-1.57 2.733-3.137 4.1-4.93l13.669 10.309c7.745 4.48 15.263 8.962 23.237 13.22-6.151-6.275-12.757-12.325-19.136-18.599L149.9 161.683c16.63-23.527 23.008-52.208 21.185-67.445h1.14c9.568 0 19.819-8.962 24.603-15.684 3.19-3.364 3.872-6.277 2.506-8.293zm-69.937-42.573c6.605-4.481 14.123-6.274 16.63-6.05-.684 2.24-4.556 7.843-10.708 12.324-2.962 2.24-8.657 5.825-13.669 5.153.23-5.153 4.103-8.962 7.747-11.427zm-26.88-2.914c-4.1-9.187-4.33-18.374-3.19-20.614 2.05.672 7.974 5.602 12.757 13.668 5.012 8.067 6.606 15.461 5.012 20.614-7.745-1.344-12.074-8.066-14.58-13.668zM4.331 122.02c0-11.876 5.467-21.959 11.846-21.959s11.846 10.083 11.846 21.959c0 11.875-5.467 21.958-11.846 21.958-6.38.002-11.846-10.083-11.846-21.958zm60.824 14.34c.683-3.585.91-8.066-.227-13.445-.227-1.12-1.367-2.016-2.506-1.793-1.14.224-2.05 1.344-1.823 2.465 1.367 6.497.456 11.427-.683 14.79-4.1 1.568-8.201 2.913-12.757 4.032 1.367-3.81 3.417-11.428 1.596-20.391-.228-1.12-1.367-2.016-2.506-1.793-1.14.224-2.05 1.344-1.823 2.465 2.279 10.755-2.279 19.942-2.279 19.942 0 .224 0 .224-.227.449-5.695.895-11.618 1.12-17.541.895 4.555-4.48 7.517-12.772 7.517-22.407 0-8.515-2.506-16.133-6.151-20.837 3.645.223 7.29.448 10.707.448 51.94 0 73.354-34.506 80.644-51.536-.457 17.478-8.658 45.486-27.11 66.325l-9.111-6.946c-.228-2.016-2.28-3.809-4.33-3.809-2.505 0-4.555 2.016-4.555 4.481s2.05 4.481 4.556 4.481h.227l8.885 6.497c-6.15 6.948-12.985 11.878-20.502 15.686zm86.795-60.05c-4.1-9.188-4.33-18.375-3.19-20.615 2.05.672 7.974 5.602 12.757 13.668 5.012 8.067 6.606 15.461 5.012 20.615-7.518-1.345-12.074-8.067-14.58-13.669zm-97.957 97.246c0-11.876 5.467-21.959 11.846-21.959s11.846 10.083 11.846 21.959c0 11.875-5.467 21.958-11.846 21.958-6.606 0-11.846-10.083-11.846-21.958zm88.389-16.806-.228-.223c-.456-2.016-2.278-3.36-4.328-3.36-2.506 0-4.556 2.016-4.556 4.48s2.05 4.482 4.556 4.482h.683l3.873 2.913c-1.367 1.57-2.506 3.137-3.873 4.48-7.062 7.844-15.036 13.893-23.691 18.15.683-3.585.91-8.066-.227-13.445-.228-1.12-1.367-2.016-2.506-1.793-1.14.224-2.05 1.345-1.823 2.465 1.367 6.274.456 11.427-.683 14.79-4.1 1.569-8.201 2.913-12.757 4.032 1.367-3.81 3.416-11.427 1.595-20.391-.227-1.12-1.366-2.016-2.506-1.793-1.139.224-2.05 1.344-1.822 2.465 2.278 10.755-2.279 19.942-2.279 19.942 0 .224 0 .224-.227.449-5.695.895-11.618 1.12-17.542.895 4.556-4.48 7.518-12.772 7.518-22.407 0-8.515-2.506-16.133-6.151-20.837 3.645.223 7.29.448 10.707.448 51.94 0 73.353-34.506 80.643-51.536-.456 15.236-6.834 38.54-20.502 58.034zm42.372-71.254c-2.962 2.242-8.657 5.826-13.67 5.153.228-5.153 4.33-8.962 7.746-11.427 6.605-4.48 14.123-6.274 16.629-6.05-.682 2.016-4.554 7.618-10.705 12.324z"/><path d="M67.433 185.879c-.456 1.12 0 2.465 1.14 2.913.227.224.456.224.91.224.91 0 1.596-.449 2.05-1.344 8.657-20.391-2.733-31.37-3.189-31.818-.91-.896-2.279-.896-3.19 0-.91.895-.91 2.241 0 3.137.457.223 9.569 9.41 2.28 26.888z"/></svg>