<svg width="200pt" height="200pt" viewBox="0 0 200 200" xmlns="http://www.w3.org/2000/svg"><path d="M197.735 40.261c-1.44-1.354-3.397-2.113-5.438-2.113-2.042 0-3.999.76-5.439 2.113L136.894 87.07a20.81 20.81 0 0 0-6.27-.965c-6.725.256-13.105 2.842-17.9 7.26-4.795 4.417-7.66 10.344-8.036 16.628H2.648c-1.463 0-2.648 1.109-2.648 2.476.048 15.485 4.774 30.645 13.633 43.726 8.858 13.084 21.49 23.558 36.437 30.216v11.116-.002c0 .658.278 1.286.775 1.75s1.168.726 1.872.726h69.811a2.74 2.74 0 0 0 1.872-.725 2.403 2.403 0 0 0 .775-1.751v-11.113c14.964-6.667 27.605-17.156 36.465-30.258 8.859-13.103 13.576-28.28 13.603-43.783 0-.658-.279-1.287-.775-1.751a2.735 2.735 0 0 0-1.87-.726h-24.956a18.974 18.974 0 0 0 0-12.674l50.097-46.764c1.447-1.35 2.26-3.186 2.26-5.099s-.813-3.749-2.26-5.099zm-64.203 74.587v43.296c0 2.241-1.943 4.06-4.34 4.06s-4.34-1.819-4.34-4.06v-19.68c0-3.38-1.926-6.501-5.055-8.19a10.718 10.718 0 0 0-10.109 0c-3.127 1.689-5.054 4.811-5.054 8.19v3.787c0 2.243-1.944 4.06-4.34 4.06-2.398 0-4.34-1.817-4.34-4.06v-27.404zm-42.87 0v6.411H5.979a74.223 74.223 0 0 1-.53-6.411zm30.776 67.726c-.95.398-1.558 1.28-1.562 2.253v10.224H55.357v-10.224c-.002-.972-.613-1.855-1.562-2.253-12.135-5.14-22.76-12.951-30.967-22.766-8.207-9.816-13.753-21.344-16.163-33.6h83.993v16.04c0 3.22 1.837 6.195 4.818 7.804 2.98 1.61 6.65 1.61 9.632 0 2.98-1.61 4.816-4.585 4.816-7.803v-3.787c0-2.488 2.156-4.505 4.816-4.505s4.816 2.017 4.816 4.505v19.68c0 3.219 1.836 6.194 4.816 7.803a10.216 10.216 0 0 0 9.634 0c2.98-1.61 4.816-4.585 4.816-7.803v-31.934h29.745c-2.41 12.256-7.956 23.784-16.163 33.6-8.209 9.815-18.834 17.627-30.97 22.766zm47.927-61.317h-30.54v-6.411h31.068c-.052 2.153-.264 4.407-.528 6.411zm-30.54-11.362h-28.872c.31-4.895 2.566-9.504 6.326-12.92 3.75-3.672 8.892-5.814 14.316-5.966 3.485-.076 6.85 1.184 9.316 3.49 3.997 3.738 4.711 9.704 1.985 15.52zm55.177-62.951-48.797 45.645c-.467-.611-.98-1.19-1.536-1.732a16.755 16.755 0 0 0-1.851-1.46l48.773-45.65c.947-.87 2.466-.87 3.413 0 .454.423.711.998.711 1.597s-.257 1.174-.71 1.597zm-145.55 114.64c.931.602 1.346 1.694 1.036 2.713-.31 1.018-1.279 1.738-2.41 1.792a2.787 2.787 0 0 1-1.509-.421c-9.818-6.244-17.968-14.52-23.818-24.185-.729-1.197-.286-2.722.993-3.404 1.28-.683 2.908-.269 3.639.928 5.416 9.029 12.997 16.756 22.15 22.577zM38.795 81.13a17.685 17.685 0 0 1-1.085-8.195c.515-3.735 2.319-7.21 5.133-9.9 2.129-2.074 3.635-4.635 4.368-7.427a15.46 15.46 0 0 0-.589-9.182c-1.124-2.947-3.123-5.532-5.763-7.454a2.447 2.447 0 0 1-.984-1.663 2.368 2.368 0 0 1 .562-1.827c.913-1.074 2.584-1.25 3.73-.395 3.408 2.499 5.988 5.852 7.44 9.668a20.102 20.102 0 0 1 .763 11.892c-.908 3.535-2.787 6.784-5.45 9.431-2.188 1.98-3.582 4.602-3.943 7.427-.52 4.617 1.565 9.155 5.504 11.982.895.65 1.25 1.763.879 2.764-.373 1.004-1.385 1.674-2.52 1.667a2.76 2.76 0 0 1-1.615-.546c-2.92-2.134-5.147-4.989-6.43-8.242zM61.527 4.392h-.002c-1.124-.882-1.272-2.45-.33-3.503.943-1.052 2.62-1.19 3.745-.31 11.645 9.085 17.572 18.344 17.625 27.454-.677 9.193-3.295 18.17-7.7 26.412-2.611 4.419-3.805 9.445-3.442 14.482a10.04 10.04 0 0 0 2.245 5.156 11.082 11.082 0 0 0 4.768 3.335c1.307.61 1.84 2.094 1.19 3.317-.452.84-1.375 1.368-2.38 1.362a2.783 2.783 0 0 1-1.165-.248c-2.684-1.047-5.02-2.748-6.764-4.923-1.746-2.178-2.837-4.75-3.16-7.455-.46-5.92.908-11.842 3.943-17.055 4.035-7.563 6.47-15.784 7.172-24.21-.026-7.674-5.319-15.645-15.746-23.74zm41.971 41.34h-.002a26.69 26.69 0 0 0 .98-10.123 19.936 19.936 0 0 0-3.387-8.442c-.698-1.144-.315-2.598.868-3.309 1.183-.711 2.756-.433 3.577.635 2.225 3.195 3.653 6.816 4.181 10.596.429 3.963.07 7.966-1.057 11.807a49.284 49.284 0 0 1-1.933 6.51 14.044 14.044 0 0 0-1.137 4.728c-.14 2.88.43 5.752 1.667 8.392.552 1.252-.074 2.685-1.403 3.219a2.56 2.56 0 0 1-1.032.198c-1.062-.002-2.02-.596-2.435-1.51a22.624 22.624 0 0 1-2.09-10.596c.14-2.076.613-4.12 1.403-6.065a42.46 42.46 0 0 0 1.798-5.966z"/></svg>