<svg width="200pt" height="200pt" viewBox="0 0 200 200" xmlns="http://www.w3.org/2000/svg" xmlns:bx="https://boxy-svg.com"><g bx:origin="0 -0.026316"><path d="m171.074 120.796.009.044c-.061.23-.104.468-.122.715-.103.43-.135.876-.093 1.322l-3.494 50.256c-.447 6.42 1.411 12.19 5.233 16.267 2.983 3.182 6.992 5.006 11.002 5.006h.055l.037.005c4.01-.027 7.865-1.8 10.87-4.988 3.805-4.044 5.718-9.804 5.394-16.217l-2.504-48.949c.225-.49.347-1.028.352-1.584l.811-113.783a3.882 3.882 0 0 0-1.924-3.369 3.865 3.865 0 0 0-3.877 0c-41.544 24.166-27.172 90.323-21.756 115.252l.004.009zm7.968 3.74c2.206-.485 6.17-.74 10.738.671l2.475 48.397c.22 4.285-.948 8.02-3.299 10.511-1.542 1.635-3.423 2.547-5.303 2.558-1.886.011-3.872-.923-5.416-2.569-2.332-2.485-3.451-6.192-3.16-10.434l3.348-48.152c.113-.129.215-.265.308-.407l.046-.07.078-.134c.07-.12.13-.244.185-.37zm3.828-8.11c2.26 0 4.72.26 7.257.873l.715-101.008c-28.338 23.493-17.794 77.085-12.727 100.557a26.157 26.157 0 0 1 4.754-.42z" fill-rule="evenodd"/><path d="M160.868 40.503a3.865 3.865 0 0 1-2.615-1.022c-14.833-13.66-34.106-21.183-54.261-21.183-15.055 0-29.729 4.203-42.433 12.15a3.856 3.856 0 0 1-5.32-1.23 3.873 3.873 0 0 1 1.229-5.332c13.929-8.722 30.02-13.328 46.519-13.328 22.096 0 43.228 8.247 59.488 23.222a3.871 3.871 0 0 1 .233 5.463 3.813 3.813 0 0 1-2.84 1.26zM103.991 186.724a87.667 87.667 0 0 1-58.424-22.266 3.869 3.869 0 0 1-.32-5.457 3.852 3.852 0 0 1 5.448-.316 79.99 79.99 0 0 0 53.293 20.306c20.27 0 39.615-7.595 54.482-21.388a3.85 3.85 0 0 1 5.454.21 3.864 3.864 0 0 1-.209 5.462c-16.284 15.124-37.498 23.449-59.721 23.449zM28.17 47.083a3.86 3.86 0 1 0 7.72 0V9.896a3.861 3.861 0 1 0-7.72 0zM17.896 50.947a3.861 3.861 0 0 1-3.86-3.866V9.893a3.861 3.861 0 1 1 7.72 0v37.188a3.86 3.86 0 0 1-3.86 3.866z"/><path d="M17.35 192.862c2.382 1.424 5.002 2.138 7.615 2.138 2.615 0 5.228-.714 7.606-2.138 6.037-3.613 9.269-10.926 8.866-20.063L36.844 68.801c8.04-2.7 13.074-7.999 13.074-14.025V9.892a3.861 3.861 0 1 0-7.72 0v44.884c0 2.9-4.296 6-10.213 7.369a3.865 3.865 0 0 0-2.988 3.938l4.73 107.057c.276 6.204-1.587 10.977-5.112 13.082-2.288 1.37-5.022 1.37-7.312 0-3.524-2.105-5.387-6.872-5.112-13.082l4.732-107.057a3.873 3.873 0 0 0-2.99-3.938c-5.917-1.37-10.213-4.468-10.213-7.37V9.893a3.86 3.86 0 1 0-7.72 0v44.884C0 60.808 5.035 66.1 13.075 68.8L8.481 172.8c-.402 9.136 2.83 16.45 8.868 20.063zM150.213 131.42h-20.878c-2.132 0-3.859-1.729-3.859-3.867s1.727-3.866 3.86-3.866h14.227l-22.72-39.827a3.87 3.87 0 0 1 1.44-5.276 3.856 3.856 0 0 1 5.266 1.443l26.017 45.616c.683 1.2.678 2.67-.01 3.863a3.852 3.852 0 0 1-3.344 1.916zM56.962 131.417h50.485a3.872 3.872 0 0 0 3.865-3.873 3.86 3.86 0 0 0-3.86-3.865H63.619l7.04-12.347a3.87 3.87 0 0 0-1.439-5.274 3.859 3.859 0 0 0-5.265 1.442l-10.34 18.128a3.876 3.876 0 0 0 .011 3.861 3.85 3.85 0 0 0 3.337 1.928zM78.18 94.208a3.872 3.872 0 0 1-1.913-.507 3.872 3.872 0 0 1-1.439-5.275l25.405-44.545a3.866 3.866 0 0 1 3.352-1.95c1.385 0 2.664.746 3.353 1.95l9.767 17.124a3.87 3.87 0 0 1-1.44 5.276A3.857 3.857 0 0 1 110 64.839l-6.418-11.252-22.053 38.667a3.835 3.835 0 0 1-3.348 1.954z"/><path d="M79.976 120.699a3.849 3.849 0 0 0 3.336 1.916c.662 0 1.334-.171 1.935-.53a3.867 3.867 0 0 0 1.39-5.287L63.323 76.762l14.342.066h.017a3.865 3.865 0 0 0 3.86-3.85 3.863 3.863 0 0 0-3.845-3.884L56.6 69h-.017a3.854 3.854 0 0 0-3.341 1.934 3.88 3.88 0 0 0 .01 3.883zM103.955 158.056a3.867 3.867 0 0 1-3.337-1.916l-9.555-16.406a3.866 3.866 0 0 1 1.39-5.287 3.854 3.854 0 0 1 5.278 1.391l6.202 10.652 21.882-37.961a3.857 3.857 0 0 1 5.272-1.414 3.863 3.863 0 0 1 1.41 5.281l-25.205 43.733a3.868 3.868 0 0 1-3.336 1.933c.006-.006.006-.006 0-.006zM138.203 94.776a3.803 3.803 0 0 0 1.925.519c1.334 0 2.63-.697 3.347-1.934l10.45-18.135a3.88 3.88 0 0 0 .006-3.861 3.859 3.859 0 0 0-3.332-1.939l-51.123-.232h-.016a3.865 3.865 0 0 0-3.86 3.851 3.863 3.863 0 0 0 3.843 3.882l44.474.2-7.126 12.368a3.865 3.865 0 0 0 1.413 5.28z"/></g></svg>