<svg width="200pt" height="200pt" viewBox="0 0 200 200" xmlns="http://www.w3.org/2000/svg" xmlns:bx="https://boxy-svg.com"><path d="M100 0a100 100 0 1 0 100 100 100.128 100.128 0 0 0-29.325-70.675A100.13 100.13 0 0 0 100 0H100Zm0 195.096a95.094 95.094 0 0 1-95.093-95.093A95.095 95.095 0 0 1 100 4.91a95.094 95.094 0 0 1 95.093 95.093 95.187 95.187 0 0 1-27.881 67.214 95.186 95.186 0 0 1-67.215 27.881l.003-.002Zm60.786-105.252c1.866-4.147 2.7-9.594-1.301-13.718a2.583 2.583 0 0 0-.442-.465l-.318-.197-.516-.319c-4.907-3.067-10.036-1.154-13.718 1.546a6.892 6.892 0 0 0-8.809-2.847c-4.907 2.626-6.945 12.662-7.657 17.719v-.002a13.267 13.267 0 0 0-5.449-.907 7.36 7.36 0 0 0-5.079 2.65 369.441 369.441 0 0 0-22.258 34.774c-15.167 26.797-15.362 35.412-13.521 39.265a2.459 2.459 0 0 0 1.103 1.374c.432.392.988.618 1.57.639a6.913 6.913 0 0 0 2.013.269c4.64 0 13.595-3.754 33.743-21.473a361.883 361.883 0 0 0 29.448-28.933 7.163 7.163 0 0 0 1.546-5.496 12.42 12.42 0 0 0-1.816-4.908c4.76-1.718 14.33-5.767 15.926-11.19v-.001a6.864 6.864 0 0 0-.743-4.9 6.864 6.864 0 0 0-3.844-3.124l.122.244Zm-14.871 26.454a249.248 249.248 0 0 1-19.362 19.633l-6.259-5.007a2.453 2.453 0 0 0-3.46.344 2.455 2.455 0 0 0 .344 3.46l5.742 4.54c-13.989 12.786-29.939 25.595-36.074 25.595-.26.043-.525.043-.786 0-1.766-3.803 3.24-15.558 10.086-28.393l5.57 4.54h.002c.439.352.983.542 1.546.54a2.457 2.457 0 0 0 1.914-.909 2.459 2.459 0 0 0 .582-1.785 2.46 2.46 0 0 0-.853-1.674l-6.258-5.08c4.1-7.558 8.713-15.165 12.835-21.595l5.375 4.369c.5.448 1.163.672 1.832.621a2.466 2.466 0 0 0 1.713-.899 2.46 2.46 0 0 0 .53-1.86 2.45 2.45 0 0 0-.983-1.666l-5.767-4.688c2.944-4.466 5.472-8.025 7.116-10.062l.002.001a2.446 2.446 0 0 1 1.692-.859c3.24-.27 9.153 3.338 13.595 7.166 4.564 3.485 9.35 8.49 9.816 11.805a2.305 2.305 0 0 1-.49 1.864Zm14.725-19.803c-.859 2.847-8.834 6.626-14.331 8.442h-.001a49.212 49.212 0 0 0-4.59-4.565l4.908-6.282a2.454 2.454 0 1 0-3.804-3.091l-5.03 6.282a47.913 47.913 0 0 0-5.104-3.535c.663-5.767 2.724-14.258 5.325-15.656.197 0 .516-.27 1.228 0l.565.197s.81.539.491 2.822l-.002-.001a2.456 2.456 0 0 0 1.423 2.454 2.457 2.457 0 0 0 2.872-.662c.27-.295 6.135-7.166 11.19-3.804 4.369 4.246-1.178 11.437-1.422 11.731l-.002-.001a2.454 2.454 0 0 0 2.773 3.83c1.84-.663 2.7-.295 2.847 0 .092.177.207.341.344.489.515.81.417 1.13.368 1.35h-.048Zm-82.258 11.14c3.656-3.582 7.362-7.362 11.142-8.687 23.51-9.006 29.792-20.124 30.725-22.085 9.2-13.301 5.274-31.461-8.934-41.4a35.485 35.485 0 0 0-7.583-3.999 2.448 2.448 0 0 0-2.159.196 2.454 2.454 0 0 0-1.154 1.865 8.987 8.987 0 0 1-2.353 5.196 8.969 8.969 0 0 1-5.01 2.73 8.904 8.904 0 0 1-5.717-.907 2.45 2.45 0 0 0-3.338 1.08 8.938 8.938 0 0 1-6.193 4.846 8.94 8.94 0 0 1-7.623-1.926 2.457 2.457 0 0 0-3.682.613c-3.215 5.375-7.116 15.361-7.363 32.515 0 4-2.257 8.81-4.368 13.472-2.455 5.275-4.908 10.969-4.49 16.024l-6.724 9.769a9.422 9.422 0 0 0-9.423 3.828 9.35 9.35 0 0 0 2.307 13.031 8.971 8.971 0 0 0 4.908 1.669 9.373 9.373 0 0 0 8.638 5.791 9.37 9.37 0 0 0 9.24-7.804 9.38 9.38 0 0 0-1.166-6.332l6.847-9.815c4.882-1.277 9.35-5.62 13.472-9.67ZM59.29 93.157c2.308-5.105 4.713-10.38 4.908-15.387.22-14.258 3.092-23.019 5.423-27.805v.002a13.817 13.817 0 0 0 17.719-4.171 13.79 13.79 0 0 0 17.374-8.614 33.052 33.052 0 0 1 3.926 2.305c12.27 8.564 15.46 23.486 7.583 34.75l-.245.441s-4.907 10.848-28.073 19.633c-4.687 1.792-8.834 5.84-12.835 9.815-7.018 6.872-11.558 10.896-16.76 7.363-5.204-3.533-3.093-9.398.98-18.332Zm-6.308 32.589a2.455 2.455 0 0 0 .247 3.093 4.467 4.467 0 0 1 .392 5.52 4.414 4.414 0 0 1-6.185 1.08 4.318 4.318 0 0 1-1.84-3.017 2.45 2.45 0 0 0-1.03-1.669c-.415-.277-.9-.43-1.4-.441a1.846 1.846 0 0 0-.514 0 4.415 4.415 0 0 1-3.462-.713 4.29 4.29 0 0 1-1.84-2.6 4.39 4.39 0 0 1 .736-3.314 4.468 4.468 0 0 1 5.473-1.595 2.454 2.454 0 0 0 2.97-.858l5.988-8.516a13.61 13.61 0 0 0 2.894 2.75c1.103.786 2.32 1.4 3.608 1.815l-6.037 8.465Z" bx:origin="0.999999 1"/></svg>