<svg width="200pt" height="200pt" viewBox="0 0 200 200" xmlns="http://www.w3.org/2000/svg"><path d="M186.289 40.347a3.375 3.375 0 0 0-4.433-1.728 3.366 3.366 0 0 0-1.726 4.433c25.562 58.134 12.878 120.162-28.253 138.261-41.148 18.13-95.4-14.459-120.957-72.598-.742-1.69-2.731-2.458-4.425-1.722a3.351 3.351 0 0 0-1.727 4.428C46.634 161.176 88.898 193 127.83 193c9.198 0 18.232-1.78 26.757-5.531 44.53-19.592 58.754-85.602 31.706-147.124z"/><path d="M178.007 46.129c-1.51-1.085-3.613-.77-4.702.742-22.032 30.277-58.921 45.66-86 53.228a3.372 3.372 0 0 0-2.337 4.146 3.375 3.375 0 0 0 3.24 2.458c.3 0 .61-.043.91-.129 28.1-7.86 66.46-23.912 89.621-55.753a3.364 3.364 0 0 0-.732-4.693zM78.54 111.097a3.361 3.361 0 0 0 2.963-3.717 3.365 3.365 0 0 0-3.714-2.968c-3.785.426-5.958.55-6.463.615-1.426.285-6.213 1.454-7.989 4.651-.79 1.418-.909 3.053-.328 4.6.605 1.604 1.938 10.969 3.073 20.422-.859-1.005-1.97-2.918-2.994-6.547-3.276-11.647-9.212-15.193-13.183-14.583a4.932 4.932 0 0 0-1.888.646c-1.577-.712-4.195-2.121-6.576-3.579a3.356 3.356 0 0 0-4.622 1.123 3.364 3.364 0 0 0 1.13 4.622c10.044 6.128 11.58 5.256 12.92 4.507.184-.102.352-.219.514-.342 1.214.78 3.5 3.231 5.238 9.426 1.842 6.525 4.635 10.571 8.3 12.035a8.176 8.176 0 0 0 2.994.572c1.536 0 2.876-.433 3.763-.97a3.347 3.347 0 0 0 1.606-3.26c-.4-3.557-2.367-20.598-3.714-25.62.668-.407 1.891-.872 2.611-1.05-.01.004 2.302-.127 6.358-.584z"/><path d="M96 79.63a30.087 30.087 0 0 1 2.496 10.017c.126 1.851 1.68 3.232 3.586 3.118a3.36 3.36 0 0 0 3.114-3.592 36.56 36.56 0 0 0-3.04-12.258c-8.207-18.674-30.07-27.172-48.727-18.975-18.658 8.217-27.164 30.088-18.96 48.753a3.358 3.358 0 0 0 4.43 1.724 3.361 3.361 0 0 0 1.727-4.433c-6.72-15.276.236-33.167 15.506-39.886 15.268-6.73 33.156.247 39.87 15.53zM93.04 55.145c-.562 1.772.433 3.656 2.208 4.217.331.106.668.151 1.005.151 1.427 0 2.755-.92 3.199-2.357a30.26 30.26 0 0 1 16.704-18.693 30.296 30.296 0 0 1 8.23-2.305c.236-.032.447-.151.662-.23.65 3.146 2.2 5.64 3.888 8.242l3.183-1.274 2.456-2.384c-1.007-1.55-1.842-2.831-2.392-4.086.474-.197.938-.393 1.407-.582 3.85-1.59 9.901-4.086 9.466-10.838 3.276-.315 8.585-.775 10.03.629.107.106.424.414.342 1.59a3.392 3.392 0 0 0 .826 2.47 3.36 3.36 0 0 0 2.35 1.136c.662.041 1.445.375 2.337.762 1.117.47 2.37 1.019 3.876 1.196 1.81.172 3.517-1.109 3.725-2.95a3.362 3.362 0 0 0-2.945-3.737c-.531-.056-1.24-.366-1.993-.687-.514-.218-1.065-.454-1.663-.67-.42-1.852-1.333-3.119-2.168-3.93-3.795-3.699-10.575-2.982-16.03-2.437-1.097.111-2.112.225-2.982.268a3.369 3.369 0 0 0-2.625 1.51 3.378 3.378 0 0 0-.342 3.01c1.339 3.634.578 4.25-4.764 6.457-1.38.564-2.759 1.182-4.056 1.879-.58-1.348-1.943-2.232-3.467-2.015a36.853 36.853 0 0 0-10.057 2.817 36.975 36.975 0 0 0-20.41 22.841zM48.931 51.687a3.368 3.368 0 0 0 3.342-3.797 30.289 30.289 0 0 1 7.357-23.967c5.355-6.05 12.747-9.649 20.815-10.142 8.1-.493 15.833 2.202 21.892 7.565.956.849 1.847 1.74 2.669 2.68a3.376 3.376 0 0 0 4.745.309 3.37 3.37 0 0 0 .305-4.751 36.372 36.372 0 0 0-3.276-3.275c-7.39-6.563-16.89-9.832-26.744-9.24-9.86.596-18.893 4.996-25.442 12.39a37.037 37.037 0 0 0-8.988 29.294 3.354 3.354 0 0 0 3.325 2.933zM169.422 121.5a3.37 3.37 0 0 0-1.192-4.606 3.355 3.355 0 0 0-4.603 1.2c-.084.144-9.078 14.908-39.59 20.018a3.36 3.36 0 0 0 .55 6.673c.184 0 .374-.01.558-.043 33.574-5.616 43.852-22.526 44.276-23.243zM152.203 148.65c-.144.18-14.881 17.887-41.527 16.708-1.825 0-3.416 1.375-3.493 3.236a3.374 3.374 0 0 0 3.231 3.492c.865.032 1.725.043 2.572.043 28.253 0 43.744-18.398 44.404-19.199a3.356 3.356 0 0 0-.452-4.734c-1.436-1.196-3.551-.968-4.733.454z"/><path d="M44.955 59.282a3.413 3.413 0 0 0-.027-2.706c-.077-.165-.208-.282-.314-.426.249-17.392-19.575-35.173-20.443-35.934a3.37 3.37 0 0 0-3.882-.407 3.366 3.366 0 0 0-1.643 3.54c2.92 15.772 7.759 24.81 12.157 30.028-14.705.784-28.619 9.315-29.223 9.695a3.37 3.37 0 0 0-1.497 3.606 3.37 3.37 0 0 0 2.914 2.587c4.44.48 8.626.724 12.459.724 24.21 0 29.03-9.61 29.5-10.707zM37.09 50.23c-2.639-2.72-5.894-7.448-8.645-15.553C32.05 39.27 35.53 44.798 37.09 50.23zM16.722 63.25c4.786-1.775 10.536-3.3 16.19-3.3.47 0 .938.014 1.395.033-3.267 1.583-8.71 3.135-17.585 3.266zM150.018 37.35c-1.787-.474-3.586.61-4.064 2.391-1.005 3.764-.295 8.118.4 12.326.236 1.419.461 2.799.62 4.1-1.118-.13-2.245-.333-3.399-.545-4.204-.761-8.954-1.61-13.57 1.202-5.81 3.546-11.036 10.922-9.608 19.415a3.375 3.375 0 0 0 3.876 2.757 3.351 3.351 0 0 0 2.755-3.875c-.896-5.366 2.723-10.267 6.472-12.56 2.326-1.413 4.883-1.048 8.876-.323 2.506.454 5.336.961 8.377.757a3.359 3.359 0 0 0 3.125-3.26c.087-2.822-.402-5.84-.89-8.76-.342-2.122-.703-4.283-.789-6.189 7.88 1.755 19.636 3.246 25.508-4.991a3.363 3.363 0 0 0-.78-4.691c-1.502-1.071-3.606-.715-4.694.789-4.264 5.976-16.847 2.805-22.216 1.457zM65.904 73.24a2.932 2.932 0 1 1-5.865 0 2.932 2.932 0 0 1 5.865 0M78.03 26.345a2.931 2.931 0 1 1-5.863 0 2.932 2.932 0 1 1 5.862 0M69.818 36.241a2.932 2.932 0 1 1-5.864 0 2.932 2.932 0 0 1 5.864 0M84.943 37.368a2.932 2.932 0 1 1-5.864 0 2.932 2.932 0 0 1 5.864 0M115.193 54.182a2.932 2.932 0 1 1-5.864 0 2.932 2.932 0 0 1 5.864 0M80.184 81.847a2.932 2.932 0 1 1-5.864 0 2.932 2.932 0 0 1 5.864 0M57.222 92.21a2.931 2.931 0 1 1-5.862 0 2.932 2.932 0 1 1 5.862 0"/></svg>