<svg width="200pt" height="200pt" viewBox="0 0 200 200" xmlns="http://www.w3.org/2000/svg"><path d="M106.13 179.8c-7.795 0-14.191-6.368-14.191-14.13s6.396-14.13 14.191-14.13 14.192 6.37 14.192 14.13c0 7.763-6.397 14.13-14.192 14.13zm0-24.476c-5.795 0-10.393 4.577-10.393 10.348 0 5.77 4.596 10.349 10.393 10.349 5.796 0 10.394-4.577 10.394-10.349 0-5.771-4.597-10.348-10.394-10.348zM128.716 180c-2.799 0-5.597-.995-7.596-2.985-.799-.795-.799-1.99 0-2.587.799-.795 2-.795 2.599 0 1.4 1.194 2.997 1.99 4.997 1.99 3.997 0 6.996-3.184 6.996-6.965 0-3.98-3.198-6.966-6.996-6.966-1.2 0-2.199.198-3.199.795-1 .399-1.999.199-2.598-.795-.4-.995-.2-1.99.799-2.588 1.599-.795 3.198-1.193 4.996-1.193 5.997 0 10.792 4.776 10.792 10.745.002 5.574-4.794 10.549-10.79 10.549zM152.5 113.533c-.799 0-1.6 0-2.398-.199-4.198-.795-7.994-3.781-10.993-8.756-3.198-5.174-3.597-8.557-5.397-20.896-.4-2.588-.799-5.572-1.199-8.955 0-.597.2-1.394.799-1.79.6-.4 1.199-.4 2-.2 2.997 1.394 5.795 2.787 7.993 3.782 11.792 5.572 14.59 6.966 18.587 11.542 3.798 4.379 5.597 8.757 4.997 13.135-.799 5.97-5.596 9.552-5.795 9.752 0-.202-3.798 2.584-8.594 2.584zm-15.79-36.02c.199 1.99.6 3.98.798 5.572 1.6 12.14 2 14.925 4.798 19.502 2.398 3.98 5.196 6.369 8.394 6.966 4.397.795 7.994-1.99 8.195-1.99.2 0 3.798-2.787 4.397-7.165.4-3.184-1-6.567-4.198-10.149-3.597-3.98-5.996-5.173-17.388-10.547-1.599-.597-3.198-1.392-4.997-2.189z"/><path d="M157.297 129.055c-.6 0-1.2-.199-1.6-.795-.599-.796-.4-1.991.4-2.588 3.998-2.786 5.997-5.77 5.997-8.556 0-3.582-3.198-6.37-3.198-6.37-.799-.796-1-1.99-.4-2.787.6-.795 1.798-.995 2.599-.398.2.198 4.797 3.781 4.797 9.353 0 4.18-2.599 7.96-7.595 11.542a1.1 1.1 0 0 1-1 .599zM180.682 130.448h-1.2c-4.397-.597-6.996-4.18-6.996-4.18s-2.798-3.581-1.798-7.96c.6-3.184 2.798-5.77 6.397-7.959 3.797-2.189 5.996-2.587 14.59-3.781 1.798-.199 3.798-.597 6.195-.796.6 0 1.4.199 1.799.796.4.597.4 1.194.2 1.99-1 2.19-1.8 3.98-2.6 5.573-3.798 8.16-4.797 10.148-7.994 12.934-2.996 2.19-5.795 3.383-8.593 3.383zm14.191-20.497c-1 .198-2 .198-2.798.398-8.195 1.194-10.193 1.394-13.192 3.184-2.599 1.593-4.198 3.383-4.596 5.374-.6 2.786 1.199 4.975 1.199 4.975s1.798 2.388 4.596 2.786c2 .198 4.198-.597 6.596-2.786 2.599-2.388 3.398-3.98 7.195-11.741.201-.598.6-1.395 1-2.19z"/><path d="M165.891 137.214c-1 0-1.798-.795-1.798-1.79 0-8.557 8.994-11.942 9.394-11.942 1-.398 1.999.199 2.398 1.194.4.996-.2 1.99-1 2.388 0 0-6.795 2.587-6.795 8.556-.4.798-1.2 1.594-2.199 1.594z"/><path d="M168.69 164.677c-34.778 0-60.561-25.274-60.96-25.473l-7.995-7.96c-.799-.795-1.4-1.393-1.798-2.387-.6-.795-.4-1.99.6-2.587.798-.597 1.998-.399 2.598.596.4.597.799 1.194 1.4 1.791l7.994 7.96c.4.398 39.174 38.208 84.944 19.105 0 0 .2-.199.2-.399 0-.198-.2-.198-.2-.198-8.593-1.79-31.58-6.369-56.563-35.423-4.397-5.174-8.593-9.751-12.592-13.731l-.4-.399c-.6-.597-1-.995-1.6-1.394-.798-.596-1.198-1.79-.599-2.587.6-.795 1.799-1.194 2.599-.597l2.398 1.79.4.4c3.997 3.979 8.195 8.556 12.792 13.93 20.985 24.677 39.974 31.045 53.965 34.03 1.798.4 2.997 1.792 3.198 3.582.2 1.79-.799 3.582-2.599 4.18-9.593 4.178-18.987 5.77-27.782 5.77z"/><path d="M99.535 129.85c-.6 0-1-.198-1.4-.596-.2-.198-11.193-12.736 2.198-25.87 13.192-13.135 25.984-2.19 25.984-1.991.799.596.799 1.79.2 2.587-.6.795-1.8.795-2.6.199-.4-.399-10.193-8.757-20.986 1.99-10.792 10.746-2.398 20.498-2 20.896.6.795.6 1.99-.199 2.587-.397 0-.797.199-1.197.199z"/><path d="M101.933 124.08c-.4 0-.799-.199-1-.399-.798-.596-1-1.79-.4-2.587 2-2.786 5.796-5.97 12.392-5.572-.6-6.966 2.997-10.746 6.195-12.736.8-.597 2-.399 2.6.596.599.796.4 1.991-.6 2.588-3.798 2.388-5.197 6.169-4.198 11.344.199.597 0 1.194-.6 1.592-.4.399-1 .597-1.599.597-4.997-.995-8.795.199-11.192 3.581-.4.796-.999.996-1.598.996zM100.334 107.762c-.6 0-1.199-.199-1.6-.796-.198-.398-5.396-7.761-16.588-7.363-1 0-2-.795-2-1.79s.8-1.991 1.799-1.991c13.391-.597 19.587 8.556 19.987 8.955.6.795.4 1.99-.6 2.587-.398.199-.6.397-.998.397zM184.48 42.29H11.191C4.997 42.29 0 37.313 0 31.143 0 24.975 4.997 20 11.192 20H184.48c6.196 0 11.192 4.975 11.192 11.144 0 6.17-4.996 11.145-11.192 11.145zM11.191 23.78c-3.997 0-7.395 3.383-7.395 7.363s3.398 7.363 7.395 7.363H184.48c3.997 0 7.395-3.383 7.395-7.363s-3.398-7.363-7.395-7.363z"/><path d="M84.544 115.722H56.762c-.199 0-.4 0-.599-.199C11.792 99.803 9.593 41.096 9.593 40.5c0-.996.8-1.791 1.799-1.99 1 0 1.798.795 2 1.79 0 .597 2.198 56.517 43.97 71.641h27.382c1 0 1.799.796 1.799 1.79-.198 1.196-.999 1.992-1.998 1.992zM170.688 88.657c-.4 0-.6 0-1-.198-.798-.597-1.198-1.593-.599-2.588C181.481 64.975 182.48 40.697 182.48 40.3c0-.995 1-1.79 2-1.79s1.798.795 1.798 1.99c0 .995-1 25.671-13.791 47.363-.399.596-.999.794-1.799.794z"/><path d="M84.145 128.06H65.157c-3.597 0-6.996-1.79-8.993-4.577-2-2.786-2.6-6.369-1.4-9.751l.2-.399c.4-.995 1.598-1.393 2.397-.995 1 .398 1.4 1.394 1 2.388 0 0 0 .198-.2.198a6.621 6.621 0 0 0 1 6.369c1.4 1.99 3.597 2.984 5.997 2.984h18.987c1 0 1.798.796 1.798 1.791 0 .997-.6 1.992-1.798 1.992z"/></svg>