<svg width="200pt" height="200pt" viewBox="0 0 200 200" xmlns="http://www.w3.org/2000/svg"><path d="M172.6 86.6c-1.001 0-1.8-.6-2.2-1.4-.401-1.2.199-2.4 1.4-3 .2 0 7.2-2.8 11-9-2.8-.8-7.6-1.8-13.2-.8l-5.2.8 2.8-4.4s4.8-7.2 7.2-13c-3-1.199-5.4-3.8-6.2-7.2v-.199c-.199 0-.199.2-.4.2-2.8 1.6-6.2 1.8-9.2.4-2.2 5.2-5.2 13.6-5.2 13.6l-1.4 4-2.601-3.4c-3-4-6.8-6.6-9.201-8-1.2 4.8-.2 9.6.6 12.4.4 1.2-.4 2.4-1.6 2.8-1.2.4-2.4-.4-2.8-1.6-1.2-3.8-2.6-11 .4-17.8l1-2.2 2.2 1c.2.2 5.4 2.6 10.4 7.6 1.402-4 3.801-10 5.401-13l1.4-2.8 2.201 2.2c1.6 1.601 4.2 2.001 6 .8.8-.6 2-1.2 3.2-2l2.8-1.8 1.401 6.6c.4 2.4 2.6 4 4.8 4h3.201l-1 3C178.4 58.4 175.6 63.6 173.4 67c7.6-.2 13.2 2.4 13.4 2.4l2 1-.799 2c-4 9.4-14.4 13.4-14.8 13.6-.003.4-.403.6-.603.6z"/><path d="M152.2 85.6c-.401 0-.6 0-1.001-.2-1.2-.6-1.6-2-1-2.999l4-8.2c.6-1.2 2-1.6 2.999-1 1.2.6 1.6 2 1 2.999l-4 8.2c-.399.8-1.2 1.2-1.999 1.2zM118.4 168.6H86.2c-51 0-65.4-53.8-67.8-64.6H12c-3.8 0-7-3.2-7-7 0-4 3.2-7 7-7h176c3.8 0 7 3.2 7 7 0 3.801-3.2 7.001-7 7.001h-6.2c-.6 2.4-1.6 7.001-3.599 12.8-.4 1.2-1.8 1.8-3 1.401-1.2-.4-1.799-1.8-1.4-3 2.8-7.999 3.8-13.8 3.8-13.999l.4-2h10.2c1.401 0 2.4-1 2.4-2.4s-1-2.4-2.4-2.4l-176.2-.003c-1.4 0-2.4 1-2.4 2.4s1.001 2.4 2.4 2.4h10.2l.4 2c.4 2.6 11 62.8 63.6 62.8h32.2c1.2 0 2.2 1 2.2 2.2 0 1.401-1 2.4-2.2 2.4z"/><path d="M118.4 184.2H51.6V182c0-13.6 9.8-19.2 13.999-20.8 1.2-.4 2.6 0 3 1.2.4 1.2 0 2.6-1.2 3-3.8 1.6-10.2 5.6-11.2 14.4h62c1.2 0 2.2 1 2.2 2.2.2 1.2-.8 2.2-2 2.2zM172 200h-36.4c-5.2 0-9.6-4.2-9.801-9.4l-1.4-37.6c0-1.2 1-2.4 2.2-2.4 1.2 0 2.2 1 2.2 2.2l1.4 37.6c.2 2.8 2.4 5 5.2 5h36.6c2.8 0 5-2.2 5.2-5l1.4-37.6c0-1.2 1-2.2 2.4-2.2 1.2 0 2.2 1.2 2.2 2.4l-1.401 37.6c-.2 5.2-4.6 9.4-9.8 9.4z"/><path d="M175.2 156.4c-2.601 0-5.2-.6-7.4-1.8-1.2-.6-1.6-2-1-3 .6-1.199 2-1.6 2.999-1 2.2 1.2 4.6 1.6 7 1.2 5.2-.799 9.4-5 10-10.2.6-4.4-1.6-8.8-5.6-11.799-5.799-4.4-16-4.4-26.6-4.4h-1.8c-10.6 0-20.798 0-26.6 4.4-3.999 3-6.199 7.4-5.6 11.8.6 5.2 4.801 9.6 10 10.2 2.4.4 5 0 7.002-1.2 1.2-.6 2.4-.2 2.999 1 .6 1.2.2 2.4-1 3-3 1.6-6.401 2.2-9.8 1.6-7.2-1-13-7.001-13.801-14.201-.6-6 2-12.001 7.4-16 7.2-5.401 17.8-5.401 29.4-5.401h1.8c11.6 0 22.2 0 29.4 5.4 5.4 4 7.999 10 7.399 16-.8 7.2-6.6 13.201-13.8 14.201-.798.2-1.598.2-2.399.2zM37.2 80.2c-13.4 0-24.801-8.2-27.8-19.8-.401-2.001 0-4 1.199-5.4 1.2-1.601 3.2-2.601 5.2-2.601h93.6c6.2 0 11.4 5.2 11.4 11.4 0 5.2-4.2 9.6-9.6 9.6-4.4 0-8.2-3.6-8.2-8.2 0-1.2 1-2.2 2.2-2.2s2.2 1 2.2 2.2c0 2 1.6 3.6 3.6 3.6 2.8 0 5-2.201 5-5 0-3.6-2.8-6.6-6.4-6.8h-.401l-93.4.002c-.6 0-1.2.2-1.6.8-.2.2-.4.6-.2 1.4 2.4 9.6 12.2 16.401 23.2 16.401 8.8 0 16.8-4.2 21-11.2.6-1 2.001-1.4 3.201-.799 1 .6 1.4 2 .8 3.2-5 8.397-14.6 13.397-25 13.397zM46.4 34c-1.2 0-2.2-.8-2.2-2.001-.2-1.2.799-2.4 2-2.4 1.2-.2 2.2-.799 2.8-1.8.6-1 .8-2.2.4-3.4C48.6 22.2 46 21 43.2 19.8s-6-2.6-7.8-5.4c-1.8-2.6-1.8-5.6-1-8.2-4.8 1.6-9 4.8-11 8.4-2 3.599-2.2 7.6-.2 12 .6 1.2 0 2.6-1.2 3-1.2.6-2.6 0-2.999-1.2-2.4-5.6-2.4-11.2.4-16 3.4-6 10.6-10.6 18.4-11.8l3.997-.6-1.8 3.8c-1.8 3.8-2 6.2-.799 8 1.2 1.8 3.4 2.8 5.8 3.8 3.2 1.4 7 3 8.599 7 1 2.4.8 5.2-.6 7.4s-3.6 3.8-6.4 4h-.199z"/><path d="M50 48c-1.001 0-2.001-.8-2.2-1.8-.2-1.2.6-2.4 1.799-2.6 2.4-.4 4.8-2.6 5.2-4.8.6-3.2-1.401-6.6-4.6-7.8-1.2-.4-1.8-1.8-1.4-3 .4-1.2 1.799-1.8 2.999-1.4 5.4 2 8.599 7.399 7.4 12.8-.8 4.2-4.6 7.8-9 8.4.202.2.001.2-.198.2zM16.2 48c-.8 0-1.401-.4-1.8-1-1.6-2.4-2.6-5.4-2.6-8.4 0-8.2 6.6-14.8 14.8-14.8 1.2 0 2.2 1 2.2 2.2s-1 2.2-2.2 2.2c-5.6 0-10.2 4.6-10.2 10.2 0 2 .6 3.999 1.8 5.798.799 1 .4 2.4-.6 3.2-.6.402-1 .602-1.401.602z"/></svg>