<svg width="200pt" height="200pt" viewBox="0 0 200 200" xmlns="http://www.w3.org/2000/svg"><path d="M100 0C44.842 0 0 44.842 0 100s44.842 100 100 100 100-44.842 100-100S155.158 0 100 0zM6.947 100c0-24.421 9.474-46.526 24.842-63.158L52 57.053l6.738-3.157L36.842 31.79C53.472 16.42 75.58 6.948 100 6.948c51.368 0 93.053 41.684 93.053 93.052 0 24.422-9.474 46.527-24.842 63.158l-18.105-18.105c-.421.421-.841.631-1.474.841l-5.052 2.528 19.79 19.79c-16.631 15.368-38.737 24.84-63.158 24.84-51.58 0-93.264-41.683-93.264-93.052z"/><path d="M147.79 136.632v-28.844l13.263-6.104c1.263-.632 2.106-1.895 2.106-3.157l-.002-35.16c0-1.262-.841-2.525-2.105-3.157l-30.526-13.895c-.842-.421-1.895-.421-2.948 0L97.052 60.21c-1.263.632-2.105 1.895-2.105 3.158v6.104L69.684 57.894c-.842-.421-1.895-.421-2.948 0L36.21 71.79c-1.262.632-2.105 1.895-2.105 3.158v35.158c0 1.262.841 2.525 2.105 3.157l30.526 13.895c.422.21 1.053.21 1.475.21s1.053 0 1.474-.21l10.316-4.632v14.106c0 1.263.842 2.525 2.106 3.157l30.526 13.895c.422.21 1.053.21 1.475.21s1.053 0 1.474-.21l30.526-13.895c.838-.63 1.681-1.893 1.681-3.156zm8.21-40.21-8.42 3.788c-.21-.842-1.053-1.685-1.895-2.106l-13.263-6.105V79.58l23.368-10.737-.001 27.579zm-26.947-43.159 22.105 10.105-22.105 10.105-22.106-10.105zm-26.948 15.58 23.369 10.736v9.263l-10.316-4.631c-.842-.422-1.895-.422-2.948 0l-10.105 4.631zm-37.263 49.684L41.473 107.79V80.21l23.369 10.737zm3.368-33.475L46.105 74.947 68.21 64.842l22.106 10.105zM80 101.262v13.474l-8.211 3.79V90.947l23.368-10.736V92l-13.263 6.104C80.84 98.737 80 100 80 101.263zm30.526 43.79-23.369-10.736v-27.579l23.369 10.737zm3.368-33.685L91.79 101.262l22.105-10.104L136 101.262zm26.948 22.949-23.369 10.736v-27.578l23.369-10.737z"/></svg>