<svg width="200pt" height="200pt" viewBox="0 0 200 200" xmlns="http://www.w3.org/2000/svg"><path d="M120.101 132.578c2.323.065 4.612.456 6.688 1.027-2.187 7.205-7.003 12.716-10.645 14.652-3.993 2.109-9.305 2.235-13.364-.758-.187-5.424 2.276-9.609 6.069-12.076 3.35-2.187 7.359-2.944 11.253-2.845zm-40.19 0c3.88-.1 7.901.658 11.25 2.845 3.795 2.465 6.261 6.652 6.057 12.076-4.046 2.993-9.353 2.867-13.352.758-3.64-1.936-8.47-7.447-10.645-14.652 2.072-.57 4.348-.962 6.69-1.027zm.048-5.332c-3.337.038-6.952.556-10.785 1.618a2.742 2.742 0 0 0-1.945 3.338c2.693 10.39 7.826 17.496 14.208 20.871 4.982 2.644 10.658 2.731 15.805.508v17.534c0 3.677 5.512 3.677 5.512 0V153.58c5.146 2.224 10.837 2.137 15.817-.507 6.372-3.377 11.518-10.48 14.213-20.872a2.745 2.745 0 0 0-1.95-3.337c-5.106-1.417-9.823-1.871-14.032-1.478-4.212.378-7.902 1.592-10.936 3.562a18.15 18.15 0 0 0-5.852 6.173c-1.43-2.44-3.389-4.565-5.867-6.173-3.033-1.97-6.727-3.184-10.936-3.562a34.32 34.32 0 0 0-3.252-.139zM120.101 101.507c2.323.06 4.612.438 6.688 1.022-2.187 7.194-7.003 12.72-10.645 14.652-3.993 2.113-9.305 2.226-13.364-.77-.187-5.424 2.276-9.595 6.069-12.07 3.35-2.177 7.359-2.948 11.253-2.834zm-40.19 0c3.88-.115 7.901.658 11.25 2.832 3.795 2.477 6.261 6.649 6.057 12.07-4.046 2.998-9.353 2.883-13.352.77-3.64-1.932-8.47-7.456-10.645-14.652a27.546 27.546 0 0 1 6.69-1.02zm.048-5.339c-3.337.028-6.952.557-10.785 1.619a2.73 2.73 0 0 0-1.945 3.328c2.693 10.39 7.826 17.509 14.208 20.884 5.895 3.124 12.77 2.706 18.575-.934 5.79 3.64 12.669 4.057 18.559.934 6.371-3.377 11.518-10.493 14.212-20.884a2.734 2.734 0 0 0-1.949-3.328c-5.107-1.416-9.823-1.872-14.032-1.494-4.213.381-7.902 1.605-10.936 3.566a18.08 18.08 0 0 0-5.852 6.182c-1.43-2.453-3.39-4.575-5.867-6.182-3.033-1.961-6.727-3.185-10.936-3.566a31.58 31.58 0 0 0-3.252-.125zM120.101 71.605c2.323.078 4.612.456 6.688 1.028-2.187 7.204-7.003 12.719-10.645 14.651-3.993 2.114-9.305 2.24-13.364-.757-.187-5.425 2.276-9.61 6.069-12.076 3.35-2.186 7.359-2.944 11.253-2.845zm-40.19 0c3.88-.099 7.901.66 11.25 2.845 3.795 2.466 6.261 6.652 6.057 12.077-4.046 2.997-9.353 2.87-13.352.757-3.64-1.932-8.47-7.447-10.645-14.652a28.946 28.946 0 0 1 6.69-1.027zm.048-5.333c-3.337.038-6.952.556-10.785 1.618a2.742 2.742 0 0 0-1.945 3.338c2.693 10.39 7.826 17.496 14.208 20.871 5.895 3.136 12.77 2.719 18.575-.922 5.79 3.64 12.669 4.058 18.559.922 6.371-3.376 11.518-10.479 14.212-20.871a2.745 2.745 0 0 0-1.949-3.338c-5.107-1.417-9.823-1.87-14.032-1.478-4.213.378-7.902 1.593-10.936 3.566a18.164 18.164 0 0 0-5.852 6.168c-1.43-2.44-3.39-4.564-5.867-6.168-3.033-1.973-6.727-3.186-10.936-3.566-1.053-.1-2.141-.14-3.252-.14z"/><path d="M99.986 33.032c5.159 5.954 7.7 11.784 7.509 16.525-.201 4.827-2.96 8.687-7.46 11.124-4.512-2.437-7.304-6.333-7.522-11.164-.2-4.739 2.34-10.541 7.473-16.485zm-.051-6.886a2.737 2.737 0 0 0-1.884.808c-7.562 7.534-11.076 15.562-10.747 22.795.319 7.23 4.69 13.425 11.606 16.483a2.83 2.83 0 0 0 2.224 0c6.916-3.058 11.266-9.24 11.571-16.474.302-7.216-3.214-15.254-10.788-22.804a2.788 2.788 0 0 0-1.982-.807z"/><path d="M100.01 5.502c25.12 0 47.916 9.797 64.832 25.767l-29.509 29.518a2.763 2.763 0 0 0-.038 3.92 2.763 2.763 0 0 0 3.921-.011l29.52-29.518c15.972 16.912 25.77 39.72 25.77 64.826 0 52.227-42.28 94.51-94.494 94.51-25.123 0-47.932-9.81-64.851-25.777l27.488-27.484c1.806-1.745.517-4.816-2.01-4.729a2.76 2.76 0 0 0-1.895.848l-27.48 27.455C15.299 147.914 5.498 125.118 5.498 100c0-52.211 42.283-94.498 94.51-94.498zm0-5.502C44.81 0 0 44.807 0 100.002 0 155.197 44.81 200 100.01 200S200 155.2 200 100.002C200.002 44.807 155.205 0 100.01 0z" fill-rule="evenodd"/></svg>