<svg width="200pt" height="200pt" viewBox="0 0 200 200" xmlns="http://www.w3.org/2000/svg"><path d="M24.13 163.188a3.41 3.41 0 0 0 2.673-5.524A92.132 92.132 0 0 1 6.82 99.984a93.196 93.196 0 0 1 23.655-62.018 93.177 93.177 0 0 1 123.236-14.11 3.407 3.407 0 0 0 4.751-.813 3.406 3.406 0 0 0-.813-4.752A99.994 99.994 0 0 0 25.387 33.425 100.006 100.006 0 0 0 .001 99.985a98.872 98.872 0 0 0 21.45 61.897 3.407 3.407 0 0 0 2.677 1.305z"/><path d="M178.93 40.904a3.425 3.425 0 0 0-2.79 5.397 93.164 93.164 0 0 1-76.136 146.877c-.514 0-1 0-1.623-.027a92.438 92.438 0 0 1-61.786-24.91l31.023-31.026h-.001a53.1 53.1 0 0 0 68.815.252c.026-.016.043-.036.068-.054l.018-.014c.047-.035.09-.07.136-.106.046-.037.114-.084.168-.132l.014-.014.075-.068c.059-.059.111-.12.166-.183.016-.017.038-.031.054-.05l.051-.064c.067-.079.132-.158.19-.242.02-.03.051-.051.068-.08l.018-.031h.002a53.12 53.12 0 0 0-.267-68.797L184.17 20.65v.001a3.412 3.412 0 0 0-4.824-4.822l-46.884 46.897a53.063 53.063 0 0 0-51.295-11.463 3.41 3.41 0 0 0-2.296 5.229l3.057 4.642h-.74A19.093 19.093 0 0 0 62.13 80.194l-.001 2.402-5.628-3.716v.001a3.41 3.41 0 0 0-5.227 2.294 53.074 53.074 0 0 0 11.453 51.3l-33.41 33.412c-.21.238-.387.503-.523.79-.08.107-.157.222-.227.337-.08.252-.131.512-.15.776-.046.166-.08.336-.1.507.02.178.055.354.103.528.02.257.07.51.147.756.089.159.189.311.3.455.122.246.276.474.455.682a99.2 99.2 0 0 0 68.832 29.25c.625.032 1.22.032 1.845.032a99.965 99.965 0 0 0 66.495-25.3 99.992 99.992 0 0 0 15.382-132.094 3.414 3.414 0 0 0-2.952-1.698zM72.46 132.382l20.953-20.947 35.335 23.354a46.289 46.289 0 0 1-56.29-2.407zm25.865-25.869 8.182-8.182 15.933 24.113zm44.839-4.346a46.423 46.423 0 0 1-8.385 26.594l-23.354-35.35 20.945-20.947a46.176 46.176 0 0 1 10.794 29.704zm-15.56-34.576-20.001 20.014-20.396-30.85a45.974 45.974 0 0 1 40.396 10.836zM68.95 80.193a12.25 12.25 0 0 1 12.239-12.24h5.244l16.237 24.573-10.15 10.15-23.57-15.574zM55.74 96.724a46.203 46.203 0 0 1 1.012-9.51L87.6 107.6l-20.013 20.014v-.002A46.223 46.223 0 0 1 55.74 96.724z"/></svg>