<svg width="200pt" height="200pt" viewBox="0 0 200 200" xmlns="http://www.w3.org/2000/svg"><path d="M141.934 109.68c0-2.816-.75-5.605-2.168-8.064l-5.589 3.224a9.703 9.703 0 0 1 1.306 4.84c0 11.333-5.523 22.04-14.776 28.639l3.745 5.252c10.947-7.806 17.482-20.477 17.482-33.892zM90.32 151.615a3.225 3.225 0 1 1-6.45 0 3.225 3.225 0 0 1 6.45 0M83.87 145.161a3.226 3.226 0 1 1-6.452-.002 3.226 3.226 0 0 1 6.453.002M96.774 145.161a3.225 3.225 0 1 1-6.451 0 3.225 3.225 0 0 1 6.45 0M62.642 117.765l3.746-5.253c-9.25-6.599-14.775-17.306-14.775-28.64 0-1.685.452-3.359 1.306-4.839L47.33 75.81a16.16 16.16 0 0 0-2.168 8.064c0 13.415 6.535 26.084 17.48 33.892z"/><path d="M180.147 114.636a35.473 35.473 0 0 0 6.946-21.088v-45.16c0-8.653-7.241-16.379-20.433-21.846a9.896 9.896 0 0 0-6.434-5.133l-4.27-1.067a3.45 3.45 0 0 1-2.448-2.266l-.902-2.708a9.875 9.875 0 0 0-7.003-6.485l-6.355-1.588a3.457 3.457 0 0 1-2.258-1.812A9.86 9.86 0 0 0 128.12 0h-4.632a9.861 9.861 0 0 0-8.87 5.483 3.463 3.463 0 0 1-2.26 1.812l-6.354 1.588A9.872 9.872 0 0 0 99 15.368l-.903 2.708a3.454 3.454 0 0 1-2.447 2.267l-4.272 1.068a9.897 9.897 0 0 0-6.432 5.132c-13.19 5.466-20.432 13.192-20.432 21.844v16.129l-5.162-3.871a12.98 12.98 0 0 0-7.741-2.581c-2.36 0-4.697.668-6.71 1.89L43 59.319a24.449 24.449 0 0 0-7.741-1.255c-8.77.001-15.904 7.135-15.904 15.906 0 4.095 1.609 8.003 4.358 10.921a16.434 16.434 0 0 0-4.358 11.194c0 5.305 2.617 10.29 6.837 13.361-.14.63-.24 1.267-.302 1.911C9.174 119.593 0 130.403 0 141.935v12.903c0 12.567 10.756 24.15 30.287 32.613C48.961 195.544 73.718 200 100 200s51.038-4.456 69.713-12.549C189.244 178.989 200 167.405 200 154.838v-12.903c0-10.134-6.847-19.519-19.849-27.3zM90.321 31.033a3.46 3.46 0 0 1 2.625-3.362l4.272-1.068a9.872 9.872 0 0 0 7.003-6.485l.902-2.708a3.454 3.454 0 0 1 2.447-2.267l6.353-1.588a9.904 9.904 0 0 0 6.465-5.187 3.446 3.446 0 0 1 3.1-1.915h4.632c1.321 0 2.508.734 3.1 1.915a9.906 9.906 0 0 0 6.465 5.186l6.354 1.588a3.45 3.45 0 0 1 2.447 2.265l.903 2.708a9.875 9.875 0 0 0 7.003 6.486l4.27 1.067a3.46 3.46 0 0 1 2.625 3.362v.318c0 3.781 2.101 7.18 5.482 8.87.598.299.97.9.97 1.57v6.601c0 .755-2.001 3.484-10.888 6.023-8.249 2.356-19.275 3.655-31.047 3.655-11.771 0-22.798-1.298-31.047-3.655-8.888-2.54-10.887-5.268-10.887-6.023v-6.6c0-.668.371-1.27.97-1.568a9.864 9.864 0 0 0 5.48-8.87zm-11.36 5.954a8.176 8.176 0 0 0-1.544 4.802v6.6c0 11.08 25.082 16.128 48.385 16.128 23.305 0 48.385-5.047 48.385-16.128v-6.6a8.18 8.18 0 0 0-1.543-4.802c5.123 3.507 7.994 7.497 7.994 11.402 0 5.46-5.5 11.038-15.09 15.3-10.564 4.695-24.68 7.281-39.746 7.281-15.068 0-29.184-2.585-39.746-7.28-9.59-4.263-15.09-9.84-15.09-15.3 0-3.906 2.87-7.895 7.993-11.403zm-7.994 24.664c3.108 2.952 7.294 5.632 12.47 7.932 11.37 5.055 26.416 7.838 42.367 7.838 15.951 0 30.997-2.783 42.367-7.836 5.177-2.3 9.362-4.98 12.47-7.933V93.55a29.037 29.037 0 0 1-13.364 24.446 16.375 16.375 0 0 0-3.896-7.295c2.75-2.92 4.358-6.828 4.358-10.923 0-8.77-7.135-15.905-15.905-15.905-2.636 0-5.24.423-7.742 1.256l-1.903.634a12.983 12.983 0 0 0-6.707-1.89 12.98 12.98 0 0 0-7.741 2.581l-16.99 12.741-39.784-29.838zm87.187 67.521a16.058 16.058 0 0 0-3.317-3.363l-2.01-1.507a54.542 54.542 0 0 0 1.93-11.825l.212.086a10.003 10.003 0 0 1 6.318 9.331c0 2.775-1.176 5.405-3.133 7.279zm-10.023 18.745a16.724 16.724 0 0 0-3.05-7.13 54.5 54.5 0 0 0 2.68-4.254 54.101 54.101 0 0 0 2.847-5.83l.356.266a9.726 9.726 0 0 1 3.872 7.742c0 4.296-2.813 7.945-6.705 9.206zm-6.198 2.915c0 5.768-4.692 10.46-10.459 10.46a10.38 10.38 0 0 1-6.897-2.598l3.799-2.28a54.53 54.53 0 0 0 12.452-10.268 10.416 10.416 0 0 1 1.105 4.686zm-102.97-28.717c-3.886-1.259-6.704-4.91-6.704-9.21a9.72 9.72 0 0 1 3.871-7.74l.356-.267a54.35 54.35 0 0 0 2.847 5.83 54.213 54.213 0 0 0 2.68 4.253 16.695 16.695 0 0 0-3.05 7.134zm7.303-1.775a54.542 54.542 0 0 0 12.453 10.268l3.798 2.28a10.38 10.38 0 0 1-6.897 2.598c-5.767 0-10.458-4.693-10.458-10.46 0-1.654.383-3.249 1.105-4.686zm13.32 29.281 4.93-2.463v-1.994a5.718 5.718 0 0 1 3.914-5.43l5.086-1.696 1.695-5.086a5.717 5.717 0 0 1 5.068-3.901 54.543 54.543 0 0 1 35.147 28.382l-2.917 2.917c-.61.61-1.42.944-2.28.944h-7.814a9 9 0 0 0-6.408 2.654l-2.46 2.46c-.863.863-2.008 1.337-3.226 1.337s-2.365-.474-3.225-1.336l-2.461-2.461a9 9 0 0 0-6.408-2.654h-3.653a2.595 2.595 0 0 1-2.334-1.442 9.011 9.011 0 0 0-8.105-5.008h-3.316a2.758 2.758 0 0 1-2.756-2.756 2.746 2.746 0 0 1 1.524-2.466zm72.024-58.007a6.497 6.497 0 0 1 3.871-1.29c1.387 0 2.763.457 3.872 1.29 5.655 4.243 9.031 10.995 9.031 18.065 0 16.782-8.94 32.57-23.328 41.204l-4.39 2.634a60.973 60.973 0 0 0-33.023-28.926zm26.463 15.261a16.902 16.902 0 0 0-.709-.304l-2.846-1.138a29.26 29.26 0 0 0-6.692-14.654c1.313-.3 2.654-.455 4.007-.455 5.214 0 9.455 4.24 9.455 9.454a9.505 9.505 0 0 1-3.215 7.097zM51.611 64.518c1.387 0 2.762.457 3.871 1.29l49.892 37.418-25.877 19.409a12.153 12.153 0 0 0-9.884 6.985l-7.575-4.545c-14.39-8.635-23.33-24.421-23.33-41.204 0-7.07 3.376-13.822 9.032-18.065a6.5 6.5 0 0 1 3.871-1.29zm-16.352 0c1.354 0 2.694.155 4.007.455a29.258 29.258 0 0 0-6.692 14.654l-2.846 1.138c-.24.096-.474.198-.709.304a9.505 9.505 0 0 1-3.214-7.097c0-5.213 4.241-9.454 9.455-9.454zm-9.454 31.57c0-4.134 2.48-7.798 6.318-9.332l.212-.085a54.624 54.624 0 0 0 1.93 11.824l-2.008 1.507a16.06 16.06 0 0 0-3.318 3.364c-1.958-1.874-3.134-4.504-3.134-7.279zm.893 22.098c1.894 5.448 6.63 9.573 12.437 10.597 1.713 7.522 8.451 13.154 16.485 13.154 1.002 0 1.99-.092 2.956-.26-.136.458-.252.926-.335 1.403l-1.54.77a9.159 9.159 0 0 0-5.09 8.235c0 5.077 4.13 9.206 9.206 9.206h3.316c.994 0 1.889.553 2.334 1.443a9.011 9.011 0 0 0 8.105 5.008h3.653c.698 0 1.352.272 1.846.765l2.46 2.46c2.08 2.08 4.847 3.226 7.788 3.226s5.707-1.145 7.788-3.226l2.46-2.46a2.594 2.594 0 0 1 1.846-.765h7.814a9.614 9.614 0 0 0 6.843-2.835l2.28-2.28.162.161a16.802 16.802 0 0 0 11.959 4.953c8.032 0 14.769-5.631 16.485-13.152 7.563-1.327 13.33-7.938 13.33-15.877 0-1.172-.135-2.33-.385-3.457a16.682 16.682 0 0 0 6.465-9.908 35.488 35.488 0 0 0 8.397-5.8c11.487 6.619 17.78 14.514 17.78 22.39 0 20.984-42.839 38.71-93.545 38.71s-93.545-17.725-93.545-38.71c0-8.514 7.154-16.861 20.247-23.751zm73.298 75.364c-47.449 0-88.005-15.522-93.023-34.71 5.128 5.897 12.994 11.239 23.312 15.709 18.674 8.094 43.43 12.55 69.712 12.55s51.039-4.456 69.713-12.549c10.317-4.471 18.184-9.813 23.312-15.709-5.017 19.187-45.574 34.71-93.023 34.71z"/><path d="M122.58 29.032a3.226 3.226 0 1 1-6.452.001 3.226 3.226 0 0 1 6.453 0M148.384 35.485a3.225 3.225 0 1 1-6.45 0 3.225 3.225 0 0 1 6.45 0M129.03 48.386a3.225 3.225 0 1 1-6.45 0 3.225 3.225 0 0 1 6.45 0"/></svg>