<svg width="200pt" height="200pt" viewBox="0 0 200 200" xmlns="http://www.w3.org/2000/svg"><path d="M157.415 155.98C184.084 149.909 200 130.61 200 104.159c0-15.929-10.25-23.872-26.168-22.791a12.466 12.466 0 0 0-2.73-10.178 12.515 12.515 0 0 0-9.563-4.462H13.446a12.512 12.512 0 0 0-9.292 4.158c-4.958 5.531-3.458 6.655 1.792 53.57a70.656 70.656 0 0 0 20.376 42.09H4.154a4.171 4.171 0 0 0-3.54 1.984 4.152 4.152 0 0 0-.168 4.047C5.78 183.18 7.946 191.5 17.654 191.5h139.678a12.496 12.496 0 0 0 11.209-6.904c6.376-12.768 7.417-13.517 5.833-16.095-1.583-2.579-1.833-1.955-25.668-1.955a66.56 66.56 0 0 0 8.709-10.563zm34.253-51.822a41.535 41.535 0 0 1-7.223 25.594 41.66 41.66 0 0 1-21.28 15.995c6.167-13.558 5.917-21.21 9.752-55.814 11.708-1.372 18.751 2.453 18.751 14.224zM10.362 76.418c1.792-1.955-10.667-1.373 151.179-1.373a4.166 4.166 0 0 1 4.167 4.616l-1.375 12.02H10.654c-1.25-11.312-2.043-13.267-.292-15.263zM161.08 180.893c-1.667 3.285 7.792 2.288-143.428 2.288-3.083 0-3.5-1.83-6.75-8.317l153.175-.002zM38.947 166.545C13.445 147.496 13.945 122.5 11.61 100h151.76c-2.833 25.578-2.458 47.993-27.335 66.545zM84.828 44.101c-8.543 7.112-6.21 14.307-1.502 14.307a4.159 4.159 0 0 0 4.167-4.158c0-3.826 8.334-5.032 8.334-13.85 0-11.104-14.084-10.605-5.667-17.633C98.58 15.737 96.41 8.5 91.661 8.5a4.164 4.164 0 0 0-4.167 4.16c0 3.826-8.334 5.032-8.334 13.85 0 8.817 8.334 10.065 8.334 13.89 0 1.373-.667 2.039-2.666 3.701zM51.49 44.101c-8.542 7.112-6.21 14.307-1.5 14.307a4.159 4.159 0 0 0 4.167-4.158c0-3.826 8.334-5.032 8.334-13.85 0-11.104-14.085-10.605-5.668-17.633 8.417-7.03 6.25-14.267 1.5-14.267a4.163 4.163 0 0 0-4.166 4.16c0 3.826-8.333 5.032-8.333 13.85 0 8.817 8.333 10.065 8.333 13.89 0 1.373-.667 2.039-2.667 3.701zM118.162 44.101c-8.543 7.154-6.209 14.307-1.5 14.307a4.157 4.157 0 0 0 4.166-4.158c0-3.826 8.334-5.032 8.334-13.85.001-11.104-14.083-10.647-5.666-17.633 8.417-6.988 6.25-14.267 1.5-14.267a4.165 4.165 0 0 0-4.168 4.16c0 3.784-8.333 5.032-8.333 13.85 0 8.817 8.333 10.065 8.333 13.89 0 1.373-.667 2.039-2.666 3.701z"/></svg>