<svg width="200pt" height="200pt" viewBox="0 0 200 200" xmlns="http://www.w3.org/2000/svg" xmlns:bx="https://boxy-svg.com"><g bx:origin="-0.480391 0"><path d="M66.346 199.895c47.778 0 67.057.42 74.601-.42v-.84c2.934 0 5.448-.84 7.125-2.52 8.801-8.818-5.448-47.454-1.257-78.53 3.353-24.358-2.515-19.738 0-34.436 1.676-9.24 2.933-18.479 2.096-24.777.42-8.819-6.287-23.937-4.61-34.016v-.839c.42-2.1.837-3.779 0-5.459C145.977 4.62 127.116 1.26 114.544 6.72c-2.096-1.68-4.19-6.72-8.382-6.72-5.448 0-4.19 7.98-7.543 7.56-.42 0-.838-.421-1.677-1.26C90.655.84 83.53 3.36 80.177 8.819c-1.257-.422-2.933-.003-5.448 1.258-3.353-3.36-5.867-3.779-8.381.42-8.802 15.119-7.544 28.978-7.964 30.658-2.096 2.519-3.77 5.879-4.61 10.078-7.544 5.88 0 33.597 0 37.376 0 9.24-3.771 8.398-.837 28.977 2.096 13.439 1.257 19.318-1.677 42.415-4.61 36.954-3.353 38.636 15.086 39.892zm-.418-2.1zm5.448-2.1c4.19-1.68 7.963-4.199 10.897-6.3 5.03-3.778 11.735-11.337 17.602-18.896 7.125 8.819 16.346 19.738 27.662 25.197h-56.16zm73.344-2.519c-4.19 3.78-18.022-2.1-24.727-7.139-5.867-4.619-10.897-10.498-15.507-16.378-19.28-23.517-19.28-36.955-13.831-70.132.838-5.88 2.096-6.3 5.448-8.398 12.574-6.72 12.574-14.278 19.698-22.257 6.287-7.14 15.926-10.92 24.727-13.86.838-.42 1.257-.42 1.677-.42.837 0 1.257 0 1.676.84 3.354 3.779.42 19.738-.837 26.877-2.934 15.118 2.933 12.178 0 34.856-.42 2.52-.838 5.04-.838 7.56-2.515 20.996 8.382 62.992 2.514 68.452zm-1.257-153.702s-.42 0-.42-.42v-2.94c0 .84.42 3.36.42 3.36zm2.934 12.599c-1.677-1.68-4.191-2.52-7.544-1.26-6.707 2.52-12.155 5.04-15.926 7.14.42-4.62-1.677-18.48-5.868-19.74-3.77-1.259-8.381 6.3-8.801-.838 0-2.94-.838-5.04-2.096-6.72.42 0 .42.42.837.839.838 0-2.514 0 16.765-.42 13.831 0 4.61 12.599 11.735 12.599 5.03 0 7.124-9.24 10.897 8.4zm-41.911-26.038c0-1.68.837-7.98 2.096-7.138.42.42.837 0 2.514 0 1.257 4.199 2.514 7.559 3.353 10.498h-4.19c-1.26-.84-3.773-2.94-3.773-3.36zm.837 3.78c-.418 0-.418 0 0 0-.42 0-.837-.421-1.257-.421v-.42c0-.42 1.257.84 1.257.84zm28.5 5.88c-.838-5.04-4.191-6.72-9.221-6.72-1.677-5.88-4.19-10.92-7.544-16.378.42-.42 4.61-.42 6.287-.42 6.706 0 12.154 1.68 10.478 8.398-.418 5.04-.418 8.82 0 15.12zm-19.28-27.297c7.125-5.04 25.566-3.78 27.663 5.88.837 4.619-2.097 4.619-1.258 24.776-2.096.42-3.353 1.68-4.61 2.1-.42-10.499-1.257-13.859 0-20.159 2.514-13.018-14.668-10.919-15.926-10.919-10.477 0-2.514 4.2 2.097 18.479h-7.964c-5.03-15.119-2.933-12.6-7.124-12.179-4.61-2.1-4.61 7.56-5.448 11.758-1.26.002-2.935.002-4.612.002 0-2.94.42-8.82 2.514-10.92 1.257-1.259 8.382-5.879 14.669-8.818zm-18.859-1.26c.838.84 1.677 1.68 2.934 1.68 4.61.84 4.61-5.88 6.707-7.139 2.514-1.681 5.866 3.78 7.124 5.46-6.287 2.939-12.992 7.558-14.249 8.818-.837.84-1.257 1.68-1.676 2.94-1.677-2.1-2.097-2.52-3.354-4.2s-2.514-3.778-4.61-5.039c-1.676-.84-3.353-1.26-5.448-1.26 2.514-4.199 7.962-5.46 12.573-1.26zm-25.146 2.52c.838 0 1.677.839 2.515 1.68-5.448 3.778-8.802 9.66-10.898 15.538.84-3.36 5.03-16.798 8.383-17.219zm9.22.839c2.514-.84 5.448-.84 7.544.42 1.676.84 2.933 2.52 4.19 4.62s2.096 3.36 4.61 5.459c-.419 2.1-.419 4.199-.419 6.3-2.934-2.52-4.61-3.78-6.707-7.14-.837-.839-1.257-1.68-2.514-2.519-4.19-2.94-8.801-1.26-14.249 4.62-7.544 7.98-5.867 7.138 3.354 10.078-1.677 3.36 0 5.46-4.191 5.04-.42 0-4.61-1.26-9.64 2.1 2.096-11.34 5.03-25.198 18.021-28.978zM92.75 28.136c-8.801 0-13.411-.42-16.345 2.1-2.096-.84-4.61-1.26-7.125-2.1 0-.42 1.677-2.1 3.354-3.779l.837-.84c3.353-3.778 7.544-7.138 11.735-4.198 2.095 1.677.837 2.517 7.544 8.817zM70.12 39.053h.42c5.448.84 4.61-2.519 5.867-5.459 1.677-4.619 10.897-3.36 18.86-3.36v1.68c.419-.839.837-1.26 1.257-1.68 6.287 0 9.22.84 9.22 7.56 0 3.778 1.677 5.04 3.353 5.04 2.515 0 5.03-2.94 6.707-2.52 2.096.84 5.03 13.018 4.61 18.058.42-.42 1.257-.42 1.677 0-15.926 9.24-13.831 17.219-22.632 25.617-11.735-10.919-5.03-20.577-38.977-32.756-1.677-.839-3.353-.839-4.61-.42 2.932-9.24 8.8-12.6 14.249-11.76zm-12.992 78.112c-2.933-20.159.838-17.638.838-28.137 0-4.199-8.382-37.376 1.257-33.597 20.955 7.56 23.89 12.179 29.757 21.837 2.096 3.36 4.19 6.72 7.124 9.66-.837.42-1.677.839-2.514 1.26-4.19 2.1-6.287 3.778-7.544 11.337-5.03 31.076-5.448 46.615 10.897 68.033-5.867 7.559-12.992 15.118-17.602 18.897-6.707 5.459-23.052 12.178-24.309 6.72h-.837c-4.61-7.978 7.124-48.295 2.933-76.012z"/><path d="M69.699 76.009c1.257-1.26-1.257-2.52-2.514-4.62-.838-1.26-2.515.42-1.677 1.26 2.514 2.94 2.934 4.62 4.19 3.36zM78.5 90.287c4.19-4.199 7.125-4.62 5.868-6.3-1.257-1.26-2.515 1.26-7.125 4.62-.42.42-.42.84 0 1.68 0 .42.84.42 1.257 0zM66.765 104.566c1.677 0 1.257-6.3.838-7.56 0-1.26-2.096-1.26-2.096.42.419 2.101.419 4.2 0 6.3.42.42.839.84 1.258.84zM77.662 108.345c.42 0 .837 0 .837-.42 1.258-2.52 1.258-7.56-.837-6.72-.42 0-.838.839-.838 1.26.42 1.259.42 3.36-.42 4.619-.419.42 0 1.26.42 1.26l.838.001zM64.67 127.243c.42 0 1.257-.42 1.257-.84.42-1.68.42-6.72-1.677-6.299-.42 0-.838.84-.838 1.26 1.258 4.199-.42 5.879 1.258 5.879zM65.089 149.5c2.514-2.94 5.03-4.199 3.77-5.459-1.256-1.26-2.513 1.26-5.447 4.2-.42.42-.42 1.26 0 1.68.42-.002 1.258-.002 1.676-.42zM75.566 131.443c.42 0 1.257-.42 1.257-.84 0-2.1-1.257-5.88-2.933-4.62-.42.421-.42.84 0 1.68 1.676 2.1 0 3.78 1.676 3.78zM63.831 167.978c2.515-3.778 5.03-5.04 3.354-6.3-1.258-1.259-2.097 1.68-5.03 5.04-.42.42-.42 1.26 0 1.68.42 0 1.257 0 1.676-.42zM78.081 157.48c1.677 0 1.257-3.78 0-5.46-.838-1.259-2.514 0-1.677 1.26 1.677 2.1 0 4.2 1.677 4.2zM75.985 174.698c-.837.839-.42 1.68.838 1.68.838 0 .838-.42 3.353-2.52.42-.42.42-.839 0-1.68-1.257-1.26-2.514 1.26-4.19 2.52zM61.317 187.716c.837 0 1.257-.42.837-1.26-.42-3.36 0-6.3-1.676-5.879-1.677 0-.42 2.52-.42 5.88.42.839.84 1.26 1.259 1.26zM129.212 76.009l2.934-3.36c.42-.42.42-1.26 0-1.68-.42-.42-1.257-.42-1.677 0l-2.933 3.36c-.42.42-.42 1.26 0 1.68 0 0 .42.42.837.42.421-.001.84-.001.84-.42zM120.411 90.287c1.257-1.26-1.677-2.52-5.868-6.3-1.257-.839-2.514.84-1.257 1.68l5.868 4.62c.42.42.839.42 1.257 0zM129.631 97.006c0 1.26-.837 7.56.838 7.56.838 0 1.257-.42.838-1.26-.42-2.1-.42-4.2 0-6.3.42-.84-1.676-1.26-1.676 0zM119.573 100.786c-2.096-.84-2.096 4.62-.838 6.72.838 1.26 2.514 0 1.677-.84-1.678-3.36.837-5.04-.84-5.88zM131.308 126.403c0 .42.42.84.837.84.42 0 .838-.421.838-1.26 0-1.68 0-3.36.42-4.62 0-.42 0-1.26-.838-1.26-.42 0-1.257 0-1.257.84v5.46zM133.822 149.92c1.258-1.26-1.257-2.519-3.77-5.459-.838-.839-2.515.42-1.677 1.26l3.77 4.2h1.677zM120.83 130.603c0 .42.42.839.838.839 1.676 0 .42-2.1 1.676-4.2.42-.42.42-1.259 0-1.68-1.257-.839-2.933 2.942-2.514 5.04zM131.727 161.68c-.838-1.26-2.514 0-1.677 1.259 3.353 4.199 3.771 5.88 5.03 5.04 1.675-1.262-.84-2.521-3.353-6.3zM120.83 152.02c-2.096-1.26-3.771 5.46-1.257 5.46.838 0 1.257-.421.838-1.26-.419-2.52 1.676-3.36.42-4.2zM117.477 172.178c-.42.42-.42 1.26 0 1.68l2.934 2.52s.42.42.837.42c.42 0 .42 0 .838-.42.42-.421.42-1.26 0-1.68-2.093-1.26-3.77-3.781-4.609-2.52zM135.499 181.417c0 3.36-1.257 5.88.42 5.88 1.676 0 .837-2.101 1.676-5.88 0-1.26-2.096-1.26-2.096 0zM102.808 96.586c-.837 1.68-2.096 2.94-3.353 4.2-.42.42-.42 1.26 0 1.68 0 .42.42.42.838.42.42 0 .42 0 .837-.42 1.257-1.26 2.515-2.94 3.772-4.62.42-.42 0-1.26-.42-1.26-.836-.42-1.674-.42-1.674 0zM96.103 116.744c-.42 0-1.257.42-1.257.84l-.42 3.778c0 .42.42 1.26.838 1.26.42 0 .837-.42.837-.84l.42-3.778c.42-.84 0-1.26-.418-1.26zM109.095 115.484c0-.42-.42-1.26-.838-1.26-.42 0-1.257.421-1.257.84l-.42 4.62c0 .42.42 1.26.838 1.26 2.097 0 1.258-2.52 1.677-5.46zM100.294 133.542c-.42 0-.838.42-.838 1.26 0 1.26 0 2.52-.42 3.779-.419.42 0 1.26.42 1.26h.42c.42 0 .837-.421.837-.421.838-1.68.838-3.36.838-5.04-.42-.417-.84-.838-1.257-.838zM110.771 139.842c-1.676 0 0 2.519-2.096 4.62-.837.838.42 2.518 1.677 1.259s2.096-3.36 1.677-5.04c-.42-.419-.84-.84-1.258-.84zM117.896 35.273c0 .42.42.84 1.257.84 1.258 0 2.097 0 2.934.839h.42c.42 0 .837 0 .837-.42 1.257-2.1-5.867-3.778-5.448-1.259zM128.374 47.872c-1.257.42-3.771.42-3.353 2.1.42 1.68 2.514 0 4.19 0 .42 0 .838-.839.838-1.26-.418-.84-1.256-.84-1.675-.84zM112.029 54.591s.42 0 0 0c.837 0 1.257-.42.837-1.26v-4.199c0-.42-.42-1.26-1.257-.839-.42 0-.837.42-.837 1.26l.42 4.62c-.002-.002.417.418.837.418zM103.228 62.99c0 .42 0 1.26.837 1.26h.42c.42 0 .837-.42.837-.84.42-1.26.42-2.519 0-3.36 0-.42-.837-.839-1.257-.839-.42 0-.837.84-.837 1.26.418.84.418 1.68 0 2.52zM94.007 57.53h.42c1.257-.838 2.514-2.1 3.77-3.778.42-.42 0-1.26-.419-1.26-.42-.42-1.257 0-1.257.42-.837 1.26-1.676 2.52-2.933 3.36-.42.421-.42.84-.42 1.26l.84-.001zM63.412 48.712s.42 0 0 0c2.934-1.26 5.448-1.26 5.03-2.94 0-.42-.838-.84-1.257-.42l-4.19 1.68c-.42 0-.839.84-.42 1.26 0 0 .42.42.837.42zM81.015 37.373s.418 0 0 0c.42 0 .837.42.837.42 0 .42.42.84.838.84h.42c.419 0 .837-.84.837-1.26-.838-2.94-5.03-2.52-4.19-.42 0 .42.838.42 1.258.42zM86.044 50.812c.42-.42.42-.84.42-1.68-1.258-1.26-1.677.839-5.868 2.1-1.677.42-1.257 4.62 5.448-.42zM94.007 43.672c.42 0 .42 0 .838-.42 1.676-2.1 2.933-4.2 3.77-6.72.42-.42 0-1.26-.419-1.26-.42-.42-1.257 0-1.257.42-.837 2.101-2.096 4.2-3.77 5.88-.42.42-.42 1.26 0 1.68.419.42.838.42.838.42z"/></g></svg>