<svg width="200pt" height="200pt" viewBox="0 0 200 200" xmlns="http://www.w3.org/2000/svg"><path d="M63.635 37.844A63.62 63.62 0 0 0 18.64 56.488a63.665 63.665 0 0 0 0 90.021 63.62 63.62 0 0 0 89.994 0 63.664 63.664 0 0 0 0-90.02 63.626 63.626 0 0 0-44.998-18.645zm0 121.249a57.566 57.566 0 0 1-40.711-16.869 57.607 57.607 0 0 1 0-81.45 57.567 57.567 0 0 1 81.425 0 57.602 57.602 0 0 1 0 81.45 57.572 57.572 0 0 1-40.714 16.869z"/><path d="M69.847 86.522a30.316 30.316 0 0 0 1.803 60.475c7.697.264 15.205-2.413 20.999-7.485s9.442-12.163 10.2-19.827a24.251 24.251 0 0 0-15.142-45.126 24.252 24.252 0 0 0-17.86 11.964zm39.243 11.944a18.181 18.181 0 0 1-10.423 16.43l-1.665.788v1.848h-.003a24.25 24.25 0 0 1-7.508 16.666 24.235 24.235 0 0 1-33.848-.404 24.257 24.257 0 0 1-.446-33.86 24.241 24.241 0 0 1 16.65-7.53h1.848l.788-1.665.002-.002a18.183 18.183 0 0 1 12.29-9.911 18.183 18.183 0 0 1 22.315 17.64z"/><path d="M72.726 101.5a15.15 15.15 0 0 0-10.713 4.44 15.155 15.155 0 0 0 10.713 25.872c4.019 0 7.872-1.596 10.715-4.438a15.161 15.161 0 0 0 0-21.434 15.158 15.158 0 0 0-10.715-4.44zm0 24.25a9.097 9.097 0 0 1-6.428-2.662 9.105 9.105 0 0 1-2.663-6.432c0-2.41.96-4.724 2.663-6.43a9.09 9.09 0 0 1 15.52 6.43 9.09 9.09 0 0 1-9.091 9.094zM31.936 107.925l41.151-41.166a12.128 12.128 0 0 0 3.14-11.718 12.13 12.13 0 0 0-8.577-8.578 12.13 12.13 0 0 0-11.714 3.14L14.785 90.766a12.133 12.133 0 0 0 5.436 20.299 12.13 12.13 0 0 0 11.715-3.14zm-12.85-4.305a6.068 6.068 0 0 1 0-8.579l8.79-8.7 3.212 3.032 4.272-4.305-3.213-3.214 10.728-10.67 3.212 3.244 4.272-4.305-3.213-3.214 3.545-3.546 3.213 3.214 4.304-4.273-3.21-3.243 5.212-5.215h-.002a6.067 6.067 0 0 1 8.578 8.579L27.664 103.62a6.066 6.066 0 0 1-8.578 0zM21.757 119.205l-5.576 2.364a51.53 51.53 0 0 0 24.909 26.28l2.667-5.455a45.468 45.468 0 0 1-22-23.189zM166.666 4.5a33.33 33.33 0 0 0-23.57 9.767 33.35 33.35 0 0 0 0 47.156 33.336 33.336 0 0 0 47.142 0 33.355 33.355 0 0 0 0-47.156A33.337 33.337 0 0 0 166.665 4.5zm0 60.625a27.27 27.27 0 0 1-19.286-7.99 27.287 27.287 0 0 1 0-38.583 27.27 27.27 0 0 1 38.57 0 27.286 27.286 0 0 1 0 38.582 27.262 27.262 0 0 1-19.284 7.99z"/><path d="M166.666 13.594a24.248 24.248 0 0 0-24.243 24.25 24.245 24.245 0 0 0 24.243 24.25c6.43 0 12.596-2.556 17.141-7.104a24.247 24.247 0 0 0 0-34.294 24.23 24.23 0 0 0-17.14-7.102zm0 42.436a18.183 18.183 0 0 1-12.856-31.046 18.172 18.172 0 0 1 25.713 0 18.19 18.19 0 0 1 0 25.72 18.18 18.18 0 0 1-12.857 5.326z"/><path d="M165.303 32.111a3.456 3.456 0 0 1-5.031-1.698 3.03 3.03 0 0 0-3.963-1.141 3.033 3.033 0 0 0-1.431 3.871 9.914 9.914 0 0 0 8.516 5.546 10.08 10.08 0 0 0 4.636-1.182c3.726-1.848 5.485-.607 5.667-.484a3.031 3.031 0 0 0 4.287-.076 3.032 3.032 0 0 0-.077-4.29c-1.695-1.696-6.271-3.728-12.604-.546zM169.697 122.718a14.92 14.92 0 0 0 4.82 11.004 3.617 3.617 0 0 1 1.242 2.514v49.773a9.393 9.393 0 0 0 7.544 9.458 8.979 8.979 0 0 0 1.545 0 9.091 9.091 0 0 0 9.092-9.095v-49.257a4.785 4.785 0 0 1 1.334-3.485A14.855 14.855 0 0 0 200 122.718V83.31h-3.03c-.272 0-27.273.455-27.273 39.407zm24.243 0a8.822 8.822 0 0 1-2.847 6.517 10.902 10.902 0 0 0-3.213 7.88v49.258a3.034 3.034 0 0 1-1.091 2.305 2.79 2.79 0 0 1-2.486.666 3.302 3.302 0 0 1-2.484-3.335v-49.773a9.423 9.423 0 0 0-3.03-6.94 9.094 9.094 0 0 1-3.03-6.577c0-25.432 12.302-31.465 18.183-32.89zM157.575 101.5v21.22a17.63 17.63 0 0 1-2.515 9.517l-.516.757v53.38a3.03 3.03 0 1 1-6.06 0v-53.378l-.516-.757v-.002a17.645 17.645 0 0 1-2.513-9.517V89.375h-6.062v33.345a23.935 23.935 0 0 0 3.03 12.124v51.53a9.092 9.092 0 1 0 18.183 0v-51.53a23.935 23.935 0 0 0 3.03-12.124V89.375h-6.06z"/><path d="M148.484 89.375h6.06v18.188h-6.06z"/></svg>