<svg width="200pt" height="200pt" viewBox="0 0 200 200" xmlns="http://www.w3.org/2000/svg"><path d="M122.116 105.005a2.5 2.5 0 0 0-1.315 4.824c20.166 5.499 35.613 22.335 39.353 42.888a2.5 2.5 0 0 0 4.92-.895c-4.083-22.438-20.946-40.814-42.958-46.82z"/><path d="M197.5 171.773h-1.896v-.024c0-48.891-36.886-89.303-84.28-94.924 3.557-3.143 5.815-7.725 5.815-12.835 0-9.452-7.69-17.14-17.139-17.14-9.45 0-17.139 7.69-17.139 17.14 0 5.11 2.259 9.69 5.816 12.835-47.393 5.623-84.28 46.033-84.28 94.924v.024H2.5A2.5 2.5 0 0 0 0 174.274V197.5A2.5 2.5 0 0 0 2.5 200h195a2.5 2.5 0 0 0 2.5-2.501v-23.225a2.503 2.503 0 0 0-2.503-2.5zM87.861 63.994c0-6.693 5.446-12.139 12.138-12.139s12.14 5.445 12.14 12.14c0 6.693-5.447 12.14-12.14 12.14s-12.138-5.447-12.138-12.14zM9.398 171.751c0-49.967 40.644-90.616 90.602-90.616s90.602 40.65 90.602 90.616v.024H9.394zM195 195H5.001v-18.224h189.998zM87.848 37.084a2.5 2.5 0 0 0 0-5.002 5.526 5.526 0 0 1-5.519-5.52 5.526 5.526 0 0 1 5.52-5.52c5.8 0 10.518-4.72 10.518-10.52S93.648 0 87.848 0a2.5 2.5 0 0 0 0 5.002c3.043 0 5.52 2.477 5.52 5.52s-2.477 5.52-5.52 5.52c-5.8 0-10.518 4.72-10.518 10.52 0 5.803 4.718 10.522 10.518 10.522zM112.152 37.084a2.5 2.5 0 0 0 0-5.002 5.526 5.526 0 0 1-5.52-5.52 5.526 5.526 0 0 1 5.52-5.52c5.8 0 10.518-4.72 10.518-10.52S117.952 0 112.152 0a2.5 2.5 0 0 0 0 5.002c3.043 0 5.519 2.477 5.519 5.52s-2.476 5.52-5.52 5.52c-5.8 0-10.52 4.72-10.52 10.52.002 5.803 4.72 10.522 10.52 10.522z"/></svg>