<svg width="200pt" height="200pt" viewBox="0 0 200 200" xmlns="http://www.w3.org/2000/svg"><path d="M156.613 43.913v-9.566c2.612-.869 4.354-3.26 4.354-6.087v-6.522c0-3.696-2.831-6.522-6.533-6.522l-28.523.001C124.822 6.74 117.419 0 108.711 0H91.29c-8.928 0-16.113 6.739-17.2 15.217H45.564c-3.701 0-6.532 2.827-6.532 6.522v6.523c0 2.826 1.742 5.217 4.354 6.087v9.565C37.073 45.437 32.5 51.088 32.5 57.611v131.52c0 6.086 4.79 10.869 10.887 10.869h113.224c6.097 0 10.887-4.783 10.887-10.87v-4.347l.002-127.176c0-6.739-4.573-12.174-10.887-13.696zm-108.87-9.13h104.515v8.694H47.743zM91.291 4.347h17.42c6.532 0 11.756 4.783 12.846 10.87H78.444c1.09-6.087 6.315-10.87 12.848-10.87zm-47.903 17.39c0-1.304.87-2.174 2.178-2.174h108.87c1.306 0 2.178.869 2.178 2.174v6.523c0 1.304-.87 2.174-2.178 2.174H45.566c-1.306 0-2.178-.869-2.178-2.174zm88.402 89.132h.87c2.396 0 4.355 1.956 4.355 4.347 0 2.392-1.96 4.348-4.354 4.348s-4.355-1.956-4.355-4.348c0-1.087.436-2.174 1.09-2.826.87-.652 1.523-1.086 2.394-1.521zm-7.621 6.304c.87 3.912 4.354 6.738 8.491 6.738 4.79 0 8.71-3.912 8.71-8.695 0-2.608-1.09-4.782-2.832-6.303.872-.219 1.961-.219 2.831-.219 11.976 0 21.774 9.783 21.774 21.74v4.783c-.653-.217-1.525-.436-2.178-.436-2.395 0-4.79 1.74-5.88 3.913-3.918-2.392-8.708-3.913-13.717-3.913-6.75 0-13.065 2.609-17.856 7.174 3.702-7.39 3.485-16.087-.217-23.478.22-.434.438-.87.874-1.304zM37.29 145.87c-.217-.435-.436-.869-.436-1.304 0-1.74 1.525-3.26 3.265-3.26.436 0 .653 0 1.09.217-1.524 1.304-2.83 2.825-3.92 4.347zm21.34-6.738c9.144 0 16.983 5.651 20.248 13.478-.87-.217-1.959-.436-2.83-.436-4.791 0-8.71 3.913-8.71 8.695s3.919 8.695 8.71 8.695c.87 0 1.959-.216 2.83-.435-3.265 7.828-11.104 13.481-20.249 13.481-11.976 0-21.774-9.782-21.774-21.74s9.798-21.738 21.774-21.738zm19.595-13.045c0 2.392-1.96 4.348-4.354 4.348-2.396 0-4.355-1.957-4.355-4.348s1.96-4.347 4.355-4.347c2.395 0 4.354 1.956 4.354 4.347zm13.935 7.391c1.307-1.304 3.266-1.304 4.574 0 .436.435.653.87.87 1.304-2.178.217-4.354.652-6.314 1.304 0-.868.218-1.737.87-2.608zm23.3 11.957c5.879 5.87 7.62 14.566 5.225 22.175-.436-.652-.87-1.304-1.525-1.956-1.524-1.74-3.7-2.61-6.096-2.61-2.395 0-4.574.869-6.097 2.608-1.742 1.523-2.614 3.697-2.614 6.089 0 2.391.87 4.566 2.613 6.087 1.089 1.087 2.178 1.74 3.484 2.174-8.275 4.348-18.726 3.26-25.693-3.695-1.089-1.087-1.959-2.175-2.83-3.479 1.741-3.697 2.83-7.61 2.83-11.957s-1.089-8.261-2.83-11.957c.87-1.304 1.741-2.391 2.83-3.479 8.273-8.478 22.21-8.478 30.702 0zm.652 29.35c-1.742 1.739-4.573 1.739-6.096 0-.872-.871-1.308-1.957-1.308-3.044s.436-2.175 1.306-3.044c.872-.87 1.961-1.304 3.05-1.304 1.089 0 2.178.435 3.048 1.304.87.87 1.306 1.957 1.306 3.044s-.435 2.173-1.306 3.043zm0-34.785s-.217 0-.217.217a23.135 23.135 0 0 0-7.185-3.912c.217-.869.436-1.74 1.306-2.392 1.742-1.739 4.573-1.739 6.097 0 .87.87 1.306 1.957 1.306 3.044s-.436 2.174-1.306 3.043zM76.05 165.22c-2.395 0-4.354-1.957-4.354-4.348s1.96-4.347 4.354-4.347c2.396 0 4.355 1.956 4.355 4.347.001 2.391-1.96 4.348-4.355 4.348zm3.267 11.521c.653.87 1.525 1.74 2.178 2.609 1.307 1.304 2.613 2.391 4.138 3.26H73.22c2.176-1.521 4.354-3.477 6.097-5.869zm39.193 2.609c.87-.87 1.525-1.74 2.178-2.609 1.743 2.392 3.919 4.348 6.314 5.87h-12.629c1.524-.87 2.83-1.956 4.138-3.261zm4.79-6.521c.437-.869.87-1.956 1.307-2.827 1.089 2.392 3.265 3.913 6.097 3.913 3.7 0 6.532-2.827 6.532-6.522 0-3.696-2.831-6.523-6.532-6.523-1.743 0-3.266.652-4.355 1.74.217-4.783-.653-9.348-2.83-13.697 2.394-3.695 5.878-6.522 10.016-8.26-.655.871-.872 1.958-.872 2.827 0 4.783 3.919 8.695 8.709 8.695 4.79 0 8.709-3.912 8.709-8.695 0-.869-.218-1.956-.436-2.826 7.838 3.26 13.5 11.086 13.5 20.216 0 11.958-9.799 21.74-21.775 21.74-7.4.001-14.15-3.694-18.07-9.78zm5.008-5.435c0-1.304.87-2.174 2.178-2.174 1.306 0 2.178.868 2.178 2.174 0 1.304-.87 2.175-2.178 2.175-1.307-.002-2.178-.87-2.178-2.175zm17.42-23.914c0 2.391-1.96 4.347-4.355 4.347s-4.354-1.956-4.354-4.347 1.96-4.347 4.354-4.347 4.355 1.956 4.355 4.347zm-27-23.914c2.612 4.566 3.484 10 2.612 15-.436-1.304-1.089-2.608-2.178-3.695-3.484-3.479-8.928-3.479-12.412 0-1.306 1.304-1.96 2.827-2.395 4.347-.87-.216-1.742-.216-2.612-.216-.218-1.74-.87-3.26-2.178-4.348-3.049-3.043-7.839-2.826-10.887 0-1.96 1.956-2.613 5-1.96 7.61a23.494 23.494 0 0 0-5.226 3.912c1.742-3.479 2.613-7.391 2.613-11.522 0-4.13-1.09-8.261-2.831-11.957.87-1.304 1.742-2.391 2.83-3.479 8.492-8.478 22.21-8.478 30.702 0 1.963 1.088 3.052 2.61 3.922 4.348zm-44.855-2.173c-4.79 0-8.708 3.912-8.708 8.695 0 4.782 3.918 8.695 8.708 8.695 2.613 0 4.79-1.087 6.533-2.827-.217 3.696-1.525 7.391-3.484 10.435-4.79-4.781-11.106-7.607-18.29-7.607-5.007 0-9.798 1.523-13.718 3.913a7.614 7.614 0 0 0-4.79-1.74c-1.09 0-2.178.217-3.266.87v-7.392c0-11.957 9.798-21.74 21.774-21.74 6.969 0 13.5 3.48 17.637 9.131-.653-.217-1.525-.433-2.395-.433zM44.26 182.61h-7.403v-7.39c1.96 3.043 4.355 5.434 7.403 7.39zm118.886 6.522c0 3.696-2.832 6.523-6.533 6.523l-113.224-.002c-3.702 0-6.533-2.827-6.533-6.522v-2.175h126.289zm0-6.522h-7.403c2.83-1.956 5.443-4.347 7.403-7.39zm-4.355-41.087c0-1.088 1.306-2.392 2.178-2.392.87 0 2.178 1.087 2.178 2.175v5.218c-1.308-1.958-2.83-3.48-4.356-5.002zm-17.42-37.176c-3.918 0-7.621.87-11.104 2.609-1.306.435-2.612 1.087-3.484 1.956-2.178 1.522-4.354 3.26-5.88 5.435-.652-.87-1.524-1.74-2.177-2.609-10.234-10.217-26.782-10.217-37.016 0-.87.87-1.524 1.523-2.178 2.609-5.223-6.086-12.844-10-20.9-10-9.145 0-16.984 4.566-21.774 11.739v-58.48a9.75 9.75 0 0 1 9.798-9.782h106.692a9.75 9.75 0 0 1 9.798 9.783v58.479c-4.79-7.174-12.628-11.74-21.774-11.74z"/><path d="M51.01 176.089c4.137 0 7.62-3.48 7.62-7.61 0-4.13-3.483-7.608-7.62-7.608s-7.623 3.479-7.623 7.608c0 4.13 3.485 7.61 7.622 7.61zm0-10.87c1.741 0 3.265 1.522 3.265 3.26 0 1.74-1.524 3.262-3.266 3.262s-3.265-1.523-3.265-3.262c0-1.738 1.523-3.26 3.265-3.26zM52.098 156.523c3.701 0 6.532-2.826 6.532-6.522s-2.83-6.522-6.532-6.522-6.533 2.826-6.533 6.522 2.831 6.522 6.533 6.522zm0-8.696c1.306 0 2.178.868 2.178 2.174 0 1.304-.87 2.175-2.178 2.175-1.306 0-2.178-.87-2.178-2.175 0-1.304.872-2.174 2.178-2.174zM86.936 173.915c1.525 1.522 3.484 2.174 5.444 2.174 1.959 0 3.918-.652 5.443-2.174 1.525-1.523 2.178-3.26 2.178-5.435s-.87-3.913-2.178-5.435c-3.048-3.043-7.839-3.043-10.67 0-1.525 1.522-2.178 3.26-2.178 5.435.002 2.174.655 3.914 1.961 5.435zm3.048-7.827c.653-.652 1.525-.868 2.396-.868.87 0 1.742.216 2.395.868.653.653.87 1.523.87 2.392s-.436 1.74-.87 2.391c-1.306 1.304-3.266 1.304-4.574 0-.653-.652-.87-1.522-.87-2.391s.219-1.738.653-2.392zM100 154.35c1.742 0 3.485-.653 4.574-1.957 1.306-1.304 1.959-2.827 1.959-4.566s-.653-3.479-1.96-4.566c-2.395-2.392-6.749-2.392-9.144 0-1.308 1.087-1.961 2.826-1.961 4.566s.653 3.479 1.96 4.566c1.088 1.304 2.83 1.956 4.572 1.956zm-1.525-8.044c.436-.435 1.09-.652 1.525-.652s1.09.217 1.525.652.653.869.653 1.522-.217 1.088-.653 1.523c-.87.869-2.178.869-3.048 0-.436-.437-.655-.872-.655-1.524s.22-1.087.654-1.521zM148.992 160.871c-4.138 0-7.622 3.479-7.622 7.61s3.484 7.61 7.622 7.61 7.621-3.48 7.621-7.61-3.484-7.61-7.621-7.61zm0 10.87c-1.742 0-3.266-1.523-3.266-3.26 0-1.74 1.525-3.26 3.266-3.26 1.742 0 3.265 1.522 3.265 3.26 0 1.737-1.523 3.26-3.265 3.26zM52.098 113.044c-3.702 0-6.533 2.827-6.533 6.522 0 3.696 2.831 6.523 6.533 6.523s6.532-2.827 6.532-6.523c0-3.697-2.83-6.522-6.532-6.522zm0 8.695c-1.306 0-2.178-.869-2.178-2.174 0-1.304.87-2.175 2.178-2.175 1.306 0 2.178.87 2.178 2.175-.002 1.305-.872 2.174-2.178 2.174zM95.428 112.827c-1.306 1.087-1.96 2.826-1.96 4.566s.654 3.479 1.96 4.566c1.306 1.304 2.83 1.956 4.573 1.956s3.484-.652 4.573-1.956c1.307-1.304 1.96-2.827 1.96-4.566s-.653-3.479-1.96-4.566c-2.395-2.608-6.75-2.608-9.146 0zm6.098 6.087c-.87.869-2.178.869-3.048 0-.436-.434-.655-.869-.655-1.521 0-.652.217-1.087.653-1.523s1.09-.652 1.525-.652 1.09.217 1.525.652.653.87.653 1.523c0 .652-.218 1.087-.653 1.52zM152.258 132.61c3.701 0 6.532-2.827 6.532-6.522s-2.83-6.523-6.532-6.523-6.533 2.827-6.533 6.523c.002 3.695 2.831 6.522 6.533 6.522zm0-8.695c1.306 0 2.178.869 2.178 2.174 0 1.304-.87 2.175-2.178 2.175-1.306 0-2.178-.869-2.178-2.175.001-1.305.872-2.174 2.178-2.174z"/></svg>