<svg width="200pt" height="200pt" viewBox="0 0 200 200" xmlns="http://www.w3.org/2000/svg" xmlns:bx="https://boxy-svg.com"><path d="M186.028 61.757a1.57 1.57 0 0 0-2.218.02c-2.292 2.339-19.815 20.25-25.997 27.12.01-.251.04-.5.04-.754 0-13.016-10.583-23.606-23.59-23.606-5.099 0-9.815 1.646-13.675 4.411l12.846-54.877-9.576-2.248-13.95 59.582L112.074.306 102.053 0l-1.808 59.306c-6.23-5.077-14.168-8.13-22.81-8.13-19.963 0-36.202 16.252-36.202 36.227 0 .154.02.305.024.459-6.868-7.491-22.886-23.86-25.068-26.088a1.56 1.56 0 0 0-2.218-.02 1.566 1.566 0 0 0-.02 2.22c8.978 9.164 22.035 22.658 26.33 27.474l7.15 105.488-.207.278.239.178.178 2.608h103.676l7.268-107.213c2.196-2.799 17.395-18.524 27.471-28.81a1.582 1.582 0 0 0-.03-2.228zM127.53 90.64l-.08-.24c-.263-.807-.395-1.545-.395-2.258 0-4.014 3.268-7.285 7.28-7.285 4.015 0 7.281 3.27 7.281 7.285 0 .713-.133 1.451-.395 2.259l-.08.24zm16.397-.063c.228-.883.334-1.68.334-2.433 0-5.479-4.451-9.933-9.926-9.933s-9.926 4.454-9.926 9.933c0 .752.104 1.522.334 2.433l.014.065h-4.701l-.03-.19c-.139-.866-.2-1.595-.2-2.304 0-7.968 6.477-14.445 14.437-14.445 7.962 0 14.44 6.481 14.44 14.445 0 .712-.065 1.442-.2 2.305l-.03.19h-4.559zM80.29 93.783h34.48l-19.358 15.368zm-25.53-3.142c-.156-1.058-.265-2.13-.265-3.235 0-12.66 10.293-22.958 22.942-22.958 12.65 0 22.942 10.3 22.942 22.958 0 1.1-.11 2.174-.266 3.235h-8.032c.243-1.047.42-2.114.42-3.235 0-8.247-6.71-14.959-14.953-14.959-8.242 0-14.949 6.712-14.949 14.96 0 1.117.179 2.187.42 3.234zm11.51 0c-.308-1.032-.529-2.103-.529-3.235 0-6.518 5.297-11.819 11.81-11.819s11.811 5.301 11.811 11.82c0 1.131-.22 2.199-.528 3.234zm67.99-19.591c-9.422 0-17.081 7.669-17.081 17.094 0 .729.059 1.49.189 2.397l.015.099h-3.906c.094-1.067.163-2.14.163-3.235 0-.715-.065-1.413-.106-2.12 1.4-10.207 10.149-18.104 20.728-18.104 11.55 0 20.948 9.4 20.948 20.957 0 .733-.046 1.492-.14 2.32l-.018.174h-3.907l.014-.098c.127-.882.186-1.665.186-2.398 0-9.417-7.664-17.086-17.085-17.086zm-8.357-55.918 4.227.99-12.621 53.904a21.668 21.668 0 0 0-5.49 6.617l-.01-.004c-.088-.284-.209-.555-.307-.837zM104.9 3.029l4.15.126-1.923 63.073a32.818 32.818 0 0 0-4-4.94zm-27.464 51.29c18.231 0 33.061 14.84 33.061 33.085 0 1.093-.083 2.168-.189 3.235h-7.031c.139-1.062.24-2.135.24-3.235 0-14.391-11.7-26.1-26.081-26.1s-26.08 11.71-26.08 26.1c0 1.1.1 2.17.239 3.235h-7.032c-.105-1.067-.189-2.14-.189-3.235 0-18.241 14.832-33.085 33.061-33.085zm-33.85 39.462h32.296l27.833 28.281-53.395 71.037zm51.686 44.709 48.966 58.364-92.822.002zm53.11 58.37h-.05l-51.125-60.946 10.627-14.142-10.21-10.373 22.19-17.617h35.553z" bx:origin="0.497109 0.5"/></svg>