<svg width="200pt" height="200pt" viewBox="0 0 200 200" xmlns="http://www.w3.org/2000/svg"><path d="M190.94 142.664h-9.403c-.688-7.194-4.594-13.425-10.25-17.348 1.656-4.61 2.563-9.438 2.75-14.359 6.406-4.236 11.624-10.029 15.091-16.882a2.333 2.333 0 0 0-1.03-3.146c-1.157-.56-2.563-.125-3.156 1.028-2.626 5.201-6.437 9.686-11.03 13.269-1.937-22.301-19.373-39.806-40.59-39.806a37.588 37.588 0 0 0-16.029 3.551 34.576 34.576 0 0 1-29.057-.031 37.895 37.895 0 0 0-15.997-3.52c-3.124 0-6.185.405-9.186 1.153C52.461 55.61 48.555 52.246 33.026 49.505a2.375 2.375 0 0 0-2.25.841c-.53.686-.656 1.588-.313 2.367 1.563 3.583 2.844 6.386 3.938 8.784 3.562 7.756 4.905 10.653 5.999 20.34 0 .03.031.03.031.062-.406.56-.875 1.09-1.28 1.682-2.25 3.363-6.093 5.357-10.28 5.357-5.28 0-9.593 4.299-9.593 9.563v14.576c0 2.586 1 4.984 2.812 6.728a9.54 9.54 0 0 0 6.78 2.804c.47 0 .938.062 1.375.156-8.155 3.271-14.091 10.808-14.997 19.84l-6.217-.003c-4.968.063-9.03 4.081-9.03 9.066 0 4.983 4.06 9 9.029 9h3.656C13.874 173.47 24.684 183.5 37.837 183.5h124.326c13.123 0 23.965-10.06 25.151-22.831h3.656c4.969 0 9.03-4.049 9.03-9.001 0-4.953-4.093-9.003-9.06-9.003zm-152.256-83.1c-.625-1.37-1.312-2.866-2.093-4.61 9.936 2.211 13.653 5.138 21.497 13.205-5 1.993-9.593 5.108-13.56 9.033-1.157-7.412-2.78-10.994-5.844-17.629zm-9.811 58.403a4.81 4.81 0 0 1-3.468-1.464c-.905-.903-1.437-2.087-1.437-3.426V98.501c0-2.678 2.187-4.89 4.905-4.89 5.75 0 11.062-2.772 14.186-7.413 6.812-10.092 17.748-16.103 29.214-16.103 4.874 0 9.593 1.027 14.03 3.083 10.466 4.859 22.496 4.859 32.994.031 4.436-2.087 9.186-3.114 14.06-3.114 19.903 0 36.088 17.598 36.088 39.245 0 4.704-.813 9.313-2.282 13.705a23.93 23.93 0 0 0-9.467-1.93 24.01 24.01 0 0 0-15.435 5.575 20.05 20.05 0 0 0-8.436-1.838 20.337 20.337 0 0 0-13.248 4.89c-3.468-6.48-10.217-10.621-17.809-10.621-6.936 0-13.373 3.55-17.059 9.282a20.103 20.103 0 0 0-11.435-3.55c-5.842 0-11.374 2.554-15.186 6.85-4.405-6.54-11.873-10.59-19.902-10.59-.906 0-1.781.063-2.626.157-2.094-2.088-4.78-3.302-7.687-3.302zm6.624 8.13c.312.031.656 0 .968-.094.905-.125 1.78-.248 2.718-.248 7.5 0 14.372 4.39 17.528 11.181.375.78 1.157 1.308 2 1.34.905.062 1.686-.406 2.124-1.154a15.582 15.582 0 0 1 13.404-7.662c3.938 0 7.687 1.465 10.561 4.143a2.475 2.475 0 0 0 2.062.591 2.381 2.381 0 0 0 1.687-1.339c2.5-5.544 8.093-9.126 14.218-9.126 6.812 0 12.748 4.33 14.779 10.776.25.81.936 1.433 1.812 1.588a2.312 2.312 0 0 0 2.25-.841 15.666 15.666 0 0 1 12.217-5.824c2.718 0 5.343.685 7.623 2.024a2.367 2.367 0 0 0 2.812-.343 19.308 19.308 0 0 1 13.436-5.42c9.842 0 17.997 7.382 19.154 16.913l-156.88.002c.999-8.253 7.373-14.95 15.527-16.507zm126.667 52.733H37.839c-10.561 0-19.278-7.973-20.435-18.158H182.63c-1.22 10.185-9.936 18.158-20.466 18.158zm28.777-22.862H9.03a4.327 4.327 0 0 1-4.343-4.33 4.327 4.327 0 0 1 4.343-4.33H190.94a4.327 4.327 0 0 1 4.343 4.33 4.33 4.33 0 0 1-4.345 4.33z"/><path d="M50.153 95.974c1.406.902 2.875 1.339 4.312 1.339 1.438 0 2.906-.437 4.312-1.34 1.094-.684 1.406-2.149.719-3.239s-2.156-1.402-3.25-.716c-1.28.81-2.343.81-3.625 0a2.375 2.375 0 0 0-3.25.716c-.624 1.123-.312 2.555.782 3.24zM79.113 50.533a2.358 2.358 0 0 0 .719 3.24c.406.248.844.374 1.28.374.782 0 1.532-.374 1.968-1.06 3.437-5.326 3.437-13.673 0-19-2.437-3.768-2.437-10.185 0-13.953a2.358 2.358 0 0 0-.718-3.24 2.375 2.375 0 0 0-3.25.716c-3.437 5.327-3.437 13.706 0 19 2.438 3.738 2.438 10.123.001 13.923zM94.736 50.533a2.358 2.358 0 0 0 .719 3.24c.406.248.844.374 1.25.374.78 0 1.53-.374 1.967-1.06 3.437-5.326 3.437-13.673 0-19-2.437-3.768-2.437-10.185 0-13.953.689-1.122.377-2.586-.717-3.271a2.375 2.375 0 0 0-3.25.716c-3.437 5.327-3.437 13.705 0 19 2.468 3.769 2.468 10.154.031 13.954zM110.331 50.533a2.358 2.358 0 0 0 .719 3.24c.406.248.844.374 1.249.374.782 0 1.532-.374 1.968-1.06 3.436-5.326 3.436-13.673 0-19-2.437-3.768-2.437-10.185 0-13.953a2.358 2.358 0 0 0-.719-3.24 2.375 2.375 0 0 0-3.25.716c-3.436 5.327-3.436 13.706 0 19 2.47 3.738 2.47 10.123.033 13.923zM131.574 81.493c8.342.873 16.217 5.731 21.06 13.02a2.318 2.318 0 0 0 1.967 1.059c.438 0 .906-.125 1.28-.374 1.095-.716 1.375-2.15.657-3.24-5.593-8.41-14.748-14.047-24.464-15.075-1.281-.094-2.437.81-2.563 2.087-.155 1.245.783 2.366 2.064 2.523z"/></svg>