<svg width="200pt" height="200pt" viewBox="0 0 200 200" xmlns="http://www.w3.org/2000/svg" xmlns:bx="https://boxy-svg.com"><g bx:origin="0.443193 0.910414"><path d="M183.93 116.225c-2.017-.001-3.824-1.13-4.554-2.839-.73-1.711-.23-3.654 1.254-4.894 1.86-1.293 3.184-3.118 3.763-5.183.354-3.96-9.582-5.377-9.681-5.386v.001c-1.288-.143-2.462-.743-3.262-1.673-.8-.929-1.162-2.11-1.007-3.282.324-2.443 2.761-4.182 5.442-3.888 7.203.796 19.154 4.839 18.25 14.958h.002c-.68 4.339-3.15 8.278-6.909 11.016-.898.754-2.077 1.172-3.298 1.17z"/><path d="M185.07 107.446c-1.555-.337-3.192.039-4.387 1.004-7.402 5.574-16.88 8.327-26.459 7.687-6.513-.698-12.825-2.494-18.618-5.296-4.112-2.2-8.77-3.41-13.538-3.516-4.045.225-7.97 1.334-11.444 3.235-3.55 1.96-7.621 3-11.772 3.007-6.002-.72-11.747-2.672-16.8-5.708l-.817-.4c-5.61-2.95-10.426-5.49-14.81-4.629h.002c-3.345 1.045-6.323 2.885-8.622 5.334-3.675 4.106-9.109 6.58-14.923 6.789-.186.004-.371.004-.558.004-6.434-.102-12.655-2.114-17.716-5.733a32.26 32.26 0 0 0-3.318-1.894 5.908 5.908 0 0 0-.717-.246c-.062-.023-.106-.07-.172-.09h.002a7.43 7.43 0 0 0-1.987-.544c-1.48-.821-4.478-3.978-4.291-5.965.139-1.451 3.651-2.422 4.726-2.682v.001a4.94 4.94 0 0 0 1.948-1.007c2.375 1.685 5.299 2.605 8.31 2.615h139.238c3.644-.004 7.135-1.325 9.711-3.67 2.577-2.346 4.025-5.527 4.029-8.845a11.365 11.365 0 0 0-.652-3.608h8.323c1.594-.002 3.121-.579 4.248-1.605 1.127-1.026 1.76-2.416 1.762-3.868V59.184c-.02-15.691-6.874-30.734-19.058-41.83C164.524 6.26 148.004.018 130.773 0H67.892C50.66.018 34.14 6.26 21.955 17.354 9.771 28.451 2.916 43.494 2.897 59.184v18.632c.002 1.451.637 2.844 1.764 3.87 1.128 1.026 2.657 1.603 4.251 1.603h7.112a11.368 11.368 0 0 0-.653 3.608c0 .848.095 1.693.282 2.523-11.245 3.035-11.612 9.854-11.2 12.697v-.001c.588 2.932 2.017 5.67 4.14 7.935C3.233 113.448.026 119.01 0 124.957v1.621-.001c.008 4.061 1.535 7.999 4.33 11.163 2.793 3.166 6.689 5.37 11.041 6.251v6.547h-5.61c-1.82.002-3.564.662-4.85 1.834-1.289 1.171-2.012 2.76-2.014 4.417.015 11.457 5.019 22.44 13.914 30.54 8.896 8.101 20.958 12.658 33.54 12.671h96.381c12.582-.013 24.643-4.57 33.54-12.67 8.895-8.1 13.899-19.084 13.913-30.54-.001-1.657-.725-3.245-2.011-4.417-1.285-1.171-3.03-1.831-4.848-1.834h-5.233v-6.256c4.875-.38 9.417-2.409 12.731-5.684 3.315-3.278 5.16-7.566 5.176-12.022v-1.622.002c0-4.014-1.467-7.913-4.167-11.083-2.703-3.17-6.487-5.431-10.756-6.429zM12.665 59.183c.018-13.33 5.84-26.11 16.193-35.538S53.247 8.917 67.886 8.9h62.882c14.64.017 28.675 5.318 39.027 14.745s16.176 22.208 16.193 35.538v15.201l-173.321.002zm155.676 24.105h.002c2.19 0 3.964 1.617 3.964 3.61 0 1.994-1.774 3.611-3.964 3.611H29.106c-2.189 0-3.965-1.617-3.965-3.61 0-1.994 1.776-3.61 3.965-3.61zm-21.62 107.808h-96.38c-9.486-.012-18.619-3.275-25.58-9.141-6.961-5.867-11.241-13.906-11.988-22.515h171.515c-.746 8.61-5.026 16.648-11.987 22.515s-16.094 9.129-25.58 9.14zm-121.58-40.56v-6.098h147.165v6.099zm165.07-23.961c-.004 2.376-1.041 4.653-2.886 6.333-1.845 1.678-4.346 2.625-6.953 2.627H19.61c-2.61-.002-5.11-.947-6.957-2.627-1.844-1.678-2.884-3.956-2.887-6.333v-1.622.002c.021-2.14.848-4.21 2.342-5.86 1.495-1.652 3.567-2.786 5.87-3.212.334.204.697.435 1.093.682v-.001c6.904 4.787 15.358 7.352 24.036 7.29 8.325-.251 16.155-3.657 21.602-9.393a17.625 17.625 0 0 1 3.791-2.896 48.408 48.408 0 0 1 7.953 3.656l.926.46c6.434 3.834 13.808 6.165 21.468 6.786 5.718.006 11.333-1.375 16.27-4.003a17.218 17.218 0 0 1 7.4-2.248 20.998 20.998 0 0 1 8.874 2.656c6.775 3.247 14.153 5.317 21.76 6.108 11.308.896 22.585-2.007 31.704-8.163 1.607.797 2.953 1.973 3.895 3.404a8.739 8.739 0 0 1 1.46 4.734z"/></g></svg>