<svg width="200pt" height="200pt" viewBox="0 0 200 200" xmlns="http://www.w3.org/2000/svg"><path d="M188.78 120.136c-.501 2.068-1.215 3.626-2.057 6.173h-12.36v-10.195h15.152c-.161 0-.385 2.575-.735 4.022zm-6.878 14.876c-1.72 2.368-3.704 4.043-5.922 6.592h-1.617v-10.197h9.89c-.71 0-1.492 2.422-2.35 3.605zm-28.052 17.696v-6.006h15.398c-4.405 2.55-9.515 4.328-15.398 6.006zm15.385-11.104H153.85v-10.197h15.385zm-15.385-25.49h15.385v10.195H153.85zm-7.693-10.197c0-2.825 2.282-5.097 5.131-5.097h28.203c2.831 0 5.128 2.286 5.128 5.097 0 2.826-2.279 5.1-5.128 5.1h-28.203c-2.83 0-5.131-2.29-5.131-5.1zm2.565 20.393h-15.386v-10.195h15.386zm0 15.295h-15.386v-10.197h15.386zm0 12.377c-4.684 1.002-9.816 1.662-15.386 1.984v-9.264h15.386zm-46.154-42.965c-2.83 0-5.13-2.29-5.13-5.1 0-2.825 2.282-5.097 5.13-5.097h28.204c2.83 0 5.128 2.286 5.128 5.097 0 2.826-2.28 5.1-5.128 5.1zm25.639 15.293h-15.386v-10.195h15.386zm-15.386 15.295v-10.197h15.386v10.197zm0 15.293v-10.195h15.386v9.688c-7.693.507-15.386.507-15.386.507zm-5.128-30.588H92.31v-10.195h15.383zm0 15.295H92.31v-10.197h15.383zm0 15.293H92.31v-10.195h15.383zM87.18 126.311H71.796v-10.195H87.18zm0 15.295H71.796v-10.197H87.18zm0 15.293s-7.691 0-15.384-.51v-9.685H87.18zM66.668 126.31H51.283v-10.195h15.385zm0 15.295H51.283V131.41h15.385zm0 14.362c-5.567-.322-10.697-.982-15.385-1.985v-7.279h15.385zm-17.23-45.23 10.799-13.416c.035-.048.23-.076.305-.025l3.197 2.118-9.548 11.603h-4.527zm30.484-23.595c.046-.057.223-.085.286-.043l3.239 2.145-4.66 5.867c-.112.12-.237.224-.34.354l-12.29 15.553h-5.028zm6.074 13.565-8.297 10.31H72.69l9.88-12.442c.074-.025.16-.036.203-.006zm53.609.114h2.842c-.877 1.504-1.419 3.23-1.419 5.097 0 1.867.544 3.592 1.426 5.1h-2.84c.876-1.508 1.414-3.233 1.414-5.1 0-1.865-.54-3.593-1.424-5.097zm-13.98-15.293h30.808c2.816 0 5.109 2.283 5.109 5.097 0 2.8-2.308 5.098-5.109 5.098h-30.808c-2.817 0-5.11-2.287-5.11-5.098 0-2.804 2.31-5.097 5.11-5.097zm-79.47 40.783H30.77v-10.195h15.385zm0 15.295H30.77V131.41h15.385zm0 11.104c-5.364-1.531-10.057-3.567-14.19-6.006h14.19zm-32.29-57.244c-.103-.13-.228-.234-.341-.353l-4.66-5.868 3.236-2.144c.066-.043.242-.015.288.042l18.795 23.876h-5.028zm11.777 30.846h-12.36c-.843-2.548-1.554-4.105-2.053-6.173-.352-1.447-.577-4.022-.738-4.022h15.151zm0 15.295h-1.615c-2.218-2.55-4.2-4.225-5.92-6.593-.86-1.182-1.643-3.604-2.353-3.604h9.888zM6.316 100.709l3.221-2.137c.045-.03.13-.02.202.005l9.882 12.443h-5.008zm25.452-3.41c.077-.052.272-.023.307.025l10.798 13.415-.225.281H38.12l-9.548-11.603zm163.106 13.721h-6.545c.877-1.507 1.415-3.232 1.415-5.1 0-5.625-4.595-10.194-10.255-10.194h-14.247c.882-1.506 1.426-3.234 1.426-5.098 0-5.625-4.584-10.197-10.236-10.197h-30.808c-5.63 0-10.238 4.577-10.238 10.197 0 1.864.544 3.592 1.424 5.098h-14.243c-5.68 0-10.257 4.557-10.257 10.195 0 1.867.544 3.592 1.425 5.1h-9.47l5.88-7.31c1.829-2.271 1.326-5.504-1.12-7.123l-3.194-2.116 1.79-2.25c1.804-2.275 1.276-5.491-1.16-7.106l-3.405-2.254c-2.299-1.526-5.473-1.014-7.173 1.143l-8.975 11.403c-.041-.029-3.52-2.351-3.52-2.351-2.282-1.515-5.451-1.037-7.156 1.081L46.155 106.66 36.08 94.14c-1.705-2.119-4.875-2.597-7.157-1.082l-3.407 2.256c-.041.027-9.088-11.308-9.088-11.308-1.699-2.157-4.874-2.669-7.172-1.143l-3.407 2.254c-2.433 1.615-2.962 4.831-1.16 7.105l1.791 2.251-3.196 2.116C.84 98.208.338 101.44 2.166 103.71l5.877 7.31H2.567A2.54 2.54 0 0 0 0 113.567a2.552 2.552 0 0 0 2.567 2.55h3.262c-.354 0-.075 2.852.411 4.868 1.378 5.684 3.855 11.536 7.71 16.842C24.871 152.86 44.405 162 74.356 162h51.283c29.957 0 49.492-9.312 60.413-24.347 3.854-5.303 6.331-10.81 7.705-16.494.493-2.03.774-5.041.939-5.041h2.738a2.541 2.541 0 0 0 2.565-2.55 2.548 2.548 0 0 0-2.565-2.548zm-87.62-34.707a2.537 2.537 0 0 0 0-3.604 2.574 2.574 0 0 0-3.626 0 2.534 2.534 0 0 0 0 3.604 2.57 2.57 0 0 0 3.626 0m-1.814-9.011a2.534 2.534 0 0 0 0-3.604 2.57 2.57 0 0 0-3.625 0 2.534 2.534 0 0 0 0 3.604c1 .995 2.624.995 3.625 0m-10.878 3.604a2.534 2.534 0 0 0 0 3.604 2.57 2.57 0 0 0 3.625 0 2.534 2.534 0 0 0 0-3.604 2.57 2.57 0 0 0-3.625 0m21.757 7.21a2.534 2.534 0 0 0 0-3.604 2.57 2.57 0 0 0-3.626 0 2.537 2.537 0 0 0 0 3.604c1 .996 2.624.996 3.626 0m-1.812-9.013a2.537 2.537 0 0 0 0-3.604 2.574 2.574 0 0 0-3.626 0 2.534 2.534 0 0 0 0 3.604 2.57 2.57 0 0 0 3.626 0m-1.814-12.617a2.574 2.574 0 0 0-3.625 0 2.536 2.536 0 0 0 0 3.606c1 .995 2.622.995 3.625 0a2.54 2.54 0 0 0 0-3.606M81.871 76.314l1.811 1.801 1.814-1.8 12.692-12.62 1.814-1.8 14.503-14.42 1.814-1.804-1.814-1.8c-1.874-1.864-5.052-4.014-9.297-5.166-7.117-1.93-14.525.01-21.526 6.966-6.997 6.958-8.946 14.324-7.004 21.4 1.155 4.218 3.32 7.38 5.192 9.243zm10.126-13.726-8.073 8.038c-.99-1.488-1.809-3.129-2.3-4.925-.28-1.02-.415-3.113-.473-3.113zm-6.417-11.48 6.417 6.38H81.82c.698-2.547 1.934-4.226 3.76-6.38zm9.292-7.288v10.118l-6.418-6.38c2.166-1.815 3.854-3.044 6.418-3.738zm5.13-.665c2.562.054 2.265.192 3.294.47 1.804.489 3.656 1.3 5.156 2.286l-8.45 8.027z" fill-rule="evenodd"/></svg>