<svg width="200pt" height="200pt" viewBox="0 0 200 200" xmlns="http://www.w3.org/2000/svg" xmlns:bx="https://boxy-svg.com"><path d="m144.603 0-.28 23.53H48.328C34.087 23.53 22.5 35.262 22.5 49.689v49.135c0 .857.228 1.663.629 2.354a4.675 4.675 0 0 0-.629 2.353v49.782c0 14.066 11.587 25.511 25.828 25.511h94.155L142.23 200h23.506l-.297-25.123c7.239-4.526 12.061-12.496 12.061-21.564v-49.782c0-.857-.232-1.662-.633-2.353.4-.691.633-1.497.633-2.354V49.689a26.22 26.22 0 0 0-13.821-23.144L163.363 0h-18.76Zm2.321 2.354h5.722V197.65h-8.043l2.321-195.296Zm8.392 0h5.722l1.147 96.472h-6.869V2.354ZM48.327 28.236h95.941l-.206 17.496a15.99 15.99 0 0 0-1.998-.286 10.37 10.37 0 0 0-.326-1.585v-.018l-.01-.023c-.002-.009-.002-.018-.005-.028l-.046-.146-.076-.13c-1.611-4.426-6.413-7.463-11.919-7.463-4.171 0-8.028 1.737-10.386 4.748-2.495-2.03-6.319-2.146-9.011-.252-1.898-4.638-6.967-7.606-12.653-7.606-5.779 0-10.979 3.135-12.762 7.913-.77-1.021-1.943-1.691-3.261-1.691a4.155 4.155 0 0 0-2.426.771h-.005c-.02.015-.074.018-.096.033l.023-.015c.048-.032.069-.016.005-.026l.068.008c-1.304-2.416-4.004-3.883-6.997-3.883-2.847 0-5.431 1.334-6.819 3.579a14.112 14.112 0 0 0-7.324-2.021c-6.764 0-12.486 4.584-12.486 10.506 0 .6.107 1.219.238 1.829l-.023.018c-6.515.782-11.528 5.893-11.528 12.026 0 .542.065 1.048.137 1.54a10.604 10.604 0 0 0-.137 1.544c0 6.137 5.014 11.248 11.533 12.028l.018.018c-.131.609-.238 1.226-.238 1.825 0 5.922 5.722 10.509 12.486 10.509a14.12 14.12 0 0 0 7.324-2.026c1.388 2.245 3.969 3.581 6.819 3.581 2.993 0 5.699-1.461 7.002-3.88a4.155 4.155 0 0 0 2.426.773c1.318 0 2.492-.673 3.261-1.696 1.783 4.775 6.983 7.913 12.762 7.913 5.685 0 10.754-2.971 12.653-7.606 2.69 1.894 6.515 1.776 9.011-.253 2.358 3.012 6.215 4.752 10.386 4.752 5.524 0 10.346-3.059 11.942-7.514l.063-.1.036-.13c.003-.008.003-.018.005-.026l.01-.023v-.02c.147-.495.251-1.032.326-1.58a16.499 16.499 0 0 0 1.572-.192l-.206 17.397H27.196V49.689c0-11.85 9.459-21.453 21.132-21.453h-.001Zm115.412 3.888a21.489 21.489 0 0 1 9.061 17.565v49.135h-8.267l-.794-66.7Zm-66.11 3.171c4.959 0 9.198 2.637 10.593 6.314.254.671.844 1.094 1.51 1.232a2.18 2.18 0 0 0 1.825-.367c1.729-1.252 4.783-1.125 6.323.169h.005c.455.379 1.03.568 1.646.502.544-.059 1.106-.279 1.513-.827 1.838-2.413 5.064-3.912 8.636-3.912 4.692 0 8.613 2.659 9.771 6.021l-.064-.386c0 .264.054.428.11.541.14.469.251.948.295 1.407l-.004-.056c.053 1.118 1.042 1.775 1.961 1.834h.005c.791.047 1.55.177 2.274.359l-.366 30.896c-.618.134-1.249.238-1.908.276h-.005c-.919.061-1.908.712-1.961 1.833l.004-.054a7.833 7.833 0 0 1-.29 1.387c-.021.037-.03.106-.051.175-1.16 3.362-5.082 6.021-9.771 6.021-3.572 0-6.798-1.504-8.636-3.916l-.004-.008c-.407-.544-.969-.756-1.509-.815a2.173 2.173 0 0 0-1.646.496h-.005v.005c-1.543 1.295-4.589 1.419-6.318.171-.529-.407-1.208-.518-1.835-.368-.661.14-1.251.553-1.504 1.226-1.396 3.675-5.634 6.316-10.593 6.316-5.018 0-9.388-2.807-10.675-6.559l-.01-.036c-.303-.794-1.013-1.244-1.812-1.31-.795-.069-1.567.218-2.026.979l.018-.029c-.27.422-.817.736-1.518.736-.559 0-.942-.205-1.136-.35l-.01-.008-.008-.005c-.536-.376-1.17-.456-1.707-.373l-.033.005-.031.01c-.588.127-1.143.468-1.449 1.103-.787 1.586-2.745 2.725-5.054 2.725-2.202 0-4.068-1.027-4.939-2.551v.01c-.316-.561-.832-.871-1.394-.993l-.023-.005-.019-.005a2.237 2.237 0 0 0-1.613.299c-1.788 1.093-3.915 1.692-6.155 1.692-5.717 0-10.139-3.783-10.139-8.157 0-.545.07-1.1.206-1.605l.01-.046c.191-.835-.32-1.666-1.009-2.059-.308-.221-.631-.405-.996-.454l-.013-.005h-.01c-5.488-.637-9.5-4.842-9.5-9.702 0-.423.048-.874.122-1.361l.028-.178-.028-.184a9.073 9.073 0 0 1-.122-1.361c0-4.859 4.012-9.068 9.5-9.705h.023c.363-.049.684-.239.991-.46.694-.393 1.205-1.222 1.014-2.059l-.01-.046a6.247 6.247 0 0 1-.206-1.604c0-4.374 4.422-8.152 10.139-8.152 2.242 0 4.368.596 6.155 1.69a2.215 2.215 0 0 0 1.613.296l.019-.005.023-.005c.552-.12 1.077-.422 1.394-.983l.005-.01c.873-1.517 2.738-2.541 4.934-2.541 2.311 0 4.267 1.143 5.054 2.73.306.635.862.975 1.45 1.103l.031.005.032.004c.537.084 1.171.009 1.707-.367l.008-.01.015-.01c.188-.139.569-.345 1.131-.345.701 0 1.249.316 1.519.736l-.018-.026c.458.759 1.234 1.047 2.022.983.801-.066 1.511-.514 1.815-1.315l.01-.036c1.289-3.755 5.657-6.563 10.675-6.563h-.001Zm-32.238 4.337c.013-.001.019.012.014.011-.008-.006-.019 0-.027-.006l.013-.005Zm53.889 1.172c.005 0 .005.005.01.005-.03.036-.083.047-.11.084.069-.077.118-.09.1-.089Zm-34.338.056c.02-.002.071.058.11.092-.029-.044-.101-.026-.133-.069.007 0 .017-.023.023-.023Zm-.175.174c-.007.022-.025.036-.031.056l.013-.036c.008-.02.011-.003.018-.02Zm14.037 6.025c-.647 0-1.174.527-1.174 1.177v4.706c0 .65.527 1.177 1.174 1.177.649 0 1.175-.527 1.175-1.177v-4.706c0-.65-.526-1.177-1.175-1.177Zm-25.899 2.359a1.159 1.159 0 0 0-.454.118 1.185 1.185 0 0 0-.524 1.583l2.349 4.705c.206.409.616.652 1.045.652.176 0 .357-.043.527-.128.579-.293.817-.995.528-1.576l-2.347-4.707a1.173 1.173 0 0 0-1.124-.647Zm47.108 0a1.2 1.2 0 0 0-1.131.657c-.282.564-.046 1.27.541 1.575l4.694 2.354c.166.071.355.12.52.12.422 0 .843-.238 1.055-.662.281-.564.046-1.27-.543-1.577l-4.695-2.352a1.094 1.094 0 0 0-.441-.115Zm-74.18.863c.005.02.003.04.008.06l-.013-.046c-.001-.005.005-.007.005-.014Zm10.784 10.902a1.173 1.173 0 0 0-1.122.646l-2.348 4.708a1.177 1.177 0 0 0 1.05 1.7c.429 0 .843-.24 1.05-.648l2.348-4.706a1.183 1.183 0 0 0-.528-1.582 1.136 1.136 0 0 0-.45-.118Zm53.847 2.357a1.171 1.171 0 0 0-.454.133l-4.697 2.353c-.563.283-.799.988-.517 1.576.211.401.613.635 1.06.635.163 0 .348-.026.512-.12l4.698-2.353c.585-.283.822-.988.539-1.576a1.184 1.184 0 0 0-1.141-.648Zm-25.672 4.701a1.177 1.177 0 0 0-1.123.648l-2.347 4.706a1.179 1.179 0 0 0 .523 1.577 1.175 1.175 0 0 0 1.576-.524l2.349-4.707a1.182 1.182 0 0 0-.528-1.58 1.139 1.139 0 0 0-.45-.12Zm42.124 4.702c-.15.008-.303.049-.449.12-.587.305-.824 1.011-.542 1.575l2.349 4.706c.211.423.637.658 1.059.658.164 0 .349-.049.513-.12.588-.307.823-1.013.543-1.577l-2.349-4.706a1.19 1.19 0 0 0-1.124-.656Zm-81.077 3.776c-.006.022-.004.042-.008.061 0-.006-.007-.008-.005-.015l.013-.046Zm38.895 9.253c.007.019.025.034.031.054-.006-.015-.009.002-.018-.018l-.013-.036Zm.304.146c-.031.023-.077.082-.102.078-.005 0-.013-.018-.018-.018.028-.037.094-.021.12-.06Zm34.136.046c.029.041.088.052.119.092-.006 0-.006.006-.014.005.018.001-.027-.004-.105-.097Zm-40.089.934c.018.013.069.014.087.027l-.064.013c.064-.009.043.006-.005-.027l-.018-.013Zm-13.666.317c-.074.045-.003.018-.028.013h-.013c.013-.007.03-.005.041-.013Zm-38.227 16.117h116.179l-.095 8.023c-.159-.122-.284-.258-.463-.371-.824-.527-1.864-.973-3.027-1.085-1.163-.112-2.496.161-3.555 1.103-.797.707-1.199 2.063-1.596 3.428-2.266-.892-4.566-.526-5.947.892-1.256 1.288-1.633 3.11-1.266 4.82-2.316.235-4.2 1.386-4.847 3.194-.636 1.776-.02 3.742 1.326 5.295-1.369 1.093-2.31 2.602-2.601 4.099-.184.95-.211 1.856.174 2.711.141.31.45.56.753.799-.993 2.103-1.486 4.068-.725 5.65.463.96 1.418 1.654 2.527 1.869.451.089 1.051-.141 1.554-.174-2.111 3.936-2.64 7.035-1.458 8.92 1.008 1.606 2.703 1.913 4.293 1.65-.174 2.16-.295 4.279.21 5.671.321.881.837 1.705 1.785 2.032.48.165.917-.234 1.394-.383.476.988.933 1.955 1.499 2.459.753.673 1.906.843 2.674.474.697-.338 1.073-.873 1.412-1.375.567.891 1.045 1.795 1.844 2.547.635.597 1.372 1.121 2.311 1.254.35.049.713.002 1.071-.092l-.086 7.179h-94.21c-11.672 0-21.131-9.316-21.131-20.805l.001-49.784Zm128.124 0h6.925l.802 67.32a21.199 21.199 0 0 1-7.727 2.936v-70.256Zm9.271 0h8.213v49.782c0 6.337-2.894 11.998-7.433 15.814l-.78-65.596Zm-97.928 4.706c-8.801 0-14.74 1.494-18.503 3.028-3.764 1.532-5.453 3.204-5.453 3.204-2.951 3.003-4.505 5.25-5.309 7.256-.806 2.005-.807 3.709-.807 5.336 0 3.868 3.113 7.057 6.955 7.057h22.48c.123.02.248.02.371 0h14.221c.123.02.248.02.371 0h16.202c.123.02.247.02.372 0h9.546c3.848 0 6.962-3.189 6.962-7.057 0-2.326-1.811-3.963-3.371-5.111-1.55-1.141-3.062-1.82-3.081-1.829l-.019-.015c-.079-.039-23.1-11.869-40.937-11.869Zm-.013 2.351h.013c4.132 0 8.649.728 13.107 1.789a1.18 1.18 0 0 0-.089.905s3.003 10.89.204 18.484H67.695c3.907-10.315-.674-20.413-1.049-21.177v-.001Zm-2.38.204c.02.111.058.22.109.321 0 0 5.186 10.856.945 20.653H53.813c3.325-8.409.37-18.698.07-19.692 2.725-.675 6.139-1.12 10.384-1.282h-.001Zm75.296 1.645c.68.065 1.434.374 1.99.73.278.179.508.364.65.51.143.147.176.281.13.12.111.438.463.775.907.864l-.587 49.597a1.006 1.006 0 0 0-.1.096c-.37.398-.474.378-.674.348-.202-.027-.593-.223-1.032-.638-.881-.829-1.844-2.368-2.518-3.529a1.174 1.174 0 0 0-2.031 0c-.234.406-.472.877-.729 1.269-.259.392-.55.658-.606.684-.054.026.177.132-.097-.11-.272-.242-.804-.993-1.384-2.409a1.176 1.176 0 0 0-.812-.697 1.166 1.166 0 0 0-1.04.252c-.444.381-.503.289-.45.307.052.018-.152-.082-.344-.61-.385-1.057-.538-3.341-.146-6.044a1.177 1.177 0 0 0-1.845-1.126c-.641.458-2.082.435-2.733-.602-.65-1.036-.817-3.619 2.349-8.387a1.182 1.182 0 0 0-.044-1.364 1.174 1.174 0 0 0-1.301-.406c-1.208.402-2.108.458-2.639.355-.533-.103-.705-.266-.859-.584-.306-.637-.151-2.459 1.188-4.762.227-.39.21-.879-.045-1.254a1.171 1.171 0 0 0-1.148-.5c-.048-.177-.116-.598-.005-1.172.249-1.276 1.166-2.805 2.285-3.286a1.177 1.177 0 0 0 .188-2.06c-1.418-.949-1.736-2.467-1.293-3.703.441-1.237 1.546-2.214 3.77-1.922a1.177 1.177 0 0 0 1.1-1.856c-.586-.808-.3-2.345.714-3.387 1.016-1.041 2.373-1.56 4.224-.257.331.233.759.279 1.131.12a1.17 1.17 0 0 0 .703-.897c.278-1.766.834-2.697 1.363-3.166.528-.47 1.089-.59 1.77-.524Zm-87.949.28c.267.972 3.04 11.327-.065 18.584a1.198 1.198 0 0 0-.1.465h-7.906c-2.554 0-4.609-2.089-4.609-4.706 0-1.626-.002-2.865.639-4.457.639-1.594 1.977-3.601 4.806-6.48 0 0 1.203-1.27 4.664-2.681.643-.262 1.772-.471 2.571-.725Zm30.403.322c6.244 1.659 10.141 3.085 14.626 4.953 1.073 4.338 1.41 9.38-.217 13.774H82.26c2.683-8.356-.042-18.071-.244-18.727Zm17.124 6.015c2.836 1.257 7.443 3.171 7.443 3.171l.023.013.022.01s1.348.621 2.678 1.599c1.331.98 2.413 2.286 2.413 3.213 0 2.617-2.054 4.706-4.614 4.706h-8.341c1.357-4.279 1.209-8.712.376-12.712Zm-32.481 22.123c-8.801 0-14.74 1.497-18.503 3.028-3.764 1.533-5.453 3.204-5.453 3.204-2.951 3.004-4.505 5.25-5.309 7.256-.806 2.006-.807 3.71-.807 5.336 0 3.869 3.113 7.059 6.955 7.059h22.48c.123.02.248.02.371 0h14.221c.123.02.248.02.371 0h16.202c.123.02.247.02.372 0h9.546c3.848 0 6.962-3.19 6.962-7.059 0-2.324-1.811-3.962-3.371-5.111a18.794 18.794 0 0 0-3.081-1.828l-.019-.013c-.079-.041-23.1-11.872-40.937-11.872Zm-.013 2.354h.013c4.132 0 8.649.727 13.107 1.787a1.181 1.181 0 0 0-.089.906s3.003 10.89.204 18.483H67.695c3.907-10.316-.674-20.412-1.049-21.176Zm-2.38.202c.02.111.058.219.109.321 0 0 5.185 10.857.945 20.653H53.813c3.325-8.407.37-18.698.069-19.693 2.726-.672 6.139-1.117 10.384-1.282v.001Zm-12.653 1.925c.267.971 3.04 11.328-.065 18.584a1.198 1.198 0 0 0-.1.465h-7.906c-2.554 0-4.609-2.09-4.609-4.706 0-1.626-.002-2.864.639-4.458.639-1.593 1.977-3.6 4.806-6.48 0 0 1.203-1.27 4.664-2.678.643-.263 1.772-.471 2.571-.727Zm30.403.321c6.244 1.66 10.141 3.086 14.626 4.956 1.073 4.336 1.41 9.379-.217 13.772H82.26c2.683-8.356-.042-18.07-.244-18.728Zm17.124 6.016c2.835 1.257 7.443 3.171 7.443 3.171l.022.014.023.009s1.348.62 2.678 1.6c1.331.98 2.413 2.285 2.413 3.212 0 2.616-2.054 4.706-4.614 4.706h-8.341c1.357-4.278 1.209-8.711.376-12.712Zm63.96 24.187.257 21.467h-8.043v-19.11c2.756-.387 5.38-1.178 7.785-2.356l.001-.001Z" bx:origin="-0.145161 0"/></svg>