<svg width="200pt" height="200pt" viewBox="0 0 200 200" xmlns="http://www.w3.org/2000/svg"><path d="M49.323 102.115c5.82-5.792 8.314-3.723 8.314-5.792 0-.827-.416-1.241-1.247-1.241-12.472 2.896-14.966 18.205-34.089 42.201-.416.414-2.079 10.758 20.786-26.893.416-.827.831-1.241 1.247-2.07 1.663-2.482 3.326-4.55 4.99-6.205zM123.321 92.599c-26.606-8.689-25.359-2.482-23.28-2.482 8.314.414 14.966 2.07 22.866 4.551 6.652 2.482 13.303 5.378 21.616 11.999a71.252 71.252 0 0 1 17.045 18.205c0 .414.417.414.831.414h.416v-.414c.417-.415.417-.827 0-1.241-10.809-16.965-23.28-24-39.493-31.033zM49.74 136.87c-.417 0-1.248.413-1.248 1.24s.416 1.241 1.247 1.241h.416c2.08 0 11.64-.414 11.224-2.896-.83-2.068-3.326.828-11.64.414zM77.177 97.977v-5.792c0-1.24-1.663-1.655-2.08 0 0 .414-.416 1.241 0 1.655v4.552c.002.828 2.08 1.24 2.08-.415zM63.874 116.596c-7.483-3.723-7.067 0-5.82.414 4.156.827 4.989 2.07 5.403 1.655 1.249-.414 1.665-1.655.417-2.07zM80.502 110.39c-.416 2.896-2.079 5.378 0 5.792 1.663.827 1.663-3.723 2.08-5.378 0-1.241-2.08-1.655-2.08-.414zM77.592 131.49c-.416 0-1.247.415-1.247.827v2.897c0 1.24 2.08 1.655 2.08 0v-2.897c.414 0 0-.826-.833-.826zM96.715 121.147c0-1.24-2.079-1.24-2.079 0 0 2.07-2.494 1.655-1.663 3.31.416 1.654 3.742-.414 3.742-3.31zM94.637 102.115c-1.247.827.416 2.482 1.247 1.655 2.079-2.07 4.989-3.31 3.74-4.551-1.247-1.243-2.91 1.24-4.987 2.896zM115.838 106.666c-3.326 2.07-6.236 2.482-5.404 4.137 0 .414.417.414.831.414h.416l4.99-2.896c1.246-.414 0-2.07-.833-1.655zM117.086 126.94c.83-1.242-.417-2.483-1.664-1.242l-2.91 3.31c-.416.415 0 1.656.831 1.656 1.247-.414 1.247-.828 3.743-3.725zM91.311 142.662c-.416.414-.83.827-.416 1.24.416.415.83.828 1.247.415l6.652-3.31c.416-.415.83-.827.416-1.241-.832-1.241-2.91.828-7.899 2.896zM123.321 145.558c-2.494 0-5.404.414-7.899.827-.416 0-.83.827-.83 1.24s.416.828.83.828c2.494-.415 4.99-.827 7.483-.827.416 0 1.247-.414 1.247-1.241.002-.413-.415-.827-.83-.827zM149.512 143.903l-4.157.827c-.416 0-.831.827-.831 1.24s.416.828.83.828c1.664-.415 4.574-.827 4.158-.827 1.663-.413 1.246-2.48 0-2.068zM130.389 134.387c-.831.414-.417 2.07.416 2.07.416 0 0 0 5.82-2.483.416-.414.83-.827.416-1.24-.832-2.072-2.495-.002-6.652 1.653zM129.973 112.872c-2.91 1.241-5.82 1.241-5.404 3.31.83 1.656 2.91-.414 6.236-1.24 1.245-.829.83-2.897-.832-2.07zM158.242 129.008c-6.653-2.07-7.483-6.206-8.73-4.551-.417.414-.417 1.241 0 1.655 1.663 1.655 8.73 7.033 9.562 4.551-.002-.827-.416-1.655-.832-1.655zM173.623 142.662l4.157-.827c.416 0 .83-.827.83-1.241 0-.414-.83-.827-1.246-.827l-3.74.827c-.417 0-.832.827-.832 1.24-.416.414 0 .828.831.828zM33.11 139.352c-1.246.827-2.079 2.069-2.91 3.31-.416.414 0 1.241.417 1.241h.416c.416 0 .83 0 .83-.414.417-1.241 1.247-2.07 2.494-2.896.417-.414.417-.827 0-1.241-.414-.413-.83-.413-1.247 0zM80.502 82.669c0-2.482-6.652.414-8.73 1.655-.83.827-.416 2.482 1.247 1.655.416-.414 2.494-1.655 6.652-2.482.831.413 1.247-.001.831-.828z"/><path d="M15.65 154.246c168.782 1.241 172.108 8.69 176.68-1.655 10.81-8.688 7.9-30.204 4.99-39.305 1.663-5.379 1.246-10.758-.831-15.722-3.741-8.274-14.134-17.377-24.527-14.895-.416-.414-1.663-6.206-6.652-10.757-.831-5.379-.416-14.067-14.966-14.067-2.91-5.792-8.314-7.861-15.382-4.137-4.573-4.137-10.393-7.033-16.213-6.207-3.326-4.965-8.73-5.378-12.887-2.896-4.989-3.723-15.797-4.137-25.775 3.31 0 0-.416.415-.83.415-2.08 0-4.157.414-6.653 1.655-4.157 2.07-7.483 4.965-9.977 7.447-3.326-.414-6.652.414-9.146 2.482-4.989-4.965-16.629-5.378-23.696 1.241-5.404 4.966-8.313 12.826-8.313 21.928-2.91 2.896-4.573 5.379-7.067 7.448-4.573 4.965-7.067 7.861-3.741 16.55-12.472 9.517-14.55 28.548-3.326 40.96 1.245 3.723 4.57 6.205 8.312 6.205zm168.782-.412v2.07-2.07L15.65 150.109c-2.079 0-4.157-1.655-4.157-3.723-2.495-22.342 26.19-52.959 43.65-64.13 45.73-28.134 130.952 9.103 133.862 67.027-.416 2.482-2.494 4.55-4.573 4.55zM18.976 102.53c0-.827-1.663-5.379 0-5.379.416 0 .416 0 2.08-.826l.415.414c-.001 2.068-1.248 4.964-2.495 5.79zm5.82-1.655 1.663 2.069c-3.326 4.137-3.74 4.551-5.82 7.447-.416-1.24-.416-2.07-.83-3.31 2.077-1.241 3.74-3.31 4.987-6.207zm9.146-6.206c-4.157-4.55-7.067-6.62-7.067-7.033l.417-.414c1.246-.827 3.74-1.24 5.403-1.655 3.327-1.241 7.9-2.07 10.81-.414 0 0-.417.414-.417.827-3.326 2.483-6.236 5.379-9.146 8.69zM59.716 68.19c1.247-.827 3.326-.414 4.989.827 0 1.24.416 2.482.83 3.723-2.493.827-4.988 2.07-7.482 3.31 0-.827-.415-6.62 1.663-7.86zm7.483 2.068c.416.414.83.414 1.663 1.24-.416 0-.83.415-1.247.415-.416-.414-.416-.827-.416-1.655zm13.303-.827c-1.247-2.07-2.91-4.137-4.989-5.792l.83-.415c1.664 2.07 3.327 4.137 4.574 6.207h-.415zm9.146-10.758c2.91 1.655 7.483 1.241 10.81-2.896.83 3.31-.832 2.07 4.156 14.48-3.326-.413-6.236-.826-9.562-1.24C84.659 54.95 78.839 54.95 83.828 53.707c3.74 2.07 3.74 3.725 5.82 4.966zm-.416-6.206c2.91-.827 6.652-1.655 9.146 0-4.989 5.792-7.067 2.07-9.146 0zm61.942 33.514c-5.82-8.274-14.134-14.066-13.72-15.722 1.248-.827 10.81-3.723 12.473-2.896 1.247 1.241 3.326 2.07 4.99 2.896 1.662 2.896-2.08-2.07 7.066 22.342 0 .414 0 .414-.416.827-2.91-2.897-6.236-5.38-10.393-7.447zm21.617 8.274c0-.414 0-.414.416-.827 5.82 4.966 7.067 2.482 14.133 9.517 1.663 5.378-.83 11.17-4.156 13.654-2.91-4.965-6.237-9.517-10.393-14.067 2.494-1.243.83-5.38 0-8.277zm19.955 51.718c-.416-6.207-2.08-13.24-4.99-19.86 2.495-1.656 4.99-3.723 6.653-6.621 1.247 7.449 2.494 20.689-1.663 26.481zm.83-29.376c-1.662 3.723-4.572 6.62-6.652 7.862-.83-2.07-1.663-3.723-2.91-5.793 5.82-4.137 8.73-14.894.831-22.756-4.989-4.966-12.887-7.862-14.133-1.241-.417 1.655-.417 3.723-.831 5.792-2.494-2.482-3.74-3.723-5.82-5.378 3.326-23.998 41.987-2.898 29.516 21.514zm-42.403-56.682c14.134.414 8.73 6.62 15.797 25.652-1.663 1.24-2.494 2.482-3.326 4.137-.416-.827-4.573-11.584-5.404-15.309-.416-.414 0-9.93-9.977-9.103-4.156.415-11.223 2.897-12.055 3.31-3.741 2.483 3.74 7.034 10.393 14.895-5.82-2.896-9.147-4.137-14.134-6.206-.416-.414-.831-.414-1.247-.414-1.663-.414-3.326-1.241-4.99-1.655 6.652-7.86 14.55-15.722 24.944-15.308zm-15.382-2.482c0 .414.417.414 0 0 3.741-2.07 7.067-2.897 9.977.826-8.73 2.07-15.382 9.103-21.616 16.136-2.494-.827-4.99-1.24-7.483-2.069.83-2.07.83-5.792.83-8.274 0-3.31.417-3.31.417-3.723 3.326 3.31 9.146 2.482 12.887.414-6.653-7.033-14.966-8.274-14.966 3.31 0 1.656 0 6.207-.831 7.448-1.663-.414-2.91-.827-6.236-1.241 2.079-4.137-1.247-14.895 6.652-19.86 6.235-3.725 15.38 1.24 20.37 7.033zm-14.55.414c.417 0 1.248 0 3.327.827-.833 0-2.496 0-3.326-.827zm-6.652-9.103a14.297 14.297 0 0 0-4.989 4.965c-.416-2.07-.416-4.137-1.246-5.792 2.495-1.657 5.405-.828 6.236.827zm-33.672.827c9.976-7.033 22.448-7.862 25.775-.414 1.246 2.482 1.246 5.792 1.663 8.274-1.247 4.137-.417 10.343-1.247 11.998-4.573-11.584-3.741-13.24-4.573-15.309-2.494-5.792-9.146-5.378-14.966-3.31-14.134 3.31-4.573 4.965 5.404 18.205h-9.146c-8.314-11.17-4.99-8.274-9.146-7.033h-.417c-.83-.827-2.079-1.241-2.91-2.07 2.08-2.069 4.157-4.965 6.653-7.447.416-.825 1.663-2.066 2.91-2.894zm-8.315 5.38c-1.247 1.654-2.91 3.31-3.741 4.55-.416-.414-.831-.414-1.247-.414 1.247-1.655 2.91-3.31 4.988-4.137zm5.405 14.892c-2.91 0-5.405.829-7.067 1.243-2.494-2.896-8.73-7.033-12.473-4.551-3.326 2.069-2.493 8.274-2.493 10.343-3.326 2.07-3.741 2.07-7.483 4.551.416-.826.83-1.655.83-2.482.831-.826-1.246-9.102 2.91-14.48 4.573-7.863 17.876-5.794 25.775 5.377zm-45.314-5.378c5.404-4.965 14.134-4.965 17.876-1.24-3.326 4.964-2.91 11.17-2.91 12.825-5.82-2.482-14.133-1.655-21.616 3.724.416-6.206 2.91-11.584 6.65-15.309zm-20.37 33.1c1.247-2.896 4.157-5.378 5.82-7.447 7.9-9.517 19.54-16.964 29.517-12.413 0 2.07-1.247 3.31-2.91 5.378-4.573-2.896-10.81-.414-14.134.414-9.977 2.482-3.74 5.793 2.08 11.999-1.664 1.655-3.327 3.31-4.574 5.378l-2.079-2.896c-2.494-3.31-3.326-5.378-4.573-4.551l-2.08 1.24c-4.988 0-2.078 7.862-.83 13.24.416 1.242.83 2.897 1.247 4.552-.83 1.24-1.663 2.482-2.494 3.31-2.079-2.896-7.483-13.652-4.989-18.203zm0 14.067c.831 1.655 2.08 4.137 2.91 6.206-4.572 7.034-7.482 14.481-8.313 22.757-4.99-10.344-2.08-22.342 5.404-28.963z"/></svg>