<svg width="200pt" height="200pt" viewBox="0 0 200 200" xmlns="http://www.w3.org/2000/svg" xmlns:bx="https://boxy-svg.com"><g bx:origin="-0.018134 0"><path d="M100.803 30.546c1.785 0 3.345-1.561 3.345-3.344V3.344c0-1.784-1.562-3.344-3.345-3.344-1.785 0-3.345 1.562-3.345 3.344v23.858c0 1.784 1.338 3.344 3.345 3.344zM111.734 34.337c1.784 0 3.345-1.562 3.345-3.344V3.344c0-1.784-1.562-3.344-3.345-3.344-1.785 0-3.346 1.562-3.346 3.344v27.649c-.001 1.784 1.56 3.344 3.346 3.344zM122.887 30.546c1.785 0 3.346-1.561 3.346-3.344V3.344c0-1.784-1.563-3.344-3.346-3.344-1.785 0-3.345 1.562-3.345 3.344v23.858c-.002 1.784 1.336 3.344 3.345 3.344zM82.734 7.58h10.038c1.785 0 3.345-1.561 3.345-3.344 0-1.784-1.562-3.344-3.345-3.344H82.734c-1.785 0-3.345 1.562-3.345 3.344-.002 1.784 1.338 3.344 3.345 3.344zM82.734 17.391h10.038c1.785 0 3.345-1.562 3.345-3.344 0-1.784-1.562-3.344-3.345-3.344H82.734c-1.785 0-3.345 1.562-3.345 3.344-.002 1.784 1.338 3.344 3.345 3.344zM82.734 26.309h10.038c1.785 0 3.345-1.562 3.345-3.344 0-1.784-1.562-3.344-3.345-3.344H82.734c-1.785 0-3.345 1.562-3.345 3.344-.002 1.784 1.338 3.344 3.345 3.344zM193.155 11.148h-48.407C143.186 4.905 137.61.446 131.141.446c-1.785 0-3.346 1.561-3.346 3.344 0 1.784 1.563 3.344 3.346 3.344 4.014 0 7.361 3.344 7.361 7.358 0 4.012-3.345 7.358-7.361 7.358-1.785 0-3.346 1.561-3.346 3.343 0 1.784 1.563 3.344 3.346 3.344 6.692 0 12.27-4.683 13.607-10.702h48.407c1.784 0 3.345-1.561 3.345-3.344 0-1.782-1.338-3.344-3.345-3.344zM105.934 107.024c1.562-.891 2.007-3.121 1.115-4.683-.891-1.562-3.123-2.006-4.685-1.115-2.454 1.561-4.461 3.568-6.246 6.02-3.345 4.684-4.685 10.702-3.57 16.277 1.116 5.796 4.24 10.702 8.923 14.047.669.446 1.338.669 2.007.669 1.116 0 2.007-.447 2.676-1.338 1.116-1.561.67-3.568-.891-4.683-3.346-2.23-5.577-5.797-6.246-9.81-.67-4.013.222-8.028 2.454-11.372 1.34-1.56 2.677-3.121 4.462-4.012z"/><path d="M152.779 141.138h-1.116c.223-1.784.447-3.344.447-5.128 0-18.729-13.161-34.56-30.56-38.796v-61.54c0-1.784-1.563-3.343-3.346-3.343-1.785 0-3.346 1.561-3.346 3.343V96.1c-.891 0-1.784-.223-2.676-.223-1.785 0-3.345 1.562-3.345 3.344 0 1.784 1.562 3.344 3.345 3.344 18.293 0 33.238 14.939 33.238 33.223 0 1.784-.223 3.344-.447 5.128h-5.13c0-.892.223-1.784.223-2.676 0-16.053-12.938-28.986-29-28.986-1.785 0-3.345 1.562-3.345 3.344 0 1.784 1.562 3.344 3.345 3.344 12.27 0 22.307 10.033 22.307 22.297 0 .89 0 1.784-.222 2.675h-5.8c.223-.891.223-1.784.223-2.675 0-9.142-7.362-16.5-16.508-16.5-1.785 0-3.345 1.561-3.345 3.344 0 1.784 1.562 3.343 3.345 3.343 5.354 0 9.816 4.46 9.816 9.811 0 .892-.223 1.784-.447 2.676l-29.67.003c-4.461-7.136-6.023-15.385-4.461-23.634a32.16 32.16 0 0 1 13.83-20.96c1.785-1.337 3.792-2.23 5.8-3.121.222 0 .446-.223.668-.447 1.116-.669 1.785-1.561 1.785-2.899V35.673c0-1.784-1.562-3.344-3.345-3.344-1.785 0-3.346 1.562-3.346 3.344v52.175c-1.784.89-3.57 1.783-5.354 2.899-8.7 5.796-14.723 14.716-16.73 25.195-1.562 8.474-.447 17.17 3.345 24.972H78.05c-10.707-17.613-5.577-40.134 11.376-51.728 2.231-1.562 4.461-2.675 6.915-3.79.222 0 .222-.223.446-.223.67-.222 1.116-.669 1.563-1.115 1.115-1.562.669-3.568-.892-4.683-2.009-1.338-4.239-2.453-6.47-3.344-18.737-7.58-40.599 2.23-48.63 21.85 0 .223-.222.447-.222.447-16.73 7.136-29.668 23.412-32.345 43.702-1.562.89-2.9 2.23-3.57 4.012-4.907 13.379-3.122 27.425 4.908 38.797C17.822 194.426 27.637 200 37.675 200h90.567c10.038 0 19.853-5.797 26.546-15.161 8.03-11.371 9.816-25.418 4.908-38.797-.671-2.899-3.794-4.905-6.917-4.905zm-86.552-15.385c-9.816-.222-18.738 5.797-22.085 15.161H32.097c3.123-14.939 17.177-25.418 32.57-23.634.669 0 1.115.222 1.562.222-.447 2.9-.447 5.576-.002 8.251zm1.116 6.912c.669 2.899 1.784 5.796 3.123 8.473H51.28c3.123-5.797 9.37-9.365 16.062-8.473zm6.023-36.343c-2.231-.669-4.685-1.115-7.14-1.337h-.446c2.9-3.79 7.809-6.021 12.938-5.128-2.007 2.004-3.792 4.235-5.352 6.465zm15.168-14.047c-.892.446-1.785 1.115-2.454 1.561-.446.223-.669.669-1.116.891-1.562-.668-3.122-1.115-4.685-1.337-9.146-1.562-18.068 3.344-21.86 11.595-2.454.222-4.908.446-7.14.89 7.586-13.378 23.425-19.399 37.255-13.6zm-22.976 19.398c1.562.222 3.123.446 4.46.89-1.338 2.9-2.23 5.797-2.9 8.696-.669 0-1.115-.222-1.784-.222-19.407-2.23-37.03 11.148-40.153 30.102h-8.254c4.016-24.75 25.432-42.364 48.63-39.466zm84.098 79.6c-5.355 7.804-13.385 12.263-21.192 12.263l-90.567-.002c-7.808 0-15.614-4.683-21.191-12.264-6.693-9.586-8.253-21.405-4.239-32.776.223-.446.67-.669 1.116-.669h138.973c.447 0 .892.223 1.116.67 4.237 11.15 2.676 23.189-4.016 32.777z"/></g></svg>