<svg width="200pt" height="200pt" viewBox="0 0 200 200" xmlns="http://www.w3.org/2000/svg" xmlns:bx="https://boxy-svg.com"><g bx:origin="-0.661758 -0.32565"><path d="M191.372 56.71c-6.73-8.047-16.511-12.771-27.771-13.478 1.23-10.799-1.42-21.423-8.337-29.69-15.01-17.949-44.521-18.071-65.785-.271-12.142 10.162-18.965 24.905-20.39 40.74-2.072-1.383-5.311-3.834-9.034-7.782-2.383-2.526-5.664-3.067-8.564-1.4-3.4 1.945-6.125 7.07-4.475 12.731 1.945 6.67 9.762 13.243 23.868 20.086a76.332 76.332 0 0 0 15.651 30.985c8.73 10.436 18.378 17.57 28.26 21.952 4.116 14.313 9.034 22.743 15.022 25.72a11.722 11.722 0 0 0 5.246 1.253c3.29 0 6.216-1.425 7.854-3.379 2.117-2.531 2.164-5.81.13-8.56-2.975-4.02-4.74-7.384-5.748-9.632.973.047 1.945.082 2.912.082 14.867 0 28.942-5.43 39.828-14.54 21.262-17.791 26.346-46.867 11.333-64.817zm-15.877 13.291c8.81 10.532 5.558 27.825-7.25 38.547-4.89 4.09-9.053 6.17-14.362 7.168-4.846.911-9.732 1.038-14.504.374-4.56-.634-8.954-1.891-13.175-3.634-2.44-6.877-3.21-15.356-1.29-23.477 6.86-2.259 13.263-5.797 19.017-10.612a57.829 57.829 0 0 0 13.383-16.127c7.36-.066 13.937 2.683 18.182 7.762zM144.97 45.676c-7.008 2.256-13.533 5.866-19.382 10.763-6.534 5.47-11.447 11.606-14.689 18.123-6.483-.215-15.104-3.207-21.618-7.481-.514-3.39-.732-6.984-.7-10.895.106-6.617 1.874-19.042 12.497-27.936 12.809-10.719 30.394-10.874 39.212-.34 3.973 4.748 5.595 11.024 4.68 17.766zm-36.162 33.765a42.61 42.61 0 0 0-1.919 7.169c-3.967-.178-7.19-.904-12.299-3.629-1.627-3.027-2.888-6.07-3.825-9.236 5.827 3.057 12.378 5.148 18.043 5.696zm-2.433 12.153c-.122 2.52-.02 5.054.328 7.598a69.887 69.887 0 0 1-3.689-4.056 92.935 92.935 0 0 1-3.718-4.737c2.455.74 4.712 1.071 7.079 1.195zm6.67 13.18c-4.977-16.024.59-31.81 15.753-44.5a53.093 53.093 0 0 1 14.76-8.744c-1.972 5.612-5.588 10.799-10.521 14.926-13.63 11.408-16.197 29.187-12.912 43.083-2.45-1.384-4.801-2.997-7.079-4.765zM51.819 56.156c-.887-3.046.431-5.998 2.158-6.99.887-.506 1.64-.36 2.443.492 5.986 6.347 10.904 9.246 12.397 10.043-.033 3.882.236 7.8.837 11.714C56.742 64.66 52.78 59.443 51.82 56.157zm87.208 92.436c.663.894.678 1.625.056 2.37-1.239 1.487-4.286 2.232-7.036.86-2.923-1.453-7.135-6.002-11.32-18.947a62.467 62.467 0 0 0 10.945 2.566c.726 2.048 2.75 6.934 7.355 13.15zm37.801-30.899c-29.424 24.625-65.767 12.463-86.457-12.273-23.038-27.538-21.976-67.983 2.317-88.317 9.652-8.076 21.13-12.124 31.842-12.124 10.54 0 20.333 3.917 26.9 11.77 13.242 15.833 8.437 41.749-10.708 57.78-4.266 3.568-8.91 6.377-13.844 8.417 1.997-4.678 5.044-9.039 9.366-12.657 7.166-5.995 11.955-13.993 13.492-22.514 1.563-8.688-.43-16.884-5.61-23.077-10.577-12.65-31.33-12.777-46.252-.285C85.718 34.584 83.704 48.64 83.583 56.11l.002.01-.001.007c-.04 4.648.26 8.872.933 12.85.001.025.007.048.012.074 1.798 10.542 6.303 19.313 14.657 29.3 6.872 8.214 15.003 14.361 23.978 18.28.144.07.29.138.448.178 4.81 2.055 9.849 3.512 15.08 4.24 2.239.311 4.497.467 6.76.467a50.41 50.41 0 0 0 9.356-.881c6.141-1.153 11.119-3.619 16.648-8.249 14.924-12.49 18.457-32.943 7.876-45.59-4.718-5.646-11.706-9.004-19.555-9.511 1.287-2.984 2.308-6.023 2.991-9.084 10.097.505 18.835 4.626 24.773 11.725 13.241 15.823 8.436 41.74-10.712 57.77zM86.358 129.473l-15.09-19.126a9.675 9.675 0 0 0-9.302-3.54l-7.504-16.219c-2.087-4.52-6.5-7.393-11.261-7.742l-7.758-26.108a2.508 2.508 0 0 0-3.07-1.695c-11.02 3.073-18.025 8.853-19.714 16.273-.435 1.903-.449 4.027-.035 6.317l2.305 12.701-5.441 1.616c-2.803.83-5.062 2.7-6.907 5.72-3.085 5.058-3.425 11.532-.907 17.322l8.597 19.754c-1.636 1.183-2.94 2.856-4.087 5.342-3.268 7.093-2.262 15.343 2.62 21.533l13.194 16.727c4.025 5.105 10.154 7.994 16.332 7.994 1.846 0 3.697-.26 5.5-.792 1.919-.567 3.408-1.35 4.625-2.4l17.075 12.858C69.01 198.627 73.118 200 77.184 200c1.828 0 3.65-.277 5.398-.846 3.363-1.092 5.708-2.854 7.166-5.386l2.826-4.899 11.736 5.164c2.122.935 4.193 1.418 6.151 1.441h.162c7.55 0 14.738-5.462 20.247-15.396a2.5 2.5 0 0 0-.934-3.381l-23.504-13.573c.783-4.719-.982-9.696-4.9-12.79l-13.91-10.98a9.663 9.663 0 0 0-1.264-9.881zM17.546 76.746c-.293-1.619-.298-3.074-.015-4.314 1.475-6.467 8.521-10.039 13.833-11.846l6.792 22.854-18.406 5.462zM6.852 100.28c1.186-1.938 2.473-3.063 4.058-3.53l28.971-8.6c3.978-1.177 8.298.773 10.044 4.54l7.423 16.046-42.718 23.488-8.368-19.23c-1.868-4.293-1.65-9.045.59-12.714zm35.565 80.475c-5.888 1.747-12.517-.462-16.49-5.499L12.731 158.53c-3.713-4.707-4.48-10.97-2.005-16.342.912-1.98 1.8-3.097 2.963-3.739l47.675-26.21a4.701 4.701 0 0 1 5.973 1.212l15.09 19.126a4.713 4.713 0 0 1-.209 6.097l-36.575 40.28c-.729.8-1.723 1.356-3.228 1.8zm68.107 9.72c-1.28-.016-2.688-.358-4.191-1.016l-11.24-4.944 9.586-16.63 20.575 11.885c-2.99 4.747-8.09 10.711-14.73 10.705zm-10.003-25.393-15.096 26.19c-.825 1.43-2.219 2.427-4.378 3.126-4.086 1.32-8.76.431-12.501-2.383L51.91 179.491l32.77-36.092 13.764 10.865c3.26 2.57 4.152 7.223 2.077 10.819z"/></g></svg>