<svg width="200pt" height="200pt" viewBox="0 0 200 200" xmlns="http://www.w3.org/2000/svg"><path d="M170.806 0H42.801c-9.203 0-16.69 7.487-16.69 16.69v80.613c-5.77 11.064-11.858 23.93-13.035 29.196-2.566 11.532 3.969 17.74 10.7 22.287.685.464 1.577 1.088 2.333 1.607v32.917c0 9.2 7.487 16.69 16.69 16.69h128.006c9.199 0 16.69-7.49 16.69-16.69V16.688C187.494 7.486 180.003 0 170.805 0zM19.942 128.025c1.254-5.615 10.666-24.866 17.93-37.677.956-1.686 3.124-2.446 5.444-2.446 1.445 0 2.95.297 4.265.845.224.097.29.12 72.57 21.474.02.006.04.014.062.02l49.486 14.617c-8.392 10.01-29.535 35.236-34.005 40.457-12.63 14.758-30.89 14.604-34.464 14.442-18.504-.918-23.583-3.107-27.2-5.277-8.122-4.852-21.01-13.88-32.378-21.842-5.307-3.714-10.19-7.138-13.934-9.674-7.127-4.813-9.16-8.727-7.776-14.939zm39.468-78.99a28.925 28.925 0 0 0 13.42 3.305c5.55 0 10.797-1.598 15.07-4.283 1.93 11.3 3.046 26.332 2.067 45.919-13.237-3.909-24.816-7.329-31.989-9.445-.895-14.482-.15-26.187 1.432-35.497zm1.462-7.365c2.605-10.647 6.178-17.315 8.65-20.962l1.832 3.273a3.52 3.52 0 0 0 2.759 1.78c1.123.068 2.282-.378 3.024-1.27l2.438-2.964c1.878 3.382 4.572 9.41 6.8 18.882-6.244 5.502-18.322 6.093-25.502 1.261zm63.071 1.653c3.788 2.45 8.485 3.872 13.4 3.872 5.16 0 10.068-1.523 13.913-4.165 2.81 14.584 4.359 35.923 1.27 66.313-.105 1.046-.22 2-.33 3.012l-27.99-8.268c-4.15-27.235-3.076-46.93-.263-60.764zM125.696 36c2.475-8.645 5.522-14.255 7.71-17.493l1.827 3.264a3.523 3.523 0 0 0 2.754 1.785c1.162.068 2.287-.373 3.028-1.27l2.44-2.964c1.673 3.02 3.992 8.187 6.052 15.98-5.15 5.727-17.534 6.245-23.464.902-.103-.094-.235-.125-.347-.204zm54.764 147.308c0 5.329-4.325 9.653-9.653 9.653H42.8c-5.33 0-9.662-4.324-9.662-9.653V155.26c1.48 1.034 2.907 2.03 4.48 3.133 11.467 8.031 24.462 17.132 32.798 22.116 4.561 2.738 10.323 5.268 30.466 6.264a33.67 33.67 0 0 0 1.862.044c6.697 0 25.094-1.51 38.288-16.93 4.664-5.449 27.432-32.615 35.025-41.68 2.368 5.165 4.299 19.44 4.403 34.197zm-3.526-63.644c-.035-.014-.07-.021-.103-.035l-17.784-5.253c.16-1.43.323-2.824.473-4.327 7.675-75.534-12.33-98.094-13.185-99.018-.69-.743-1.733-1.107-2.68-1.123a3.518 3.518 0 0 0-2.613 1.283l-2.189 2.66-1.84-3.287a3.516 3.516 0 0 0-2.471-1.746 3.545 3.545 0 0 0-2.914.82c-1.037.911-24.576 22.693-14.8 92.268l-19.93-5.885c1.336-24.164-.389-41.874-3.076-54.562a3.492 3.492 0 0 0-.26-1.168C89.285 21.01 82.9 13.72 82.454 13.236a3.447 3.447 0 0 0-2.681-1.124 3.503 3.503 0 0 0-2.612 1.283l-2.189 2.66-1.841-3.29a3.517 3.517 0 0 0-5.384-.924c-.56.49-9.326 8.588-14.14 30.003-.09.232-.117.466-.157.708-2.205 10.14-3.475 23.243-2.64 39.86l-.462-.135c-5.735-2.405-13.16-1.605-17.209 3.123l.002-68.716c0-5.33 4.332-9.662 9.661-9.662h128.006c5.329 0 9.654 4.333 9.654 9.662v105.732c-1.028-1.325-2.185-2.313-3.527-2.753z"/><path d="M141.352 31.8a3.358 3.358 0 1 1-6.715.001 3.358 3.358 0 0 1 6.715 0M76.952 35.16a3.358 3.358 0 1 1-6.715 0 3.358 3.358 0 0 1 6.715 0"/></svg>