<svg width="200pt" height="200pt" viewBox="0 0 200 200" xmlns="http://www.w3.org/2000/svg"><path d="M130.095 190.454c-3.244 1.46-6.263 2.331-9.256 2.665-7.95.94-16.18-1.644-24.143-4.141-1.46-.457-2.91-.911-4.333-1.34-8.427-2.56-15.23-5.111-21.406-8.021-5.946-2.824-12.596-6.432-16.852-11.803-4.013-5.039-6.353-12.137-7.153-21.705-1.887-22.835 5.533-45.378 19.847-60.291 6.6-6.851 14.98-12.24 24.233-15.581a3.337 3.337 0 0 0 2.003-4.268 3.33 3.33 0 0 0-4.266-2.003c-10.207 3.684-19.463 9.642-26.774 17.23-10.755 11.21-17.946 26.31-20.717 42.695-3.863-1.43-7.213-2.82-10.317-4.29-5.946-2.824-12.596-6.432-16.852-11.804-4.013-5.039-6.353-12.137-7.153-21.702-1.52-18.5 3.137-37.274 12.774-51.5a3.334 3.334 0 0 0-5.52-3.74C3.584 46.543-1.349 66.355.318 86.644c.913 10.926 3.72 19.204 8.577 25.3 5.103 6.434 12.577 10.521 19.217 13.676 3.667 1.737 7.642 3.36 12.314 5.047-.487 5.264-.55 10.618-.108 15.987.914 10.925 3.72 19.204 8.578 25.299 5.103 6.435 12.577 10.522 19.223 13.68 6.484 3.057 13.577 5.722 22.333 8.381 1.41.42 2.833.867 4.263 1.318 7.307 2.293 14.827 4.65 22.634 4.65 1.413 0 2.836-.077 4.269-.246 3.67-.414 7.343-1.46 11.226-3.208a3.333 3.333 0 0 0 1.673-4.407 3.348 3.348 0 0 0-4.421-1.67z"/><path d="M139.874 161.042c-2.046-3.507-1.433-8.505 1.406-11.392 2.827-2.901 7.833-3.622 11.397-1.648a3.336 3.336 0 0 0 4.944-3.13c-.363-5.622 5.153-10.456 10.449-11.702 2.403-.551 5.077-.64 8.167-.274.933.1 1.887-.186 2.6-.814a3.336 3.336 0 0 0 1.123-2.484c.03-7.005-.764-14.633-2.363-22.67-1.944-9.821-5.9-23.558-17.71-29.406-2.406-1.204-4.897-1.93-7.303-2.63-1.62-.474-3.153-.92-4.607-1.495-1.874-.733-3.54-1.77-4.69-2.92a32.755 32.755 0 0 0-3.367-2.917c-.123-6.402-.883-13.323-2.32-20.648-1.943-9.822-5.9-23.559-17.709-29.407-2.406-1.204-4.897-1.93-7.303-2.63-1.621-.473-3.154-.92-4.608-1.494-1.873-.734-3.54-1.77-4.69-2.92C99.433 6.601 95.207 4.095 90.677 3l-2.089-.47c-21.796-6.746-48.106.295-65.47 17.525a3.336 3.336 0 0 0-.02 4.716 3.328 3.328 0 0 0 4.712.019C43.477 9.251 67.11 2.859 86.85 8.968l2.293.524c3.276.793 6.45 2.707 9.427 5.684 1.81 1.814 4.226 3.34 6.967 4.412 1.73.683 3.483 1.193 5.18 1.686 2.223.647 4.32 1.26 6.199 2.2 6.99 3.46 11.484 11.32 14.14 24.726 1.073 5.471 1.756 10.695 2.06 15.61-.807-.293-1.614-.593-2.444-.793l-2.084-.467c-8.263-2.581-17.077-3.24-26.193-1.95a3.334 3.334 0 0 0-2.836 3.767 3.347 3.347 0 0 0 3.766 2.837c8.13-1.15 15.96-.57 23.524 1.78l2.293.524c3.277.793 6.45 2.708 9.427 5.685 1.81 1.814 4.226 3.34 6.967 4.411 1.73.683 3.483 1.194 5.18 1.687 2.223.647 4.32 1.26 6.2 2.2 6.989 3.46 11.483 11.319 14.139 24.731 1.247 6.251 1.973 12.213 2.18 17.78-2.35-.002-4.57.184-6.673.665-6.68 1.577-13.31 6.912-15.136 13.873-5.296-1.046-11.137.564-14.911 4.437-3.857 3.924-5.323 9.909-4.06 15.24-4.089 1.477-7.62 4.816-9.435 9.175-1.814 4.318-2.003 9.438-.544 14.8a3.334 3.334 0 0 0 3.216 2.469c.29 0 .583-.04.877-.12a3.333 3.333 0 0 0 2.343-4.09c-.744-2.732-1.3-6.766.264-10.48 1.433-3.44 4.666-5.874 7.87-5.917a3.33 3.33 0 0 0 2.829-5.012z"/><path d="M89.996 109.975c0-5.515-4.486-10.002-10-10.002s-10 4.487-10 10.002 4.487 10.002 10 10.002 10-4.487 10-10.002zm-13.333 0c0-1.837 1.497-3.334 3.334-3.334s3.333 1.497 3.333 3.334-1.497 3.334-3.333 3.334-3.334-1.497-3.334-3.334zm86.666-3.334c0-5.515-4.487-10.002-10-10.002s-10 4.487-10 10.002 4.486 10.002 10 10.002 10-4.487 10-10.002zm-13.333 0c0-1.837 1.497-3.334 3.333-3.334s3.333 1.497 3.333 3.334-1.497 3.334-3.333 3.334-3.333-1.497-3.333-3.334zm-48.625 15.269c-3.28 4.923-2.626 11.532 1.557 15.716.256.257.403.613.403.978 0 4.437 3.61 8.047 8.046 8.047 4.583 0 8.643-2.75 10.347-7.004l1.333-3.34c2.533-6.335.256-13.68-5.427-17.467l-.446-.296a11.242 11.242 0 0 0-6.263-1.9 11.26 11.26 0 0 0-9.393 5.031zm5.544 3.704.156-.237s.003-.003.003-.006a4.625 4.625 0 0 1 6.417-1.279l.446.297c3.067 2.044 4.3 6.015 2.927 9.438l-1.336 3.34a4.437 4.437 0 0 1-4.15 2.817c-.76 0-1.38-.621-1.38-1.38 0-2.151-.836-4.17-2.357-5.692a5.805 5.805 0 0 1-.726-7.298zm22.182-39.819-8.31-4.158a6.67 6.67 0 0 0-8.53 2.264l-3.096 4.649a6.723 6.723 0 0 0-.957 5.162 6.71 6.71 0 0 0 3.073 4.253l9.814 5.889a6.604 6.604 0 0 0 5.984.44 6.606 6.606 0 0 0 3.913-4.541l1.597-6.378a6.639 6.639 0 0 0-3.488-7.58zm-4.576 12.34-9.814-5.888 3.097-4.644 8.309 4.157zM15.175 84.8c0 5.515 4.486 10.002 10 10.002s10-4.487 10-10.002c0-5.515-4.487-10.002-10-10.002s-10 4.485-10 10.002zm13.333 0a3.34 3.34 0 0 1-3.334 3.334 3.34 3.34 0 0 1-3.333-3.334 3.34 3.34 0 0 1 3.333-3.334 3.337 3.337 0 0 1 3.334 3.334zm79.644-45.199c0-5.514-4.486-10.002-10-10.002s-10 4.488-10 10.002 4.487 10.003 10 10.003 10-4.488 10-10.003zm-10 3.334c-1.836 0-3.333-1.497-3.333-3.334s1.497-3.334 3.333-3.334a3.34 3.34 0 0 1 3.334 3.334 3.338 3.338 0 0 1-3.334 3.334zm-66.78 2.29c-3.28 4.924-2.626 11.533 1.557 15.717.256.257.403.613.403.978 0 4.437 3.61 8.048 8.046 8.048 4.583 0 8.643-2.751 10.347-7.005l1.333-3.34c2.533-6.335.256-13.68-5.427-17.467l-.446-.296a11.242 11.242 0 0 0-6.263-1.9 11.26 11.26 0 0 0-9.393 5.031zm5.544 3.705.156-.237s.003-.002.003-.005a4.625 4.625 0 0 1 6.417-1.279l.446.296c3.067 2.044 4.3 6.015 2.927 9.438l-1.336 3.34a4.437 4.437 0 0 1-4.15 2.817c-.76 0-1.38-.621-1.38-1.38 0-2.15-.836-4.17-2.357-5.692a5.805 5.805 0 0 1-.726-7.298zm42.288-21.97a6.63 6.63 0 0 0-3.486-7.58l-8.31-4.157c-3.003-1.506-6.666-.527-8.53 2.267l-3.096 4.648a6.723 6.723 0 0 0-.957 5.162 6.71 6.71 0 0 0 3.073 4.254l9.814 5.888a6.63 6.63 0 0 0 3.417.957c.863 0 1.733-.17 2.564-.516a6.6 6.6 0 0 0 3.913-4.541zm-8.064 4.76-9.814-5.888 3.097-4.644 8.31 4.154zm19.325 137.476 9.81 5.888a6.62 6.62 0 0 0 3.419.957c.863 0 1.73-.17 2.56-.513a6.61 6.61 0 0 0 3.916-4.544l1.594-6.378a6.628 6.628 0 0 0-3.487-7.582l-8.309-4.157c-3-1.5-6.667-.53-8.53 2.267l-3.097 4.644a6.692 6.692 0 0 0-.956 5.162 6.72 6.72 0 0 0 3.08 4.257zm6.527-10.36 8.309 4.155-1.594 6.377-9.81-5.888zm-23.662 1.15a3.334 3.334 0 1 1-6.668 0 3.334 3.334 0 0 1 6.668 0m123.332-20.004a3.334 3.334 0 1 1-6.668 0 3.334 3.334 0 0 1 6.668 0m-50 53.345a3.334 3.334 0 1 1-6.668 0 3.334 3.334 0 0 1 6.668 0M99.996 86.637a3.334 3.334 0 1 1-6.668 0 3.334 3.334 0 0 1 6.668 0M46.664 26.623a3.334 3.334 0 1 1-6.668 0 3.334 3.334 0 0 1 6.668 0m6.666 53.345a3.334 3.334 0 1 1-6.668 0 3.334 3.334 0 0 1 6.668 0m70-30.006a3.334 3.334 0 1 1-6.669 0 3.334 3.334 0 0 1 6.668 0m-53.904 83.923a3.334 3.334 0 1 1-6.668 0 3.334 3.334 0 0 1 6.668 0m60.921-15.752 3.334 6.668a3.334 3.334 0 1 0 5.962-2.98l-3.333-6.668a3.334 3.334 0 0 0-5.963 2.98zm22.987 48.522a3.334 3.334 0 0 0 2.976-4.824l-3.333-6.668a3.325 3.325 0 0 0-4.474-1.49 3.334 3.334 0 0 0-1.49 4.474l3.334 6.668a3.338 3.338 0 0 0 2.987 1.84zM68.507 46.978a3.334 3.334 0 0 0-1.49 4.474l3.334 6.669a3.322 3.322 0 0 0 2.982 1.844 3.334 3.334 0 0 0 2.976-4.824l-3.333-6.668a3.327 3.327 0 0 0-4.469-1.495zm11.49 99.672a3.33 3.33 0 0 0 2.357-.976l6.666-6.668a3.33 3.33 0 0 0 0-4.714 3.328 3.328 0 0 0-4.712 0l-6.667 6.668a3.33 3.33 0 0 0 0 4.714 3.325 3.325 0 0 0 2.356.976zm110.92 13.386 1.013-4.052a9.937 9.937 0 0 0-5.23-11.373l-4.253-2.127a9.985 9.985 0 0 0-11.543 1.874l-3.933 3.934a10.065 10.065 0 0 0-2.634 9.5l.877 3.503a9.99 9.99 0 0 0 11.663 7.383l6.293-1.26a10.034 10.034 0 0 0 7.747-7.382zm-15.342 2.103a3.333 3.333 0 0 1-3.887-2.46l-.876-3.501a3.366 3.366 0 0 1 .876-3.17l3.933-3.934a3.335 3.335 0 0 1 3.85-.624l4.253 2.127a3.313 3.313 0 0 1 1.74 3.791l-1.014 4.052a3.342 3.342 0 0 1-2.58 2.46zm-7.667 12.117-2.857-2.14a9.963 9.963 0 0 0-8.296-1.734 9.988 9.988 0 0 0-6.65 5.262l-.947 1.89a9.996 9.996 0 0 0 1.874 11.546l2.787 2.788a9.969 9.969 0 0 0 9.078 2.723 9.971 9.971 0 0 0 7.277-6.084l1.014-2.534c1.68-4.188.33-9.006-3.28-11.717zM165 183.498l-1.013 2.533a3.271 3.271 0 0 1-2.423 2.028c-1.113.23-2.22-.1-3.027-.907l-2.787-2.788a3.334 3.334 0 0 1-.626-3.847l.946-1.89a3.29 3.29 0 0 1 2.217-1.754c.2-.046.47-.09.783-.09.57 0 1.28.143 1.98.67l2.858 2.14a3.334 3.334 0 0 1 1.092 3.905zm34.778 2.894c-.673-2.58-2.723-4.457-5.353-4.894l-7.873-1.314a6.658 6.658 0 0 0-5.887 1.941 6.666 6.666 0 0 0-1.747 5.945l1.314 6.561a6.622 6.622 0 0 0 4.253 4.958 6.613 6.613 0 0 0 6.446-1.057l6.564-5.248c2.08-1.67 2.954-4.307 2.283-6.891zm-13.013 6.932-1.314-6.561 7.878 1.313z"/></svg>