<svg width="200pt" height="200pt" viewBox="0 0 200 200" xmlns="http://www.w3.org/2000/svg"><path d="m194.723 129.53-13.879-12.47 12.006-12.014c4.538-4.538 7.036-10.573 7.036-16.993 0-6.42-2.5-12.456-7.036-16.994l-63.988-64.03c-9.366-9.373-24.604-9.371-33.966 0L81.27 20.667C39.729-3.083 25.303 8.547 24.49 9.257a2.503 2.503 0 0 0-.037 3.736l33.82 30.683-51.25 51.282c-9.365 9.37-9.365 24.616 0 33.985l63.99 64.03c4.68 4.685 10.832 7.027 16.982 7.027s12.3-2.342 16.983-7.027l53.15-53.184 15.057 13.528a15.914 15.914 0 0 0 11.558 4.14 15.928 15.928 0 0 0 11.098-5.248 15.951 15.951 0 0 0 4.138-11.563 15.972 15.972 0 0 0-5.258-11.116zM98.432 10.564c7.416-7.417 19.482-7.417 26.899 0l63.984 64.03c3.593 3.595 5.57 8.374 5.57 13.457s-1.978 9.863-5.57 13.456l-12.196 12.206-28.14-25.284a2.497 2.497 0 0 0-3.52.182l-1.973 2.176-8.628-7.827 9.777-10.805a2.502 2.502 0 0 0-.173-3.53c-23.636-21.447-42.998-35.816-58.74-45.34zm40.82 60.087-9.775 10.802a2.502 2.502 0 0 0 .173 3.53l10.48 9.508-8.305 9.163-101.244-91.86c8.684-2.611 38.855-3.987 108.674 58.859zm-37.807 118.786c-7.417 7.421-19.48 7.421-26.897 0l-63.99-64.03c-3.592-3.595-5.568-8.374-5.568-13.456s1.978-9.864 5.569-13.457l51.423-51.46 66.488 60.323-1.2 1.324a2.503 2.503 0 0 0 .181 3.54l26.956 24.219zm90.696-40.59a10.969 10.969 0 0 1-7.64 3.613c-2.934.154-5.774-.868-7.966-2.858l-43.873-39.42 14.831-16.372 43.884 39.43a10.983 10.983 0 0 1 3.613 7.644 10.98 10.98 0 0 1-2.85 7.962z"/><path d="M97.057 114.759a14.69 14.69 0 0 0-7.244-8.714 13.224 13.224 0 0 0-9.038-14.49 13.207 13.207 0 0 0-.54-4.749 13.204 13.204 0 0 0-12.623-9.376h-.052c-1.977-6.044-8.451-9.431-14.568-7.572-6.106 1.865-9.592 8.294-7.86 14.417a13.213 13.213 0 0 0-5.288 14.859 13.177 13.177 0 0 0 2.198 4.24 13.235 13.235 0 0 0 .586 17.072 14.693 14.693 0 0 0-1.149 11.274c1.302 4.274 4.391 7.626 8.454 9.281.02 1.362.232 2.71.633 4.026 2.606 8.545 11.243 11.032 18.185 13.033 4.805 1.383 9.342 2.69 10.173 5.422l.002.004 3.413 11.197a2.503 2.503 0 0 0 3.12 1.663 2.502 2.502 0 0 0 1.661-3.122l-3.416-11.205c-.83-2.73 2.203-6.347 5.417-10.177 4.644-5.536 10.424-12.426 7.82-20.97a14.512 14.512 0 0 0-1.72-3.695c2.445-3.638 3.14-8.145 1.836-12.418zm-6.862 14.046a9.588 9.588 0 0 1 1.964 3.526c1.813 5.95-2.599 11.21-6.868 16.298-1.445 1.723-2.878 3.471-4.07 5.252l-4.955-16.254 5.306-9.968a2.503 2.503 0 0 0-1.032-3.384 2.505 2.505 0 0 0-3.382 1.033l-2.956 5.555-3.43-11.253 5.306-9.968a2.503 2.503 0 0 0-1.032-3.384 2.503 2.503 0 0 0-3.382 1.033l-2.956 5.553-3.575-11.726a2.498 2.498 0 0 0-3.12-1.662 2.502 2.502 0 0 0-1.661 3.122l3.575 11.724-5.55-2.958a2.5 2.5 0 0 0-3.382 1.033 2.503 2.503 0 0 0 1.032 3.383l9.962 5.308 3.43 11.254-5.55-2.959a2.505 2.505 0 0 0-3.382 1.033 2.503 2.503 0 0 0 1.032 3.384l9.964 5.31 4.955 16.251c-1.984-.813-4.149-1.463-6.308-2.084-6.378-1.838-12.974-3.738-14.787-9.687a9.584 9.584 0 0 1-.338-4.024 2.498 2.498 0 0 0-1.865-2.737c-3.317-.842-5.89-3.287-6.882-6.544a9.704 9.704 0 0 1 1.584-8.701 2.501 2.501 0 0 0-.453-3.497 8.172 8.172 0 0 1-2.829-4.097 8.232 8.232 0 0 1 2.543-8.676 2.5 2.5 0 0 0 .014-3.797 8.19 8.19 0 0 1-2.492-3.82 8.216 8.216 0 0 1 4.626-9.968 2.5 2.5 0 0 0 1.225-3.467 6.958 6.958 0 0 1-.498-1.195c-1.083-3.551.925-7.322 4.472-8.405a6.705 6.705 0 0 1 1.96-.293c2.88 0 5.556 1.87 6.44 4.769.122.4.208.826.255 1.266a2.499 2.499 0 0 0 2.952 2.194 8.211 8.211 0 0 1 9.398 5.688 8.201 8.201 0 0 1 .06 4.56 2.497 2.497 0 0 0 .344 2.062c.408.604 1.062 1 1.787 1.082a8.228 8.228 0 0 1 6.95 5.778 8.191 8.191 0 0 1-.064 4.98 2.503 2.503 0 0 0 1.576 3.155 9.686 9.686 0 0 1 6.169 6.335c.993 3.253.221 6.72-2.062 9.272a2.504 2.504 0 0 0-.021 3.316zM24.554 57.24c7.401 0 13.424-6.027 13.424-13.433s-6.023-13.432-13.424-13.432-13.423 6.026-13.423 13.432c.002 7.408 6.022 13.432 13.423 13.432zm0-21.862c4.645 0 8.425 3.783 8.425 8.43s-3.781 8.429-8.425 8.429c-4.645 0-8.424-3.783-8.424-8.43s3.78-8.43 8.424-8.43zm149.174 136.128c0-7.406-6.022-13.432-13.424-13.432s-13.423 6.026-13.423 13.432c0 7.406 6.022 13.432 13.423 13.432s13.424-6.026 13.424-13.432zm-21.848 0c0-4.648 3.78-8.43 8.424-8.43 4.646 0 8.425 3.783 8.425 8.43 0 4.648-3.78 8.43-8.425 8.43-4.645 0-8.424-3.782-8.424-8.43zm-36.166-59.815c-7.401 0-13.423 6.026-13.423 13.432 0 4.55 2.321 8.753 6.046 11.212-.849 1.761-1.366 3.711-1.366 5.794 0 7.406 6.022 13.432 13.423 13.432s13.424-6.026 13.424-13.432c0-4.67-2.4-8.784-6.028-11.19a13.315 13.315 0 0 0 1.346-5.815c.001-7.406-6.02-13.432-13.422-13.432zm0 5c4.645 0 8.424 3.784 8.424 8.43 0 1.37-.324 2.688-.943 3.88a13.355 13.355 0 0 0-2.8-.304c-3.513 0-6.687 1.387-9.08 3.602a8.45 8.45 0 0 1-4.025-7.177c0-4.647 3.779-8.43 8.424-8.43zm4.68 33.87c-4.645 0-8.424-3.784-8.424-8.43 0-4.648 3.78-8.43 8.424-8.43 4.645 0 8.424 3.783 8.424 8.43.002 4.646-3.779 8.43-8.424 8.43zm50.835-54.297c7.401 0 13.423-6.026 13.423-13.432S178.63 69.4 171.23 69.4s-13.423 6.027-13.423 13.432c.001 7.408 6.022 13.432 13.423 13.432zm0-21.861c4.645 0 8.424 3.783 8.424 8.43 0 4.648-3.78 8.429-8.424 8.429-4.645 0-8.424-3.783-8.424-8.43s3.779-8.43 8.424-8.43z"/></svg>