<svg width="200pt" height="200pt" viewBox="0 0 200 200" xmlns="http://www.w3.org/2000/svg"><path d="M107.742 66.56a13.302 13.302 0 0 0-10.24-.57L65.343 77.31c-6.97 2.455-10.651 10.141-8.206 17.135a13.32 13.32 0 0 0 6.835 7.667c1.84.887 3.81 1.336 5.796 1.336 1.493 0 2.992-.256 4.443-.764l32.164-11.322a13.33 13.33 0 0 0 7.64-6.861 13.396 13.396 0 0 0 .565-10.272 13.335 13.335 0 0 0-6.837-7.67zm1.89 15.83a8.477 8.477 0 0 1-4.867 4.37L72.601 98.08a8.455 8.455 0 0 1-6.521-.362 8.505 8.505 0 0 1-4.357-4.884v-.002a8.524 8.524 0 0 1 .363-6.544 8.486 8.486 0 0 1 4.867-4.373l32.16-11.32a8.494 8.494 0 0 1 2.832-.488c1.263 0 2.52.286 3.69.85a8.493 8.493 0 0 1 4.357 4.887 8.532 8.532 0 0 1-.36 6.544zm-1.89 38.526a13.294 13.294 0 0 0-10.24-.57l-32.16 11.32a13.33 13.33 0 0 0-7.64 6.861 13.373 13.373 0 0 0-.568 10.272 13.32 13.32 0 0 0 6.835 7.667 13.316 13.316 0 0 0 5.796 1.336c1.494 0 2.992-.255 4.443-.764l32.164-11.32a13.327 13.327 0 0 0 7.64-6.863 13.396 13.396 0 0 0 .565-10.272 13.32 13.32 0 0 0-6.835-7.667zm1.89 15.828a8.486 8.486 0 0 1-4.867 4.373l-32.164 11.32a8.455 8.455 0 0 1-6.521-.363 8.505 8.505 0 0 1-4.357-4.884v-.002a8.532 8.532 0 0 1 .361-6.544 8.497 8.497 0 0 1 4.87-4.373l32.161-11.321a8.452 8.452 0 0 1 6.522.364c2.055.99 3.603 2.725 4.357 4.884s.625 4.483-.361 6.546z"/><path d="M148.23 96.884C161.465 92.67 171 80.24 171 65.724c0-18.055-14.637-32.745-32.629-32.745-4.336 0-8.608.878-12.584 2.543 1.448-4.313 1.338-8.469-.403-12.024-2.23-4.558-6.858-7.667-13.138-8.874-1.253-6.59-4.557-11.333-9.417-13.458-5.015-2.19-10.987-1.273-16.963 2.56C79.88-.108 73.906-1.022 68.89 1.168c-4.854 2.125-8.152 6.866-9.405 13.455-6.291 1.21-10.928 4.324-13.155 8.887-2.118 4.34-1.808 9.564.807 14.88A57.046 57.046 0 0 0 29 80.114v62.793C29 174.39 54.508 200 85.865 200c11.325 0 22.16-3.333 31.473-9.583 3.592 2.152 7.174 3.31 10.52 3.31 2.054 0 4.022-.41 5.85-1.241 4.753-2.163 7.988-6.873 9.222-13.372 6.564-1.259 11.29-4.573 13.408-9.45 2.184-5.035 1.272-11.028-2.551-17.025 3.272-5.144 4.389-10.313 3.253-14.855l8.074-8.115c4.345-4.36 4.345-11.456.002-15.816zm-10.118-39.273a53.871 53.871 0 0 0-.985-2.162 57.186 57.186 0 0 0-.834-1.68 57.533 57.533 0 0 0-1.161-2.097c-.31-.537-.617-1.077-.946-1.606-.115-.185-.214-.378-.33-.56.111-.03.221-.066.333-.095.47-.12.946-.216 1.424-.296.215-.036.43-.082.648-.109a16.718 16.718 0 0 1 2.109-.143c9.266 0 16.803 7.564 16.803 16.863 0 .883-.086 1.747-.222 2.598-.017.107-.027.218-.047.325a16.65 16.65 0 0 1-.61 2.35c-.045.132-.089.266-.138.397a16.91 16.91 0 0 1-.966 2.171c-.061.116-.129.228-.193.342a17.097 17.097 0 0 1-1.324 2.026c-.046.06-.099.116-.146.175a17.036 17.036 0 0 1-1.648 1.816c-.034.032-.063.066-.097.097a17.214 17.214 0 0 1-1.917 1.536c-.098.068-.193.14-.292.206a16.718 16.718 0 0 1-2.448 1.344 16.31 16.31 0 0 1-2.273.825c-.04.012-.085.02-.125.03v-1.847c0-1.441-.06-2.874-.165-4.298-.034-.472-.103-.939-.15-1.41a55.955 55.955 0 0 0-.328-2.829c-.083-.556-.195-1.104-.295-1.655a56.75 56.75 0 0 0-.492-2.515c-.132-.58-.286-1.153-.435-1.728a56.434 56.434 0 0 0-.656-2.358 56.387 56.387 0 0 0-.573-1.74 55.777 55.777 0 0 0-.82-2.251 40.66 40.66 0 0 0-.7-1.722zm.26-19.754c15.31 0 27.768 12.502 27.768 27.867 0 13.787-10.089 25.4-23.409 27.502v-6.23a21.177 21.177 0 0 0 1.758-.434c.026-.006.054-.011.08-.02a21.1 21.1 0 0 0 1.838-.635c.198-.078.388-.173.583-.258.393-.17.788-.339 1.17-.53.228-.115.447-.246.67-.368.335-.184.67-.364.993-.565.232-.145.454-.301.68-.454.298-.201.594-.402.88-.616.228-.17.443-.35.664-.53.271-.219.539-.44.798-.673.212-.19.417-.39.62-.589.248-.24.492-.483.726-.735a22.888 22.888 0 0 0 1.746-2.13 25.025 25.025 0 0 0 1.04-1.584c.18-.299.345-.605.51-.913.134-.253.268-.505.393-.766.153-.318.293-.644.43-.973.111-.26.223-.52.323-.787.129-.344.24-.694.352-1.045.085-.264.173-.524.248-.79.103-.375.186-.756.27-1.14.055-.254.122-.506.17-.765.077-.428.13-.867.182-1.304.027-.22.066-.436.087-.659.059-.663.093-1.335.093-2.014 0-11.987-9.72-21.74-21.664-21.74-.737 0-1.468.047-2.195.12-.226.023-.45.06-.673.09a21.665 21.665 0 0 0-2.247.418c-.503.122-1.003.268-1.5.428-.208.068-.419.126-.625.2-.072.025-.143.042-.214.067-.446-.58-.915-1.138-1.38-1.697-.156-.19-.305-.385-.463-.57a56.83 56.83 0 0 0-2.358-2.615 27.821 27.821 0 0 1 11.655-2.564zm-87.68-12.198c1.698-3.47 5.683-5.774 11.225-6.486a2.433 2.433 0 0 0 2.102-2.11c.734-5.765 3.152-9.822 6.813-11.423 1.158-.507 2.414-.757 3.745-.757 3.013 0 6.402 1.28 9.872 3.774a2.422 2.422 0 0 0 2.83-.002c4.997-3.598 9.821-4.672 13.607-3.015 3.665 1.603 6.088 5.658 6.822 11.424a2.437 2.437 0 0 0 2.102 2.11c5.532.709 9.516 3.009 11.21 6.474 1.298 2.654 1.196 5.938-.252 9.444-.284-.223-.588-.414-.876-.63a52.565 52.565 0 0 0-1.756-1.26 55.708 55.708 0 0 0-4.16-2.635 58.266 58.266 0 0 0-2.423-1.305 59.397 59.397 0 0 0-1.926-.948 54.93 54.93 0 0 0-2.548-1.09c-.654-.264-1.305-.533-1.968-.773-.888-.321-1.789-.6-2.692-.877-.655-.201-1.304-.414-1.967-.59a57.197 57.197 0 0 0-2.887-.66c-.63-.134-1.254-.288-1.892-.4-1.078-.19-2.168-.317-3.26-.445-.537-.063-1.07-.155-1.61-.202a56.79 56.79 0 0 0-4.94-.223c-1.655 0-3.303.08-4.94.223-.541.048-1.073.14-1.61.202-1.09.128-2.18.254-3.26.444-.638.113-1.265.27-1.898.402-.963.204-1.926.406-2.875.658-.668.179-1.324.393-1.985.594-.897.274-1.79.551-2.672.871-.67.242-1.327.512-1.987.78-.85.343-1.695.697-2.527 1.081-.656.303-1.302.628-1.946.956-.81.414-1.61.84-2.4 1.293a57.045 57.045 0 0 0-4.16 2.632 56.51 56.51 0 0 0-1.776 1.278c-.287.216-.59.404-.871.626-1.452-3.502-1.557-6.783-.263-9.435zM33.86 142.913V80.12a52.171 52.171 0 0 1 17.9-39.363 51.708 51.708 0 0 1 34.105-12.824c12.562 0 24.674 4.554 34.23 12.924.23.177.45.376.666.57l.235.208a52.408 52.408 0 0 1 7.134 8.086c6.373 8.88 9.74 19.394 9.74 30.4v62.792c0 1.461-.064 2.94-.189 4.4a52.145 52.145 0 0 1-3.08 13.87c-3.606 9.709-10.072 18.22-18.735 24.377-8.778 6.255-19.15 9.56-30 9.56-28.676 0-52.006-23.418-52.006-52.209zm115.015 11.15c3.584 5.012 4.65 9.86 3.004 13.652-1.595 3.678-5.638 6.111-11.382 6.85a2.433 2.433 0 0 0-2.102 2.11c-.722 5.697-3.099 9.732-6.693 11.365-2.85 1.297-6.338 1.012-10.05-.767.104-.083.194-.18.296-.265a56.898 56.898 0 0 0 3.73-3.345c.04-.04.082-.075.123-.114a57.254 57.254 0 0 0 3.387-3.681c.154-.183.314-.36.465-.545a56.734 56.734 0 0 0 3.358-4.505 57.266 57.266 0 0 0 2.5-4.06c.114-.203.22-.41.33-.616a56.723 56.723 0 0 0 2.191-4.47c.017-.039.03-.078.048-.117a56.593 56.593 0 0 0 1.751-4.655c.061-.187.13-.37.19-.556a57.386 57.386 0 0 0 1.261-4.677c.063-.274.124-.544.183-.82.33-1.567.6-3.15.799-4.753.013-.11.042-.218.056-.33.034-.007.066-.02.1-.027.14-.027.273-.077.412-.11a9.73 9.73 0 0 0 2.069-.709c.424-.193.833-.413 1.231-.66.175-.107.351-.205.519-.323a11.078 11.078 0 0 0 1.534-1.262l4.4-4.42c-.233 2.782-1.487 5.846-3.708 8.959a2.457 2.457 0 0 0-.002 2.851zm12.803-27.841-9.053 9.097c-.017.015-.035.023-.052.04l-7.827 7.877c-.47.47-1.019.834-1.597 1.13-.148.075-.285.17-.436.233l-.006.001c.016-.563.025-1.126.025-1.687V98.939a6.338 6.338 0 0 1 2.012 1.349l16.934 17.014c2.45 2.46 2.45 6.461 0 8.92z"/></svg>