<svg width="200pt" height="200pt" viewBox="0 0 200 200" xmlns="http://www.w3.org/2000/svg"><path d="M187.074 132.373a6.262 6.262 0 0 0 .924-3.251c0-3.56-2.914-6.455-6.491-6.455-1.868 0-3.544.79-4.735 2.035a6.479 6.479 0 0 0-4.825-3.234c.047-.32.097-.645.097-.979 0-3.528-2.928-6.393-6.524-6.393-2.009 0-3.785.928-4.973 2.355a6.632 6.632 0 0 0-2.216-1.41c.059-.29.107-.583.125-.876l19.655-19.479c1.16-1.2 1.826-2.817 1.826-4.435a6.248 6.248 0 0 0-1.853-4.416c-1.222-1.21-2.834-1.944-4.549-1.858a6.252 6.252 0 0 0-4.452 1.858l-24.601 24.378a6.742 6.742 0 0 0-1.228-1.173c-.629-.424-1.34-.695-2.082-.879 0-.041.01-.08.01-.12 0-3.55-2.902-6.44-6.47-6.44-3.596 0-6.524 2.889-6.524 6.44 0 .014.003.025.003.039a6.659 6.659 0 0 0-4.434 3.148c-1.177-1.6-3.064-2.659-5.204-2.659a6.507 6.507 0 0 0-4.412 1.73 6.483 6.483 0 0 0-5.39-2.869c-3.597 0-6.52 2.87-6.52 6.396 0 .11.034.217.042.328a6.553 6.553 0 0 0-3.855 1.682 6.464 6.464 0 0 0-1.366-1.32c.166.052.317.152.497.152.193 0 .387-.03.58-.097.896-.314 1.366-1.287 1.046-2.166-.449-1.234-.77-2.53-1.08-3.773-.348-1.393-.677-2.71-1.15-3.893-.935-2.33-2.081-4.482-3.02-6.093 2.837.262 7.092.846 11.003 2.11a25.228 25.228 0 0 0 3.393 1.37c.03.013.055.02.086.033.025.014.048.025.076.039 1.691.842 3.044 1.79 4.007 2.803a12.366 12.366 0 0 1 1.66 2.272c.465.817 1.522 1.104 2.349.648a1.677 1.677 0 0 0 .66-2.307c-.415-.724-.947-1.36-1.464-2.003a31.17 31.17 0 0 0 2.65.134l.334-.003c.053 0 .097-.025.148-.031.042.006.076.028.117.03 0 0 .808.08 2.137.08.24 0 .529-.013.79-.02-.261.287-.545.556-.787.86a1.673 1.673 0 0 0 .315 2.375 1.73 1.73 0 0 0 1.052.35c.518 0 1.03-.224 1.367-.658.365-.47.77-.91 1.194-1.304 1.132-1.02 2.55-1.882 4.224-2.569.017-.003.034-.01.053-.014.01-.003.024-.006.034-.01a25.9 25.9 0 0 0 3.337-1.118l.02-.003c4.061-1.065 8.422-1.383 11.3-1.466a50.798 50.798 0 0 0-2.25 3.669 1.68 1.68 0 0 0 .694 2.3c.835.441 1.884.144 2.34-.68 1.85-3.345 3.889-5.914 3.91-5.941.398-.5.48-1.176.211-1.752a1.729 1.729 0 0 0-1.491-.987c-.214-.006-3.61-.138-7.963.283 1.926-2.216 2.914-5.061 3.741-7.641.404-1.255.783-2.438 1.228-3.376 2.04-4.304 4.938-7.948 4.966-7.983.4-.5.48-1.176.214-1.752a1.733 1.733 0 0 0-1.487-.99s-.645-.03-1.74-.03c-1.58 0-3.93.083-6.543.35 2.16-2.255 3.19-5.3 4.07-8.03.403-1.26.787-2.445 1.232-3.387 2.04-4.3 4.938-7.948 4.966-7.983.4-.5.479-1.173.214-1.752a1.736 1.736 0 0 0-1.487-.99s-.638-.03-1.723-.03a68.36 68.36 0 0 0-6.57.35c2.162-2.252 3.192-5.3 4.071-8.03.404-1.26.788-2.445 1.233-3.387 2.04-4.307 4.946-7.945 4.973-7.983.4-.497.484-1.176.215-1.752a1.733 1.733 0 0 0-1.487-.99s-.646-.027-1.74-.027c-3.571 0-10.891.341-16.928 2.613 1.612-2.878 2.83-6.365 2.961-10.441.407-12.472-5.736-22.647-5.998-23.075a1.733 1.733 0 0 0-1.077-.776c-.448-.1-.921-.03-1.319.214-.645.408-15.968 9.98-16.39 22.852-.134 4.065.849 7.616 2.263 10.586-7.745-3.493-17.885-3.741-18.433-3.752-.666-.072-1.247.331-1.55.89a1.676 1.676 0 0 0 .092 1.763c.028.038 2.686 3.873 4.445 8.289.384.965.688 2.172 1.008 3.451.693 2.773 1.522 5.868 3.527 8.256-4.4-.735-7.913-.818-8.23-.824h-.032c-.634 0-1.218.342-1.519.893a1.674 1.674 0 0 0 .097 1.763c.028.038 2.686 3.862 4.442 8.275.38.962.685 2.166 1.005 3.442.696 2.779 1.525 5.882 3.531 8.27-4.4-.738-7.917-.824-8.235-.832-.642-.083-1.246.334-1.55.893-.307.559-.27 1.24.097 1.763.028.038 2.689 3.868 4.445 8.286.384.965.688 2.169 1.008 3.448.66 2.628 1.456 5.528 3.223 7.858-4.308-.693-7.71-.782-7.924-.79a1.67 1.67 0 0 0-1.553.89 1.682 1.682 0 0 0 .093 1.766c.027.038 2.694 3.882 4.459 8.275.386.973.687 2.183 1.007 3.462.34 1.352.694 2.759 1.18 4.104.087.239.273.397.443.57-.922-.493-1.957-.8-3.076-.8-3.585 0-6.499 2.883-6.499 6.426 0 .638.125 1.235.298 1.814a6.536 6.536 0 0 0-3.959 2.661c-1.132-.942-2.574-1.534-4.169-1.534-3.585 0-6.501 2.883-6.501 6.427 0 1.137.325 2.189.848 3.114-.776.166-1.37.814-1.37 1.627v1.096a62.7 62.7 0 0 0 .329 4.886c.179 1.793.476 3.568.829 5.333-1.57-2.389-3.624-4.61-6.27-6.12 1.77-.462 2.927-.907 3.019-.945.052-.02.09-.059.142-.086.152-.031.306-.034.451-.107a1.68 1.68 0 0 0 .752-2.275c-.02-.041-.493-.973-.99-2.221a38.56 38.56 0 0 0-.632-1.98c-1.05-3.334-2.405-9.537.003-14.307.607-1.21 1.55-2.416 2.947-3.75l.003-.004a25.875 25.875 0 0 0 2.923-2.258c3.51-2.48 7.473-4.255 10.112-5.293-.684 2.839-1.001 5.117-1.146 6.672-.086 1.007-.062 2.13-.01 3.31.038.91.8 1.624 1.722 1.624h.072c.952-.042 1.692-.832 1.653-1.766-.044-1.031-.072-2.007 0-2.872.176-1.894.638-4.98 1.857-9.104.253-.638.09-1.38-.465-1.866a1.767 1.767 0 0 0-1.799-.286c-.748.234-3.685 1.206-7.2 2.886 1.025-2.728.96-5.728.843-8.424-.058-1.317-.114-2.558-.02-3.59.426-4.727 1.882-9.143 1.898-9.19a1.678 1.678 0 0 0-.414-1.723 1.751 1.751 0 0 0-1.746-.42c-.3.092-3.64 1.159-7.64 3.092 1.225-2.85 1.138-6.048 1.015-8.899-.058-1.31-.11-2.552-.02-3.579.428-4.73 1.881-9.148 1.895-9.193a1.671 1.671 0 0 0-.414-1.72 1.754 1.754 0 0 0-1.746-.421c-.3.092-3.64 1.16-7.648 3.093 1.232-2.856 1.146-6.055 1.018-8.91-.055-1.31-.11-2.552-.017-3.58.42-4.74 1.874-9.153 1.892-9.198a1.67 1.67 0 0 0-.414-1.721 1.753 1.753 0 0 0-1.746-.425c-.52.161-10.175 3.242-16.6 8.762.507-3.242.431-6.914-.852-10.77-3.955-11.848-13.26-19.313-13.652-19.623a1.74 1.74 0 0 0-1.284-.362 1.74 1.74 0 0 0-1.163.648c-.473.597-11.534 14.81-7.451 27.034 1.288 3.866 3.445 6.866 5.805 9.172a29.581 29.581 0 0 0-2.26-.097c-7.896 0-16.02 2.755-16.363 2.872a1.703 1.703 0 0 0-1.138 1.362c-.09.628.183 1.252.71 1.621.039.028 3.866 2.714 7.047 6.262.69.773 1.395 1.797 2.137 2.884 1.623 2.375 3.486 5.01 6.206 6.571-4.452.82-7.827 1.958-8.044 2.03-.61.212-1.05.735-1.142 1.366a1.676 1.676 0 0 0 .71 1.621c.04.028 3.852 2.697 7.048 6.26.693.772 1.394 1.799 2.14 2.888 1.62 2.373 3.476 4.997 6.182 6.558-4.443.82-7.807 1.955-8.025 2.03a1.707 1.707 0 0 0-1.138 1.363c-.09.631.183 1.251.71 1.62.038.026 3.863 2.707 7.047 6.255.694.776 1.395 1.8 2.137 2.89 1.529 2.241 3.285 4.693 5.753 6.279-4.283.817-7.492 1.9-7.703 1.976a1.706 1.706 0 0 0-1.139 1.363c-.09.628.184 1.251.71 1.62.039.028 3.85 2.7 7.05 6.269.694.773 1.398 1.804 2.144 2.892 1.592 2.33 3.42 4.908 6.06 6.476-4.4.82-7.724 1.942-7.938 2.017-.607.21-1.05.734-1.139 1.362-.09.628.184 1.252.707 1.621.039.028 3.858 2.717 7.048 6.255.69.772 1.391 1.796 2.132 2.883 1.726 2.53 3.686 5.4 6.702 6.9 2.709 1.35 5.874 2.037 9.411 2.037 3.969 0 7.468-.859 9.466-1.465l11.362 34.07a1.724 1.724 0 0 0 1.64 1.166c.175 0 .358-.028.537-.083a1.689 1.689 0 0 0 1.102-2.139l-9.953-29.846c6.25 10.65 15.917 19.176 27.326 24.076v10.044l-13.31.001c-.953 0-1.726.76-1.726 1.697S92.757 200 93.71 200h72.737c.952 0 1.725-.759 1.725-1.696 0-.938-.773-1.697-1.725-1.697H152.9v-10.02c21.37-9.134 35.1-29.62 35.1-52.738 0-.65-.384-1.19-.924-1.477zM119.76 60.107l.342-.003c.048 0 .09-.02.139-.027.044.006.083.027.128.033 0 0 .804.08 2.129.08.342 0 .738-.016 1.122-.027-1.574 1.6-2.734 3.49-3.563 5.472-.696-2.027-1.731-3.982-3.195-5.678 1.354.13 2.386.15 2.898.15zm-.715 21.824.348-.003c.048 0 .09-.025.139-.028.048.006.086.03.134.039 0 0 .804.075 2.13.075.334 0 .728-.014 1.107-.028-1.57 1.6-2.727 3.48-3.551 5.459-.697-2.027-1.73-3.972-3.19-5.665 1.347.13 2.376.151 2.883.151zm22.233 2.758c-.542 1.138-.952 2.425-1.391 3.787-.846 2.634-1.723 5.356-3.538 7.041-1.46 1.362-3.175 2.317-4.932 3.037l-.303.093a29.18 29.18 0 0 0-2.324.795c-3.334.896-6.477 1.021-8.049.993-.124-3.39.093-11.916 4.994-16.468 4.548-4.23 14.237-5.044 18.948-5.183-1.045 1.543-2.322 3.623-3.405 5.905zm.707-21.823c-.542 1.14-.955 2.43-1.394 3.799-.846 2.634-1.723 5.355-3.532 7.038-4.965 4.616-12.772 4.952-15.606 4.92-.128-3.39.09-11.924 4.985-16.48 4.548-4.223 14.23-5.04 18.951-5.178-1.043 1.546-2.319 3.62-3.404 5.9zm.709-21.82c-.545 1.14-.96 2.433-1.398 3.803-.845 2.628-1.719 5.348-3.523 7.024-4.966 4.622-12.742 4.983-15.617 4.92-.131-3.382.08-11.902 4.998-16.465 4.545-4.23 14.236-5.044 18.948-5.183-1.048 1.546-2.328 3.622-3.408 5.9zM125.727 4.178c1.622 3.22 4.924 10.906 4.643 19.613-.29 8.948-6.942 14.816-9.498 16.751-2.426-2.089-8.683-8.367-8.393-17.324.288-8.868 9.524-16.37 13.248-19.04zM99.055 39.657c-.932-2.342-2.074-4.497-3.013-6.11 4.973.462 14.333 1.907 18.567 6.385 4.593 4.855 4.259 13.379 3.917 16.755-3.21-.162-10.693-1.073-15.261-5.903-1.701-1.797-2.396-4.57-3.068-7.248-.345-1.393-.672-2.708-1.142-3.88zm-.704 21.815c-.932-2.34-2.074-4.488-3.009-6.1 4.973.459 14.329 1.9 18.564 6.382 4.59 4.852 4.259 13.379 3.914 16.755-3.206-.162-10.688-1.073-15.258-5.91-1.706-1.796-2.4-4.575-3.076-7.261-.345-1.385-.67-2.692-1.135-3.865zm-3.724 15.714c4.974.459 14.334 1.903 18.575 6.39 4.594 4.848 4.256 13.373 3.914 16.748-1.664-.083-4.473-.383-7.426-1.31-1.167-.548-2.26-1-3.324-1.351-1.628-.818-3.192-1.855-4.511-3.245-1.698-1.794-2.392-4.57-3.068-7.255-.348-1.386-.676-2.7-1.142-3.869-.933-2.342-2.08-4.498-3.018-6.108zm86.881 48.87c1.678 0 3.04 1.376 3.04 3.064a3.039 3.039 0 0 1-3.04 3.031h-.01c-1.723-.024-3.068-1.359-3.068-3.03a3.074 3.074 0 0 1 3.078-3.066zm-32.374 6.1c-.6-.562-1.015-1.324-1.015-2.158a3.068 3.068 0 0 1 3.068-3.06 3.07 3.07 0 0 1 3.072 3.06c0 .834-.415 1.596-1.015 2.158zm-21.197 0c-.629-.56-1.046-1.313-1.046-2.166 0-1.69 1.38-3.065 3.078-3.065 1.678 0 3.04 1.376 3.04 3.065 0 .851-.42 1.607-1.046 2.166zm-11.42 0c-.61-.565-1.019-1.321-1.019-2.166 0-.579.156-1.093.518-1.663.96-1.607 3.558-1.782 4.815-.317.339.393.743 1.06.743 1.98 0 .845-.412 1.6-1.022 2.166zm-10.91 0c-.601-.562-1.015-1.324-1.015-2.158 0-1.686 1.352-3.06 3.02-3.06a3.03 3.03 0 0 1 3.067 3.06c0 .837-.414 1.596-1.015 2.158zm49.446-18.325a2.8 2.8 0 0 1-.148.862c-1.342.22-2.575.807-3.532 1.766-.656-.817-1.466-1.435-2.281-1.766a3.379 3.379 0 0 1-.125-.862c0-1.658 1.374-3.01 3.064-3.01 1.108 0 2.182.664 2.692 1.713.223.408.33.832.33 1.297zm9.563 13.984a3.052 3.052 0 0 1-3.054 3.041 3.051 3.051 0 0 1-3.05-3.041 3.048 3.048 0 0 1 3.05-3.038 3.049 3.049 0 0 1 3.054 3.038zm-53.65-7.967c.47-.172.883-.383 1.238-.628.245-.061.48-.148.746-.148.412 0 .801.087 1.16.231l.034.011a3.044 3.044 0 0 1 1.865 2.797 3.048 3.048 0 0 1-3.054 3.037 3.047 3.047 0 0 1-3.048-3.037c-.004-.911.42-1.704 1.059-2.263zm22.681-1.168c.103-.02.197-.062.293-.1.276-.066.551-.117.79-.117.059 0 .117-.003.197 0 .093.028.193.052.293.062.704.092 1.314.45 1.778 1.006.093.331.273.604.524.815.145.355.245.728.245 1.14 0 .228-.092.484-.159.738a6.41 6.41 0 0 0-2.368 2.238c-.68.114-1.67-.045-2.374-.6a3.007 3.007 0 0 1-1.153-1.997c-.003-.042-.017-.339-.027-.383 0-.593.186-1.176.537-1.686a3.122 3.122 0 0 1 1.424-1.116zm4.339 7.886a2.986 2.986 0 0 1 1.712-1.596c.072-.025.138-.056.203-.09.852-.216 1.505-.138 2.068.104.462.192.865.5 1.11.848.025.034.059.058.084.09.02.027.044.047.069.075.048.047.086.106.142.152l-.017.017c.328.514.493 1.068.493 1.655 0 1.668-1.38 3.028-3.079 3.028l-.158.01a1.83 1.83 0 0 0-.36-.08c-.37-.041-.714-.172-1.11-.428a2.974 2.974 0 0 1-1.408-2.533 3.223 3.223 0 0 1 .25-1.252zm5.688-7.39c.048-.076.107-.145.145-.228.142-.32.384-.61.696-.834a1.77 1.77 0 0 0 .22-.131c.59-.348 1.095-.5 1.671-.5.438 0 .587.061.907.172.584.145 1.128.523 1.574 1.159.006.006.23.29.238.297.225.442.349.934.349 1.38a3.06 3.06 0 0 1-3.065 3.05c-.317 0-.632-.069-.946-.155a5.886 5.886 0 0 0-1.58-1.21 2.847 2.847 0 0 1-.538-1.686c0-.437.072-.81.214-1.131.041-.052.07-.114.103-.166.005-.003.008-.01.012-.017zm-16.028 3.142c0 .113-.025.252-.056.378a1.783 1.783 0 0 0-.103.314c-.542 1.663-2.505 2.617-4.152 1.855-1.097-.49-1.809-1.568-1.809-2.744 0-.656.225-1.26.598-1.777a4.857 4.857 0 0 0 1.08-.92c.4-.234.866-.37 1.397-.37.156 0 .315.014.446.034.604.548 1.255.948 1.918 1.187.43.552.68 1.177.68 2.043zM96.3 125.404c.248-.13.497-.259.728-.42.326-.117.67-.211 1.036-.211 1.684 0 3.054 1.365 3.054 3.037a3.052 3.052 0 0 1-6.102 0c0-1.002.526-1.852 1.284-2.406zm-3.002 6.752h-.017c0-.003.003-.006.007-.011.006.003.006.008.01.01zm73.041-.011.01.01h-.016c.003-.002.006-.007.006-.01zm4.776-7.369c1.684 0 3.054 1.365 3.054 3.037a3.052 3.052 0 0 1-6.101 0c0-.645.248-1.21.593-1.704a6.535 6.535 0 0 0 1.57-1.154c.283-.09.57-.179.884-.179zm-5.594-7.292c1.694 0 3.072 1.349 3.072 3.006 0 .656-.239 1.221-.576 1.71a6.579 6.579 0 0 0-1.573 1.163c-.059.017-.125.025-.184.038a6.492 6.492 0 0 0-3.565-1.896 2.904 2.904 0 0 1-.193-1.01 3.017 3.017 0 0 1 3.019-3.01zm-6.744 4.544a6.485 6.485 0 0 0-2.43 1.983c-.117.014-.22.055-.362.055a3.07 3.07 0 0 1-3.072-3.058c0-.532.155-1.08.434-1.566.556-.928 1.528-1.48 2.675-1.49.017 0 .03.014.048.014.006 0 .013-.006.024-.006 1.633.061 2.954 1.413 2.954 3.048.004.378-.137.7-.271 1.02zm12.772-33.827c.538-.545 1.15-.765 2.023-.845.774 0 1.509.303 2.068.859.538.53.85 1.273.85 2.027 0 .759-.321 1.524-.853 2.075L157.394 110.4c-1.15-1.772-3.106-2.92-5.263-2.956zm-29.107 25.407c.092.256.138.49.138.759 0 .392-.092.765-.238 1.162a5.511 5.511 0 0 0-1.32 1.438 2.855 2.855 0 0 1-1.352.406 6.113 6.113 0 0 0-3.01-1.972 2.997 2.997 0 0 1-.203-1.031c0-.425.056-.765.162-1.048a.895.895 0 0 0 .034-.104c.006-.027.025-.047.03-.072.49-1.068 1.454-1.755 2.814-1.84.67 0 1.291.182 1.757.496.59.419.99.989 1.188 1.806zm-7.724-8.624c1.636 0 3.02 1.397 3.02 3.051 0 .073-.028.12-.034.19a6.348 6.348 0 0 0-3.254 2.103 6.432 6.432 0 0 0-2.741-1.97c-.014-.11-.062-.21-.062-.324-.004-1.681 1.376-3.05 3.07-3.05zm-5.371 6.302c.173 0 .317.028.604.076 1.428.23 2.464 1.482 2.464 2.976 0 .489-.153.962-.38 1.41-.796.369-1.5.892-2.101 1.571-.256.086-.62.09-1.105-.014a6.855 6.855 0 0 0-1.832-1.11 2.85 2.85 0 0 1-.67-1.862c0-1.676 1.354-3.047 3.02-3.047zm-10.791.67c1.664 0 3.016 1.373 3.016 3.059 0 .648-.258 1.279-.724 1.88-.33.22-.648.489-.952.806-.628.33-1.391.39-2.046.225a6.501 6.501 0 0 0-1.957-1.518c-.245-.425-.403-.89-.403-1.393a3.064 3.064 0 0 1 3.066-3.059zm-9.798-1.142a3.02 3.02 0 0 1 3.02 3.006c0 .862-.438 1.686-1.174 2.31a6.576 6.576 0 0 0-1.347.701 3.579 3.579 0 0 1-1.09-.027 6.299 6.299 0 0 0-2.216-1.939c-.125-.341-.262-.678-.262-1.048-.003-1.652 1.374-3.003 3.069-3.003zm-4.78 6.887c.665.22 1.218.7 1.586 1.362.253.465.37.918.37 1.424 0 1.607-1.267 2.893-3.082 3.011a6.518 6.518 0 0 0-2.744-1.754c-.183-.404-.31-.829-.31-1.255 0-2.009 1.902-3.674 4.18-2.788zm-10.686-1.004a3.048 3.048 0 0 1 3.05 3.038c0 1.006-.523 1.858-1.283 2.41-.252.131-.5.262-.732.425-.328.12-.67.211-1.038.211-.37 0-.715-.09-1.042-.21-.22-.156-.465-.284-.707-.412-.766-.556-1.297-1.41-1.297-2.424a3.048 3.048 0 0 1 3.049-3.038zm-4.78 8.079c.37 0 .716.09 1.042.21.225.16.47.287.715.415.766.556 1.294 1.407 1.294 2.417a3.051 3.051 0 0 1-6.101 0 3.053 3.053 0 0 1 3.05-3.042zm-9.554 1.293a3.048 3.048 0 0 1 3.051 3.037 3.048 3.048 0 0 1-3.05 3.037 3.05 3.05 0 0 1-3.051-3.037 3.051 3.051 0 0 1 3.05-3.037zm-14.164-3.479c-1.255-1.54-2.764-2.92-4.534-3.985 1.633-.437 2.692-.845 2.786-.88.038-.013.066-.044.1-.06.052-.011.1-.007.148-.018a29.024 29.024 0 0 0 2.733-.917c-.769 1.892-1.152 3.878-1.233 5.86zM49.217 76.267c.042-.017.072-.053.114-.07.045-.006.092-.006.142-.017.148-.038 1.342-.358 3.047-1.037-.915 2.038-1.35 4.2-1.436 6.34-1.363-1.668-3.013-3.15-4.976-4.248 1.823-.473 3.009-.927 3.109-.968zM56.13 97c.039-.014.066-.045.1-.061.053-.007.107-.007.159-.017.148-.042 1.339-.36 3.037-1.035-.91 2.027-1.342 4.182-1.433 6.318-1.356-1.663-3.003-3.142-4.963-4.235 1.82-.477 3.003-.931 3.1-.97zm21.504-.856c.12 2.762.249 5.62-.873 7.825-.908 1.793-2.202 3.286-3.624 4.568a23.55 23.55 0 0 0-2.522 1.983c-2.6 1.749-5.246 2.845-6.806 3.396-1.294-3.151-4.041-11.223-1.024-17.16 2.78-5.476 11.333-9.486 15.979-11.327-.438 1.807-.918 4.182-1.142 6.682-.108 1.258-.049 2.606.013 4.033zm-6.911-20.723c.12 2.762.245 5.624-.874 7.828-2.986 5.89-9.964 8.893-12.948 9.947-1.3-3.145-4.052-11.203-1.03-17.16 2.786-5.48 11.337-9.49 15.983-11.327-.438 1.807-.918 4.185-1.142 6.69-.11 1.247-.052 2.595.011 4.022zm-5.786-31.45c-.437 1.807-.915 4.193-1.138 6.699-.111 1.248-.053 2.592.006 4.02.12 2.765.245 5.624-.874 7.831-2.986 5.882-9.96 8.886-12.945 9.939-1.294-3.148-4.041-11.213-1.024-17.155 2.782-5.486 11.335-9.496 15.976-11.334zm-35.696.278c-2.813-8.431 3.262-18.634 5.826-22.41 2.644 2.476 8.408 8.562 11.164 16.824 2.837 8.517-1.38 16.303-3.106 18.982-2.998-1.12-11.036-4.854-13.883-13.396zm-4.48 23.244c-.807-1.182-1.573-2.3-2.413-3.237-1.692-1.886-3.513-3.52-4.956-4.717 2.967-.778 7.634-1.771 12.11-1.771 3.112 0 5.653.478 7.551 1.427 5.998 2.99 8.642 11.114 9.491 14.392-1.745.535-4.966 1.338-8.542 1.338-2.986 0-5.622-.562-7.837-1.665-2.217-1.104-3.837-3.476-5.404-5.767zm4.505 17.497c-1.687-1.883-3.513-3.518-4.952-4.71 2.975-.78 7.651-1.777 12.121-1.777 3.11 0 5.647.478 7.537 1.42 5.995 2.993 8.642 11.115 9.491 14.397-1.753.534-4.984 1.34-8.542 1.34-2.986 0-5.625-.562-7.84-1.665-2.213-1.104-3.828-3.473-5.395-5.762-.812-1.185-1.58-2.306-2.42-3.244zm14.716 29.723c-2.212-1.104-3.827-3.468-5.394-5.762-.808-1.182-1.57-2.3-2.413-3.242-1.692-1.882-3.513-3.517-4.952-4.707 2.975-.779 7.651-1.776 12.118-1.776 3.11 0 5.647.478 7.54 1.42 5.998 2.993 8.645 11.121 9.491 14.4a31.345 31.345 0 0 1-7.603 1.29 29.628 29.628 0 0 0-2.641-.114c-.225 0-.445.024-.67.027-2.025-.226-3.861-.732-5.476-1.536zm-1.001 11.385c-1.695-1.885-3.521-3.523-4.963-4.716 2.8-.735 7.103-1.632 11.333-1.735.805.08 1.634.124 2.483.124.283 0 .548-.024.828-.03 1.979.197 3.669.623 5.022 1.296 5.143 2.566 7.81 8.885 9.004 12.71l.072.242c.01.034.025.062.034.092.153.504.283.962.379 1.349-1.746.534-4.966 1.34-8.545 1.34-2.986 0-5.625-.561-7.846-1.668-2.209-1.104-3.82-3.465-5.383-5.748-.806-1.193-1.573-2.314-2.419-3.256zm22.538 31.303c-2.986 0-5.626-.565-7.849-1.672-2.218-1.1-3.835-3.472-5.397-5.761-.804-1.18-1.567-2.297-2.41-3.238-1.692-1.88-3.513-3.514-4.952-4.707 2.972-.779 7.651-1.78 12.118-1.78 3.106 0 5.643.48 7.537 1.425 6.002 2.992 8.649 11.117 9.494 14.392-1.747.535-4.967 1.341-8.541 1.341zm83.93 30.04v9.163h-38.996v-9.162zm.771-3.39h-40.524c-13.108-5.213-23.92-15.519-29.68-28.335a53.127 53.127 0 0 1-4.312-16.213 63.153 63.153 0 0 1-.29-3.96h34.906c.017 0 .034.014.056.014.013 0 .027-.013.041-.013h37.967c.014 0 .028.013.042.013.02 0 .038-.013.055-.013h36.04c-.661 21.532-13.973 40.42-34.3 48.506z"/></svg>