<svg width="200pt" height="200pt" viewBox="0 0 200 200" xmlns="http://www.w3.org/2000/svg"><path d="M169.998 121.55c0-.227 0-6.613-1.83-14.367-2.288-10.492-6.863-18.929-13.04-24.173-12.582-10.719-14.412-29.19-14.412-45.61v-.457c.229-.456 0-.911-.228-1.368l-2.974-5.473h3.662V8.894h-4.347v-4.79h9.15v31.471c0 .912.914 21.208 12.81 26.682.227.228.457.228.914.228.686 0 1.372-.457 1.83-1.141.458-.912 0-2.281-.915-2.736-4.804-2.281-7.32-8.438-8.693-13-1.372-5.017-1.602-9.805-1.602-10.262L150.325 0h-17.156v9.121H58.824v20.98h3.66l-2.974 5.474c-.228.457-.228.912-.228 1.368v.457c0 16.42-1.602 34.664-14.412 45.61-6.177 5.244-10.523 13.454-13.04 24.173C30 115.165 30 121.32 30 121.55v43.558C30 184.264 45.784 200 65 200h69.998c19.214 0 34.999-15.736 34.999-34.892l.003-42.417v-.456c-.228-.228 0-.457 0-.684zM137.058 13v4.56l-74.117.002V13zM62.941 26v-4.561h74.345v4.56zm102.94 139.337c0 17.104-13.955 30.788-30.883 30.788H64.999c-17.156 0-30.882-13.911-30.882-30.788v-43.559c0-.227.228-24.173 13.268-35.575 13.954-11.86 15.784-31.243 15.784-48.575v-.456l3.66-7.07h66.11l3.66 7.07v.456c0 17.332 1.83 36.716 15.785 48.575 13.267 11.175 13.267 35.348 13.267 35.575v.913z"/><path d="m129.966 151.88 4.347-62.713c.686-10.946-7.549-20.296-18.3-21.208-8.236-.684-16.243 4.334-19.445 11.86-2.745 0-5.49.456-8.007 1.367-5.033 2.052-8.922 5.702-10.98 10.491l-2.059 4.561c-2.974-1.597-6.176-2.281-9.607-2.281-11.666 0-21.273 9.578-21.273 21.208 0 9.12 5.718 16.876 13.954 20.068l-9.608 21.892c-2.059 4.79-2.059 10.262-.228 15.052 2.058 5.017 5.719 8.894 10.523 10.946 2.517 1.14 5.261 1.597 7.777 1.597 2.517 0 5.033-.456 7.321-1.368 5.033-2.052 8.922-5.701 10.98-10.491l4.575-10.262c.686 3.65 2.516 7.298 5.032 10.035 2.059 9.578 10.524 16.876 20.817 16.876 11.666 0 21.273-9.578 21.273-21.208.228-6.844-2.518-12.545-7.092-16.421zM48.53 115.393c0-9.578 7.778-17.331 17.385-17.331 2.745 0 5.49.684 8.007 2.052l-8.007 18.244c-.228-.684-.914-1.14-1.83-1.14a2.046 2.046 0 0 0-2.058 2.052v7.982l-2.059 4.56c-6.863-2.508-11.437-9.12-11.437-16.419zm33.4 55.872c-1.603 3.877-4.805 6.842-8.694 8.437-3.888 1.598-8.235 1.598-12.124-.227-3.888-1.597-6.863-4.79-8.463-8.666-1.602-3.877-1.602-8.21.228-12.087L81.243 93.5c1.602-3.877 4.804-6.842 8.693-8.437 1.83-.684 3.888-1.141 5.947-1.141s4.117.457 6.177 1.368c3.888 1.597 6.863 4.79 8.463 8.666 1.602 3.877 1.602 8.21-.228 12.087zm11.665-16.647v-.457l20.13-46.75c2.06-4.79 2.06-10.262.229-15.051-2.058-5.018-5.719-8.894-10.524-10.946-.914-.457-2.058-.684-2.974-.912 2.974-5.474 8.922-8.894 15.098-8.437 4.117.227 8.007 2.28 10.752 5.473s4.116 7.299 3.888 11.403l-4.116 60.205a21.22 21.22 0 0 0-10.066-2.509c-10.751 0-19.673 7.983-21.045 18.244-.915-2.28-1.372-4.79-1.144-7.069zm22.417 30.558c-9.607 0-17.384-7.753-17.384-17.331s7.777-17.332 17.384-17.332c3.89 0 7.55 1.368 10.524 3.42l.228.228c4.117 3.193 6.633 8.21 6.633 13.684.002 9.578-7.777 17.331-17.385 17.331z"/><path d="M125.62 158.038c-.914-.684-2.058-.457-2.744.227l-4.117 5.018c-.686.911-.458 2.052.228 2.736.458.227.914.456 1.144.456.686 0 1.144-.227 1.602-.684l4.117-5.017c.686-.682.686-2.05-.23-2.736zm-11.438 11.631a2.046 2.046 0 0 0-2.058 2.052v7.982c0 1.14.914 2.052 2.058 2.052s2.059-.911 2.059-2.052v-7.982a2.045 2.045 0 0 0-2.059-2.052zm.687-2.965c.686-.912.228-2.281-.686-2.736l-6.633-4.104c-.915-.684-2.289-.228-2.745.684-.686.911-.228 2.28.686 2.736l6.633 4.104c.228.227.686.227 1.144.227.686.002 1.373-.227 1.6-.911zm-50.097-52.451c.686-.912.228-2.282-.686-2.737l-6.633-4.104c-.915-.684-2.288-.227-2.745.684-.686.912-.228 2.282.686 2.736l6.633 4.105c.229.227.686.227 1.144.227.457.002 1.143-.455 1.6-.911zm87.098 31.959a4.095 4.095 0 0 1 0 5.805c-1.607 1.603-4.214 1.603-5.823 0s-1.609-4.201 0-5.805 4.215-1.603 5.822 0m-4.121 28.351a4.1 4.1 0 0 1 0 5.807 4.13 4.13 0 0 1-5.824 0 4.1 4.1 0 0 1 0-5.807 4.13 4.13 0 0 1 5.824 0m-58.03 6.341a4.097 4.097 0 0 1 0 5.806 4.128 4.128 0 0 1-5.822 0 4.097 4.097 0 0 1 0-5.806 4.128 4.128 0 0 1 5.822 0m-44.521-40.353c1.609 1.602 1.609 4.201 0 5.805s-4.215 1.604-5.822 0a4.095 4.095 0 0 1 0-5.805 4.125 4.125 0 0 1 5.822 0M71.373 78.75c1.608 1.602 1.608 4.201 0 5.805s-4.214 1.603-5.823 0-1.608-4.203 0-5.805a4.125 4.125 0 0 1 5.823 0m70.848 31.899c1.608 1.601 1.608 4.2 0 5.804s-4.214 1.604-5.823 0-1.608-4.202 0-5.804a4.125 4.125 0 0 1 5.823 0"/></svg>