<svg width="200pt" height="200pt" viewBox="0 0 200 200" xmlns="http://www.w3.org/2000/svg"><path d="M39.999 90a10.01 10.01 0 0 0 10 10h1.937l10.727 91.169a9.998 9.998 0 0 0 9.932 8.83h54.81a9.998 9.998 0 0 0 9.932-8.83l10.727-91.17h1.937a10.001 10.001 0 0 0 0-20h-.163a50.853 50.853 0 0 0-46.505-48.16V11.04a4.408 4.408 0 0 1 2.162-4.076 2.485 2.485 0 0 1 2.606.15l16.283 15.313a3.333 3.333 0 0 0 4.567-4.858L112.483 2.085a3.13 3.13 0 0 0-.333-.273 9.157 9.157 0 0 0-9.69-.781 11.042 11.042 0 0 0-5.793 10.01v20.8A50.855 50.855 0 0 0 50.162 80H50a10.01 10.01 0 0 0-10 10zm40 101.669a8.334 8.334 0 0 1 16.668 0 8.157 8.157 0 0 1-.184 1.666h-16.3a8.156 8.156 0 0 1-.183-1.666zm50.716-1.28a3.334 3.334 0 0 1-3.31 2.946h-24.167a15 15 0 1 0-29.814 0h-.83a3.334 3.334 0 0 1-3.312-2.945l-5.57-47.348a35.648 35.648 0 0 0 16.28 3.876 34.585 34.585 0 0 0 22.135-7.695 29.049 29.049 0 0 1 34.7-.776zm6.982-59.347a35.432 35.432 0 0 0-17.705-4.634 34.597 34.597 0 0 0-22.123 7.685 29.018 29.018 0 0 1-35.157.45l-4.064-34.542h82.7zm15.635-41.04A3.335 3.335 0 0 1 150 93.335H49.998c-1.842 0-3.333-1.491-3.333-3.333s1.491-3.333 3.333-3.333h100.001a3.335 3.335 0 0 1 3.333 3.333zM100 46.67a3.335 3.335 0 0 0 3.333-3.334v-4.824a41.662 41.662 0 0 1 12.705 3.056c-2.22 4.933-8.652 8.435-16.038 8.435S86.182 46.5 83.961 41.567a41.662 41.662 0 0 1 12.705-3.056v4.824A3.333 3.333 0 0 0 100 46.669zm-21.96-2.06v-.001A23.773 23.773 0 0 0 100 56.669a23.774 23.774 0 0 0 21.961-12.06 45.21 45.21 0 0 1 21.212 35.394H56.827A45.209 45.209 0 0 1 78.04 44.609z"/><path d="M77.932 159.733a3.826 3.826 0 0 0 1.1-.7c.293-.326.53-.698.7-1.101a2.79 2.79 0 0 0 .267-1.266 4.031 4.031 0 0 0-.067-.634 2.05 2.05 0 0 0-.2-.632 2.564 2.564 0 0 0-.3-.603l-.4-.498a3.33 3.33 0 0 0-3.634-.7 3.86 3.86 0 0 0-1.1.7 5.301 5.301 0 0 0-.4.498 2.56 2.56 0 0 0-.3.603 1.977 1.977 0 0 0-.199.632c-.04.209-.061.42-.067.634.006.436.095.865.266 1.266.17.404.406.775.7 1.1a3.3 3.3 0 0 0 3.634.7zm5.136 9a2.503 2.503 0 0 0-.302-.601 62.09 62.09 0 0 0-.399-.498 5.104 5.104 0 0 0-.5-.4 2.439 2.439 0 0 0-.6-.3 2.075 2.075 0 0 0-.632-.203 3.327 3.327 0 0 0-3 .903 3.488 3.488 0 0 0-.967 2.366 3.29 3.29 0 0 0 .967 2.366 3.85 3.85 0 0 0 1.098.7A3.3 3.3 0 0 0 83.334 170a5.091 5.091 0 0 0-.066-.667 2.172 2.172 0 0 0-.2-.6zM96.4 165.4a2.56 2.56 0 0 0-.3-.602l-.399-.498a3.49 3.49 0 0 0-4.734 0 3.432 3.432 0 0 0-.966 2.367c-.012.437.08.871.265 1.266.17.404.407.776.701 1.1a3.38 3.38 0 0 0 4.734 0c.293-.324.529-.696.699-1.1.187-.395.279-.829.268-1.266A4.863 4.863 0 0 0 96.6 166a2.163 2.163 0 0 0-.201-.598zm2.632-14.432a3.18 3.18 0 0 0-.534-.4 1.812 1.812 0 0 0-.567-.3 2.156 2.156 0 0 0-.6-.2 3.184 3.184 0 0 0-1.933.2 3.838 3.838 0 0 0-1.1.7c-.3.318-.54.692-.7 1.101a3.304 3.304 0 0 0 .7 3.633c.324.294.697.53 1.1.7a3.14 3.14 0 0 0 2.533 0c.405-.17.776-.406 1.101-.7a3.3 3.3 0 0 0 .7-3.633 3.457 3.457 0 0 0-.7-1.1z"/></svg>