<svg width="200pt" height="200pt" viewBox="0 0 200 200" xmlns="http://www.w3.org/2000/svg"><path d="M196.638 16.061c-1.042-4.605-3.536-8.603-7.229-11.572A20.805 20.805 0 0 0 176.53 0a20.619 20.619 0 0 0-15.323 6.815l-16.434 18.263c-.349-.012-.67-.078-1.025-.078-10.98 0-27.016 9.357-45.586 20.19C78.024 56.937 55.2 70.25 37.218 71.886.425 75.232 0 115.222 0 115.626v45.032c0 2.988 1.168 5.8 3.291 7.928a11.15 11.15 0 0 0 7.927 3.29c6.028 0 10.956-4.69 11.216-10.666l.11-2.187c.182-3.503.18-3.827-.497-6.366-.533-1.996-1.525-5.71-3.349-15.713-2.416-13.33-.474-23.285 5.94-30.368 6.295.995 12.229 2.865 17.455 5.45 11.424 7.142 33.22 17.372 55.267 20.41-7.52 8.896-9.994 17.353-6.745 23.726 2.881 5.695 9.777 8.758 19.573 8.758.967 0 1.965-.03 2.986-.092 10.477-.617 22.88-4.315 34.924-10.416 26.026-13.196 41.58-33.087 35.407-45.292-3.541-6.987-12.947-9.911-26.15-8.315 2.804-7.347 5.037-14.307 6.667-20.8l25.504-22.497c3.284-2.875 5.89-6.38 7.763-10.449A31.38 31.38 0 0 0 200 34.344c0-2.362-.25-4.595-.764-6.815zM21.303 101.022c-8.711 8.576-11.658 21.035-8.757 37.04 1.869 10.253 2.903 14.126 3.46 16.205.437 1.645.437 1.645.292 4.428l-.111 2.23c-.115 2.636-2.3 4.7-4.974 4.7a4.937 4.937 0 0 1-3.506-1.456 4.948 4.948 0 0 1-1.462-3.513v-45.025c.004-1.413.465-34.54 31.33-37.493 1.85.13 10.714.702 22.95.702 15.644 0 36.78-.933 55.74-4.929a3.125 3.125 0 0 0-1.288-6.114c-18.859 3.971-40.393 4.806-55.928 4.755 13.99-5.488 28.713-14.06 42.26-21.963 17.047-9.945 33.149-19.338 42.436-19.338 3.584 0 6.655.869 9.158 2.597-.151 7.132-2.478 14.486-6.624 21.401-4.078 3.198-9.465 6.013-16.079 8.36a3.124 3.124 0 1 0 2.09 5.89c1.228-.437 2.363-.913 3.518-1.382-14.253 13.389-34.527 20.627-54.367 19.39-29.414-1.825-49.083 2.597-60.136 13.516zm9.552.412c10.46-6.528 27.292-9.121 50.196-7.69 22.136 1.37 43.843-6.476 59.59-21.572a66.336 66.336 0 0 0 10.553-13.034c.122-.17.239-.334.323-.52 3.457-5.727 5.842-11.753 6.938-17.794 5.366 12.002 2.516 34.28-8.234 61.143-4.565 11.416-12.463 19.028-23.466 22.623-25.417 8.32-62.578-6.131-81.614-18.012a66.221 66.221 0 0 0-14.284-5.144zM167.03 49.137c-.695-5.856-2.355-10.78-4.968-14.662 7.638-8.086 10.731-7.969 11.314-7.867.882.183 1.496 1.648 1.783 2.508 1.473 4.409-1.437 11.41-8.13 20.021zm-38.336 81.393c11.735-3.836 20.385-11.58 25.829-22.959.203-.036.401-.064.604-.097 1.45.449 3.094 1.24 3.83 2.687 2.668 5.273-6.868 17.508-23.624 25.989-16.753 8.48-32.258 8.938-34.918 3.7a3.936 3.936 0 0 1-.294-.796c1.381-1.898 3.064-3.854 5.015-5.833 8.155.441 16.18-.277 23.558-2.69zm49.232-18.588c3.873 7.656-8.587 24.692-32.653 36.896-11.296 5.719-22.825 9.183-32.468 9.75-8.62.484-14.67-1.41-16.618-5.257-1.093-2.143-.854-4.992.456-8.21 2.851 2.938 7.546 4.425 13.428 4.424 7.874 0 17.816-2.62 28.087-7.816 19.87-10.058 31.208-24.84 26.377-34.39-.116-.229-.296-.417-.428-.635 6.998.049 12.1 1.842 13.82 5.239zm13.67-67.464c-1.49 3.235-3.57 6.036-6.198 8.337l-19.25 16.98c.654-3.967 1.063-7.73 1.197-11.246 11.843-13.32 16.351-23.607 13.74-31.415-1.578-4.721-4.38-6.22-6.45-6.646-4.446-.908-9.82 2.093-16.746 9.329a19.783 19.783 0 0 0-5.913-3.4l13.877-15.423a14.369 14.369 0 0 1 10.675-4.743c3.3 0 6.41 1.084 8.98 3.122a14.302 14.302 0 0 1 5.034 8.07l2.598 11.484c.409 1.766.607 3.535.607 5.418a25.1 25.1 0 0 1-2.15 10.133z"/><path d="M28.12 168.75a3.127 3.127 0 0 0-2.893 1.943c-1.52 3.72-6.481 16.16-6.481 19.932 0 5.17 4.204 9.375 9.375 9.375s9.375-4.205 9.375-9.375c0-3.772-4.963-16.211-6.482-19.932a3.128 3.128 0 0 0-2.893-1.943zm0 25a3.127 3.127 0 0 1-3.124-3.122c.016-1.197 1.376-5.393 3.125-10.129 1.748 4.737 3.108 8.933 3.125 10.129a3.128 3.128 0 0 1-3.125 3.122zm114.115-92.772a3.123 3.123 0 0 0 4.247-1.223c1.156-2.09 2.26-4.416 3.282-6.918a3.124 3.124 0 1 0-5.785-2.362c-.93 2.274-1.927 4.38-2.965 6.26a3.12 3.12 0 0 0 1.22 4.243zm7.315-16.718a3.128 3.128 0 0 0 3.846-2.176c1.985-7.144 2.784-12.662 2.816-12.893a3.122 3.122 0 0 0-2.65-3.534c-1.698-.275-3.293.937-3.536 2.649-.007.052-.782 5.374-2.652 12.106a3.125 3.125 0 0 0 2.175 3.848z"/></svg>