<svg width="200pt" height="200pt" viewBox="0 0 200 200" xmlns="http://www.w3.org/2000/svg"><path d="M74.998 51.011h-1.19c-4.047 0-7.38-3.337-7.38-7.389V22.884c2.142-.715 3.81-2.86 3.81-5.245V5.482c0-3.1-2.382-5.482-5.476-5.482H41.666C38.57 0 36.19 2.385 36.19 5.482V17.64c0 2.86 2.382 5.245 5.238 5.483v20.5c0 4.052-3.333 7.39-7.38 7.39C26.428 51.013 20 57.21 20 65.076l4.762 132.539c0 1.192 1.19 2.384 2.381 2.384h55.002c1.19 0 2.382-.953 2.382-2.384l4.761-132.539c-.24-7.865-6.432-14.064-14.29-14.064zM40.95 17.64V5.482c0-.477.237-.715.714-.715H64.76c.477 0 .714.238.714.715V17.64c0 .477-.237.715-.714.715H41.664c-.477 0-.714-.477-.714-.715zm-7.144 38.14c6.667 0 12.143-5.482 12.143-12.157v-20.5h15.476v20.5c0 6.675 5.476 12.157 12.143 12.157h1.19c5.002 0 9.287 4.052 9.287 9.059l-2.382 69.845H26.899l-2.381-69.845c.24-5.005 4.29-9.06 9.29-9.06zm47.145 103.456H28.092l-.714-19.548h54.287zm-51.668 35.757-1.191-31.227 52.858-.002-1.19 31.227zM157.143 35.04c-11.905 0-21.668 9.297-22.62 20.978H105c-.715 0-1.668.477-1.906 1.192-.476.715-.476 1.43-.237 2.384 0 .238 10.714 23.6 5.238 46.484-.951 3.575-1.905 7.39-2.856 10.967-4.285 15.493-8.572 31.466-.952 41.239 4.285 5.721 12.382 8.82 23.81 9.058l-.002 27.889h-12.856c-1.429 0-2.382.953-2.382 2.384 0 1.43.952 2.385 2.382 2.385h30.714c1.428 0 2.382-.953 2.382-2.385 0-1.43-.952-2.384-2.382-2.384h-12.857l-.001-27.89c12.142-.238 20.476-3.338 25-9.297 7.382-9.774 2.858-25.03-1.428-40.047-1.19-4.052-2.381-8.104-3.333-12.157-2.142-9.534-1.667-19.308-.477-27.175 1.905.477 4.048.715 5.953.715 4.762 0 9.286-1.43 12.857-4.29 5.237-4.052 8.333-10.489 8.333-17.4-.237-12.398-10.477-22.649-22.857-22.649zM108.57 60.785h44.049c-1.428 3.814-3.81 10.966-5.001 19.548-1.668 1.192-3.57 2.145-6.43 2.145-3.81 0-5.714-1.43-8.094-3.337-2.62-1.908-5.476-4.29-10.954-4.29-4.285 0-6.904 1.43-9.048 2.86-1.427-7.391-3.332-13.35-4.523-16.926zm43.097 58.641c4.047 13.826 8.095 28.128 2.142 35.757-3.81 5.007-11.428 7.39-23.334 7.39h-.237c-11.428 0-18.81-2.385-22.62-7.39-6.19-8.105-2.142-22.885 1.906-37.187.951-3.575 2.142-7.39 2.856-11.204 1.905-8.344 1.905-16.686 1.191-24.075l.238-.238c2.382-1.907 4.285-3.337 8.095-3.337s5.715 1.43 8.095 3.337c2.62 1.907 5.715 4.29 10.953 4.29 2.382 0 4.048-.477 5.715-.953-.239 6.91 0 14.062 1.666 21.214.954 4.052 2.144 8.342 3.334 12.396zm16.906-48.152c-2.857 2.145-7.62 4.53-15.001 2.622 1.905-8.582 4.524-14.541 4.761-14.78.238-.714.238-1.669-.237-2.384-.477-.715-1.191-1.192-1.905-1.192h-16.667c.952-9.059 8.572-16.209 17.858-16.209 9.762 0 17.857 8.105 17.857 17.879-.237 5.959-2.619 10.964-6.666 14.063z"/><path d="M162.857 57.686c0 1.43.952 2.384 2.382 2.384h5.001c1.428 0 2.382-.952 2.382-2.384 0-1.43-.952-2.384-2.382-2.384h-5.001c-1.428.001-2.382 1.192-2.382 2.384zm-5.714-15.256c-1.429 0-2.382.953-2.382 2.384v5.007c0 1.43.952 2.384 2.382 2.384 1.428 0 2.382-.952 2.382-2.384v-5.007c-.002-1.43-.954-2.384-2.382-2.384zm7.381 19.308c-.952-.952-2.382-.952-3.333 0-.952.953-.952 2.385 0 3.338l3.57 3.575c.477.477 1.191.715 1.668.715s1.19-.238 1.668-.715c.951-.953.951-2.385 0-3.338zm-14.762-14.779c-.952-.953-2.382-.953-3.334 0-.951.953-.951 2.384 0 3.337L150 53.871c.477.477 1.191.715 1.668.715s1.19-.238 1.667-.715c.952-.953.952-2.384 0-3.337zm13.095 7.39c.714 0 1.191-.238 1.668-.715l3.57-3.575c.952-.953.952-2.385 0-3.338-.951-.952-2.381-.952-3.333 0l-3.57 3.575c-.952.953-.952 2.385 0 3.338.474.477 1.19.715 1.665.715zm-33.096 75.804-5.952-6.199c-1.668-1.67-4.525-1.67-5.953 0l-5.953 6.2a4.175 4.175 0 0 0 0 5.959l5.953 5.959c.714.715 1.905 1.192 3.096 1.192s2.142-.477 3.096-1.192l5.952-5.96c1.429-1.669 1.429-4.291-.239-5.959zm-8.81 8.342-5.237-5.244 5.238-5.244 5.238 5.244zm24.049.955-8.335-1.192c-1.19-.238-2.142.237-3.096.715-.951.715-1.428 1.67-1.667 2.86l-1.191 8.344c-.237 1.192.238 2.145.714 3.1.714.952 1.668 1.43 2.857 1.669l8.334 1.192h.715c.951 0 1.905-.238 2.619-.953.951-.715 1.428-1.67 1.667-2.86l1.191-8.344c.238-1.192-.237-2.145-.714-3.1-.952-.716-1.903-1.193-3.094-1.431zm-2.143 12.157-7.38-.953.951-7.39 7.38.953zm-12.62-28.367 7.858 3.337c.476.238 1.19.238 1.667.238s1.191 0 1.668-.238c.951-.477 1.905-1.192 2.381-2.384l3.334-7.867c.951-2.145-.238-4.767-2.382-5.482l-7.857-3.337c-2.143-.953-4.762.238-5.476 2.384l-3.334 7.867c-.955 2.145-.001 4.767 2.141 5.482zm5.239-10.964 6.904 2.86-2.857 6.912-6.904-2.86z"/></svg>