<svg width="200pt" height="200pt" viewBox="0 0 200 200" xmlns="http://www.w3.org/2000/svg"><path d="M125.795 11.185C124.736 4.853 119.308 0 112.745 0c-6.37 0-11.695 4.562-12.972 10.62-9.846 3.37-17.607 10.463-21.967 19.454L56.456 2.985a7.795 7.795 0 0 0-11.009-1.26l-2.493 2.012a7.871 7.871 0 0 0-2.904 5.3 7.928 7.928 0 0 0 1.658 5.824l33.15 42.063a16.544 16.544 0 0 0-5.921 12.727c0 2.382.509 4.642 1.404 6.693-1.134.697-4.494 3.08-5.072 7.2-.495 3.523 1.15 7.143 4.893 10.763 7.919 7.657 9.185 16.94 4.107 30.097-2.886 7.472-6.03 25.02 2.71 37.95 6.358 9.408 17.586 14.327 33.295 14.75v17.895H96.67c-1.365 0-2.474 1.117-2.474 2.5S95.304 200 96.67 200h32.154c1.364 0 2.474-1.118 2.474-2.5s-1.108-2.501-2.474-2.501H115.22v-17.92c15.451-.537 26.536-5.485 32.858-14.84 8.783-12.99 5.696-30.432 2.836-37.838-5.081-13.158-3.815-22.44 4.108-30.098 3.742-3.616 5.386-7.24 4.893-10.762-.544-3.873-3.532-6.2-4.836-7.047a16.633 16.633 0 0 0 1.478-6.843c0-5.678-2.8-10.828-7.427-13.874a38.586 38.586 0 0 0 1.004-8.693c-.001-15.881-9.75-30.178-24.338-35.9zM112.745 5c4.592 0 8.325 3.775 8.325 8.412 0 4.64-3.735 8.415-8.324 8.415-4.591 0-8.325-3.776-8.325-8.415 0-4.637 3.734-8.412 8.325-8.412zM99.729 15.946c1.177 6.19 6.56 10.885 13.018 10.885 6.259 0 11.492-4.42 12.88-10.325 9.2 4.19 15.926 12.402 18.452 22.09-3.572.848-5.749 3.204-7.547 5.194-2.053 2.27-3.535 3.913-6.712 3.913-3.178 0-4.662-1.642-6.713-3.913-2.231-2.469-5.007-5.545-10.366-5.545-5.36 0-8.132 3.072-10.36 5.545-2.05 2.272-3.531 3.913-6.708 3.913-3.178 0-4.66-1.639-6.71-3.913-2.023-2.242-4.516-4.954-8.957-5.442 2.666-10.097 9.873-18.45 19.723-22.402zM73.92 47.712l-8.258-10.48 7.011-5.646 3.016 3.825a39.176 39.176 0 0 0-1.786 11.676c-.003.208.014.415.017.625zM58.401 28.021l7.012-5.645 4.177 5.3-7.012 5.644zm-7.258-9.208 7.012-5.648 4.176 5.3-7.011 5.645zM44.963 9.6a2.894 2.894 0 0 1 1.072-1.953l2.493-2.012a2.866 2.866 0 0 1 4.056.465l2.486 3.155-7.011 5.648-2.487-3.154a2.939 2.939 0 0 1-.609-2.149zm110.054 74.674c.304 2.28-1.692 4.75-3.417 6.419-9.446 9.132-11.128 20.422-5.295 35.527 2.036 5.272 5.588 21.513-2.312 33.2-5.726 8.471-16.342 12.765-31.555 12.765-15.144 0-25.7-4.257-31.377-12.656-7.855-11.619-4.239-27.985-2.184-33.312 5.831-15.105 4.151-26.395-5.295-35.528-1.727-1.67-3.723-4.14-3.417-6.419.303-2.282 2.782-3.684 2.845-3.718 3.012 3.483 7.427 5.696 12.35 5.696 3.99 0 7.842-1.49 10.823-4.138a37.206 37.206 0 0 0 15.836 3.501 37.83 37.83 0 0 0 16.792-3.948 16.265 16.265 0 0 0 11.328 4.583c4.865 0 9.23-2.162 12.24-5.571.606.398 2.382 1.683 2.639 3.6zm-3.41-14.619c0 6.395-5.147 11.597-11.474 11.597-3.455 0-6.695-1.556-8.888-4.265a2.453 2.453 0 0 0-3.12-.602 32.89 32.89 0 0 1-16.11 4.232c-5.32 0-10.429-1.26-15.186-3.746a2.463 2.463 0 0 0-2.97.546c-2.18 2.44-5.278 3.835-8.504 3.835-6.327 0-11.474-5.202-11.474-11.597 0-4.005 2.014-7.674 5.387-9.818a2.515 2.515 0 0 0 1.049-2.854 33.862 33.862 0 0 1-1.472-9.895c0-1.287.097-2.555.238-3.81 2.835.167 4.282 1.731 6.221 3.88 2.23 2.47 5.003 5.545 10.364 5.545 5.36 0 8.133-3.072 10.36-5.545 2.05-2.272 3.532-3.913 6.708-3.913 3.178 0 4.66 1.639 6.713 3.913 2.23 2.47 5.007 5.545 10.369 5.545s8.138-3.072 10.369-5.545c1.585-1.754 2.836-3.123 4.786-3.66a33.9 33.9 0 0 1 .215 3.59c0 3.062-.438 6.168-1.304 9.227a2.504 2.504 0 0 0 1.289 2.93c3.966 1.972 6.433 5.96 6.433 10.41z"/><path d="M137.336 126.673c-2.928-7.45-6.571-16.722-1.352-25.373a2.513 2.513 0 0 0-.823-3.435 2.448 2.448 0 0 0-3.4.831c-6.504 10.78-2.178 21.785.977 29.822l.64 1.64c1.22 3.157 3.354 12.872-1.342 19.82-3.383 5.008-9.743 7.547-18.898 7.547-1.365 0-2.474 1.118-2.474 2.5s1.107 2.501 2.474 2.501c10.888 0 18.619-3.273 22.982-9.725 5.693-8.423 3.709-19.683 1.866-24.457z"/></svg>