<svg width="200pt" height="200pt" viewBox="0 0 200 200" xmlns="http://www.w3.org/2000/svg"><path d="M181.998 155.816h-9.759c4.135-5.704 2.342-13.13-2.62-16.969 4.06-3.089 6.11-8.522 4.289-13.828-.787-2.29-2.294-4.253-4.207-5.687.274-.195.544-.398.812-.614 4.126-3.366 5.159-9.687 2.922-14.348-1.727-3.593-5.102-6.13-8.981-6.869.874-3.207-.688-7.098-3.942-8.574-1.219-.552-2.488-.67-3.796-.67H32.985c-1.87 0-3.714.43-5.16 1.69-2.595 2.261-3.01 5.45-1.843 8.055-3.907 1.425-6.93 4.869-7.913 8.938-1.152 4.757.941 9.45 4.637 12.415a13.134 13.134 0 0 0-4.487 6.476c-1.489 4.74.589 10.147 4.515 13.078-4.756 3.698-6.58 10.655-2.96 16.386.115.183.237.352.36.522H10.7c-4.557 0-8.297 1.927-10.069 6.323-1.051 2.609-.472 6.287-.472 9.026 0 4.438 2.6 8.088 6.922 9.393 1.601.485 3.565.307 5.232.307h3.719c1.155 8.801 7.505 16.16 16.368 18.475 2.839.743 5.748.656 8.647.656h113.595c11.19-.17 20.313-8.41 21.72-19.13h6.573c.167 0 .326-.018.477-.043 4.974-.426 8.614-4.165 8.832-9.167.101-2.38.076-4.822-.027-7.204-.24-5.472-5.131-8.637-10.217-8.637zm-12.869-9.368c1.553 4.577-2.19 9.366-6.969 9.366H30.332c-3.239 0-6.021-1.987-7.061-5.016-1.573-4.585 2.166-9.398 6.958-9.398h1.17c1.17.03 2.358.01 3.553.01h51.72c-.047 1.559-.061 3.144.258 4.612 1.031 4.734 5.542 8.037 10.436 7.417 4.777-.606 8.28-4.673 8.28-9.42v-2.61h56.327c.042 0 .083-.004.124-.004 3.235.048 5.991 1.985 7.03 5.042zM78.87 102.62c.576-.194 1.166-.231 1.76-.24h.787c3.935.142 5.326 3.262 5.326 6.65v7.766H75.141v-6.828c0-3.087.22-6.167 3.729-7.349zm33.643-.22c3.834.14 4.735 3.91 4.735 6.922v7.473h-11.602v-8.851c.003-4.043 3.22-5.678 6.867-5.545zm-6.864 33.9v-14.4h11.602v2.577c0 3.1-.418 6.413 1.388 9.133a7.404 7.404 0 0 0 3.203 2.69H105.65zm62.818-10.836c2.969 4.702-.835 10.582-6.123 10.84l-.056.001c-.058 0-.118-.006-.176-.006h-33.65a7.724 7.724 0 0 0 2.897-2.175c2.192-2.661 1.792-6.03 1.792-9.229v-3h28.158c2.968 0 5.518.973 7.158 3.569zm.653-18.067c1.589 4.624-2.203 9.398-7.01 9.398h-.186c-.818-.017-1.637 0-2.455 0h-26.322v-7.161c0-3.249.584-6.2 4.279-7.16a7.46 7.46 0 0 1 .642-.127c.129.017.26.03.403.03h15.399c1.428 0 2.812.066 4.165-.078 4.568-.104 9.39.16 11.083 5.098zM32.591 93.36h124.873c1.834 0 2.77 1.964 1.555 3.34-.375.425-.91.547-1.46.578h-19.082c-.192 0-.374.017-.545.05-3.423.288-6.267 1.896-8.308 4.776-1.87 2.638-1.627 5.913-1.627 8.954v18.123c0 2.292-2.77 3.591-4.568 2.142-1.88-1.516-1.017-6.053-1.017-8.107v-14.702c0-4.007-1.518-7.3-4.876-9.63-3.555-2.465-9.17-2.076-12.613.317-3.254 2.258-4.423 5.79-4.423 9.56v29.984c0 2.089.32 4.431-.128 6.482-1.074 4.918-8.266 3.684-8.468-1.04a171.275 171.275 0 0 1-.129-4.838 2.48 2.48 0 0 0 .042-.496 2.73 2.73 0 0 0-.058-.57c-.047-5.942.145-11.906.145-17.826v-10.49c0-2.44-.102-4.592-1.088-6.903-1.502-3.517-5.336-5.514-9.029-5.762a3.12 3.12 0 0 0-.326-.025h-.998c-.22 0-.434.031-.642.084-3.901.418-7.342 2.407-8.968 6.21-1.167 2.732-.87 5.778-.87 8.678v7.175c0 1.43.17 2.897-.493 4.213-1.026 2.04-3.348 2.592-5.397 1.975-3.063-.927-2.703-4.452-2.703-6.915v-9.065c0-3.53-.517-6.612-3.07-9.322-1.803-1.908-4.171-2.681-6.653-2.932a2.806 2.806 0 0 0-.762-.103H35.05c-.794 0-1.595-.009-2.392-.01-2.726-.107-2.888-3.907-.068-3.907zm-9.206 13.699c1.217-3.875 4.995-4.593 8.5-4.673 1.804.245 3.897-.01 5.569-.01h13.388c1.237.089 2.43.37 3.43 1.172 2.445 1.963 1.964 5.14 1.964 7.9 0 1.634-.12 3.47-.161 5.345h-25.86c-5.207.003-8.305-5.051-6.83-9.734zm.877 17.875c1.487-2.333 3.942-2.925 6.494-3.046.259.006.522.011.783.011h24.739c.398 2.916 1.424 5.571 3.873 7.315 4 2.854 9.588 2.147 12.775-1.562 1.493-1.737 1.979-3.691 2.139-5.754h11.68v14.401H30.417c-.046 0-.083.005-.124.005-5.985-.085-9.166-6.444-6.03-11.37zm130.376 69.954H37.923c-8.432 0-15.354-6.072-16.695-14.028H171.16c-1.321 7.914-8.15 13.9-16.52 14.028zm28.293-19.13H9.521c-3.063 0-4.2-2.538-4.2-5.14 0-2.764-.746-6.551 1.41-8.686 1.33-1.316 3.619-1.015 5.347-1.015h170.807c3.75 0 4.2 3.347 4.2 6.202-.003 3.365.685 8.434-4.152 8.639zm16.522-164.903c-.592-2.643-.792-6.196-2.419-8.462-2.414-3.362-6.038-2.42-9.368-1.691-9.642 2.111-19.287 4.222-28.93 6.335l-70.59 15.46c-.27.057-.538.118-.807.178-.03-.122-.054-.245-.082-.367-.355-1.583-.597-3.255-1.187-4.77-1.943-4.963-8.081-6.692-12.525-3.882-.094.06-.18.122-.27.184a11.296 11.296 0 0 0-.647-1.56c-2.412-4.705-8.463-5.052-12.43-2.402-1.056-2.064-2.869-3.562-5.222-4.352-5.33-1.795-10.046 2.62-10.713 7.544-.014.091-.014.184-.02.277-2.556-.415-5.367.304-7.45 1.929-2.471 1.922-2.874 4.552-2.596 7.255a9.404 9.404 0 0 0-5.9.837c-6.316 3.172-3.683 10.553-2.52 15.743 1.28 5.726 2.563 11.45 3.843 17.174l.885 3.942c.978 4.366 5.142 6.656 9.35 6.293a2.9 2.9 0 0 0 .806-.1c.295-.05.55-.136.772-.25a8.864 8.864 0 0 0 2.172-1.155c1.238 3.935 5.173 5.985 9.167 5.642.253.006.523-.022.807-.1.296-.05.553-.136.775-.25a8.849 8.849 0 0 0 2.39-1.322c1.615 3.177 4.952 4.893 8.662 4.565a2.78 2.78 0 0 0 .811-.101 2.6 2.6 0 0 0 .773-.25c3.373-1.24 5.589-4.278 5.667-7.747a9.97 9.97 0 0 0 2.978.196 2.75 2.75 0 0 0 .807-.101c.294-.05.553-.135.772-.25 3.76-1.382 6.086-4.99 5.62-8.943a9.9 9.9 0 0 0 2.747.148c.254.007.523-.024.807-.1.299-.05.553-.135.777-.25 4.056-1.49 6.422-5.562 5.463-9.866l-.829-3.695c18.33-4.016 36.66-8.03 54.992-12.043l48.15-10.546c.14-.02.28-.05.426-.093a2.72 2.72 0 0 0 .679-.245c1.999-.814 3.464-2.395 3.873-4.585.258-1.431-.155-2.835-.467-4.224zM79.598 17.624c1.905.85 2.051 3.184 2.449 4.955.285 1.27.569 2.54.85 3.809l2.55 11.386c.249 1.12.501 2.238.75 3.358.017.066.032.133.047.198.002.017.011.034.016.05.76 3.124 3.18 8.9-1.238 10.101-2.931.492-3.694-2.1-4.18-4.273L77.79 33.56l-2.668-11.93a6.22 6.22 0 0 1-.152-.968c-.168-2.369 2.518-3.982 4.628-3.04zm-12.072-3.576c1.074.913 1.224 2.731 1.519 4.035l1.132 5.057c.33 2.167.975 4.356 1.41 6.31.984 4.407 1.973 8.81 2.958 13.218l1.27 5.695c.14.615.277 1.23.415 1.85l.802 3.575c.584 2.609 1.693 5.848-1.965 6.843-1.943.324-3.107-.995-3.853-2.82l-1.584-7.075v-.005l-4.368-19.524-2.444-10.926c-.213-.944-.424-1.89-.636-2.834-.683-3.073 2.72-5.639 5.344-3.399zm-32.422 43.18-1.776-7.943c-1.28-5.734-2.565-11.466-3.848-17.198-.613-2.751.962-5.295 3.953-4.598 1.363.318 1.964 1.405 2.32 2.614 1.136 5.073 2.27 10.146 3.405 15.221.897 4.02 1.798 8.04 2.698 12.058.083 1.907-.467 3.551-2.571 4.122-2.929.486-3.692-2.102-4.18-4.275zm11.95.122a9.045 9.045 0 0 0-.161-1.046c-.043-.187-.083-.374-.126-.563h-.001l-.375-1.68c-.216-.965-.43-1.929-.647-2.894-.553-2.466-1.103-4.936-1.656-7.405-.564-2.516-1.125-5.031-1.687-7.547a316.08 316.08 0 0 1-.393-1.749c-.16-.716-.322-1.43-.481-2.147-.268-1.204-.474-2.46-.82-3.66-.46-2.069-.926-4.136-1.386-6.204-.69-3.075 2.715-5.64 5.344-3.403.492.419.786 1.031.99 1.693l.522 2.338.001.004c1.833 8.195 3.668 16.39 5.498 24.586l2.486 11.115c.005.006.005.014.005.02.14.619.276 1.236.418 1.85l.031.14c.39 2.065.337 4.085-2.412 4.832-3.751.636-4.597-4.867-5.15-8.28zm12.92 4.093a9.022 9.022 0 0 0-.157-.98l-.839-3.747c-1.353-6.047-2.705-12.094-4.059-18.139-1.258-5.613-2.513-11.227-3.77-16.84-.27-1.218-.513-2.353-.957-3.484-.457-1.744-.829-3.517-.775-5.185.073-2.162 2.85-3.263 4.617-2.471 1.108.496 1.667 1.471 1.918 2.593l.846 3.78c.188.836.374 1.672.56 2.51.234 1.19.528 2.364.778 3.47.819 3.665 1.64 7.328 2.46 10.992l1.246 5.566c.058.268.121.538.18.806 1.191 5.326 2.385 10.65 3.576 15.978.229 1.019.454 2.036.683 3.054.395 1.756.786 3.51 1.18 5.262.424 1.902-.823 3.435-2.617 3.925-3.555.592-4.343-3.983-4.87-7.09zm76.642-33.885c-15.312 3.352-30.623 6.706-45.936 10.06-.296-1.318-.59-2.639-.885-3.956l-1.348-6.013c18.331-4.013 36.66-8.029 54.989-12.042l36.686-8.032 10.126-2.219 1.731-.378c1.473-.324 1.98 4.934 2.16 5.735.253 1.124 1.497 3.778-.151 4.28-19.12 4.187-38.249 8.376-57.37 12.565z"/></svg>