<svg width="200pt" height="200pt" viewBox="0 0 200 200" xmlns="http://www.w3.org/2000/svg"><path d="M100 0a100.004 100.004 0 0 0-70.712 29.288 100.005 100.005 0 0 0 0 141.424 100.005 100.005 0 0 0 141.424 0A100.005 100.005 0 0 0 200 100 100.113 100.113 0 0 0 100 0zm0 193.331A93.335 93.335 0 0 1 6.669 100a93.34 93.34 0 0 1 27.336-65.996A93.34 93.34 0 0 1 100 6.668a93.34 93.34 0 0 1 65.995 27.336A93.34 93.34 0 0 1 193.331 100a93.426 93.426 0 0 1-27.367 65.965A93.423 93.423 0 0 1 100 193.332z"/><path d="M100 20a79.998 79.998 0 1 0 79.998 79.998 80.084 80.084 0 0 0-23.458-56.54A80.083 80.083 0 0 0 100 20zm0 153.331a73.332 73.332 0 0 1-73.334-73.333 73.33 73.33 0 0 1 125.188-51.855 73.33 73.33 0 0 1 21.48 51.855 73.415 73.415 0 0 1-73.331 73.33z"/><path d="M150.97 75.934 116.219 64.96a50.24 50.24 0 0 0-32.333.76l-35.86 13.21a22.46 22.46 0 0 0-12.867 29.938 22.456 22.456 0 0 0 12.867 12.204l34.69 12.78a50.037 50.037 0 0 0 34.57 0l34.69-12.78h-.002A22.54 22.54 0 0 0 166.664 100v-2.667a22.356 22.356 0 0 0-15.693-21.397zm9.027 24.064a15.846 15.846 0 0 1-10.333 14.814l-34.686 12.78a43.349 43.349 0 0 1-29.96 0l-34.686-12.78a15.787 15.787 0 0 1 0-29.63l35.849-13.21a43.557 43.557 0 0 1 28.03-.667l34.753 10.987a15.72 15.72 0 0 1 11.033 15.04z"/><path d="M96.667 76.666h6.666v6.666h-6.666zm-50 20h6.667v6.666h-6.667zm16.667-10H70v6.666h-6.666zM80 99.999h6.667v6.666H80zm13.333 16.666H100v6.667h-6.667zm13.334-10h6.666v6.667h-6.666zm9.999-16.666h6.667v6.667h-6.667zm20-3.333h6.667v6.666h-6.667zm6.667 19.999h6.666v6.667h-6.666z"/></svg>