<svg width="200pt" height="200pt" viewBox="0 0 200 200" xmlns="http://www.w3.org/2000/svg"><path d="M136.083 0c-3.225-.023-6.626.955-9.727 2.924l-6.668 4.24c-3.541 2.249-6.076 5.407-7.285 8.825-1.21 3.415-1.055 7.182.91 10.254.1.202.25.352.352.518v-.002a2.04 2.04 0 0 0 2.736.512l8.205-5.213 9.544 14.903a2.044 2.044 0 0 0 2.822.628l9.776-6.213h.001c.456-.289.779-.748.895-1.276a2.027 2.027 0 0 0-.273-1.536l-9.542-14.904 8.192-5.206a2.039 2.039 0 0 0 .688-2.707c-.101-.202-.201-.352-.301-.542-1.969-3.069-5.326-4.787-8.942-5.136-.452-.039-.91-.048-1.372-.048L136.083 0ZM95.974 1.738l.001-.001c-.084 0-.168.006-.251.016 0 0-3.832.452-8.324 1.859-4.491 1.431-9.827 3.797-12.845 8.3-3.019 4.501-2.622 9.743-1.608 13.677 1.01 3.932 2.722 6.835 2.722 6.835.311.53.845.89 1.452.983 0 0 3.315.518 7.325-.007 4.007-.523 8.998-2.12 12.018-6.618 3.018-4.501 3.21-10.356 2.848-15.082-.351-4.726-1.396-8.46-1.396-8.46a2.039 2.039 0 0 0-1.963-1.497l.021-.005Zm40.086 2.346c.352.001.673.023 1 .048 1.979.202 3.501 1.035 4.721 2.186l-25.527 16.223c-.538-1.586-.663-3.32-.003-5.189.869-2.462 2.808-4.947 5.627-6.742l6.666-4.234c2.466-1.567 5.14-2.301 7.519-2.291l-.003-.001ZM94.318 6.229c.301 1.149.698 2.542.949 5.776.301 4.301-.048 9.378-2.169 12.501-2.094 3.125-5.777 4.405-9.16 4.847-2.803.352-4.38.1-5.119.023-.351-.658-1.19-2.034-1.897-4.801-.859-3.331-1.05-7.263 1.044-10.387 2.095-3.124 6.614-5.388 10.693-6.686 3.064-.975 4.495-1.094 5.662-1.27l-.003-.003ZM40.37 6.63a16.41 16.41 0 0 0-.934.048c-4.963.401-9.311 3.024-12.459 6.97-3.145 3.948-4.726 8.764-4.022 13.694.703 4.928 3.656 9.84 9.013 14.112 5.356 4.27 12.156 7.233 18.555 8.243 6.397 1.01 12.688.1 16.224-4.329 3.536-4.436 3.024-10.77.618-16.784-2.407-6.013-6.81-11.983-12.166-16.256-5.022-4.003-10.118-5.826-14.826-5.698h-.003Zm.839 4.078c3.421.1 7.292 1.497 11.444 4.812 4.746 3.783 8.811 9.316 10.918 14.583 2.111 5.268 2.16 9.991-.023 12.722-2.18 2.732-6.792 3.731-12.397 2.848-5.604-.884-11.904-3.622-16.649-7.404-4.746-3.783-6.981-7.762-7.514-11.498-.532-3.737.607-7.359 3.173-10.577 2.567-3.215 5.845-5.133 9.606-5.446.452-.039.949-.047 1.436-.039l.006-.001Zm122.625.975c-5.576 0-10.141 4.566-10.141 10.141 0 5.576 4.566 10.141 10.141 10.141 5.576 0 10.141-4.566 10.141-10.141 0-5.578-4.566-10.141-10.141-10.141Zm-122.35 3.842c-.302.005-.632.024-.945.048a9.68 9.68 0 0 0-6.605 3.617c-3.376 4.235-2.642 10.468 1.603 13.853 4.245 3.386 10.486 2.711 13.861-1.522 3.376-4.235 2.642-10.468-1.603-13.854a9.874 9.874 0 0 0-6.31-2.155l-.001.013Zm122.35.25a6.034 6.034 0 0 1 6.061 6.063 6.034 6.034 0 0 1-6.061 6.062 6.032 6.032 0 0 1-6.059-6.062 6.031 6.031 0 0 1 6.059-6.063Zm-29.407.151 8.4 13.119-6.333 4.024-8.4-13.12 6.333-4.023Zm-92.892 3.663a5.802 5.802 0 0 1 3.717 1.29c2.532 2.019 2.943 5.621.955 8.118-1.989 2.496-5.593 2.898-8.127.873-2.531-2.018-2.948-5.621-.954-8.117a5.706 5.706 0 0 1 3.863-2.135c.202-.024.351-.024.552-.032l-.006.003Zm63.777 9.184c-5.696 0-10.36 4.661-10.36 10.361 0 5.696 4.66 10.357 10.36 10.357 5.697 0 10.358-4.66 10.358-10.357 0-5.697-4.661-10.361-10.358-10.361Zm0 4.084a6.248 6.248 0 0 1 6.278 6.278 6.248 6.248 0 0 1-6.278 6.278 6.248 6.248 0 0 1-6.278-6.278 6.248 6.248 0 0 1 6.278-6.278Zm51.698 1.879h.001c-.25.005-.497.057-.729.151l-5.106 2.135-20.05 8.388-3.084 1.291-3.084 1.286-20.048 8.387-5.724 2.396.001-.001a2.04 2.04 0 0 0-1.094 2.672c7.24 17.215 26.759 25.569 43.572 18.536 16.813-7.032 24.522-26.782 17.281-43.996l.001.001a2.043 2.043 0 0 0-1.938-1.247l.001.001Zm22.365 3.053a2.063 2.063 0 0 0-1.014.301s-3.059 1.824-6.347 4.798c-3.284 2.973-6.964 7.129-8.061 12.278-2.194 10.299 7.288 18.247 7.288 18.247a2.044 2.044 0 0 0 1.859.452s11.871-2.914 14.064-13.21c1.095-5.149-.537-10.543-2.29-14.717-1.752-4.174-3.767-7.207-3.767-7.207v-.001a2.038 2.038 0 0 0-1.732-.914v-.027Zm-23.583 1.728c5.082 14.739-1.603 30.802-15.7 36.698-14.093 5.894-30.275-.608-37.259-14.546l1.843-.773a27.652 27.652 0 0 0 17.631 14.214c1.482.401 2.998.648 4.531.789.048.006.151.016.25.024.301.023.573.039.855.048.151.007.302.016.503.023.2.006.401.007.613.016.2.001.401.003.623 0 .151-.003.303-.007.452-.016l.728-.023c.048-.003.101-.008.151-.016a22.98 22.98 0 0 0 2.025-.202l.007-.002c.25-.039.526-.1.789-.151.151-.023.25-.039.401-.048.25-.039.452-.1.689-.151.201-.039.352-.1.522-.1.202-.048.401-.101.593-.152.2-.048.452-.1.648-.202.151-.048.352-.1.503-.151.25-.1.511-.151.764-.251.151-.048.25-.1.401-.151.401-.151.773-.303 1.156-.452.007-.003.016-.006.023-.016l-.002.001.008-.004c.351-.151.738-.301 1.1-.503.151-.048.25-.151.401-.202.25-.1.452-.25.689-.352.151-.1.351-.202.503-.251.202-.1.351-.202.533-.301.202-.1.352-.2.538-.302l.452-.301c.202-.1.351-.251.552-.352.151-.1.25-.202.401-.3.202-.152.352-.25.562-.402.101-.1.202-.151.301-.249.352-.301.708-.569 1.049-.87.101-.1.25-.202.352-.302.151-.151.301-.25.452-.401.151-.151.301-.301.452-.401l.352-.352c.202-.202.351-.401.552-.578.048-.048.151-.151.2-.251a8.72 8.72 0 0 0 .724-.839c.003-.003.004-.006.007-.007a27.682 27.682 0 0 0 2.657-3.822 27.537 27.537 0 0 0 2.19-22.502l1.233-.566Zm-5.142 2.15c1.833 5.696 1.401 11.552-.873 16.655L135.959 47.81l14.691-6.143Zm-71.716.452a2.042 2.042 0 0 0-1.953 1.764l-1.794 13.215-23.558-3.128v-.002a2.046 2.046 0 0 0-2.296 1.753l-2.035 15.01a2.034 2.034 0 0 0 1.748 2.291l23.56 3.129-1.787 13.202h-.002a2.043 2.043 0 0 0 1.624 2.276c.25.048.511.1.768.151 4.516.597 8.868-1.215 12.154-4.421 3.284-3.21 5.598-7.824 6.317-13.133l1.386-10.238c.72-5.31-.3-10.364-2.601-14.32-2.315-3.959-6.038-6.842-10.552-7.442-.25-.032-.517-.048-.773-.101l-.001.002a1.712 1.712 0 0 0-.202-.003l-.003-.005Zm99.782.783c.632 1.035 1.276 1.918 2.397 4.591 1.597 3.797 2.848 8.59 2.059 12.287-1.401 6.579-8.336 9.058-10.016 9.613-1.276-1.261-6.62-6.779-5.213-13.381.789-3.698 3.838-7.418 6.807-10.106 2.065-1.869 2.969-2.352 3.969-3.004h-.003Zm-98.015 3.873c2.507.748 4.716 2.321 6.24 4.928 1.803 3.079 2.683 7.25 2.074 11.711L87.628 73.65c-.603 4.459-2.562 8.258-5.125 10.764-2.165 2.114-4.716 3.049-7.329 3.119l5.527-40.758Zm-62.356 1.372c-2.407.007-3.994.151-3.994.151h.002a2.036 2.036 0 0 0-1.828 1.908s-.25 4.073.452 9.017c.678 4.943 2.179 10.92 6.285 14.849 4.104 3.933 9.599 4.45 13.857 4.088 4.259-.351 7.572-1.627 7.572-1.627l-.001.001a2.032 2.032 0 0 0 1.21-1.26s1.131-3.366 1.307-7.631c.151-4.264-.578-9.731-4.687-13.661-4.104-3.932-10.144-5.173-15.114-5.637a63.04 63.04 0 0 0-5.043-.2l-.018.002Zm113.268 1.486 16.107 12.258c-2.019 2.979-4.732 5.422-8.056 7.192l-2.275-5.416-5.883-13.988.107-.046Zm-3.873 1.622 3.054 7.255 5.108 12.147c-3.597 1.125-7.247 1.342-10.794.693l2.517-20.044.115-.051Zm-107.941.994c.859.007 1.904.048 3.211.201 4.54.401 9.767 1.742 12.672 4.521 2.903 2.777 3.576 6.901 3.425 10.543-.1 2.707-.568 4.55-.844 5.542-.98.301-2.804.855-5.51 1.086-3.636.301-7.788-.202-10.691-2.969-2.904-2.777-4.446-7.939-5.065-12.456-.452-3.46-.351-5.097-.3-6.304.754-.048 1.672-.151 3.104-.151l-.002-.013Zm103.485.869-2.16 17.197c-5.247-1.959-9.741-5.755-12.531-11.051l14.691-6.146ZM53.1 58.277l21.432 2.843-1.486 10.966-21.433-2.843L53.1 58.277Zm104.314 16.746c-2.512-.007-4.591 2.175-4.395 4.771l.452 6.166a9.483 9.483 0 0 0-2.37-.301c-2.707-.032-5.492 1.035-7.388 3.331l-12.38 15c-.024-.039-.04-.1-.048-.1-.568-.984-1.346-1.808-2.221-2.511 1.804-2.828 2.029-6.472.302-9.492v-.005c-1.748-3.014-5.035-4.622-8.418-4.456-.151-.352-.201-.738-.401-1.07h-.002l-.001-.006c-1.834-3.179-5.364-4.776-8.903-4.41-.1-.202-.151-.401-.251-.607l-.003-.005a9.214 9.214 0 0 0-8.207-4.595 9.295 9.295 0 0 0-4.349 1.231l.001-.002v.002c-2.37 1.372-3.711 3.797-4.179 6.442-.503.202-1 .301-1.456.558-.003.001-.005.001-.006.003-3.773 2.175-5.232 6.64-3.998 10.642-.301.151-.632.151-.914.301l-.003.001c-.301.202-.628.401-.924.618l-.528-.301v.001a2.04 2.04 0 0 0-2.717.753 6.596 6.596 0 0 1-8.798 2.452l-.006-.003a6.652 6.652 0 0 1-3.366-4.577v.002a2.04 2.04 0 0 0-2.119-1.648c-.768.039-1.531-.1-2.21-.503a4.19 4.19 0 0 1-1.798-5.547h-.001a2.04 2.04 0 0 0-.874-2.683l-6.724-3.607-4.746-2.546a2.048 2.048 0 0 0-.979-.251 2.045 2.045 0 0 0-1.784 1.08 33.266 33.266 0 0 0-2.29 5.355c-3.959-1.658-7.999-2.638-11.757-2.652v.001h-.004c-3.873-.016-7.538 1.045-10.148 3.652-4.174 4.174-4.395 10.814-2.591 17.361 1.803 6.547 5.689 13.29 10.768 18.37.452.452.89.864 1.336 1.266-2.883 1.527-4.857 4.556-4.857 8.029v3.084c0 3.345 1.832 6.278 4.54 7.853 1.779 19.684 13.064 36.631 29.243 46.192-4.611 1.155-8.045 5.339-8.045 10.3l.002-.001A2.04 2.04 0 0 0 58.937 200h72.933a2.041 2.041 0 0 0 2.041-2.039c0-4.963-3.436-9.142-8.045-10.299 16.178-9.564 27.466-26.509 29.242-46.195 2.712-1.577 4.541-4.511 4.541-7.854v-3.083c0-3.812-2.38-7.094-5.731-8.432l12.402-10.619c2.918-2.497 3.818-6.287 2.983-9.743l6.175.452c2.597.201 4.777-1.883 4.771-4.394v-.003l-.016-3.19v-.003c-.007-2.517-2.169-4.621-4.807-4.394l-1.959.151 1.376-1.19c1.974-1.708 2.025-4.712.25-6.485l-2.265-2.265.001.001h-.003c-1.773-1.773-4.807-1.753-6.505.251l-1.552 1.853.25-2.773a4.449 4.449 0 0 0-4.4-4.801l-3.205.077Zm-.016 4.084 3.19.016c.1 0 .351.151.351.401v.004l-.773 9.198v-.002a2.043 2.043 0 0 0 1.259 2.054 2.042 2.042 0 0 0 2.338-.577l5.689-6.797c.151-.151.401-.1.503-.016l2.266 2.266h-.002.003c.101.1.151.351-.032.513l-6.118 5.292.002-.001a2.04 2.04 0 0 0 1.507 3.576l8.202-.693c.202-.023.401.252.401.352l.016 3.19v.004c0 .1-.1.352-.401.301l-8.577-.648c-.25-.301-.452-.548-.724-.804v-.001l-7.935-7.937a9.866 9.866 0 0 0-.808-.728l-.648-8.578c-.023-.25.201-.401.301-.401l-.01.016Zm-54.12 1.683a5.09 5.09 0 0 1 4.561 2.552c.25.401.401.838.517 1.29v.001a2.04 2.04 0 0 0 2.617 1.442 5.1 5.1 0 0 1 6.018 2.295c.301.503.452 1.014.579 1.562h-.002a2.04 2.04 0 0 0 2.523 1.583 5.112 5.112 0 0 1 5.716 2.38 5.085 5.085 0 0 1-1.09 6.415 2.04 2.04 0 0 0 .552 3.431c1.039.452 1.908 1.19 2.466 2.159.352.579.401 1.201.517 1.818l-11.367 13.774h-.809l-.839-3.029 9.815-8.565a2.04 2.04 0 0 0-1.241-3.591 2.037 2.037 0 0 0-1.44.522l-8.34 7.276-2.417-8.748 9.945-8.367h.001a2.04 2.04 0 0 0-1.381-3.615c-.46.022-.899.199-1.247.501l-8.514 7.163-3.194-11.563a2.042 2.042 0 1 0-3.934 1.09l1.286 4.66-7.287-1.507v.002a2.082 2.082 0 0 0-.401-.048 2.04 2.04 0 0 0-.402 4.044l9.337 1.929 4.349 15.732-3.922-.734a2.093 2.093 0 0 0-.403-.039 2.039 2.039 0 0 0-.351 4.053l5.884 1.1.503 1.753H96.618a33.002 33.002 0 0 0 10.248-10.969c.003-.004.006-.007.007-.016a.027.027 0 0 0 .006-.016c.151-.301.352-.613.517-.929v.002a2.041 2.041 0 0 0-.834-2.758l-5.281-2.833a.262.262 0 0 0-.032-.023l-9.405-5.045c.1-.024.202-.101.302-.101a2.038 2.038 0 0 0 1.401-3.145.63.63 0 0 0-.151-.2 5.077 5.077 0 0 1 1.869-6.977l.003-.003c.452-.25.959-.452 1.476-.563v.002a2.042 2.042 0 0 0 1.618-2 5.098 5.098 0 0 1 2.546-4.44 4.983 4.983 0 0 1 2.417-.683l-.047-.024Zm-49.77 2.22 1.039.558c-3.164 7.182-2.893 15.134.201 21.853a27.087 27.087 0 0 0 2.245 3.952c.006.008.016.016.023.024.201.3.401.552.589.824.1.1.151.202.25.3.151.202.302.352.401.538.1.151.25.301.351.401.101.151.202.252.352.401.151.151.302.352.452.503.023.023.048.048.048.1.452.503.914.949 1.407 1.397l.039.039c.202.202.401.352.623.548.101.048.152.151.25.202.202.151.402.302.593.503.101.1.201.151.301.251l.603.452c.101.101.25.151.352.25.201.151.401.252.593.401.151.101.25.151.401.252.201.151.401.25.607.351.101.048.202.101.303.201.202.151.452.251.678.401.252.1.452.251.689.352.101.048.202.1.352.151.25.1.452.202.683.301.151.048.25.1.401.151.25.1.452.2.693.301.101.048.252.1.401.151.252.1.503.2.724.25.1.032.202.048.301.1.251.1.523.151.789.25.1.023.151.048.25.048.939.251 1.889.503 2.838.638.032.006.048.016.1.023.202.032.401.048.638.1.202.024.352.048.542.048.152.024.352.032.503.048.25.024.503.04.734.048l.301.024c1.883.1 3.767.007 5.608-.301 7.295-1.151 14.057-5.328 18.271-11.944.512.25 1.025.552 1.542.824-1.456 2.31-3.139 4.394-5.037 6.185-2.983 2.732-6.459 4.772-10.207 5.997H69.912c-1.487-.503-2.953-1.09-4.37-1.848-.301-.151-.608-.352-.91-.518h.002l-.024-.016c-.3-.202-.632-.401-.944-.582-.024-.024-.048-.032-.101-.048-.3-.201-.592-.401-.879-.593-.039-.024-.1-.048-.1-.101-.301-.202-.558-.401-.834-.613-.039-.032-.1-.048-.1-.1-.25-.202-.543-.401-.804-.648-.023-.024-.048-.048-.1-.048a27.12 27.12 0 0 1-1.984-1.859 9.095 9.095 0 0 1-.528-.558c-.1-.1-.151-.201-.25-.302-.202-.252-.401-.503-.632-.734-.039-.048-.1-.1-.1-.151-6.592-8.095-8.268-19.612-3.701-29.795l-.045.067Zm4.781 2.567 3.325 1.783c-.723 3.505.763 7.209 4.043 8.972l.002.001.006.003c.869.452 1.863.503 2.828.618.863 2.546 2.466 4.797 4.866 6.085l.006.002c4.405 2.356 9.665 1.141 12.889-2.466l11.012 5.906c-3.587 5.444-9.096 8.966-15.169 9.922-3.456.542-7.038.302-10.48-.845a.28.28 0 0 0-.1-.032c-.202-.048-.401-.151-.607-.202a21.76 21.76 0 0 1-.452-.151 1.72 1.72 0 0 1-.452-.2c-.202-.101-.401-.202-.613-.252-.101-.048-.202-.1-.303-.151-.3-.151-.638-.301-.949-.503-.3-.151-.613-.351-.914-.523-.1-.048-.2-.151-.351-.202a2.292 2.292 0 0 1-.524-.352c-.151-.1-.3-.202-.452-.3-.1-.101-.251-.152-.351-.252-.202-.151-.352-.25-.538-.401-.023-.023-.048-.048-.1-.048a22.243 22.243 0 0 1-6.509-8.267c-2.572-5.592-2.697-12.139-.151-18.144l.038-.001Zm-21.657.401c3.189.007 6.972 1.049 10.714 2.672a33.295 33.295 0 0 0-.251 10.9 10.308 10.308 0 0 0-4.118 2.501c-3.984 3.983-3.959 10.518.039 14.515l.001.001h.003c3.567 3.567 9.154 3.974 13.146 1.186a31.772 31.772 0 0 0 4.109 3.46c-.101.101-.201.202-.352.301H41.254c-1.235-.869-2.48-1.853-3.731-3.104-4.526-4.525-8.131-10.797-9.72-16.568-1.587-5.773-1.095-10.756 1.542-13.392 1.648-1.648 4.115-2.466 7.255-2.462l.032-.01Zm114.421 3.766a6.797 6.797 0 0 1 4.115 1.508c.151.151.351.3.503.451l7.934 7.937c.048.048.1.151.202.2.25.252.452.523.638.804v.001l.007.016c1.638 2.477 1.473 5.877-.764 7.79l-2.255 1.934-10.895-10.895v-.001a2.04 2.04 0 1 0-2.888 2.883l10.674 10.671-9.905 8.48h-26.21l4.707-5.704 5.148-6.237 1.779-2.156 11.338 11.339v-.002a2.034 2.034 0 0 0 2.938.057 2.04 2.04 0 0 0-.055-2.939l-11.51-11.508v-.001a1.903 1.903 0 0 0-.1-.101l10.447-12.66c1.06-1.281 2.547-1.869 4.19-1.849l-.038-.018ZM47.975 103.652a32.22 32.22 0 0 0 5.41 10.905c-2.36 1.407-5.4 1.19-7.466-.873-2.452-2.452-2.456-6.331-.04-8.746.593-.593 1.327-.99 2.1-1.286h-.004Zm-7.753 21.931h29.246l.023.001h18.202l.016-.001h5.171-.002l.032.001h21.251c.249.047.504.047.754 0h34.224l.023-.001h1.391c2.804 0 4.998 2.194 4.998 4.998v3.084c0 2.079-1.21 3.822-2.979 4.586h.001a2.037 2.037 0 0 0-.202.047c-.452.151-.883.302-1.361.351a4.618 4.618 0 0 1-.503.023H40.17c-.151 0-.301-.007-.503-.023a4.368 4.368 0 0 1-1.362-.351h.002a1.895 1.895 0 0 0-.201-.047c-1.768-.764-2.973-2.507-2.973-4.586v-3.084c0-2.803 2.19-4.998 4.998-4.998h.091Zm-.202 17.155c.048.002.1.006.202.006h110.337c.048 0 .1-.004.202-.006-2.407 20.108-15.374 36.945-33.293 44.655H73.357c-17.92-7.711-30.888-24.546-33.294-44.655h-.043Zm27.462 48.733h55.771c2.932 0 5.285 1.883 6.135 4.501H61.344c.848-2.618 3.204-4.501 6.135-4.501h.003Z"/></svg>