<svg width="200pt" height="200pt" viewBox="0 0 200 200" xmlns="http://www.w3.org/2000/svg"><g fill-rule="evenodd"><path d="M163.33 6.668c-17.682 0-30.004 49.19-30.004 93.332 0 44.143 12.322 93.332 30.004 93.332s30.005-49.19 30.005-93.332c0-44.143-12.322-93.332-30.005-93.332m0 193.332c-22.957 0-36.673-50.843-36.673-100S140.373 0 163.33 0 200 50.843 200 100s-13.714 100-36.67 100"/><path d="M180.097 127.587h.034zm-4.706-.933c-2.985 0-7.282.583-12.693 2.39-10.962 3.67-15.979 8.927-16.035 10.304.783.72 7.038 1.702 17.299-1.727 10.575-3.544 15.621-8.56 16.015-10.144-.56-.427-2.126-.823-4.586-.823zm-24.13 20.014c-2.985 0-5.69-.468-7.725-1.612-2.281-1.286-3.102-3.052-3.388-4.312-1.617-7.14 9.459-14.344 20.433-18.02 7.431-2.488 17.25-4.09 22.544-1.116 2.284 1.286 3.103 3.052 3.39 4.312v.004c1.613 7.14-9.461 14.343-20.437 18.016-4.57 1.53-10.052 2.728-14.818 2.728zm28.836-52.413h.034zm-4.706-.933c-2.985 0-7.282.583-12.693 2.39-10.962 3.668-15.979 8.925-16.035 10.302.783.717 7.038 1.704 17.299-1.725 10.575-3.544 15.621-8.56 16.015-10.144-.56-.427-2.126-.823-4.586-.823zm-24.13 20.012c-2.985 0-5.69-.466-7.725-1.61-2.281-1.286-3.102-3.052-3.388-4.313-1.617-7.14 9.459-14.343 20.433-18.02 7.431-2.49 17.25-4.09 22.544-1.117 2.284 1.287 3.103 3.054 3.39 4.314v.003c1.613 7.14-9.461 14.344-20.437 18.017-4.57 1.53-10.052 2.726-14.818 2.726zm28.836-52.411h.034zm-4.706-.933c-2.985 0-7.282.583-12.693 2.39-10.962 3.67-15.979 8.926-16.035 10.304.783.72 7.038 1.706 17.299-1.728 10.575-3.543 15.621-8.56 16.015-10.143-.56-.426-2.126-.823-4.586-.823zm-24.13 20.013c-2.985 0-5.69-.467-7.725-1.61-2.281-1.286-3.102-3.053-3.388-4.313-1.617-7.14 9.459-14.343 20.433-18.02 7.431-2.486 17.25-4.09 22.544-1.116 2.284 1.286 3.103 3.052 3.39 4.313v.003c1.613 7.14-9.461 14.343-20.437 18.016-4.57 1.53-10.052 2.727-14.818 2.727zM38.74 139.87c-1.456 0-2.39.22-2.71.51.047 1.02 3.901 6.253 13.452 11.01 9.975 4.973 17.099 4.996 18.493 4.149-.217-1.512-4.134-6.53-13.323-11.102-7.09-3.531-12.734-4.568-15.912-4.568zm26.485 22.756c-5.53 0-12.576-2.207-18.72-5.266-7.01-3.496-15.09-9.31-16.726-15.154-.703-2.52-.033-4.35.657-5.44 3.89-6.196 16.829-3.463 27.19 1.7 7.015 3.498 15.093 9.31 16.73 15.154.703 2.52.033 4.354-.657 5.443-1.59 2.524-4.677 3.563-8.474 3.563zm-2.909-46.328c-1.457 0-2.397.216-2.717.51.047 1.02 3.904 6.253 13.46 11.01 9.97 4.973 17.094 4.996 18.491 4.154-.219-1.514-4.137-6.53-13.328-11.108-7.083-3.53-12.732-4.566-15.906-4.566m26.484 22.76c-5.533 0-12.574-2.21-18.719-5.274-7.011-3.493-15.088-9.307-16.725-15.147-.707-2.522-.036-4.352.65-5.446 3.907-6.186 16.833-3.453 27.194 1.703 7.015 3.498 15.09 9.311 16.729 15.151.707 2.522.033 4.355-.656 5.45-1.588 2.523-4.674 3.562-8.472 3.562M85.89 92.726c-1.456 0-2.394.218-2.713.511.043 1.063 3.77 6.186 13.459 11.017 9.98 4.97 17.088 4.99 18.492 4.146-.223-1.516-4.14-6.53-13.328-11.103-7.088-3.534-12.732-4.57-15.909-4.57m26.484 22.756c-5.53 0-12.573-2.206-18.716-5.262-7.011-3.5-15.089-9.314-16.73-15.154-.703-2.52-.033-4.354.653-5.443 3.908-6.197 16.833-3.464 27.195 1.706 7.014 3.493 15.088 9.307 16.73 15.144.705 2.523.033 4.352-.654 5.446 0 .003-.004.003-.004.003-1.586 2.523-4.674 3.56-8.474 3.56"/><path d="M18.53 199.973c-5.57 0-10.227-1.536-13.61-4.919-16.233-16.228 10.028-61.879 44.792-96.64 31.104-31.102 65.238-51.089 84.902-49.639a3.329 3.329 0 0 1 3.086 3.56c-.13 1.834-1.7 3.234-3.56 3.088-17.496-1.147-50.367 18.364-79.715 47.707-31.22 31.22-57.294 74.71-44.792 87.21 12.502 12.494 56.005-13.57 87.224-44.781 11.829-11.824 22.4-24.54 30.568-36.775a3.345 3.345 0 0 1 4.628-.924 3.336 3.336 0 0 1 .92 4.626c-8.409 12.59-19.27 25.662-31.402 37.786-27.52 27.517-61.866 49.704-83.04 49.704"/></g></svg>